<?xml version="1.0" standalone="no"?>
<!DOCTYPE svg PUBLIC "-//W3C//DTD SVG 1.1//EN" "http://www.w3.org/Graphics/SVG/1.1/DTD/svg11.dtd" >
<svg xmlns="http://www.w3.org/2000/svg" width="100%" height="100%">
<metadata>
Created by FontXChange 20110222 at Wed Dec  7 14:37:43 2011
 By kjen
Copyright 2000, 2001, 2007 Adobe Systems Incorporated. All rights reserved. Adobe Caslon is either a registered trademark or a trademark of Adobe Systems Incorporated in the United States and/or other countries.
</metadata>
<defs>
<font id="ACaslonPro-Regular" horiz-adv-x="500" >
  <font-face 
    font-family="Adobe Caslon Pro"
    font-weight="400"
    font-stretch="normal"
    units-per-em="1000"
    panose-1="2 5 5 2 5 5 10 2 4 3"
    ascent="735"
    descent="-265"
    x-height="420"
    cap-height="711"
    bbox="-190 -700 1501 1002"
    underline-thickness="50"
    underline-position="-50"
    stemh="36"
    stemv="72"
    unicode-range="U+0020-FB04"
  />
<missing-glyph 
d="M0 0v700h500v-700h-500zM250 395l170 255h-340zM280 350l170 -255v510zM80 50h340l-170 255zM50 605v-510l170 255z" />
    <glyph glyph-name="T_h" unicode="Th" horiz-adv-x="1083" 
d="M642 243v302c0 40 -12 90 -52 110c-30 15 -124 17 -173 17h-28v-285c0 -14 0 -294 1 -311c2 -25 10 -40 34 -40h63c9 0 10 -3 10 -10v-21c0 -5 -1 -8 -10 -8c-10 0 -42 3 -140 3c-96 0 -138 -3 -152 -3c-8 0 -9 4 -9 10v19c0 7 1 10 7 10h68c20 0 32 12 33 24
c3 29 3 336 3 355v257h-25c-32 0 -119 0 -158 -12c-45 -14 -75 -84 -89 -116c-2 -5 -5 -6 -10 -5l-18 5c-3 1 -6 2 -4 8c10 36 45 165 47 176c2 13 6 16 10 16c5 0 8 -1 12 -4l13 -9c18 -13 28 -16 57 -17c53 -2 95 -6 189 -6h103c109 0 152 4 201 6c28 1 39 4 61 22
c12 10 15 8 21 8c5 0 13 -6 10 -25c-3 -17 -3 -241 -3 -291v-64h5c35 42 93 65 137 65c42 0 71 -13 99 -40c45 -42 43 -93 43 -147v-57c0 -56 2 -118 2 -137c0 -12 16 -15 37 -15h17c8 0 11 -2 11 -9v-15c0 -8 -2 -12 -8 -12c-7 0 -39 3 -96 3c-49 0 -85 -3 -94 -3
c-7 0 -9 3 -9 11v17c0 5 1 8 7 8h23c17 0 37 2 38 19c1 14 0 67 0 99v81c0 56 -4 96 -33 123c-20 19 -41 28 -66 28c-29 0 -65 -10 -93 -42c-9 -11 -20 -31 -20 -49v-218c0 -32 3 -41 22 -41h30c7 0 11 -2 11 -8v-17c0 -7 -2 -11 -8 -11c-8 0 -49 3 -95 3
c-50 0 -88 -3 -97 -3c-4 0 -7 3 -7 10v18c0 7 4 8 15 8h21c16 0 31 4 33 16c3 19 3 129 3 194z" />
    <glyph glyph-name="Tcommaaccent_h" unicode="&#x162;h" horiz-adv-x="1083" 
d="M642 243v302c0 40 -12 90 -52 110c-30 15 -124 17 -173 17h-28v-285c0 -14 0 -294 1 -311c2 -25 10 -40 34 -40h63c9 0 10 -3 10 -10v-21c0 -5 -1 -8 -10 -8c-10 0 -42 3 -140 3c-96 0 -138 -3 -152 -3c-8 0 -9 4 -9 10v19c0 7 1 10 7 10h68c20 0 32 12 33 24
c3 29 3 336 3 355v257h-25c-32 0 -119 0 -158 -12c-45 -14 -75 -84 -89 -116c-2 -5 -5 -6 -10 -5l-18 5c-3 1 -6 2 -4 8c10 36 45 165 47 176c2 13 6 16 10 16c5 0 8 -1 12 -4l13 -9c18 -13 28 -16 57 -17c53 -2 95 -6 189 -6h103c109 0 152 4 201 6c28 1 39 4 61 22
c12 10 15 8 21 8c5 0 13 -6 10 -25c-3 -17 -3 -241 -3 -291v-64h5c35 42 93 65 137 65c42 0 71 -13 99 -40c45 -42 43 -93 43 -147v-57c0 -56 2 -118 2 -137c0 -12 16 -15 37 -15h17c8 0 11 -2 11 -9v-15c0 -8 -2 -12 -8 -12c-7 0 -39 3 -96 3c-49 0 -85 -3 -94 -3
c-7 0 -9 3 -9 11v17c0 5 1 8 7 8h23c17 0 37 2 38 19c1 14 0 67 0 99v81c0 56 -4 96 -33 123c-20 19 -41 28 -66 28c-29 0 -65 -10 -93 -42c-9 -11 -20 -31 -20 -49v-218c0 -32 3 -41 22 -41h30c7 0 11 -2 11 -8v-17c0 -7 -2 -11 -8 -11c-8 0 -49 3 -95 3
c-50 0 -88 -3 -97 -3c-4 0 -7 3 -7 10v18c0 7 4 8 15 8h21c16 0 31 4 33 16c3 19 3 129 3 194zM340 -60c26 0 64 -24 64 -71c0 -77 -71 -130 -87 -139c-3 -3 -9 -7 -14 -7c-6 0 -9 3 -9 7c0 5 1 6 7 11c17 16 53 52 53 93c0 10 -8 20 -13 23c-7 3 -43 12 -43 49
c0 18 16 34 42 34z" />
    <glyph glyph-name="Tcaron_h" unicode="&#x164;h" horiz-adv-x="1083" 
d="M642 243v302c0 40 -12 90 -52 110c-30 15 -124 17 -173 17h-28v-285c0 -14 0 -294 1 -311c2 -25 10 -40 34 -40h63c9 0 10 -3 10 -10v-21c0 -5 -1 -8 -10 -8c-10 0 -42 3 -140 3c-96 0 -138 -3 -152 -3c-8 0 -9 4 -9 10v19c0 7 1 10 7 10h68c20 0 32 12 33 24
c3 29 3 336 3 355v257h-25c-32 0 -119 0 -158 -12c-45 -14 -75 -84 -89 -116c-2 -5 -5 -6 -10 -5l-18 5c-3 1 -6 2 -4 8c10 36 45 165 47 176c2 13 6 16 10 16c5 0 8 -1 12 -4l13 -9c18 -13 28 -16 57 -17c53 -2 95 -6 189 -6h103c109 0 152 4 201 6c28 1 39 4 61 22
c12 10 15 8 21 8c5 0 13 -6 10 -25c-3 -17 -3 -241 -3 -291v-64h5c35 42 93 65 137 65c42 0 71 -13 99 -40c45 -42 43 -93 43 -147v-57c0 -56 2 -118 2 -137c0 -12 16 -15 37 -15h17c8 0 11 -2 11 -9v-15c0 -8 -2 -12 -8 -12c-7 0 -39 3 -96 3c-49 0 -85 -3 -94 -3
c-7 0 -9 3 -9 11v17c0 5 1 8 7 8h23c17 0 37 2 38 19c1 14 0 67 0 99v81c0 56 -4 96 -33 123c-20 19 -41 28 -66 28c-29 0 -65 -10 -93 -42c-9 -11 -20 -31 -20 -49v-218c0 -32 3 -41 22 -41h30c7 0 11 -2 11 -8v-17c0 -7 -2 -11 -8 -11c-8 0 -49 3 -95 3
c-50 0 -88 -3 -97 -3c-4 0 -7 3 -7 10v18c0 7 4 8 15 8h21c16 0 31 4 33 16c3 19 3 129 3 194zM227 909l131 -56l117 55c5 3 8 4 10 1l8 -10c3 -3 2 -5 -2 -9l-126 -111c-5 -4 -10 -9 -13 -9c-4 0 -8 4 -14 9l-126 112c-3 3 -3 5 -1 8l7 9c2 3 5 3 9 1z" />
    <glyph glyph-name="f_f" unicode="ff" horiz-adv-x="588" 
d="M107 256v113h-67c-5 0 -8 5 -7 11l4 30c1 6 4 7 12 7h58v19c0 79 28 144 67 188c53 58 108 79 162 79c49 0 97 -19 120 -55c52 57 108 75 160 75c47 0 91 -18 91 -56c0 -24 -26 -43 -42 -43c-10 0 -20 2 -28 6c-9 5 -20 18 -24 23c-13 16 -27 23 -46 23
c-26 0 -53 -7 -75 -35c-37 -47 -35 -134 -35 -204v-20h121c7 0 8 -6 7 -10l-5 -33c-1 -4 -5 -5 -13 -5h-110v-89c0 -118 0 -210 1 -221c2 -17 5 -26 26 -26h57c9 0 11 -2 11 -8v-16c0 -8 -2 -12 -7 -12c-6 0 -43 3 -125 3c-35 0 -86 -3 -94 -3c-6 0 -8 2 -8 7v22
c0 5 2 7 10 7h33c19 0 23 12 24 35v188v113h-206v-89c0 -118 0 -210 1 -221c2 -17 5 -26 26 -26h27c9 0 11 -2 11 -8v-16c0 -8 -2 -12 -7 -12c-6 0 -43 3 -90 3c-55 0 -106 -3 -114 -3c-6 0 -8 2 -8 7v22c0 5 2 7 10 7h48c19 0 23 12 24 35v188zM179 447v-30h206v19
c0 78 17 135 41 168l-1 2c-31 -4 -63 14 -77 32c-10 13 -26 18 -52 18c-30 0 -59 -7 -82 -35c-37 -47 -35 -135 -35 -174z" />
    <glyph glyph-name="f_i" unicode="fi" horiz-adv-x="547" 
d="M107 256v113h-67c-5 0 -8 4 -7 10l4 31c1 6 4 7 12 7h58v17c0 99 32 159 75 206c54 60 131 83 181 83c55 0 100 -34 100 -70c1 -33 -25 -49 -47 -49c-23 0 -40 12 -61 39c-13 18 -27 30 -51 30c-27 0 -55 -11 -76 -35c-47 -51 -49 -133 -49 -201v-20h145
c38 0 75 7 110 15c9 2 14 4 20 4c7 0 7 -5 6 -12c-3 -17 -3 -80 -3 -170v-109c0 -39 0 -75 1 -86c0 -18 4 -26 19 -26h43c7 0 9 -3 9 -9v-18c0 -6 -2 -9 -8 -9c-8 0 -33 3 -96 3c-59 0 -88 -3 -98 -3c-5 0 -8 2 -8 8v20c0 6 3 8 10 8h40c10 0 15 5 16 23v88v150
c0 59 -13 75 -84 75h-122v-89c0 -118 0 -210 2 -221c0 -14 2 -26 18 -26h45c8 0 10 -2 10 -8v-18c0 -6 -2 -10 -6 -10c-6 0 -36 3 -101 3c-67 0 -106 -3 -114 -3c-6 0 -8 2 -8 7v22c0 5 2 7 10 7h52c15 0 19 10 20 35v188z" />
    <glyph glyph-name="f_j" unicode="fj" horiz-adv-x="547" 
d="M107 417v17c0 99 32 159 75 206c54 60 131 83 181 83c55 0 99 -34 100 -70c0 -33 -25 -49 -47 -49c-23 0 -40 12 -61 39c-13 18 -27 30 -51 30c-27 0 -55 -11 -76 -35c-47 -51 -49 -133 -49 -201v-20h145c38 0 75 7 110 15c9 2 14 4 20 4c7 0 7 -5 6 -12
c-8 -50 -3 -129 -3 -182v-125c0 -59 -3 -166 -14 -221c-22 -114 -94 -168 -171 -168c-30 0 -58 18 -58 47c0 16 15 42 36 42c22 0 39 -11 57 -31c10 -11 17 -15 23 -15c25 0 45 27 50 88c4 58 5 143 5 214v221c0 59 -13 75 -84 75h-122v-89c0 -118 0 -210 2 -221
c0 -14 2 -26 18 -26h45c8 0 10 -2 10 -8v-18c0 -6 -2 -10 -6 -10c-6 0 -36 3 -101 3c-67 0 -106 -3 -114 -3c-6 0 -8 2 -8 7v22c0 5 2 7 10 7h52c15 0 20 10 20 35v301h-67c-5 0 -8 4 -7 10l4 31c1 6 4 7 12 7h58z" />
    <glyph glyph-name="f_l" unicode="fl" horiz-adv-x="545" 
d="M107 256v113h-67c-5 0 -8 4 -7 10l4 31c1 6 4 7 12 7h58v17c0 99 27 163 64 209c46 58 111 80 169 80c44 0 92 -14 110 -24c7 -4 9 -10 9 -21c-2 -30 -2 -238 -2 -291v-89c0 -52 0 -203 1 -230c2 -30 9 -35 23 -35h47c10 0 12 -3 12 -9v-17c0 -6 -2 -10 -7 -10
c-6 0 -45 3 -112 3c-65 0 -94 -3 -103 -3c-5 0 -7 4 -7 10v17c0 7 2 9 13 9h39c15 0 20 11 21 22c1 34 1 206 1 264v50h-206v-89c0 -118 0 -210 1 -225c1 -13 5 -22 20 -22h49c8 0 10 -2 10 -8v-16c0 -8 -2 -12 -7 -12s-40 3 -105 3c-71 0 -106 -3 -114 -3c-6 0 -8 2 -8 7
v22c0 5 2 7 10 7h50c17 0 21 10 22 31v192zM179 437v-20h206c0 51 0 90 -3 166c-2 60 -30 90 -76 90c-37 0 -64 -10 -88 -35c-43 -45 -39 -133 -39 -201z" />
    <glyph glyph-name="f_f_i" unicode="ffi" horiz-adv-x="825" 
d="M107 256v113h-67c-5 0 -8 4 -7 11l4 30c1 6 4 7 12 7h58v19c0 79 28 144 67 188c53 58 108 79 162 79c50 0 101 -19 128 -59c48 58 126 79 177 79c55 0 100 -32 100 -68c1 -33 -25 -49 -47 -49c-23 0 -40 12 -61 39c-13 18 -27 30 -51 30c-27 0 -55 -11 -76 -35
c-47 -51 -49 -133 -49 -203v-20h145c38 0 75 7 110 15c9 2 14 4 20 4c7 0 7 -5 6 -12c-3 -17 -3 -80 -3 -170v-109c0 -39 0 -75 1 -86c0 -18 4 -26 19 -26h43c7 0 9 -3 9 -9v-17c0 -7 -2 -10 -8 -10c-8 0 -33 3 -96 3c-59 0 -88 -3 -98 -3c-5 0 -8 2 -8 8v20c0 6 3 8 10 8
h40c10 0 15 5 16 23v88v144c0 65 -13 81 -84 81h-122v-89c0 -118 0 -210 2 -221c0 -14 2 -26 18 -26h45c8 0 10 -2 10 -8v-16c0 -8 -2 -12 -6 -12c-6 0 -36 3 -108 3c-33 0 -84 -3 -92 -3c-6 0 -8 2 -8 7v22c0 5 2 7 10 7h33c19 0 23 12 24 35v188v113h-206v-89
c0 -118 0 -210 1 -221c2 -17 5 -26 26 -26h27c9 0 11 -2 11 -8v-16c0 -8 -2 -12 -7 -12c-6 0 -43 3 -90 3c-55 0 -106 -3 -114 -3c-6 0 -8 2 -8 7v22c0 5 2 7 10 7h48c19 0 23 12 24 35v188zM179 447v-30h206v19c0 78 18 132 44 165l-1 2c-35 -2 -66 15 -80 35
c-10 13 -26 18 -52 18c-30 0 -59 -7 -82 -35c-37 -47 -35 -135 -35 -174z" />
    <glyph glyph-name="f_f_l" unicode="ffl" horiz-adv-x="823" 
d="M107 256v113h-65c-6 0 -9 3 -8 13l3 28c1 6 4 7 12 7h58v19c0 79 28 144 67 188c53 58 108 79 162 79c48 0 98 -19 121 -56c47 58 106 76 161 76c44 0 92 -12 110 -22c10 -5 9 -10 9 -21c-2 -30 -2 -238 -2 -293v-89c0 -52 0 -203 1 -230c2 -30 9 -35 23 -35h47
c10 0 12 -3 12 -9v-17c0 -6 -2 -10 -7 -10c-6 0 -45 3 -112 3c-65 0 -94 -3 -103 -3c-5 0 -7 4 -7 10v17c0 7 2 9 13 9h39c15 0 20 11 21 22c1 34 1 206 1 264v50h-206v-89c0 -118 0 -210 1 -221c2 -17 5 -26 26 -26h42c9 0 11 -2 11 -8v-16c0 -8 -2 -12 -7 -12
c-6 0 -43 3 -105 3c-40 0 -91 -3 -99 -3c-6 0 -8 2 -8 7v22c0 5 2 7 10 7h33c19 0 23 12 24 35v188v113h-206v-89c0 -118 0 -210 1 -221c2 -17 5 -26 26 -26h27c9 0 11 -2 11 -8v-16c0 -8 -2 -12 -7 -12c-6 0 -43 3 -90 3c-55 0 -106 -3 -114 -3c-6 0 -8 2 -8 7v22
c0 5 2 7 10 7h48c19 0 23 12 24 35v188zM179 447v-30h206v19c0 78 17 135 41 169l-1 2c-31 -4 -63 12 -77 31c-10 13 -26 18 -52 18c-30 0 -59 -7 -82 -35c-37 -47 -35 -135 -35 -174zM457 417h206c0 53 0 92 -3 163c-2 58 -30 95 -76 95c-37 0 -64 -10 -88 -35
c-43 -45 -39 -133 -39 -203v-20z" />
    <glyph glyph-name="f_f_j" unicode="ffj" horiz-adv-x="825" 
d="M107 417v19c0 79 28 144 67 188c53 58 108 79 162 79c50 0 101 -19 128 -59c48 58 126 79 177 79c55 0 99 -32 100 -68c0 -33 -25 -49 -47 -49c-23 0 -40 12 -61 39c-13 18 -27 30 -51 30c-27 0 -55 -11 -76 -35c-47 -51 -49 -133 -49 -203v-20h145c38 0 75 7 110 15
c9 2 14 4 20 4c7 0 6 -5 6 -12c-3 -60 0 -245 0 -307c0 -59 -3 -166 -14 -221c-22 -114 -94 -168 -171 -168c-30 0 -58 18 -58 47c0 16 15 42 36 42c22 0 39 -11 57 -31c10 -11 17 -15 23 -15c25 0 45 27 50 88c4 58 5 143 5 214c0 96 -1 24 -3 215c-1 65 -13 81 -84 81
h-122v-89c0 -118 0 -210 2 -221c0 -14 2 -26 18 -26h45c8 0 10 -2 10 -8v-16c0 -8 -2 -12 -6 -12c-6 0 -36 3 -108 3c-33 0 -84 -3 -92 -3c-6 0 -8 2 -8 7v22c0 5 2 7 10 7h33c19 0 24 12 24 35v301h-206v-89c0 -118 0 -210 1 -221c2 -17 5 -26 26 -26h27c9 0 11 -2 11 -8
v-16c0 -8 -2 -12 -7 -12c-6 0 -43 3 -90 3c-55 0 -106 -3 -114 -3c-6 0 -8 2 -8 7v22c0 5 2 7 10 7h48c19 0 24 12 24 35v301h-67c-5 0 -8 4 -7 11l4 30c1 6 4 7 12 7h58zM429 601l-1 2c-35 -2 -66 15 -80 35c-10 13 -26 18 -52 18c-30 0 -59 -7 -82 -35
c-37 -47 -35 -135 -35 -174v-30h206v19c0 78 18 132 44 165z" />
    <glyph glyph-name="longs_h" unicode="&#x17f;h" horiz-adv-x="818" 
d="M107 369h-67c-5 0 -8 3 -7 11l4 30c1 6 4 7 12 7h58v19c0 99 27 165 76 220c41 46 99 67 147 67c45 0 95 -14 110 -22c9 -6 13 -11 11 -25c-5 -50 -2 -197 -2 -248v-64h5c35 42 93 65 137 65c42 0 71 -13 99 -40c45 -42 43 -93 43 -147v-57c0 -56 2 -118 2 -137
c0 -12 16 -15 37 -15h17c8 0 11 -2 11 -9v-15c0 -8 -2 -12 -8 -12c-7 0 -39 3 -96 3c-49 0 -85 -3 -94 -3c-7 0 -9 3 -9 11v17c0 5 1 8 7 8h23c17 0 37 2 38 19c1 14 0 67 0 99v81c0 56 -4 96 -33 123c-20 19 -41 28 -66 28c-29 0 -65 -10 -93 -42c-9 -11 -20 -31 -20 -49
v-218c0 -32 3 -41 22 -41h30c7 0 11 -2 11 -8v-17c0 -7 -2 -11 -8 -11c-8 0 -49 3 -92 3c-53 0 -93 -3 -102 -3c-5 0 -7 4 -7 10v17c0 7 2 9 13 9h38c11 0 21 7 22 25c1 31 1 203 1 261v63c0 71 -1 162 -4 197c-3 40 -14 95 -72 95c-16 0 -54 -4 -83 -35
c-41 -45 -39 -132 -39 -202v-20v-137c0 -118 0 -210 1 -221c2 -17 5 -26 26 -26h37c9 0 11 -2 11 -8v-16c0 -8 -2 -12 -7 -12c-6 0 -43 3 -100 3c-55 0 -106 -3 -114 -3c-6 0 -8 2 -8 7v22c0 5 2 7 10 7h48c19 0 23 12 24 35v188v113z" />
    <glyph glyph-name="longs_i" unicode="&#x17f;i" horiz-adv-x="540" 
d="M375 144v147c0 34 -6 52 -56 60c-7 1 -9 3 -9 7v9c0 3 2 5 7 7c32 12 70 28 108 49c8 4 13 6 19 6c5 0 6 -5 5 -12c-2 -17 -2 -80 -2 -163v-109c0 -39 0 -75 1 -86c2 -19 5 -26 16 -26h46c8 0 10 -3 10 -9v-17c0 -7 -2 -10 -9 -10c-8 0 -54 3 -91 3c-53 0 -92 -3 -103 -3
c-5 0 -8 2 -8 8v20c0 6 3 8 10 8h39c11 0 15 4 16 20c1 30 1 61 1 91zM107 256v113h-67c-5 0 -7 4 -6 11l3 30c1 6 4 7 12 7h58v17c0 99 32 159 75 206c53 60 125 83 171 83c55 0 100 -34 100 -70c1 -33 -25 -49 -47 -49c-23 0 -40 12 -61 39c-13 18 -27 30 -46 30
c-22 0 -50 -11 -71 -35c-47 -51 -49 -133 -49 -201v-20v-137c0 -118 0 -210 1 -221c2 -17 5 -26 26 -26h37c9 0 11 -2 11 -8v-16c0 -8 -2 -12 -7 -12c-6 0 -43 3 -100 3c-55 0 -106 -3 -114 -3c-6 0 -8 2 -8 7v22c0 5 2 7 10 7h48c19 0 23 12 24 35v188z" />
    <glyph glyph-name="longs_l" unicode="&#x17f;l" horiz-adv-x="537" 
d="M107 369h-67c-5 0 -7 4 -6 11l3 30c1 6 4 7 12 7h58v19c0 99 27 165 76 220c41 46 99 67 147 67c45 0 95 -14 110 -22c9 -6 13 -11 11 -25c-5 -50 -2 -238 -2 -289v-89c0 -52 0 -203 1 -234c1 -17 5 -31 26 -31h45c9 0 11 -3 11 -9v-17c0 -6 -2 -10 -6 -10
c-7 0 -51 3 -108 3c-59 0 -99 -3 -108 -3c-5 0 -7 4 -7 10v17c0 7 2 9 13 9h38c11 0 21 7 22 25c1 31 1 203 1 261v63c0 71 -1 162 -4 197c-3 40 -14 95 -73 95c-23 0 -53 -4 -82 -35c-41 -45 -39 -132 -39 -202v-20v-137c0 -118 0 -210 1 -221c2 -17 5 -26 26 -26h37
c9 0 11 -2 11 -8v-16c0 -8 -2 -12 -7 -12c-6 0 -43 3 -100 3c-55 0 -106 -3 -114 -3c-6 0 -8 2 -8 7v22c0 5 2 7 10 7h48c19 0 23 12 24 35v188v113z" />
    <glyph glyph-name="longs_longs" unicode="&#x17f;&#x17f;" horiz-adv-x="560" 
d="M107 369h-67c-5 0 -7 4 -6 11l3 30c1 6 4 7 12 7h58v19c0 79 28 144 67 188c53 58 108 79 159 79c47 0 98 -19 120 -55c52 55 105 75 160 75c47 0 91 -18 91 -56c0 -24 -26 -43 -42 -43c-10 0 -20 2 -28 6c-9 5 -20 18 -24 23c-13 16 -27 23 -46 23c-26 0 -53 -7 -75 -35
c-37 -47 -35 -134 -35 -204v-20v-137c0 -118 0 -210 1 -221c2 -17 5 -26 26 -26h57c9 0 11 -2 11 -8v-16c0 -8 -2 -12 -7 -12c-6 0 -43 3 -110 3c-50 0 -101 -3 -109 -3c-6 0 -8 2 -8 7v22c0 5 2 7 10 7h33c19 0 23 12 24 35v188v113h-67c-5 0 -7 4 -6 11l3 30c1 6 4 7 12 7
h58v19c0 78 17 135 42 171l-2 1c-27 -5 -57 6 -72 25c-13 16 -27 23 -58 23c-29 0 -56 -7 -78 -35c-37 -47 -35 -134 -35 -184v-20v-137c0 -118 0 -210 1 -221c2 -17 5 -26 23 -26h30c9 0 11 -2 11 -8v-16c0 -8 -2 -12 -7 -12c-6 0 -43 3 -90 3c-55 0 -106 -3 -114 -3
c-6 0 -8 2 -8 7v22c0 5 2 7 10 7h48c19 0 23 12 24 35v188v113z" />
    <glyph glyph-name="longs_t" unicode="&#x17f;t" horiz-adv-x="595" 
d="M107 369h-67c-5 0 -7 4 -6 11l3 30c1 6 4 7 12 7h58v19c0 99 28 164 66 209c49 58 109 78 160 78c56 0 90 -13 106 -20c10 -4 13 -12 13 -26c0 -60 -6 -179 -2 -260h139c6 0 9 -5 8 -9l-11 -35c-1 -5 -3 -8 -9 -8h-129c-2 -46 -3 -94 -3 -140v-100c0 -75 34 -88 52 -88
c23 0 52 4 66 13c5 3 9 2 12 -2l5 -9c3 -4 1 -8 -2 -11c-10 -10 -51 -40 -111 -40c-49 0 -97 47 -97 85c0 41 3 129 3 143v22c0 18 1 85 2 127h-61c-9 0 -15 4 -15 12s6 11 18 18c13 8 41 28 62 52c0 63 4 189 -12 203c-19 16 -38 25 -58 25c-26 0 -63 -6 -92 -37
c-40 -44 -38 -131 -38 -201v-20v-137c0 -118 0 -210 1 -221c2 -17 5 -26 26 -26h57c9 0 11 -2 11 -8v-16c0 -8 -2 -12 -7 -12c-6 0 -43 3 -120 3c-55 0 -106 -3 -114 -3c-6 0 -8 2 -8 7v22c0 5 2 7 10 7h48c19 0 23 12 24 35v188v113z" />
    <glyph glyph-name=".notdef" 
d="M0 0v700h500v-700h-500zM250 395l170 255h-340zM280 350l170 -255v510zM80 50h340l-170 255zM50 605v-510l170 255z" />
    <glyph glyph-name="A" unicode="A" horiz-adv-x="743" 
d="M465 278h-246c-10 -25 -65 -177 -70 -198c-1 -7 -3 -17 -3 -22c0 -14 12 -22 34 -22h47c7 0 10 -2 10 -7v-23c0 -7 -3 -9 -8 -9c-14 0 -55 3 -114 3c-73 0 -95 -3 -109 -3c-5 0 -7 2 -7 8v24c0 5 4 7 8 7h35c30 0 44 14 58 46c7 16 80 201 109 283c7 20 88 235 97 262
c3 10 8 23 1 34c-3 4 -7 9 -7 13c0 3 2 7 9 9c28 6 72 36 83 50c5 5 8 9 13 9c6 0 8 -6 11 -17c19 -63 97 -287 116 -351c23 -78 88 -264 102 -293c17 -33 43 -45 68 -45h33c6 0 8 -3 8 -7v-25c0 -5 -3 -7 -10 -7c-18 0 -39 3 -120 3c-83 0 -118 -3 -141 -3c-5 0 -8 3 -8 9
v23c0 6 3 7 9 7h25c28 0 37 10 30 38c-8 36 -49 164 -63 204zM232 314h221c-9 30 -90 280 -95 295c-3 7 -5 14 -8 14c-4 0 -8 -7 -11 -15c-5 -13 -100 -269 -107 -294z" />
    <glyph glyph-name="B" unicode="B" horiz-adv-x="660" 
d="M138 317v118c0 37 -2 159 -3 177c-3 58 -19 60 -65 60h-31c-6 0 -8 2 -8 7v25c0 5 2 7 8 7c16 0 61 -3 133 -3c32 0 92 3 127 3c78 0 142 -7 177 -27c57 -31 77 -77 77 -136c0 -99 -44 -124 -122 -165l3 -2c97 -32 162 -92 162 -198c0 -51 -31 -121 -77 -150
c-42 -26 -99 -36 -191 -36c-69 0 -108 3 -150 3c-50 0 -109 -3 -128 -3c-12 0 -14 2 -14 6v26c0 5 2 7 9 7h48c31 0 36 12 40 44c3 23 5 155 5 237zM226 362v-62v-138c0 -92 22 -133 105 -133c84 0 161 40 161 159c0 81 -41 134 -100 157c-41 16 -88 17 -134 17h-32z
M226 470v-74c19 -2 36 -2 53 -2c57 0 102 9 126 26c41 31 56 76 56 120c0 38 -12 78 -49 105c-36 25 -86 34 -137 34c-14 0 -25 1 -33 -1s-14 -9 -14 -18c-1 -20 -2 -107 -2 -190z" />
    <glyph glyph-name="C" unicode="C" horiz-adv-x="746" 
d="M408 -15c-118 0 -193 37 -253 92c-72 68 -107 184 -107 280c0 93 30 189 102 265c51 54 141 101 250 101c91 0 166 -34 202 -55c13 -8 18 -7 20 0l8 29c2 6 4 6 13 6s11 -2 11 -16c0 -19 20 -166 25 -194c1 -5 0 -9 -4 -10l-15 -4c-5 -1 -7 0 -10 8
c-14 33 -36 81 -78 124s-95 77 -174 77c-179 0 -251 -159 -250 -305c0 -58 18 -171 96 -257c68 -76 125 -84 192 -84c113 0 201 62 247 127c3 5 5 6 8 3l13 -10c3 -2 5 -4 2 -9c-60 -87 -157 -168 -298 -168z" />
    <glyph glyph-name="D" unicode="D" horiz-adv-x="813" 
d="M143 384v75c0 26 -3 168 -5 185c-3 24 -16 28 -43 28h-55c-5 0 -8 1 -8 7v27c0 4 3 5 7 5c13 0 57 -3 147 -3c26 0 126 3 149 3c129 0 237 -15 325 -90c65 -56 111 -139 111 -255c0 -115 -33 -191 -99 -263c-96 -106 -234 -106 -311 -106c-63 0 -139 3 -184 3
c-87 0 -127 -3 -141 -3c-5 0 -7 2 -7 7v26c0 4 3 6 8 6h67c19 0 30 8 32 24c3 21 7 246 7 324zM235 433v-71c0 -13 1 -183 2 -245c0 -20 4 -36 17 -56c16 -21 56 -32 106 -32c102 0 185 44 235 108c42 52 73 134 73 225c0 78 -34 168 -82 221c-52 57 -140 96 -251 96
c-22 0 -63 0 -80 -10c-14 -9 -18 -25 -19 -47c-1 -42 -1 -173 -1 -189z" />
    <glyph glyph-name="E" unicode="E" horiz-adv-x="690" 
d="M238 676v-293c8 0 115 4 127 6c29 5 37 13 46 44c3 10 7 30 8 49c0 5 3 7 7 7l25 -1c5 0 7 -4 6 -8c-3 -17 -3 -99 -3 -114c0 -35 4 -83 6 -104c0 -5 -2 -7 -6 -8l-22 -3c-5 -1 -7 2 -8 9c-2 13 -8 36 -11 47c-6 21 -17 36 -43 39c-47 5 -116 5 -132 5v-62
c0 -54 2 -151 2 -171c1 -52 26 -72 57 -78c20 -4 49 -7 74 -7c17 0 67 1 88 3c17 2 61 13 87 35c12 10 68 82 82 105c3 5 6 9 12 6l16 -9c5 -3 5 -6 2 -14l-53 -147c-3 -9 -10 -15 -22 -15c-5 0 -27 1 -87 2c-60 0 -157 1 -313 1c-37 0 -65 -1 -85 -1c-21 -1 -34 -2 -43 -2
c-6 0 -9 2 -9 7v27c0 4 3 5 10 5h40c46 0 50 7 50 44v237v98c0 83 -2 208 -3 218c-4 32 -14 39 -51 39h-36c-5 0 -8 1 -8 7v27c0 3 2 5 7 5c22 0 57 -3 123 -3h44c99 0 198 1 297 1c16 0 35 2 40 2s7 -2 8 -5c4 -14 48 -151 51 -161c1 -4 1 -7 -3 -9l-15 -8c-3 -2 -7 1 -8 3
c-2 4 -76 99 -100 114c-21 14 -49 26 -76 27z" />
    <glyph glyph-name="F" unicode="F" horiz-adv-x="598" 
d="M140 376v70c0 44 -2 185 -2 197c0 19 -14 29 -41 29h-58c-4 0 -7 2 -7 6v27c0 4 3 6 7 6c6 0 18 -1 41 -1c23 -1 57 -2 105 -2c17 0 368 -1 384 4c3 -17 33 -152 40 -178c1 -4 0 -6 -2 -7l-18 -7c-3 -1 -5 1 -8 7c-9 16 -35 53 -64 92c-17 23 -41 40 -70 47
c-25 6 -184 9 -214 9c0 -13 -1 -214 -1 -275v-50c14 0 119 3 131 5c22 4 35 13 44 44c3 10 7 31 10 49c1 4 3 7 7 7l20 -1c4 0 6 -3 6 -7c-2 -17 -2 -100 -2 -114c0 -36 3 -84 5 -104c0 -5 -2 -7 -7 -8l-19 -4c-5 -1 -6 2 -7 7c-1 8 -8 38 -11 49c-7 24 -19 36 -41 39
c-47 6 -120 6 -136 6v-37c0 -30 1 -198 1 -213c0 -27 5 -32 39 -32h49c6 0 9 -2 9 -6v-25c0 -6 -2 -8 -8 -8c-10 0 -50 3 -136 3c-78 0 -116 -3 -131 -3c-4 0 -6 2 -6 7v27c0 4 3 5 7 5h45c26 0 34 4 35 22c2 20 4 146 4 318z" />
    <glyph glyph-name="G" unicode="G" horiz-adv-x="818" 
d="M613 147v74c0 36 -11 46 -41 46h-42c-5 0 -7 2 -7 6v25c0 6 1 8 6 8c14 0 59 -3 127 -3c72 0 104 3 118 3c7 0 8 -3 8 -7v-24c0 -4 -1 -8 -7 -8h-39c-18 0 -31 -7 -31 -38v-132c0 -14 4 -24 4 -32s-6 -12 -16 -16c-81 -41 -161 -64 -273 -64c-89 0 -211 33 -280 114
c-61 69 -92 154 -92 275c0 91 39 188 113 254c71 61 161 95 281 95c86 0 163 -32 197 -58c11 -9 17 -7 23 1l15 18c4 4 8 9 14 9c7 0 9 -5 9 -12l3 -191c0 -5 -1 -9 -5 -9l-18 -2c-4 0 -7 3 -8 8c-8 28 -25 75 -60 118c-30 37 -92 82 -182 82c-69 0 -131 -17 -191 -81
c-54 -57 -88 -140 -88 -230c0 -118 33 -221 95 -280c50 -48 111 -71 176 -71c80 0 129 14 164 34c23 14 27 36 27 88z" />
    <glyph glyph-name="H" unicode="H" horiz-adv-x="853" 
d="M134 351v43c0 62 -2 197 -2 213c0 51 -7 65 -44 65h-47c-5 0 -6 2 -6 8v24c0 5 3 7 8 7c20 0 52 -3 140 -3c78 0 114 3 133 3c7 0 10 -1 10 -5v-26c0 -6 -2 -8 -8 -8h-51c-34 0 -39 -17 -39 -57c0 -14 -2 -146 -2 -202v-17c0 -5 3 -8 12 -8h370c15 0 20 2 20 15v10
c0 57 -3 196 -3 208c0 32 -4 51 -33 51h-52c-5 0 -7 2 -7 7v26c0 4 1 6 6 6c21 0 64 -3 132 -3s109 3 128 3c7 0 8 -2 8 -8v-24c0 -6 -2 -7 -8 -7h-45c-29 0 -32 -17 -32 -53c0 -14 -2 -183 -2 -220v-34c0 -32 2 -222 3 -279c0 -36 10 -50 40 -50h44c7 0 9 -2 9 -7v-24
c0 -6 -2 -8 -8 -8c-19 0 -53 3 -126 3c-87 0 -119 -3 -149 -3c-4 0 -6 3 -6 7v25c0 5 2 7 8 7h63c24 0 27 19 27 46c1 47 3 208 3 244v14c0 11 -5 12 -22 12h-366c-11 0 -14 -3 -14 -10v-21c0 -27 1 -181 2 -251c1 -24 11 -34 32 -34h49c6 0 8 -2 8 -7v-25c0 -5 -2 -7 -8 -7
c-19 0 -54 3 -126 3c-86 0 -116 -3 -139 -3c-5 0 -7 2 -7 7v26c0 4 3 6 7 6h59c25 0 28 24 28 48c1 47 3 241 3 267z" />
    <glyph glyph-name="I" unicode="I" horiz-adv-x="371" 
d="M140 349v70c0 24 -3 204 -4 219c-2 24 -12 34 -50 34h-58c-5 0 -8 2 -8 6v27c0 4 3 6 7 6c12 0 63 -3 156 -3c89 0 121 3 135 3c5 0 7 -3 7 -7v-25c0 -5 -3 -7 -8 -7h-47c-20 0 -35 -8 -35 -28c0 -10 -3 -231 -3 -243v-77c0 -10 3 -241 3 -252c0 -31 15 -36 47 -36h41
c5 0 8 -2 8 -7v-26c0 -4 -3 -6 -9 -6c-12 0 -52 3 -139 3c-95 0 -138 -3 -149 -3c-5 0 -8 2 -8 6v27c0 4 3 6 8 6h56c20 0 41 3 45 29c2 15 5 231 5 284z" />
    <glyph glyph-name="J" unicode="J" horiz-adv-x="332" 
d="M126 332v70c0 16 0 193 -3 236c-1 22 -10 34 -49 34h-44c-4 0 -7 1 -7 5v27c0 5 1 7 7 7c11 0 48 -3 143 -3c85 0 120 3 135 3c6 0 8 -2 8 -6v-25c0 -6 -2 -8 -8 -8h-50c-27 0 -36 -8 -37 -29c-1 -16 -3 -144 -3 -265v-46c0 -127 -4 -225 -4 -248c0 -66 -7 -116 -37 -167
c-41 -71 -110 -136 -186 -136c-18 0 -68 14 -68 58c0 30 24 48 56 48c34 0 67 -22 78 -53c22 7 44 30 55 63c25 72 14 362 14 435z" />
    <glyph glyph-name="K" unicode="K" horiz-adv-x="712" 
d="M134 369v58c0 18 -3 213 -3 221c0 11 -5 24 -30 24h-35c-6 0 -8 2 -8 7v26c0 4 2 6 8 6c12 0 42 -3 117 -3c67 0 100 3 113 3c6 0 8 -2 8 -6v-26c0 -5 -2 -7 -7 -7h-42c-20 0 -28 -7 -28 -31c0 -15 -3 -171 -3 -220v-50h18c16 0 27 4 41 14c22 16 207 252 216 265
c9 14 4 24 -9 24h-14c-4 0 -5 2 -5 7v23c0 5 2 7 6 7c12 0 53 -3 99 -3c29 0 64 3 76 3c5 0 7 -2 7 -5v-27c0 -5 -3 -7 -8 -7h-21c-14 0 -37 -6 -55 -19c-37 -27 -190 -204 -233 -260c9 -11 259 -321 268 -332c17 -21 46 -25 70 -25h35c5 0 7 -3 7 -7v-25c0 -5 -2 -7 -8 -7
c-10 0 -48 3 -123 3c-83 0 -122 -3 -136 -3c-4 0 -6 2 -6 6v26c0 4 2 6 6 6h15c19 0 21 17 16 27c-9 20 -186 254 -199 264c-16 13 -29 15 -44 15h-19v-72c0 -50 2 -197 3 -211c1 -13 10 -22 23 -22h44c5 0 8 -2 8 -6v-26c0 -4 -1 -7 -6 -7c-12 0 -42 3 -113 3
c-79 0 -111 -3 -120 -3c-5 0 -7 2 -7 7v26c0 5 3 6 7 6h41c18 0 25 8 27 18c1 9 3 190 3 315z" />
    <glyph glyph-name="L" unicode="L" horiz-adv-x="662" 
d="M140 392v56c0 64 -2 170 -3 188c-2 26 -7 36 -37 36h-47c-6 0 -7 5 -7 10v22c0 5 1 7 7 7c11 0 47 -3 130 -3c97 0 139 3 148 3c8 0 9 -3 9 -8v-23c0 -5 -2 -8 -10 -8h-60c-31 0 -35 -10 -35 -39c0 -13 -3 -164 -3 -234v-86c0 -17 0 -233 3 -274c22 -2 220 -4 251 0
c59 9 119 129 133 168c2 4 4 6 8 4l16 -6c3 -2 3 -3 2 -9c-3 -7 -43 -172 -49 -199c-13 1 -91 2 -180 2c-89 1 -187 1 -241 1c-39 0 -68 -1 -89 -1c-20 -1 -32 -2 -39 -2s-8 2 -8 7v25c0 5 1 7 7 7h48c37 0 43 14 43 27c0 19 3 268 3 329z" />
    <glyph glyph-name="M" unicode="M" horiz-adv-x="981" 
d="M265 694l222 -534c14 15 114 254 122 267c7 14 116 249 119 269c2 11 13 12 23 12c133 0 167 3 178 3c5 0 6 -3 6 -7v-23c0 -6 -1 -9 -8 -9h-44c-30 0 -33 -18 -33 -41c0 -29 -3 -172 -3 -239v-70c0 -50 3 -212 3 -232c0 -38 9 -54 34 -54h59c6 0 7 -3 7 -7v-23
c0 -6 -1 -9 -9 -9c-12 0 -30 3 -140 3c-92 0 -131 -3 -144 -3c-7 0 -8 3 -8 9v23c0 5 1 7 8 7h68c17 0 26 6 28 36c1 12 2 186 2 260v64c0 66 0 244 -3 253h-2c-10 -13 -152 -328 -157 -338c-6 -12 -117 -267 -121 -276s-12 -24 -20 -24c-6 0 -11 8 -15 18
c-3 7 -131 323 -136 335c-19 46 -110 270 -124 282c-4 -14 -6 -267 -6 -279s-1 -223 2 -258c5 -57 14 -73 46 -73h50c6 0 7 -3 7 -7v-25c0 -4 -1 -7 -9 -7c-11 0 -38 3 -121 3c-85 0 -120 -3 -129 -3c-8 0 -9 1 -9 9v24c0 3 1 6 6 6h53c38 0 47 26 53 60
c12 71 15 327 15 345c0 14 0 165 -1 194c-1 23 0 37 -41 37h-61c-6 0 -7 3 -7 7v26c0 3 1 6 7 6c10 0 37 -3 122 -3c47 0 73 3 85 3c15 0 21 -4 26 -17z" />
    <glyph glyph-name="N" unicode="N" horiz-adv-x="795" 
d="M135 408v170c0 59 -30 92 -66 93l-41 1c-5 0 -6 4 -6 7v26c0 4 1 6 6 6s13 -1 28 -1c15 -1 37 -2 71 -2s55 2 67 2c13 0 21 -4 29 -13c5 -6 199 -258 210 -272s180 -221 204 -253h4v119c0 89 -1 138 -3 188c-1 39 -6 137 -12 154c-8 25 -27 39 -55 39h-32c-4 0 -6 2 -6 7
v26c0 4 2 6 6 6c14 0 46 -3 110 -3c60 0 84 3 97 3c7 0 8 -3 8 -7v-25c0 -4 -2 -7 -6 -7h-27c-27 0 -37 -17 -39 -55c-4 -67 -4 -166 -4 -231v-374c0 -14 -1 -24 -5 -24c-12 0 -21 12 -24 16c-1 2 -60 76 -122 154c-70 87 -143 179 -149 185c-11 10 -195 241 -201 249h-6
v-222c0 -93 8 -256 10 -276c4 -39 10 -58 37 -58h30c7 0 8 -3 8 -9v-22c0 -6 -1 -8 -8 -8c-10 0 -70 3 -97 3c-21 0 -90 -3 -100 -3c-4 0 -5 2 -5 7v26c0 3 1 6 6 6h34c29 0 40 12 45 61c2 19 4 133 4 311z" />
    <glyph glyph-name="O" unicode="O" horiz-adv-x="821" 
d="M410 -15c-49 0 -136 16 -215 65c-71 43 -147 151 -147 297c0 61 16 156 93 249c88 107 187 127 271 127c63 0 145 -13 224 -79c73 -63 137 -161 137 -299c0 -73 -23 -149 -75 -219c-61 -81 -150 -141 -288 -141zM418 23c220 0 257 225 257 314c0 219 -156 348 -267 348
c-15 0 -83 12 -158 -59c-67 -64 -100 -165 -100 -247c0 -263 183 -356 268 -356z" />
    <glyph glyph-name="P" unicode="P" horiz-adv-x="607" 
d="M225 317v-52c0 -47 1 -183 2 -197c2 -22 12 -32 33 -32h64c7 0 8 -3 8 -7v-24c0 -5 -1 -8 -9 -8c-14 0 -45 3 -139 3c-88 0 -127 -3 -138 -3c-7 0 -8 3 -8 7v25c0 5 1 7 6 7h43c34 0 41 5 44 32c1 10 4 166 4 282v115c0 66 -1 175 -2 185c-2 20 -12 22 -39 22h-57
c-5 0 -6 2 -6 8v24c0 5 1 7 6 7c11 0 47 -3 142 -3c18 0 77 3 110 3c113 0 166 -11 223 -50c47 -32 76 -88 76 -145c0 -126 -95 -204 -254 -204c-37 0 -77 1 -109 5zM225 672v-319c20 -6 53 -9 92 -9c61 0 115 33 141 68c22 29 26 66 26 101c0 131 -122 166 -181 166
c-17 0 -58 0 -78 -7z" />
    <glyph glyph-name="Q" unicode="Q" horiz-adv-x="815" 
d="M402 723c117 2 207 -42 269 -107c68 -71 98 -162 96 -252c2 -107 -43 -204 -103 -263c-59 -59 -111 -87 -174 -108v-4c103 -38 187 -58 256 -73c253 -57 292 -46 311 -46c28 0 50 13 62 22c3 3 6 5 9 1l7 -10c2 -3 1 -7 -3 -10c-13 -13 -78 -81 -134 -81
c-30 0 -92 2 -267 47c-100 25 -245 78 -384 143c-20 7 -110 22 -202 120c-54 55 -97 144 -97 264c0 96 42 194 115 261c77 70 186 98 239 96zM411 17c202 0 256 231 256 316c0 120 -33 219 -86 269c-61 58 -112 85 -185 85c-46 0 -104 -9 -160 -65
c-66 -66 -87 -165 -87 -248c0 -134 58 -231 107 -278c76 -72 127 -79 155 -79z" />
    <glyph glyph-name="R" unicode="R" horiz-adv-x="697" 
d="M139 358v97c0 74 0 138 -1 167c-1 33 -13 50 -38 50h-40c-5 0 -6 3 -6 7v25c0 5 1 7 6 7c9 0 40 -3 124 -3c56 0 149 3 167 3c83 0 149 -25 187 -61c33 -32 52 -77 52 -114c0 -125 -57 -172 -185 -200v-2c24 -9 38 -27 46 -38c12 -13 83 -115 91 -128
c5 -10 69 -101 88 -115c21 -15 44 -17 72 -17c7 0 8 -4 8 -8v-22c0 -6 -1 -9 -8 -9c-8 0 -34 3 -78 3c-29 0 -66 -2 -81 -3c-11 10 -33 44 -42 57c-8 12 -62 107 -67 115c-4 7 -52 79 -64 93c-26 31 -50 58 -108 58c-9 0 -19 0 -33 -3v-56c0 -59 1 -171 2 -186
c2 -21 10 -39 25 -39h63c7 0 8 -3 8 -8v-22c0 -7 -1 -9 -11 -9c-11 0 -36 3 -131 3c-91 0 -114 -3 -125 -3c-8 0 -8 3 -8 8v23c0 5 0 8 5 8h41c22 0 39 7 39 34c2 99 2 193 2 288zM229 639v-283c15 -3 26 -4 45 -4c182 0 217 125 217 167c0 46 -21 90 -50 114
c-39 31 -83 46 -166 46c-12 0 -25 -2 -34 -8c-7 -5 -12 -16 -12 -32z" />
    <glyph glyph-name="S" unicode="S" horiz-adv-x="548" 
d="M292 -15c-70 0 -119 21 -159 52c-12 9 -18 12 -23 12c-6 0 -10 -7 -16 -17c-6 -11 -11 -12 -18 -12c-6 0 -11 5 -9 16c4 25 14 152 17 181c1 6 3 6 7 6l15 -1c4 0 6 -2 6 -8c1 -32 3 -65 36 -116c30 -47 85 -74 140 -74c60 0 136 37 136 127c0 103 -74 141 -154 169
c-31 11 -103 36 -146 81c-33 33 -50 80 -50 146c0 50 31 99 62 128c36 34 86 48 140 48c57 0 101 -17 118 -25c9 -5 14 -4 19 1l13 12c5 4 8 6 13 6s8 -8 8 -17c0 -35 13 -137 14 -159c0 -5 -1 -7 -5 -8l-12 -3c-3 -1 -5 0 -6 3c-8 29 -21 68 -62 111c-27 29 -62 43 -109 43
c-89 0 -121 -66 -121 -117c0 -28 6 -61 31 -87c29 -29 85 -51 114 -60c69 -22 125 -39 161 -83c26 -31 44 -70 44 -136c0 -118 -72 -219 -204 -219z" />
    <glyph glyph-name="T" unicode="T" horiz-adv-x="702" 
d="M297 415v257h-25c-32 0 -119 0 -158 -12c-45 -14 -75 -84 -89 -116c-2 -5 -5 -6 -10 -5l-18 5c-3 1 -6 2 -4 8c10 36 45 165 47 176c2 13 6 16 10 16c5 0 8 -1 12 -4l13 -9c18 -13 28 -16 57 -17c53 -2 95 -6 189 -6h48c109 0 152 4 201 6c22 1 35 4 52 14l19 12
c5 3 8 4 12 4c5 0 7 -3 9 -16c2 -12 21 -136 29 -180c1 -5 -1 -7 -6 -8l-16 -4c-4 -1 -5 0 -8 7c-8 19 -38 96 -71 112c-30 15 -124 17 -173 17h-28v-285c0 -14 0 -294 1 -311c2 -25 10 -40 34 -40h63c9 0 10 -3 10 -10v-21c0 -5 -1 -8 -10 -8c-10 0 -42 3 -140 3
c-96 0 -138 -3 -152 -3c-8 0 -9 4 -9 10v19c0 7 1 10 7 10h68c20 0 32 12 33 24c3 29 3 336 3 355z" />
    <glyph glyph-name="U" unicode="U" horiz-adv-x="746" 
d="M370 -15c-52 0 -102 7 -135 21c-68 27 -103 71 -119 134c-12 45 -16 112 -16 243v238c0 35 -7 51 -38 51h-47c-6 0 -7 2 -7 9v22c0 6 1 8 9 8c10 0 59 -3 137 -3s126 3 137 3c8 0 9 -2 9 -6v-26c0 -5 -1 -7 -8 -7h-50c-29 0 -46 -19 -48 -41c-1 -9 -2 -79 -2 -130v-66
c0 -53 4 -180 5 -212c1 -46 9 -93 32 -127c37 -54 101 -72 159 -72c57 0 115 19 150 55c39 42 52 102 52 176v214c0 76 -2 134 -5 159c-3 26 -19 44 -45 44h-44c-6 0 -7 3 -7 8v24c0 5 1 7 7 7c10 0 56 -3 123 -3c69 0 101 3 110 3s10 -4 10 -7v-22c0 -6 -1 -10 -6 -10h-41
c-37 0 -40 -28 -43 -40c-2 -10 -2 -152 -2 -166s-2 -189 -5 -228c-6 -82 -28 -145 -84 -193c-40 -37 -101 -60 -188 -60z" />
    <glyph glyph-name="V" unicode="V" horiz-adv-x="706" 
d="M28 679v25c0 5 1 7 7 7c10 0 43 -3 121 -3c84 0 129 3 138 3s10 -3 10 -7v-23c0 -5 -1 -9 -8 -9h-48c-28 0 -42 -9 -42 -26c0 -8 1 -20 4 -34c6 -36 43 -155 61 -211c12 -38 70 -210 93 -271h2c21 47 99 253 107 276c10 27 48 142 63 186c8 25 14 43 14 57
c0 12 -7 23 -32 23h-26c-4 0 -5 3 -5 9v23c0 5 1 7 6 7c9 0 55 -3 118 -3c73 0 98 3 107 3c6 0 7 -2 7 -7v-25c0 -4 -1 -7 -7 -7h-27c-33 0 -52 -16 -71 -39c-26 -32 -106 -237 -123 -279c-12 -33 -141 -351 -146 -361c-4 -8 -9 -13 -14 -13c-8 0 -12 10 -17 23
c-32 92 -113 320 -126 356l-10 34c-24 71 -71 216 -84 246c-10 23 -20 33 -41 33h-26c-4 0 -5 3 -5 7z" />
    <glyph glyph-name="W" unicode="W" horiz-adv-x="1045" 
d="M175 636l161 -506h2c4 17 153 444 157 486c1 8 -6 25 -15 37s-22 19 -40 19h-25c-5 0 -6 2 -6 8v24c0 4 1 7 7 7c9 0 44 -3 122 -3c84 0 122 3 132 3c6 0 7 -3 7 -7v-25c0 -4 -1 -7 -7 -7h-40c-25 0 -34 -22 -28 -40l156 -502h2c11 32 156 454 156 511c0 16 -8 31 -35 31
h-27c-6 0 -7 3 -7 9v23c0 4 1 7 8 7c10 0 45 -3 107 -3c56 0 85 3 93 3c6 0 7 -2 7 -7v-25c0 -4 0 -7 -7 -7h-24c-17 0 -31 -11 -40 -27c-8 -14 -217 -591 -237 -639c-5 -11 -10 -26 -21 -26c-12 0 -17 8 -22 22l-185 549h-2c-9 -27 -191 -541 -197 -552
c-5 -10 -11 -19 -20 -19c-8 0 -14 4 -18 16l-223 640c-10 28 -24 36 -43 36h-34c-5 0 -6 4 -6 8v24c0 5 1 7 8 7c8 0 39 -3 107 -3c72 0 113 3 123 3c7 0 8 -3 8 -6v-25c0 -5 -1 -8 -8 -8h-17c-26 0 -35 -14 -29 -36z" />
    <glyph glyph-name="X" unicode="X" horiz-adv-x="697" 
d="M229 30v-24c0 -6 -1 -9 -8 -9c-10 0 -49 3 -130 3c-59 0 -99 -3 -108 -3c-5 0 -6 4 -6 9v23c0 4 1 7 6 7h39c16 0 37 12 57 29c61 54 178 232 227 291c-35 52 -186 278 -209 301c-9 9 -26 15 -45 15h-44c-4 0 -5 4 -5 8v23c0 5 1 8 5 8c10 0 56 -3 142 -3
c100 0 142 3 151 3c7 0 8 -4 8 -7v-23c0 -6 -1 -9 -9 -9h-35c-45 0 -42 -26 -29 -47c9 -15 101 -170 125 -203c28 35 141 190 151 209c11 20 6 41 -20 41h-21c-5 0 -6 4 -6 9v23c0 5 1 7 7 7c11 0 52 -3 109 -3c55 0 91 3 101 3c7 0 8 -4 8 -7v-23c0 -7 -1 -9 -6 -9h-42
c-22 0 -33 -7 -42 -13c-19 -13 -178 -216 -216 -268c13 -19 206 -319 216 -328c23 -21 47 -27 66 -27h33c7 0 8 -3 8 -7v-24c0 -4 -1 -8 -8 -8c-8 0 -43 3 -127 3c-80 0 -134 -3 -141 -3s-8 3 -8 7v25c0 4 1 7 6 7h39c20 0 30 6 24 19c-6 15 -144 240 -165 269
c-39 -55 -157 -225 -164 -243c-11 -28 -5 -45 19 -45h39c7 0 8 -3 8 -6z" />
    <glyph glyph-name="Y" unicode="Y" horiz-adv-x="665" 
d="M369 317v-131c0 -39 3 -104 4 -115c3 -32 18 -35 44 -35h39c7 0 7 -3 7 -7v-23c0 -6 0 -9 -7 -9c-12 0 -51 3 -135 3c-90 0 -121 -3 -132 -3c-4 0 -6 3 -6 8v24c0 4 1 7 7 7h49c26 0 34 10 35 25c1 14 3 93 3 186v58c-13 26 -179 308 -208 343c-13 15 -36 24 -52 24h-25
c-6 0 -7 3 -7 7v26c0 4 1 6 7 6c9 0 56 -3 117 -3c103 0 139 3 149 3c6 0 7 -2 7 -5v-25c0 -5 -1 -9 -7 -9h-33c-30 0 -34 -9 -30 -33c3 -16 126 -233 156 -290c37 58 177 266 181 284c4 17 9 39 -33 39h-27c-6 0 -7 3 -7 9v24c0 4 1 6 7 6c10 0 51 -3 118 -3
c59 0 81 3 90 3c7 0 8 -2 8 -6v-24c0 -6 -1 -9 -8 -9h-25c-15 0 -32 -6 -49 -22c-20 -19 -199 -278 -237 -333z" />
    <glyph glyph-name="Z" unicode="Z" horiz-adv-x="702" 
d="M273 0h-211c-8 0 -19 0 -19 8c0 6 1 14 6 19c52 61 466 637 473 649h-271c-14 0 -26 -5 -40 -16c-21 -17 -103 -118 -122 -149c-3 -4 -6 -3 -9 -1l-13 6c-3 2 -4 3 -2 9l63 180c3 9 7 11 12 11c4 0 12 -1 20 -2c47 -6 188 -6 271 -6c36 0 72 2 108 3c36 2 71 3 106 3
c16 0 18 -11 7 -24c-19 -22 -459 -623 -478 -654h352c37 23 127 131 140 148c3 3 5 4 9 2l14 -8c3 -2 4 -5 2 -9c-13 -25 -63 -146 -71 -173c-2 -7 -8 -11 -13 -11c-4 0 -12 2 -25 4c-55 7 -214 11 -309 11z" />
    <glyph glyph-name="a" unicode="a" horiz-adv-x="427" 
d="M336 178v-59c0 -57 12 -75 30 -75c16 0 30 8 35 15c4 5 6 7 10 4l10 -8c3 -3 5 -8 -1 -18c-8 -15 -27 -49 -78 -49c-36 0 -62 26 -71 67h-2c-21 -25 -54 -46 -99 -61c-19 -6 -37 -6 -59 -6c-24 0 -60 20 -60 83c0 46 21 86 100 121c45 20 97 44 113 58v64
c-2 17 -3 43 -14 56s-31 22 -60 22c-20 0 -51 -8 -65 -21s-5 -28 -5 -46c0 -35 -12 -57 -53 -57c-16 0 -24 9 -24 32c0 32 28 70 69 94c42 25 77 35 122 35c47 0 66 -14 80 -27c21 -21 22 -44 22 -71v-153zM263 97v123c-36 -27 -134 -47 -134 -130c0 -37 22 -55 52 -55
c29 0 82 35 82 62z" />
    <glyph glyph-name="b" unicode="b" horiz-adv-x="504" 
d="M72 170v369c0 67 -11 81 -47 93l-10 3c-11 3 -13 5 -13 8v8c0 3 2 5 8 8c29 13 81 39 106 55c7 5 15 9 21 9c7 0 9 -5 8 -17c-1 -8 -1 -122 -1 -211v-116c32 31 89 50 138 50c88 0 183 -71 183 -214c0 -117 -94 -227 -208 -227c-56 0 -95 12 -118 26l-40 -22
c-4 -3 -7 -4 -13 -3l-12 3c-4 1 -5 3 -4 8c2 14 2 97 2 170zM144 345v-130c0 -83 3 -113 15 -145c10 -24 52 -50 95 -50c60 0 134 41 134 172c0 97 -51 189 -149 189c-37 0 -73 -13 -95 -36z" />
    <glyph glyph-name="c" unicode="c" horiz-adv-x="411" 
d="M228 397c-57 0 -118 -52 -118 -155c0 -54 24 -115 51 -152c33 -43 75 -51 109 -51c50 0 76 11 110 43c2 2 5 3 8 0l10 -10c4 -4 5 -7 0 -13c-29 -33 -93 -71 -161 -71c-53 0 -109 12 -155 70c-37 49 -45 91 -45 136c0 117 82 235 214 235c104 0 136 -60 136 -81
c-1 -23 -16 -35 -37 -35c-23 0 -40 13 -55 40c-22 41 -43 44 -67 44z" />
    <glyph glyph-name="d" unicode="d" horiz-adv-x="521" 
d="M363 414v195c0 38 -7 50 -63 59c-6 1 -7 3 -7 7v17c0 4 2 6 8 7c39 8 91 17 110 21c9 1 16 3 23 3c5 0 6 -7 5 -18c-3 -50 -4 -195 -4 -322v-221c0 -37 2 -81 10 -91c9 -10 30 -16 44 -17s18 -2 20 -7l2 -8c1 -6 -1 -9 -7 -11l-113 -38c-6 -2 -11 1 -13 8l-13 44
c-32 -32 -96 -54 -147 -54c-33 0 -71 -2 -118 46c-51 50 -63 95 -63 162c0 62 23 123 70 170c39 42 93 63 149 63c41 0 77 -6 107 -15zM363 120v172c0 14 0 33 -9 49c-14 27 -46 54 -105 54c-31 0 -65 -9 -91 -36c-39 -42 -46 -95 -46 -133c0 -113 78 -195 136 -195
c56 0 99 29 109 55c5 15 6 23 6 34z" />
    <glyph glyph-name="e" unicode="e" horiz-adv-x="426" 
d="M362 266h-247c-2 -9 -3 -25 -3 -48c0 -98 62 -172 142 -172c61 0 104 35 121 68c2 4 6 6 9 5l13 -7c3 -1 5 -4 0 -15c-18 -40 -70 -109 -159 -109c-57 0 -120 17 -157 71c-35 51 -44 88 -44 158c0 39 10 106 63 159c43 44 93 53 143 53c115 0 147 -108 147 -147
c0 -14 -12 -16 -28 -16zM119 296h155c19 0 27 5 27 14c0 23 -12 89 -77 89c-44 0 -86 -29 -105 -103z" />
    <glyph glyph-name="f" unicode="f" horiz-adv-x="310" 
d="M107 256v113h-69c-5 0 -7 2 -5 11l4 30c1 6 4 7 12 7h58v19c0 99 28 164 67 208c53 58 108 79 164 79c47 0 91 -18 91 -56c0 -24 -26 -43 -42 -43c-10 0 -20 2 -28 6c-9 5 -20 18 -24 23c-13 16 -27 23 -46 23c-26 0 -53 -7 -75 -35c-37 -47 -35 -134 -35 -204v-20h121
c7 0 8 -6 7 -10l-5 -33c-1 -4 -5 -5 -13 -5h-110v-89c0 -118 0 -210 1 -221c2 -17 5 -26 26 -26h57c9 0 11 -2 11 -8v-16c0 -8 -2 -12 -7 -12c-6 0 -43 3 -120 3c-55 0 -106 -3 -114 -3c-6 0 -8 2 -8 7v22c0 5 2 7 10 7h48c19 0 23 12 24 35v188z" />
    <glyph glyph-name="g" unicode="g" horiz-adv-x="485" 
d="M218 -272c-48 0 -105 5 -153 32c-36 22 -51 48 -51 81c0 56 57 99 105 120v4c-42 9 -67 40 -67 70c0 48 55 82 90 95v2c-39 17 -93 63 -93 152c0 65 58 145 171 145c76 0 116 -46 126 -58c27 19 61 39 94 39s49 -22 47 -42c0 -19 -16 -37 -39 -37c-17 0 -27 8 -35 15
c-6 4 -13 9 -21 9c-7 0 -19 0 -32 -6c8 -20 15 -42 15 -76c0 -39 -11 -77 -37 -108c-26 -29 -83 -50 -116 -50c-22 0 -36 1 -51 5c-20 -8 -53 -28 -53 -56c0 -41 50 -38 117 -34c82 4 132 -5 172 -36c43 -32 48 -72 49 -96c0 -47 -17 -86 -67 -123c-26 -19 -86 -47 -171 -47
zM212 143c68 0 90 83 90 146c0 44 -9 70 -27 90c-13 13 -33 22 -48 22c-23 0 -47 -4 -71 -28c-32 -34 -36 -80 -36 -118c0 -34 11 -65 32 -87c18 -17 36 -25 60 -25zM253 -240c37 0 147 26 142 103c0 59 -45 104 -145 97l-96 -7c-31 -8 -80 -42 -80 -96c0 -25 19 -55 39 -69
c33 -23 69 -28 140 -28z" />
    <glyph glyph-name="h" unicode="h" horiz-adv-x="539" 
d="M98 243v302c0 61 -12 72 -48 84l-17 6c-6 2 -7 3 -7 6v9c0 4 3 5 12 10l104 55c8 4 15 8 23 8c6 0 10 -8 8 -25s-3 -220 -3 -270v-64h5c35 42 93 65 137 65c42 0 71 -13 99 -40c45 -42 43 -93 43 -147v-57c0 -56 2 -118 2 -137c0 -12 16 -15 37 -15h17c8 0 11 -2 11 -9
v-15c0 -8 -2 -12 -8 -12c-7 0 -39 3 -96 3c-49 0 -85 -3 -94 -3c-7 0 -9 3 -9 11v17c0 5 1 8 7 8h23c17 0 37 2 38 19c1 14 0 67 0 99v81c0 56 -4 96 -33 123c-20 19 -41 28 -66 28c-29 0 -65 -10 -93 -42c-9 -11 -20 -31 -20 -49v-218c0 -32 3 -41 22 -41h30
c7 0 11 -2 11 -8v-17c0 -7 -2 -11 -8 -11c-8 0 -49 3 -95 3c-50 0 -88 -3 -97 -3c-4 0 -7 3 -7 10v18c0 7 4 8 15 8h21c16 0 31 4 33 16c3 19 3 129 3 194z" />
    <glyph glyph-name="i" unicode="i" horiz-adv-x="267" 
d="M102 144v147c0 34 -6 52 -56 60c-7 1 -9 3 -9 7v9c0 3 2 5 7 7c32 12 70 28 108 49c8 4 13 6 19 6c5 0 6 -5 5 -12c-2 -17 -2 -80 -2 -163v-109c0 -39 0 -75 1 -86c2 -19 5 -26 16 -26h46c8 0 10 -3 10 -9v-17c0 -7 -2 -10 -9 -10c-8 0 -54 3 -96 3c-58 0 -97 -3 -108 -3
c-5 0 -8 2 -8 8v20c0 6 3 8 10 8h49c11 0 15 4 16 20c1 30 1 61 1 91zM112 544c-22 0 -55 20 -55 52c0 25 21 52 61 52c35 0 52 -27 52 -49c0 -26 -18 -55 -58 -55z" />
    <glyph glyph-name="j" unicode="j" horiz-adv-x="246" 
d="M97 73v198c0 44 -8 54 -49 70l-10 4c-5 2 -6 4 -6 7v9c0 3 3 5 8 8c32 10 73 30 108 53c8 6 13 7 19 7c5 0 8 -7 6 -17c-2 -9 -4 -79 -4 -170v-125c0 -59 -3 -166 -14 -221c-22 -114 -94 -168 -171 -168c-30 0 -58 18 -58 47c0 16 15 42 36 42c22 0 39 -11 57 -31
c10 -11 17 -15 23 -15c25 0 45 27 50 88c4 58 5 143 5 214zM114 544c-25 0 -60 18 -60 61c0 21 24 59 67 59c22 0 56 -18 56 -62c0 -28 -25 -58 -63 -58z" />
    <glyph glyph-name="k" unicode="k" horiz-adv-x="496" 
d="M95 243v331c0 41 -3 58 -52 71c-11 3 -14 4 -14 7v9c0 4 3 6 13 10l102 44c9 4 16 8 22 8s7 -5 6 -17c-5 -48 -5 -195 -5 -315v-158c13 0 38 3 48 11c19 13 98 99 106 111c6 11 6 19 0 23c-8 6 -20 6 -26 6c-7 0 -8 3 -8 9v19c0 5 2 8 7 8c6 0 42 -3 93 -3
c49 0 74 3 81 3c4 0 6 -3 6 -10v-18c0 -6 -1 -8 -8 -8h-7c-20 0 -49 -10 -69 -23c-14 -8 -98 -85 -132 -118c20 -20 188 -188 205 -196c18 -9 41 -14 52 -14c6 0 8 -2 8 -9v-18c0 -6 -2 -9 -9 -9c-8 0 -36 3 -83 3c-59 0 -101 -3 -109 -3c-5 0 -7 3 -7 10v16c0 5 2 8 10 8h7
c8 0 14 7 11 16c-3 8 -117 129 -133 144c-11 9 -30 11 -43 11v-44c0 -35 0 -69 1 -104c1 -14 6 -21 20 -21h29c7 0 9 -2 9 -8v-17c0 -8 -2 -11 -8 -11s-39 3 -89 3c-54 0 -89 -3 -96 -3c-3 0 -5 4 -5 10v17c0 7 3 9 10 9h37c13 0 18 11 18 24c1 44 2 98 2 186z" />
    <glyph glyph-name="l" unicode="l" horiz-adv-x="256" 
d="M168 387v-89c0 -52 0 -203 1 -234c1 -17 5 -31 26 -31h45c9 0 11 -3 11 -9v-17c0 -6 -2 -10 -6 -10c-7 0 -51 3 -113 3c-64 0 -104 -3 -113 -3c-5 0 -7 4 -7 10v17c0 7 2 9 13 9h48c11 0 21 7 22 25c1 31 1 203 1 261v63c0 71 -1 162 -3 188c-2 34 -18 50 -50 60l-20 7
c-5 2 -6 3 -6 5v8c0 3 3 5 9 7c35 16 80 34 117 58c9 6 15 8 21 8c7 0 9 -5 8 -18c-1 -55 -4 -263 -4 -318z" />
    <glyph glyph-name="m" unicode="m" horiz-adv-x="806" 
d="M374 50v206c0 74 -14 93 -30 108c-13 12 -42 18 -64 18c-26 0 -68 -13 -96 -58c-12 -20 -14 -39 -14 -67v-198c0 -16 6 -26 20 -26h36c9 0 10 -2 10 -9v-16c0 -7 -1 -11 -8 -11c-9 0 -36 3 -91 3c-53 0 -85 -3 -93 -3c-6 0 -8 2 -8 9v18c0 8 2 9 12 9h34c9 0 14 6 15 25
c1 17 1 35 1 52v178c0 20 -4 38 -28 51l-21 11c-5 3 -7 5 -7 8v8c0 3 4 7 6 8l88 45c8 4 15 6 19 6c6 0 9 -7 9 -14l4 -58h3c30 41 89 76 147 76c52 0 92 -30 113 -77h5c30 39 87 77 147 77c35 0 66 -6 90 -30c23 -24 48 -46 48 -123v-223c0 -15 9 -20 21 -20h27
c9 0 11 -2 11 -9v-17c0 -7 -2 -10 -7 -10c-7 0 -35 3 -83 3c-50 0 -86 -3 -93 -3c-6 0 -8 3 -8 10v17c0 7 2 9 13 9h25c11 0 19 5 20 19c2 23 2 59 2 81v148c0 33 -6 62 -29 80c-18 14 -44 21 -74 21s-71 -23 -87 -52c-15 -29 -14 -56 -14 -101v-173c0 -13 5 -23 20 -23h34
c9 0 11 -2 11 -9v-16c0 -8 -2 -11 -7 -11c-7 0 -33 3 -89 3c-54 0 -88 -3 -94 -3c-5 0 -7 3 -7 10v16c0 8 1 10 10 10h29c16 0 22 4 22 17z" />
    <glyph glyph-name="n" unicode="n" horiz-adv-x="532" 
d="M448 312v-258c0 -16 9 -21 22 -21h32c9 0 11 -3 11 -9v-16c0 -7 -2 -11 -8 -11c-7 0 -38 3 -95 3c-51 0 -83 -3 -90 -3c-6 0 -8 3 -8 11v16c0 7 3 9 13 9h29c11 0 19 5 20 23c1 26 2 58 2 84v132c0 40 0 69 -29 90c-24 18 -48 18 -73 18c-16 0 -51 -7 -81 -39
c-20 -22 -23 -49 -23 -68v-207c0 -27 3 -33 24 -33h25c8 0 10 -3 10 -10v-17c0 -6 -2 -9 -7 -9c-7 0 -34 3 -87 3c-51 0 -83 -3 -89 -3c-5 0 -7 3 -7 9v18c0 6 2 9 10 9h29c13 0 20 3 20 20v234c0 30 -16 47 -41 59l-8 4c-7 3 -8 6 -8 9v5c0 5 4 8 9 10l86 48c8 4 14 7 18 7
c5 0 7 -4 8 -12l7 -61h2c29 36 87 73 137 73c30 0 61 -6 85 -22c30 -20 55 -70 55 -95z" />
    <glyph glyph-name="o" unicode="o" horiz-adv-x="498" 
d="M242 -12c-48 0 -110 19 -152 69c-46 55 -55 92 -55 163c0 51 27 115 86 161c52 40 101 48 134 48c55 0 110 -28 140 -58c45 -46 68 -98 68 -163c0 -109 -98 -220 -221 -220zM254 18c76 0 125 93 125 200c0 111 -81 181 -132 181c-27 0 -53 -6 -77 -32
c-39 -40 -53 -81 -53 -157c0 -56 6 -94 38 -140c23 -33 52 -52 99 -52z" />
    <glyph glyph-name="p" unicode="p" horiz-adv-x="514" 
d="M89 -40v323c0 24 -7 38 -36 54l-23 13c-7 3 -7 6 -7 9v8c0 3 2 5 7 7l96 48c8 4 16 8 23 8c5 0 7 -5 7 -20l4 -48h3c27 35 79 67 146 67c51 0 85 -22 114 -49c38 -38 54 -79 54 -156c0 -131 -91 -236 -216 -236c-27 0 -69 4 -100 17v-211c0 -28 7 -33 22 -33h44
c8 0 9 -4 9 -10v-17c0 -6 -2 -9 -9 -9c-5 0 -39 3 -103 3c-58 0 -93 -3 -101 -3c-7 0 -9 3 -9 9v18c0 5 2 9 12 9h39c17 0 19 10 21 25c3 22 3 76 3 174zM161 319v-219c0 -22 2 -40 21 -53c28 -20 59 -27 100 -27c57 0 116 43 116 167c0 140 -63 196 -130 196
c-42 0 -83 -24 -107 -64z" />
    <glyph glyph-name="q" unicode="q" horiz-adv-x="508" 
d="M433 192v-228c0 -62 3 -147 5 -174c1 -18 7 -29 21 -29h31c7 0 10 -2 10 -6v-22c0 -6 -2 -8 -7 -8c-9 0 -46 3 -97 3c-63 0 -97 -3 -105 -3c-6 0 -8 2 -8 9v20c0 5 2 7 11 7h41c17 0 22 7 24 21c2 15 2 163 2 229v25h-2c-27 -20 -70 -48 -143 -48c-71 0 -179 38 -179 210
c0 57 31 138 85 183c41 36 87 48 132 48c41 0 76 -8 119 -22l53 22c4 1 6 2 9 -1l9 -7c2 -2 3 -5 0 -15c-4 -16 -7 -55 -8 -66c-2 -22 -3 -72 -3 -148zM361 74v231c-8 70 -76 92 -115 92c-88 0 -132 -106 -132 -165c0 -95 31 -133 53 -161c24 -28 59 -42 88 -42
c47 0 87 22 106 45z" />
    <glyph glyph-name="r" unicode="r" horiz-adv-x="341" 
d="M97 172v94c0 51 -8 61 -36 76l-19 10c-6 2 -8 3 -8 7v6c0 4 2 6 8 9l99 51c6 3 10 4 14 4c6 0 7 -6 7 -12l5 -69h4c30 46 77 87 120 87c34 0 51 -21 51 -44c0 -29 -24 -49 -42 -49c-11 0 -21 4 -29 8c-8 5 -20 8 -33 8c-16 0 -42 -10 -59 -42c-6 -11 -10 -29 -10 -32
v-210c0 -31 7 -41 28 -41h47c6 0 7 -3 7 -9v-18c0 -6 -1 -9 -5 -9c-6 0 -52 3 -106 3c-62 0 -104 -3 -110 -3c-4 0 -6 2 -6 10v17c0 7 2 9 11 9h39c15 0 22 6 22 19c1 33 1 68 1 120z" />
    <glyph glyph-name="s" unicode="s" horiz-adv-x="356" 
d="M166 -12c-49 0 -89 20 -101 29c-5 3 -5 9 -6 14l-17 95c-1 5 2 7 6 8l13 3c4 1 7 -1 9 -6l25 -49c20 -37 34 -62 87 -62c35 0 79 21 79 68c0 45 -22 71 -97 92c-59 17 -118 48 -118 127c0 69 65 122 140 122c48 0 74 -12 92 -21c15 -7 17 -12 18 -18l15 -70
c0 -4 -2 -7 -7 -9l-12 -4c-4 -1 -6 0 -9 5l-34 46c-12 19 -31 39 -70 39c-38 0 -77 -23 -77 -66c0 -58 47 -69 96 -83c73 -21 119 -51 120 -128c-1 -81 -67 -132 -152 -132z" />
    <glyph glyph-name="t" unicode="t" horiz-adv-x="319" 
d="M169 225v-100c0 -75 34 -88 52 -88c23 0 52 4 66 13c5 3 9 2 12 -2l5 -9c3 -4 1 -8 -2 -11c-10 -10 -51 -40 -111 -40c-49 0 -97 47 -97 85c0 41 3 129 3 143v22c0 18 1 85 2 127h-61c-9 0 -15 4 -15 12s6 11 18 18c24 14 101 92 114 126c3 8 8 10 14 10
c8 0 10 -7 10 -15l-5 -99h139c6 0 9 -5 7 -9l-10 -35c-1 -5 -3 -8 -9 -8h-129c-2 -46 -3 -94 -3 -140z" />
    <glyph glyph-name="u" unicode="u" horiz-adv-x="506" 
d="M417 277v-74c0 -48 0 -97 2 -118c3 -31 14 -35 26 -35c6 0 21 0 33 3c8 2 11 0 12 -4l3 -13c1 -6 -1 -8 -5 -9l-105 -35c-6 -2 -12 -4 -20 -4c-4 0 -8 2 -9 12l-8 58h-2c-28 -39 -86 -70 -136 -70c-28 0 -61 3 -94 46c-41 53 -39 86 -39 196v116c-1 28 -15 35 -38 38
c-17 1 -22 2 -22 7v18c0 6 2 8 11 8h89c6 0 10 1 14 2c4 0 8 1 11 1c7 0 12 -5 11 -12c-1 -9 -4 -56 -4 -115v-71c0 -40 -10 -104 22 -150c25 -36 53 -38 80 -38s67 26 86 50c4 5 10 18 10 27v238c-2 28 -18 33 -43 35c-17 0 -22 2 -22 7v17c0 8 2 9 12 9h93c7 0 12 1 17 2
c5 0 9 1 12 1c6 0 10 -5 9 -10c-1 -9 -6 -35 -6 -133z" />
    <glyph glyph-name="v" unicode="v" horiz-adv-x="433" 
d="M171 247c6 -19 49 -134 60 -155h3c16 39 86 210 96 249c7 27 0 43 -18 43h-20c-3 0 -4 5 -4 10v18c0 6 2 8 6 8c14 0 36 -3 80 -3c39 0 63 3 72 3c8 0 9 -1 9 -9v-17c0 -7 0 -10 -5 -10h-19c-12 0 -22 -2 -31 -11c-15 -14 -65 -123 -80 -160c-12 -30 -86 -198 -90 -205
c-8 -14 -13 -23 -24 -23c-10 0 -16 9 -21 21c-2 5 -75 195 -78 203s-44 122 -51 138c-13 29 -23 37 -41 37h-20c-5 0 -6 4 -6 10v18c0 7 2 8 11 8c11 0 28 -3 84 -3c53 0 79 3 90 3c8 0 10 -2 10 -8v-18c0 -6 -1 -10 -7 -10h-20c-10 0 -18 -6 -18 -19c0 -18 26 -101 32 -118
z" />
    <glyph glyph-name="w" unicode="w" horiz-adv-x="686" 
d="M415 352l76 -243h4l81 220c13 35 5 55 -15 55h-14c-5 0 -6 3 -6 8v21c0 5 3 7 7 7c6 0 36 -3 77 -3c43 0 61 3 73 3c5 0 7 -3 7 -7v-21c0 -5 -2 -8 -7 -8h-25c-12 0 -26 -8 -32 -17c-12 -19 -139 -337 -152 -369c-4 -11 -11 -13 -19 -13c-7 0 -14 7 -18 19l-98 285h-5
l-123 -288c-5 -12 -13 -16 -21 -16s-13 8 -17 20l-131 352c-7 19 -18 27 -42 27h-22c-6 0 -7 3 -7 9v19c0 5 1 8 6 8c14 0 34 -3 91 -3c45 0 69 3 84 3c6 0 8 -2 8 -8v-20c0 -5 -1 -8 -8 -8h-9c-11 0 -18 -9 -12 -27l79 -265h4l102 244c-2 16 -3 24 -9 32
c-5 7 -13 10 -27 10h-15c-5 0 -7 2 -7 7v21c0 6 3 8 9 8c8 0 40 -3 90 -3c46 0 68 3 76 3c7 0 9 -2 9 -7v-21c0 -5 -2 -8 -7 -8h-21c-10 0 -18 -11 -14 -26z" />
    <glyph glyph-name="x" unicode="x" horiz-adv-x="438" 
d="M152 25v-20c0 -4 -1 -8 -7 -8c-9 0 -35 3 -78 3c-50 0 -67 -3 -77 -3c-8 0 -9 4 -9 9v18c0 5 1 9 8 9h26c22 0 33 4 41 12c19 17 112 141 129 160c-38 59 -95 140 -118 165c-8 10 -22 14 -36 14h-28c-6 0 -7 4 -7 7v20c0 7 1 9 8 9c8 0 35 -3 82 -3s84 3 93 3
c5 0 6 -3 6 -9v-19c0 -6 -2 -8 -6 -8h-9c-16 0 -16 -16 -4 -34l62 -98l76 100c9 12 6 32 -11 32h-12c-5 0 -6 3 -6 7v21c0 6 1 8 5 8c12 0 29 -3 86 -3c40 0 50 3 57 3c8 0 9 -4 9 -10v-18c0 -6 -1 -8 -8 -8h-16c-19 0 -29 -4 -39 -12c-17 -14 -102 -119 -123 -145
c40 -59 80 -120 124 -173c12 -14 26 -21 44 -21h16c4 0 5 -2 5 -8v-20c0 -4 -1 -8 -7 -8c-9 0 -28 3 -77 3c-57 0 -87 -3 -98 -3c-7 0 -8 4 -8 9v17c0 7 1 10 8 10h15c11 0 17 15 6 32l-72 115c-14 -20 -80 -109 -87 -125c-5 -11 -1 -22 11 -22h21c4 0 5 -4 5 -8z" />
    <glyph glyph-name="y" unicode="y" horiz-adv-x="436" 
d="M56 -272c-38 0 -57 21 -57 51c0 21 22 39 46 39c19 0 37 -9 46 -11c7 -1 15 0 21 6c15 18 66 132 80 171c-5 25 -111 337 -119 358c-12 25 -21 42 -47 42h-26c-7 0 -8 3 -8 9v20c0 4 1 7 8 7c9 0 33 -3 92 -3c51 0 82 3 93 3c8 0 9 -3 9 -7v-21c0 -5 -1 -8 -6 -8h-19
c-11 0 -15 -7 -13 -22c3 -22 71 -242 82 -264h4c10 16 97 223 103 248s-2 38 -17 38h-16c-6 0 -7 3 -7 8v20c0 5 1 8 6 8c13 0 34 -3 82 -3c27 0 50 3 61 3c6 0 6 -4 6 -8v-19c0 -6 0 -9 -5 -9h-16c-11 0 -25 -5 -35 -18c-22 -27 -88 -179 -157 -336
c-49 -111 -88 -204 -106 -237c-14 -26 -32 -65 -85 -65z" />
    <glyph glyph-name="z" unicode="z" horiz-adv-x="434" 
d="M189 0h-138c-11 0 -15 4 -6 17l257 370h-106c-63 0 -76 -7 -157 -109c-4 -5 -7 -7 -11 -4l-13 6c-3 2 -4 5 -2 10l66 140c12 -4 31 -7 48 -9c37 -3 55 -4 131 -4h138c10 0 14 -7 9 -14l-265 -372h142c25 0 73 20 137 107c4 6 8 6 13 3l10 -7c4 -3 5 -5 2 -10l-77 -136
c-18 7 -49 9 -90 10c-40 2 -80 2 -88 2z" />
    <glyph glyph-name="space" unicode=" " horiz-adv-x="254" 
 />
    <glyph glyph-name="comma" unicode="," horiz-adv-x="254" 
d="M115 115c35 0 87 -33 87 -96c0 -105 -97 -176 -117 -188c-6 -3 -13 -9 -20 -9c-8 0 -12 3 -12 9s1 8 9 15c24 22 71 71 71 126c0 13 -9 27 -17 30c-10 4 -57 16 -57 66c0 25 20 47 56 47z" />
    <glyph glyph-name="hyphen" unicode="-" horiz-adv-x="404" 
d="M52 243v44c0 6 2 7 9 7h280c8 0 11 -2 11 -11v-38c0 -6 -4 -7 -12 -7h-279c-7 -1 -9 0 -9 5z" />
    <glyph glyph-name="period" unicode="." horiz-adv-x="254" 
d="M130 -12c-22 0 -62 12 -62 59c0 17 12 56 62 56c29 0 56 -23 56 -60c0 -33 -25 -55 -56 -55z" />
    <glyph glyph-name="colon" unicode=":" horiz-adv-x="254" 
d="M130 -12c-22 0 -62 12 -62 59c0 17 12 56 62 56c29 0 56 -23 56 -60c0 -33 -25 -55 -56 -55zM130 314c-22 0 -62 12 -62 59c0 17 12 56 62 56c29 0 56 -23 56 -60c0 -33 -25 -55 -56 -55z" />
    <glyph glyph-name="semicolon" unicode=";" horiz-adv-x="254" 
d="M115 115c35 0 87 -33 87 -96c0 -105 -97 -176 -117 -188c-6 -3 -13 -9 -20 -9c-8 0 -12 3 -12 9s1 8 9 15c24 22 71 71 71 126c0 13 -9 27 -17 30c-10 4 -57 16 -57 66c0 25 20 47 56 47zM115 314c-22 0 -62 12 -62 59c0 17 13 56 62 56c29 0 56 -23 56 -60
c0 -33 -25 -55 -56 -55z" />
    <glyph glyph-name="ampersand" unicode="&#x26;" horiz-adv-x="825" 
d="M710 -15c-108 0 -172 104 -215 159c-49 -60 -121 -159 -249 -159c-96 0 -210 61 -210 176c0 72 41 131 81 169c34 33 75 59 116 82c-69 40 -104 89 -104 125c0 79 103 171 162 171c75 0 142 -72 140 -139c-2 -52 -67 -116 -110 -138c70 -37 160 -122 211 -195
c32 40 96 134 99 163c2 16 -10 31 -31 31h-17c-6 0 -7 3 -7 7v22c0 3 1 5 7 5c9 0 63 -3 97 -3c37 0 97 3 103 3s7 -3 7 -7v-21c0 -4 -1 -7 -7 -7h-17c-50 0 -60 -4 -76 -29c-7 -11 -111 -163 -138 -191c15 -17 62 -71 76 -84c25 -26 71 -75 135 -75c61 0 106 70 110 78
c2 3 4 4 8 1l15 -9c2 -1 2 -4 0 -9c-15 -33 -70 -126 -186 -126zM284 45c98 0 163 92 189 122c-46 65 -126 171 -220 224c-73 -40 -137 -114 -135 -196c2 -83 89 -150 166 -150zM291 672c-49 0 -93 -58 -93 -116c0 -37 55 -81 102 -110c25 19 72 49 72 126
c0 34 -31 100 -81 100z" />
    <glyph glyph-name="exclam" unicode="!" horiz-adv-x="254" 
d="M131 -12c-22 0 -63 12 -63 59c0 17 13 56 63 56c28 0 56 -23 56 -60c0 -33 -26 -55 -56 -55zM129 683c27 0 53 -16 50 -59c0 -22 -34 -316 -36 -411c0 -5 -1 -7 -7 -7h-18c-6 0 -7 4 -7 10c-2 96 -30 367 -30 408c0 31 21 59 48 59z" />
    <glyph glyph-name="exclamdown" unicode="&#xa1;" horiz-adv-x="254" 
d="M131 314c-22 0 -63 12 -63 59c0 17 13 56 63 56c28 0 56 -23 56 -60c0 -33 -26 -55 -56 -55zM131 -272c-27 0 -53 16 -50 59c0 22 34 316 36 411c0 5 1 7 7 7h18c6 0 7 -4 7 -10c2 -96 30 -367 30 -408c0 -31 -21 -59 -48 -59z" />
    <glyph glyph-name="question" unicode="?" horiz-adv-x="370" 
d="M144 290v-107c0 -4 -1 -7 -7 -7h-19c-5 0 -7 2 -7 7v189c0 10 3 11 11 9c22 -4 48 -3 66 -3c32 0 105 16 105 79c0 40 -26 68 -54 90c-50 41 -74 48 -116 48c-41 0 -71 22 -71 49c0 7 7 39 48 39c82 0 235 -139 235 -261c0 -126 -126 -121 -183 -124c-7 0 -8 -3 -8 -8z
M136 -12c-29 0 -54 22 -54 52c0 31 21 55 56 55c28 0 55 -25 55 -54c0 -26 -22 -53 -57 -53z" />
    <glyph glyph-name="questiondown" unicode="&#xbf;" horiz-adv-x="370" 
d="M264 -272c-82 0 -235 139 -235 261c0 126 126 121 183 124c7 0 8 3 8 8v107c0 4 1 7 7 7h19c5 0 7 -2 7 -7v-189c0 -10 -3 -11 -11 -9c-22 4 -48 3 -66 3c-32 0 -105 -16 -105 -79c0 -40 26 -68 54 -90c50 -41 74 -48 116 -48c41 0 71 -22 71 -49c0 -7 -7 -39 -48 -39z
M233 322c-29 0 -54 22 -54 52c0 31 21 55 56 55c28 0 55 -25 55 -54c0 -26 -22 -53 -57 -53z" />
    <glyph glyph-name="endash" unicode="&#x2013;" 
d="M500 238h-500v56h500v-56z" />
    <glyph glyph-name="emdash" unicode="&#x2014;" horiz-adv-x="1000" 
d="M1000 294v-56h-1000v56h1000z" />
    <glyph glyph-name="parenleft" unicode="(" horiz-adv-x="330" 
d="M60 287c0 107 27 188 67 273c36 80 91 141 132 180c7 5 14 7 19 7c9 0 20 -9 20 -14c0 -4 -3 -12 -9 -18c-95 -99 -161 -232 -161 -428c0 -195 66 -329 162 -427c5 -6 8 -13 8 -18s-11 -15 -20 -15c-5 0 -12 2 -19 8c-41 38 -99 93 -141 180c-37 75 -58 167 -58 272z" />
    <glyph glyph-name="parenright" unicode=")" horiz-adv-x="330" 
d="M270 287c0 -107 -27 -188 -67 -273c-36 -79 -91 -141 -132 -179c-7 -6 -14 -8 -19 -8c-9 0 -20 10 -20 15c0 4 3 11 9 17c95 99 161 232 161 428c0 195 -66 329 -162 427c-5 6 -8 14 -8 19s11 14 20 14c5 0 12 -2 19 -7c41 -39 99 -94 141 -181c37 -75 58 -167 58 -272z
" />
    <glyph glyph-name="bracketleft" unicode="[" horiz-adv-x="354" 
d="M101 747h205c4 0 6 -3 6 -6v-24c0 -5 -2 -8 -8 -8h-135c-7 0 -10 -2 -10 -11v-819c0 -11 1 -14 7 -14h148c6 0 8 -3 8 -9v-21c0 -6 -3 -8 -9 -8h-211c-8 0 -11 4 -11 11v900c0 7 4 9 10 9z" />
    <glyph glyph-name="bracketright" unicode="]" horiz-adv-x="354" 
d="M252 -173h-211c-6 0 -9 2 -9 8v21c0 6 0 9 8 9h149c5 0 6 4 6 12v821c0 9 -3 11 -9 11h-136c-6 0 -8 3 -8 8v24c0 3 2 6 6 6h205c6 0 10 -2 10 -9v-900c0 -7 -3 -11 -11 -11z" />
    <glyph glyph-name="braceleft" unicode="{" horiz-adv-x="354" 
d="M42 297c0 12 6 19 13 19c13 0 23 2 35 6c21 7 33 36 33 67c0 33 -9 65 -17 99c-9 34 -18 68 -18 104c0 97 94 147 176 153c21 2 38 2 47 2c12 0 17 -5 17 -14c0 -11 -3 -18 -12 -18c-8 0 -21 0 -32 -1c-67 -9 -118 -48 -118 -116c0 -36 3 -69 8 -100c4 -30 8 -58 8 -85
c0 -37 -15 -64 -28 -77c-19 -22 -33 -29 -33 -39c0 -11 14 -17 35 -43c12 -13 26 -40 26 -76c0 -22 -4 -52 -8 -84c-5 -32 -8 -67 -8 -98c0 -95 74 -122 119 -133c17 -4 30 -4 36 -4s7 -7 7 -18c0 -9 -2 -14 -7 -14c-6 0 -20 0 -33 1c-70 3 -200 36 -200 161
c0 34 9 69 18 102c8 34 17 66 17 95c0 32 -7 67 -32 83c-12 8 -23 10 -36 11c-7 1 -13 8 -13 17z" />
    <glyph glyph-name="braceright" unicode="}" horiz-adv-x="354" 
d="M312 297c0 -12 -6 -19 -14 -19c-12 0 -22 -2 -34 -6c-21 -7 -33 -36 -33 -67c0 -28 9 -58 18 -92c8 -33 17 -70 17 -111c0 -107 -94 -166 -177 -173c-20 -2 -37 -2 -46 -2c-12 0 -17 6 -17 15c0 10 3 17 12 17c8 0 21 0 32 1c67 8 118 58 118 136c0 42 -4 77 -8 107
c-4 31 -8 56 -8 78c0 37 15 64 27 77c20 22 34 29 34 39c0 11 -14 17 -36 43c-11 13 -25 40 -25 76c0 17 4 44 8 74s8 64 8 94c0 81 -74 121 -119 128c-14 2 -29 3 -34 3c-6 0 -9 4 -9 16s3 16 8 16c6 0 19 0 32 -1c70 -3 200 -41 200 -155c0 -33 -9 -67 -17 -98
c-9 -32 -18 -61 -18 -85c0 -32 7 -67 32 -83c12 -8 23 -10 35 -11c8 -1 14 -8 14 -17z" />
    <glyph glyph-name="at" unicode="@" horiz-adv-x="786" 
d="M266 253c0 -20 8 -32 24 -32c61 0 176 147 192 180c18 35 27 61 27 78c0 28 -16 53 -42 53c-83 0 -201 -193 -201 -279zM547 65l13 -25c-31 -28 -125 -55 -218 -55c-195 0 -311 116 -311 280c0 237 225 458 449 458c174 0 266 -104 266 -267c0 -130 -107 -280 -284 -280
c-19 0 -37 16 -37 33c0 14 8 51 35 119l-4 2c-40 -56 -133 -154 -209 -154c-25 0 -51 19 -51 58c0 133 168 327 284 327c39 0 54 -21 61 -35l13 19c4 6 6 7 10 7h38c8 0 7 -6 5 -10c-14 -24 -67 -155 -73 -169c-13 -29 -42 -106 -42 -138c0 -14 11 -20 29 -20
c54 0 164 81 164 252c0 147 -81 220 -216 220c-204 0 -364 -214 -364 -408c0 -162 109 -256 252 -255c64 0 133 5 190 41z" />
    <glyph glyph-name="slash" unicode="/" horiz-adv-x="350" 
d="M2 16l298 703c3 6 7 8 13 6l32 -13c6 -2 6 -8 4 -14l-299 -704c-4 -9 -9 -10 -13 -8l-34 17c-4 2 -5 5 -1 13z" />
    <glyph glyph-name="backslash" unicode="\" horiz-adv-x="350" 
d="M346 0l-37 -15c-4 -1 -7 0 -12 12l-295 702c-2 5 -1 9 2 10l38 16c5 2 8 -1 10 -5l296 -708c3 -8 1 -11 -2 -12z" />
    <glyph glyph-name="underscore" unicode="_" 
d="M0 -125v50h500v-50h-500z" />
    <glyph glyph-name="asterisk" unicode="*" horiz-adv-x="328" 
d="M164 399c-23 0 -32 17 -32 35c0 11 28 116 29 120h-2c-11 -10 -77 -77 -87 -83c-17 -10 -37 -10 -48 8c-15 25 7 41 15 46c11 7 113 36 119 36v2c-5 1 -111 28 -122 33c-13 6 -27 22 -15 43c12 22 33 18 48 10c12 -6 88 -77 90 -81l2 2c-1 3 -29 109 -29 120
c0 18 9 33 32 33c25 0 32 -12 32 -33c0 -14 -27 -117 -29 -121l2 -2c3 4 79 79 90 85c15 8 33 7 44 -11c14 -23 3 -36 -13 -45c-12 -7 -114 -33 -119 -33v-2c4 -1 112 -30 122 -35c13 -6 30 -17 12 -47c-11 -18 -33 -16 -49 -7c-11 6 -85 79 -87 84l-2 -2
c2 -4 29 -106 29 -120c0 -15 -5 -35 -32 -35z" />
    <glyph glyph-name="section" unicode="&#xa7;" horiz-adv-x="540" 
d="M321 723c58 0 102 -28 102 -63c0 -24 -21 -36 -37 -36c-29 0 -39 14 -57 40c-13 19 -27 27 -46 27c-48 1 -92 -39 -92 -90c0 -87 63 -115 157 -174c77 -49 115 -106 114 -166c1 -83 -48 -120 -85 -138c21 -25 31 -57 31 -98c0 -45 -17 -84 -47 -115
c-35 -34 -85 -45 -126 -45c-65 0 -120 22 -120 57c0 23 17 40 38 40c22 0 38 -11 52 -31c12 -17 31 -30 52 -30c33 0 88 12 88 92c0 102 -92 132 -178 202c-62 49 -88 103 -88 159c0 78 43 116 75 136c-11 21 -17 53 -17 88s17 68 38 92c40 44 84 53 146 53zM334 343
c-102 70 -143 91 -164 120c-22 -14 -36 -41 -36 -82c0 -39 16 -72 59 -108c85 -70 147 -104 163 -125c24 10 48 48 48 77c0 25 -2 70 -70 118z" />
    <glyph glyph-name="paragraph" unicode="&#xb6;" horiz-adv-x="575" 
d="M358 669v-790c0 -11 -1 -14 -7 -14h-25c-6 0 -7 4 -7 16v355c-94 6 -269 32 -269 232c0 196 148 240 386 240h95c8 0 11 -2 11 -7v-17c0 -6 -2 -8 -12 -8h-59v-803c0 -6 -1 -8 -7 -8h-25c-6 0 -7 2 -7 15v794c-12 0 -59 -3 -74 -5z" />
    <glyph glyph-name="periodcentered" unicode="&#xb7;" horiz-adv-x="254" 
d="M130 297c-22 0 -62 12 -62 59c0 17 12 56 62 56c29 0 56 -23 56 -60c0 -33 -25 -55 -56 -55z" />
    <glyph glyph-name="dagger" unicode="&#x2020;" 
d="M261 -135h-21c-6 0 -7 4 -7 12c-1 113 -23 380 -41 425c11 13 37 43 37 129c-58 0 -139 -30 -161 -30c-34 0 -43 25 -43 40c0 22 16 41 47 41c18 0 97 -23 157 -23c0 71 -26 176 -26 210c0 30 23 54 49 54c33 0 49 -24 49 -54c0 -34 -30 -139 -30 -210
c60 0 142 23 167 23c28 0 38 -23 38 -41c0 -13 -7 -40 -42 -40c-17 0 -103 30 -163 30c0 -86 25 -114 37 -129c-19 -45 -39 -304 -40 -428c0 -6 -1 -9 -7 -9z" />
    <glyph glyph-name="daggerdbl" unicode="&#x2021;" 
d="M252 723c33 0 49 -24 49 -54c0 -34 -30 -139 -30 -210c60 0 145 23 162 23c32 0 42 -23 42 -41c0 -13 -7 -40 -38 -40c-21 0 -106 30 -166 30c0 -62 10 -92 28 -130c-13 -23 -28 -81 -28 -144c58 0 139 30 161 30c34 0 43 -25 43 -40c0 -21 -16 -41 -47 -41
c-18 0 -97 23 -157 23c0 -71 27 -175 27 -210c0 -30 -24 -54 -51 -54c-31 0 -47 24 -47 54c0 35 29 139 30 210c-60 0 -145 -23 -162 -23c-27 0 -42 24 -42 41c0 13 7 40 42 40c17 0 102 -30 162 -30c0 63 -17 123 -28 144c15 36 28 68 28 130c-58 0 -139 -30 -161 -30
c-34 0 -43 25 -43 40c0 22 16 41 47 41c18 0 97 -23 157 -23c0 71 -27 176 -27 210c0 30 24 54 49 54z" />
    <glyph glyph-name="bullet" unicode="&#x2022;" horiz-adv-x="340" 
d="M289 360c0 -67 -51 -112 -119 -112c-60 0 -119 49 -119 112c0 68 49 118 117 118c70 0 121 -45 121 -118z" />
    <glyph glyph-name="emdash.alt" horiz-adv-x="750" 
d="M750 294v-56h-750v56h750z" />
    <glyph glyph-name="onedotenleader" unicode="&#x2024;" 
d="M253 -12c-22 0 -62 12 -62 59c0 17 12 56 62 56c29 0 56 -23 56 -60c0 -33 -25 -55 -56 -55z" />
    <glyph glyph-name="twodotenleader" unicode="&#x2025;" 
d="M128 -12c-22 0 -62 12 -62 59c0 17 12 56 62 56c29 0 56 -23 56 -60c0 -33 -25 -55 -56 -55zM378 -12c-22 0 -62 12 -62 59c0 17 12 56 62 56c29 0 56 -23 56 -60c0 -33 -25 -55 -56 -55z" />
    <glyph glyph-name="ellipsis" unicode="&#x2026;" horiz-adv-x="1000" 
d="M169 -12c-21 0 -62 12 -62 59c0 17 13 56 62 56c30 0 58 -23 58 -60c0 -33 -26 -55 -58 -55zM838 -12c-22 0 -64 12 -64 59c0 17 13 56 64 56c28 0 56 -23 56 -60c0 -33 -26 -55 -56 -55zM503 -12c-22 0 -62 12 -62 59c0 17 12 56 62 56c30 0 57 -23 57 -60
c0 -33 -25 -55 -57 -55z" />
    <glyph glyph-name="copyright" unicode="&#xa9;" horiz-adv-x="825" 
d="M420 134c-64 0 -122 20 -159 55c-44 44 -67 97 -67 168c0 56 20 113 64 159c32 32 89 60 157 60c56 0 104 -26 116 -32c6 -4 11 -4 13 0l4 16c1 3 6 4 15 4s10 -1 10 -10c0 -10 13 -99 16 -115c0 -4 0 -6 -3 -6l-12 -3c-3 -1 -6 -1 -8 2c-9 18 -21 44 -46 68
c-27 27 -66 46 -107 46c-102 0 -147 -97 -147 -174c1 -36 10 -98 55 -144c37 -39 76 -53 116 -53c73 0 125 40 154 79c2 2 4 0 8 -3l8 -6c2 -2 2 -6 -1 -10c-38 -53 -98 -101 -186 -101zM413 723c212 0 366 -150 366 -369c0 -207 -144 -369 -366 -369
c-224 0 -366 163 -366 369c0 210 163 369 366 369zM413 21c228 0 313 189 313 333c0 235 -187 333 -313 333c-173 0 -313 -137 -313 -333c0 -243 183 -333 313 -333z" />
    <glyph glyph-name="registered" unicode="&#xae;" horiz-adv-x="566" 
d="M198 402v133v60c-1 12 -6 18 -22 18h-6c-2 0 -3 1 -3 3v12c0 2 1 3 3 3c3 0 42 -2 49 -2s61 2 68 2c37 0 64 -10 78 -23c15 -12 20 -29 20 -43c0 -49 -40 -70 -69 -75v-2c8 -2 13 -8 16 -12c5 -6 28 -38 33 -48c6 -11 25 -35 34 -40c9 -6 19 -7 30 -7c3 0 4 -1 4 -3v-11
c0 -2 -1 -3 -4 -3s-19 1 -31 1s-27 -1 -41 -1c-4 3 -14 16 -17 21c-3 4 -24 35 -28 43s-19 31 -26 38c-5 7 -15 15 -26 15h-16v-19c0 -22 0 -60 1 -66c1 -8 3 -15 13 -15h16c3 0 3 -1 3 -3v-11c0 -2 0 -3 -3 -3c-5 0 -38 1 -54 1s-46 -1 -50 -1s-5 1 -5 4v9c0 3 1 4 3 4h9
c13 0 21 3 21 21zM244 611v-112c4 -1 13 -1 26 -1c56 0 66 46 66 60c0 15 -9 32 -20 39c-17 11 -29 15 -52 15c-5 0 -14 0 -20 -1zM283 723c142 0 238 -94 238 -230c0 -128 -90 -229 -238 -229c-150 -1 -238 101 -238 229c0 131 101 230 238 230zM283 296
c142 0 195 108 195 197c0 146 -116 198 -195 198c-108 0 -195 -76 -195 -198c0 -150 114 -196 195 -197z" />
    <glyph glyph-name="trademark" unicode="&#x2122;" horiz-adv-x="908" 
d="M211 679v-102v-32c0 -6 -1 -139 0 -147c2 -13 6 -20 18 -20h27c3 0 5 -2 5 -6v-19c0 -3 -1 -4 -5 -4c-6 0 -53 1 -73 1c-22 0 -71 -1 -78 -1c-5 0 -6 1 -6 5v18c0 4 1 6 5 6h28c11 0 17 5 18 11c1 15 1 160 1 169v40v81c-6 0 -56 1 -80 -7c-22 -8 -37 -33 -46 -49
c-1 -5 -4 -6 -9 -4l-9 4c-2 0 -3 1 -2 4c5 18 19 83 20 88c1 6 4 8 6 8c3 0 3 -1 5 -2l7 -4c11 -7 15 -8 30 -9c32 -1 65 -3 107 -3c39 0 85 2 116 3c12 1 19 2 28 7l10 6c2 1 3 2 5 2s4 -2 5 -8s8 -68 12 -90c0 -3 -1 -4 -3 -5l-8 -3c-5 -1 -7 0 -8 5c-5 10 -20 39 -37 48
c-20 10 -79 9 -89 9zM620 452l109 249c3 7 8 8 18 8c80 0 98 1 102 1c3 0 4 -2 4 -5v-17c0 -6 -1 -7 -4 -7h-10c-20 0 -22 -9 -22 -21c0 -8 -2 -122 -2 -132c0 -11 2 -113 2 -123c0 -16 6 -27 17 -27h24c4 0 4 -2 4 -6v-17c0 -4 0 -6 -5 -6c-7 0 -50 1 -72 1
c-21 0 -69 -1 -74 -1c-4 0 -5 2 -5 6v16c0 4 1 7 5 7h20c16 0 21 8 23 18c1 9 1 116 1 125v152h-3l-136 -304c-3 -5 -8 -12 -13 -12c-6 0 -8 3 -10 9l-124 306h-6v-135c0 -7 -2 -105 0 -123c3 -28 15 -36 34 -36h12c3 0 4 -3 4 -7v-16c0 -4 -1 -6 -5 -6c-8 0 -50 1 -64 1
c-16 0 -61 -1 -66 -1c-4 0 -5 1 -5 6v16c0 3 1 7 4 7h12c17 0 30 12 33 29c6 37 7 152 7 166v80c0 20 -11 28 -28 28h-16c-2 0 -3 1 -3 5v18c0 4 2 6 4 6c4 0 48 -2 63 -2c21 0 38 1 53 2c11 0 16 0 19 -10z" />
    <glyph glyph-name="quotedbl" unicode="&#x22;" horiz-adv-x="370" 
d="M123 461h-34c-2 51 -30 191 -30 220c0 28 19 42 47 42c30 0 46 -14 46 -41c0 -30 -27 -170 -29 -221zM282 461h-33c-2 51 -30 191 -30 220c0 28 19 42 46 42c31 0 47 -14 47 -41c0 -30 -28 -170 -30 -221z" />
    <glyph glyph-name="quotesingle" unicode="'" horiz-adv-x="206" 
d="M121 461h-34c-2 51 -30 191 -30 220c0 28 19 42 47 42c30 0 46 -14 46 -41c0 -30 -27 -170 -29 -221z" />
    <glyph glyph-name="quoteleft" unicode="&#x2018;" horiz-adv-x="190" 
d="M107 460c-31 0 -78 30 -78 86c0 95 87 158 105 169c5 3 11 8 18 8s10 -3 10 -8s0 -7 -8 -13c-21 -20 -63 -64 -63 -113c0 -13 8 -25 15 -28c9 -4 51 -14 51 -58c0 -23 -18 -43 -50 -43z" />
    <glyph glyph-name="quoteright" unicode="&#x2019;" horiz-adv-x="190" 
d="M84 723c31 0 78 -30 78 -86c0 -94 -87 -158 -105 -169c-5 -3 -10 -8 -18 -8c-7 0 -10 3 -10 8s0 7 8 13c21 20 63 64 63 113c0 13 -8 25 -15 28c-9 4 -51 14 -51 58c0 23 18 43 50 43z" />
    <glyph glyph-name="quotedblleft" unicode="&#x201c;" horiz-adv-x="360" 
d="M109 460c-31 0 -78 30 -78 86c0 95 87 158 105 169c5 3 11 8 18 8s10 -3 10 -8s0 -7 -8 -13c-21 -20 -63 -64 -63 -113c0 -13 8 -25 15 -28c9 -4 51 -14 51 -58c0 -23 -18 -43 -50 -43zM273 460c-30 0 -78 30 -78 86c0 95 87 158 105 169c5 3 11 8 19 8c7 0 10 -3 10 -8
s0 -7 -8 -13c-22 -20 -64 -64 -64 -113c0 -13 8 -25 15 -28c9 -4 52 -14 52 -58c0 -23 -19 -43 -51 -43z" />
    <glyph glyph-name="quotedblright" unicode="&#x201d;" horiz-adv-x="360" 
d="M85 723c31 0 78 -30 78 -86c0 -94 -87 -158 -105 -169c-5 -3 -10 -8 -18 -8c-7 0 -10 3 -10 8s0 7 8 13c21 20 63 64 63 113c0 13 -8 25 -15 28c-9 4 -51 14 -51 58c0 23 18 43 50 43zM251 723c31 0 79 -30 79 -86c0 -94 -87 -158 -105 -169c-5 -3 -11 -8 -19 -8
c-7 0 -10 3 -10 8s0 7 8 13c22 20 63 64 63 113c0 13 -8 25 -15 28c-8 4 -51 14 -51 58c0 23 19 43 50 43z" />
    <glyph glyph-name="quotesinglbase" unicode="&#x201a;" horiz-adv-x="190" 
d="M84 112c31 0 78 -30 78 -86c0 -94 -87 -157 -105 -168c-5 -3 -11 -8 -19 -8c-6 0 -9 3 -9 8s0 7 7 13c22 19 64 64 64 112c0 13 -8 25 -15 28c-9 4 -51 14 -51 59c0 22 18 42 50 42z" />
    <glyph glyph-name="quotedblbase" unicode="&#x201e;" horiz-adv-x="360" 
d="M85 112c31 0 78 -30 78 -86c0 -94 -87 -157 -105 -168c-5 -3 -10 -8 -18 -8c-7 0 -10 3 -10 8s0 7 8 13c21 19 63 64 63 112c0 13 -8 25 -15 28c-9 4 -51 14 -51 59c0 22 18 42 50 42zM251 112c31 0 79 -30 79 -86c0 -94 -87 -157 -105 -168c-5 -3 -11 -8 -19 -8
c-7 0 -10 3 -10 8s0 7 8 13c22 19 63 64 63 112c0 13 -8 25 -15 28c-8 4 -51 14 -51 59c0 22 19 42 50 42z" />
    <glyph glyph-name="guilsinglleft" unicode="&#x2039;" horiz-adv-x="254" 
d="M185 50l-155 156c-2 2 -4 4 -4 6s2 4 5 7l155 155c2 2 4 4 6 4s3 -1 5 -3l14 -14c2 -2 3 -3 3 -5s-2 -5 -4 -7l-91 -137l92 -138c2 -3 3 -5 3 -7s-1 -3 -3 -5l-15 -14c-1 -1 -3 -2 -4 -2c-2 0 -4 2 -7 4z" />
    <glyph glyph-name="guilsinglright" unicode="&#x203a;" horiz-adv-x="254" 
d="M223 205l-156 -155c-2 -2 -4 -4 -6 -4s-3 1 -5 3l-13 13c-2 2 -3 3 -3 5s2 5 4 7l91 138l-92 137c-2 3 -3 5 -3 7s1 3 3 5l14 15c1 1 3 2 4 2c2 0 4 -2 7 -5l156 -155c2 -2 4 -4 4 -6s-2 -4 -5 -7z" />
    <glyph glyph-name="guillemotleft" unicode="&#xab;" horiz-adv-x="412" 
d="M31 219l155 155c2 2 4 4 6 4s3 -1 5 -3l14 -14c2 -2 3 -3 3 -5s-2 -5 -4 -7l-91 -137l92 -138c2 -3 3 -5 3 -7s-1 -3 -3 -5l-15 -14c-1 -1 -3 -2 -4 -2c-2 0 -4 2 -7 4l-155 156c-2 2 -4 4 -4 6s2 4 5 7zM189 219l156 155c2 2 4 4 6 4c1 0 2 -1 4 -3l14 -14
c2 -2 3 -3 3 -5s-2 -5 -4 -7l-91 -137l92 -138c2 -3 3 -5 3 -7s-1 -3 -3 -5l-15 -14c-1 -1 -3 -2 -3 -2c-2 0 -4 2 -7 4l-156 156c-2 2 -4 4 -4 6s2 4 5 7z" />
    <glyph glyph-name="guillemotright" unicode="&#xbb;" horiz-adv-x="412" 
d="M223 205l-156 -155c-2 -2 -4 -4 -6 -4s-3 1 -5 3l-13 13c-2 2 -3 3 -3 5s2 5 4 7l91 138l-92 137c-2 3 -3 5 -3 7s1 3 3 5l14 15c1 1 3 2 4 2c2 0 4 -2 7 -5l156 -155c2 -2 4 -4 4 -6s-2 -4 -5 -7zM381 205l-155 -155c-2 -2 -4 -4 -6 -4s-3 1 -5 3l-14 13c-2 2 -3 3 -3 5
s2 5 4 7l91 138l-92 137c-2 3 -3 5 -3 7s1 3 3 5l15 15c1 1 3 2 4 2c2 0 4 -2 7 -5l155 -155c2 -2 4 -4 4 -6s-2 -4 -5 -7z" />
    <glyph glyph-name="zero" unicode="0" 
d="M255 -15c-162 0 -224 194 -224 315c0 229 95 383 223 383c147 0 215 -191 215 -343c0 -229 -85 -355 -214 -355zM256 21c31 0 69 12 96 71c22 48 31 124 31 270c0 147 -50 285 -135 285c-39 0 -67 -15 -90 -60c-36 -70 -40 -187 -40 -270c0 -95 12 -165 34 -211
c31 -66 69 -85 104 -85z" />
    <glyph glyph-name="one" unicode="1" 
d="M226 325v36c0 13 1 60 0 139c-1 34 -5 56 -24 56c-9 0 -24 -3 -40 -8l-70 -23c-4 -1 -8 -1 -10 3l-8 18c-2 4 -1 8 6 12l207 119c5 3 9 6 14 6c6 0 7 -6 7 -14c0 -9 -3 -166 -3 -295v-42c0 -12 1 -224 1 -237c1 -52 5 -59 70 -59h36c7 0 10 -3 10 -8v-23
c0 -6 -2 -8 -9 -8c-9 0 -145 3 -154 3s-150 -3 -155 -3s-8 2 -8 8v25c0 5 6 6 14 6h46c65 0 67 3 69 56c1 13 1 215 1 233z" />
    <glyph glyph-name="two" unicode="2" 
d="M315 0h-217c-17 0 -35 -1 -50 -2s-27 -2 -31 -2c-5 0 -8 0 -11 6c-3 7 -2 10 3 15c47 44 135 121 215 207s126 163 123 250c-3 89 -57 142 -129 141c-85 -1 -117 -67 -134 -97c-4 -7 -7 -8 -12 -5l-14 6c-3 2 -4 5 0 14c16 39 65 150 200 150c84 0 175 -69 175 -182
c0 -85 -34 -157 -124 -258c-68 -78 -147 -136 -191 -175h203c68 0 94 47 116 84c5 9 8 10 18 5c8 -4 12 -8 8 -14l-65 -156c-5 -11 3 -11 -15 -11c-9 0 -9 1 -13 10c-6 13 -25 14 -55 14z" />
    <glyph glyph-name="three" unicode="3" 
d="M185 -15c-118 0 -150 50 -150 79c0 26 16 43 33 43c33 0 39 -39 41 -44c5 -11 23 -41 93 -41c92 0 147 67 147 137c0 101 -63 160 -144 179c-18 4 -18 1 -18 15c0 10 3 12 12 14c64 12 130 65 130 142c0 64 -39 112 -102 112c-74 0 -112 -52 -133 -109
c-3 -8 -6 -11 -10 -10l-18 4c-2 1 -3 6 -1 15c14 69 75 162 188 162c109 0 148 -80 148 -131c0 -86 -60 -140 -112 -172c68 -17 146 -87 146 -175c0 -129 -115 -220 -250 -220z" />
    <glyph glyph-name="four" unicode="4" 
d="M375 0h-50c-9 0 -12 2 -12 11v176h-279c-9 0 -15 4 -15 12c0 6 3 10 10 20l325 448c6 8 14 16 22 16c9 0 13 -7 13 -30v-400h81c7 0 12 -2 12 -8v-48c0 -6 -3 -10 -16 -10h-77v-173c0 -11 -2 -14 -14 -14zM314 248v275c0 16 -10 19 -19 6l-184 -254
c-12 -17 -11 -27 7 -27h196z" />
    <glyph glyph-name="five" unicode="5" 
d="M159 591l-18 -161c25 2 92 -5 114 -11c98 -26 154 -96 154 -186c1 -143 -116 -248 -252 -248c-74 0 -130 27 -130 56c0 14 9 26 22 26c18 0 35 -11 50 -20s49 -19 79 -19c78 0 156 66 156 154c0 70 -23 125 -88 153c-54 24 -104 24 -130 22c-6 -1 -11 -2 -18 2
c-5 2 -6 5 -5 11l36 282c1 12 3 16 16 16h214c35 0 44 17 61 50c3 6 6 7 12 5c11 -5 16 -6 14 -12l-36 -100c-7 -16 -12 -20 -43 -20h-208z" />
    <glyph glyph-name="six" unicode="6" 
d="M252 -15c-67 0 -114 19 -144 55c-50 54 -64 132 -64 184c0 125 46 248 152 351c48 46 102 79 147 97c16 7 30 11 37 11c6 0 12 -3 12 -10c0 -8 -3 -13 -9 -16c-80 -36 -212 -146 -237 -310c32 28 75 46 133 46c125 0 177 -111 177 -176c0 -93 -27 -136 -62 -172
c-37 -40 -79 -60 -142 -60zM258 17c22 0 113 11 113 169c0 89 -44 164 -121 164c-59 0 -87 -24 -99 -49c-14 -26 -22 -67 -22 -109c0 -51 8 -175 129 -175z" />
    <glyph glyph-name="seven" unicode="7" 
d="M195 668h281c5 0 10 -3 10 -9c0 -5 -1 -8 -7 -18s-87 -160 -127 -259c-10 -23 -94 -208 -135 -346c-12 -41 -32 -51 -50 -51c-25 0 -39 15 -39 37c0 25 22 66 35 93c17 34 191 366 248 479h-237c-60 0 -73 -27 -102 -70c-5 -7 -12 -6 -19 -2c-9 5 -9 6 -6 15l62 161
c3 6 4 7 16 7c11 0 15 -3 13 -18c-2 -14 6 -19 57 -19z" />
    <glyph glyph-name="eight" unicode="8" 
d="M249 -15c-137 0 -183 79 -183 143c0 86 45 137 130 192c-75 42 -137 94 -137 171c0 87 72 192 214 192c92 0 170 -63 170 -129c0 -95 -32 -139 -138 -213c80 -38 141 -89 141 -180c0 -78 -76 -176 -197 -176zM255 19c72 0 119 39 119 122c0 81 -66 118 -145 160
c-64 -36 -100 -94 -100 -157c0 -87 68 -125 126 -125zM257 642c-71 0 -120 -57 -120 -127c0 -72 47 -101 135 -153c49 31 101 90 105 157c3 73 -51 123 -120 123z" />
    <glyph glyph-name="nine" unicode="9" 
d="M246 683c71 0 110 -21 155 -70c45 -51 54 -130 54 -161c0 -134 -45 -272 -163 -376c-50 -44 -89 -66 -144 -84c-10 -3 -24 -7 -31 -7c-8 0 -15 4 -15 14c0 7 4 12 9 14c87 35 220 144 242 311l-1 2c-27 -25 -63 -49 -122 -49c-138 0 -185 105 -185 200
c0 38 36 121 74 154c39 34 85 52 127 52zM249 651c-59 0 -124 -57 -124 -169c0 -94 56 -162 124 -162c58 0 88 31 101 57c12 25 15 58 15 99c0 88 -25 175 -116 175z" />
    <glyph glyph-name="zero.slash" 
d="M366 504l-213 -400c31 -64 68 -83 103 -83c31 0 69 12 96 71c22 48 31 124 31 270c0 50 -6 99 -17 142zM130 174l212 398c-23 46 -55 75 -94 75s-67 -15 -90 -60c-36 -70 -40 -187 -40 -270c0 -56 4 -104 12 -143zM45 14l41 76c-38 65 -55 147 -55 210
c0 229 95 383 222 383c48 0 88 -20 120 -53l24 46c3 6 8 8 14 5l30 -15c6 -3 6 -9 3 -15l-36 -67c41 -69 61 -162 61 -244c0 -229 -85 -355 -214 -355c-56 0 -100 23 -134 59l-30 -57c-5 -9 -10 -9 -14 -6l-32 20c-4 2 -4 5 0 13z" />
    <glyph glyph-name="dollar" unicode="$" 
d="M290 -43h-19c-6 0 -7 3 -7 10l1 49c-11 -1 -42 1 -54 4l-2 -54c0 -6 -1 -9 -7 -9h-20c-6 0 -7 3 -7 10l2 61c-12 4 -32 15 -50 29c-11 8 -17 11 -21 11c-6 0 -10 -5 -15 -14c-6 -10 -11 -10 -17 -10s-10 4 -9 13c4 22 13 131 16 154c0 4 3 7 7 7l15 -1c4 0 6 -2 6 -7
c1 -27 0 -55 27 -98c15 -23 31 -36 42 -42l7 255c-16 5 -45 18 -66 39c-30 29 -47 68 -47 122c0 55 31 92 62 119c20 18 43 29 59 34l2 57c0 8 2 10 7 10h20c5 0 7 -3 7 -10l-1 -52c17 2 37 1 53 -2l1 54c0 9 2 10 7 10h20c5 0 7 -3 7 -12l-2 -58c17 -4 29 -9 36 -12
c8 -4 13 -3 18 1l10 10c6 5 9 6 14 6c8 0 8 -10 8 -15c0 -30 2 -117 3 -137c0 -4 -2 -6 -5 -7l-14 -3c-3 0 -5 0 -6 3c-5 27 -16 66 -42 91c-8 7 -14 12 -21 18l-8 -223c78 -23 128 -75 128 -171c0 -79 -54 -159 -137 -177l-1 -53c0 -8 -1 -10 -7 -10zM274 375l6 230
c-14 7 -38 10 -53 7l-6 -224c11 -5 31 -9 53 -13zM188 400l4 203c-38 -19 -55 -65 -55 -98c0 -31 4 -58 20 -80c11 -16 24 -20 31 -25zM219 314l-7 -257c7 -7 36 -8 54 -7l6 251c-26 7 -40 10 -53 13zM305 290l-6 -233c34 14 71 48 71 110c0 66 -27 104 -65 123z" />
    <glyph glyph-name="cent" unicode="&#xa2;" 
d="M233 166l15 345c-68 -4 -125 -65 -125 -151s23 -122 52 -156c15 -19 34 -31 58 -38zM257 -15h-26c-5 0 -7 4 -6 16l5 108c-43 5 -94 21 -134 72c-36 46 -47 87 -47 132c0 111 68 215 200 231l5 99c0 7 2 10 7 10h26c5 0 6 -4 6 -14l-4 -92c111 -3 141 -60 141 -80
c-1 -21 -16 -32 -37 -32c-22 0 -38 12 -53 40c-14 25 -31 34 -53 36l-16 -354c13 -2 22 -2 30 -2c57 0 83 13 117 46c2 2 5 3 8 0l10 -10c4 -4 5 -7 0 -13c-29 -33 -93 -71 -167 -71l-5 -108c-1 -11 -2 -14 -7 -14z" />
    <glyph glyph-name="Euro" unicode="&#x20ac;" 
d="M366 255h-190c10 -130 53 -230 144 -230c81 0 114 70 133 138c3 8 6 8 9 7l15 -4c3 -1 3 -5 3 -10c-3 -28 -10 -121 -10 -140c0 -14 -2 -16 -11 -16c-8 0 -10 1 -12 6l-12 28c-3 7 -9 11 -17 2c-11 -12 -53 -51 -106 -51c-143 0 -207 134 -223 270h-68c-6 0 -10 1 -8 7
l9 23c2 5 5 6 10 6h54c-2 16 -2 31 -2 46c0 11 0 22 1 35h-60c-6 0 -10 1 -8 7l8 23c2 5 5 6 10 6h55c18 128 91 275 222 275c52 0 81 -29 102 -50c7 -8 14 -6 18 5l7 19c2 5 4 6 13 6s10 -2 10 -16c0 -19 7 -115 10 -143c1 -7 2 -9 -7 -12l-8 -3c-7 -2 -8 0 -11 8
c-24 72 -48 150 -135 150c-91 0 -133 -112 -139 -239h244c6 0 9 -3 8 -6l-9 -24c-2 -5 -5 -6 -13 -6h-231v-36c0 -26 1 -22 2 -45h207c6 0 9 -3 8 -6l-9 -24c-2 -5 -5 -6 -13 -6z" />
    <glyph glyph-name="sterling" unicode="&#xa3;" 
d="M28 262h88c16 31 62 185 86 250c34 93 118 171 206 171c74 0 111 -45 111 -68s-20 -37 -38 -38c-26 0 -47 10 -60 37c-4 8 -6 36 -40 36c-46 0 -79 -38 -109 -159c-18 -72 -86 -213 -97 -229h140c7 0 9 -2 9 -6v-23c0 -5 -2 -7 -10 -7h-156c-16 -30 -51 -76 -69 -97l1 -2
c98 10 142 -7 202 -74c17 -19 40 -33 71 -33c23 0 40 19 45 30c7 16 5 19 -15 19c-34 0 -53 17 -53 32c0 13 10 40 48 40c36 0 70 -26 70 -64c0 -30 -31 -92 -131 -92c-55 0 -101 23 -139 68c-35 42 -69 51 -113 49c-15 -27 -50 -102 -94 -102c-13 0 -18 8 -18 16
c0 34 52 88 87 106c13 13 43 75 53 104h-73c-6 0 -9 1 -9 7v23c0 4 1 6 7 6z" />
    <glyph glyph-name="currency" unicode="&#xa4;" 
d="M460 567l19 -20c3 -3 4 -7 0 -11l-94 -89c23 -22 40 -67 41 -104c-2 -44 -15 -82 -40 -113l93 -87c4 -4 4 -8 2 -11l-21 -24c-3 -3 -7 -2 -9 0l-99 90c-28 -20 -69 -32 -105 -32c-39 0 -79 14 -104 36l-91 -91c-5 -5 -8 -5 -11 -2l-22 23c-3 4 -2 8 2 12l92 90
c-21 26 -34 60 -34 97c0 42 16 87 41 112l-98 93c-2 2 -3 6 1 10l19 20c3 4 8 3 10 1l100 -94c27 24 68 34 108 34c33 0 73 -13 94 -31l97 90c3 4 7 3 9 1zM252 207c65 0 116 50 116 130c0 76 -47 129 -116 129c-82 0 -116 -67 -116 -129c0 -66 36 -130 116 -130z" />
    <glyph glyph-name="yen" unicode="&#xa5;" 
d="M208 61v123h-150c-8 0 -10 1 -10 6v23c0 5 2 7 10 7h151v71h-152c-6 0 -9 1 -9 8v21c0 5 2 7 10 7h150c-27 50 -142 250 -166 283c-7 9 -23 22 -38 22h-21c-6 0 -7 3 -7 7v25c0 4 2 7 7 7c9 0 46 -3 97 -3c72 0 114 3 124 3c5 0 7 -2 7 -5v-25c0 -5 -1 -9 -7 -9h-21
c-44 0 -50 -20 -40 -42c13 -29 104 -205 121 -232c18 31 121 210 129 233c10 29 -5 41 -30 41h-26c-6 0 -7 3 -7 9v23c0 4 2 7 8 7c7 0 44 -3 102 -3c42 0 66 3 75 3c7 0 8 -2 8 -6v-24c0 -6 -2 -9 -8 -9h-21c-17 0 -27 -9 -35 -19c-15 -20 -121 -202 -173 -286h139
c8 0 11 -2 11 -7v-23c0 -5 -3 -6 -12 -6h-143v-71h144c8 0 11 -2 11 -7v-23c0 -5 -5 -6 -10 -6h-144v-119c0 -26 9 -29 31 -29h39c7 0 8 -3 8 -7v-23c0 -6 -1 -9 -8 -9c-12 0 -32 3 -104 3c-73 0 -97 -3 -108 -3c-8 0 -8 3 -8 8v24c0 4 1 7 7 7h47c14 0 22 10 22 25z" />
    <glyph glyph-name="florin" unicode="&#x192;" 
d="M279 395h105c6 0 10 -2 9 -6l-7 -24c-1 -5 -7 -6 -12 -6h-100l-23 -209c-23 -202 -101 -279 -192 -279c-53 0 -89 29 -89 61c0 21 12 39 34 39c27 0 43 -25 51 -46c4 -10 17 -17 31 -17c55 0 76 63 93 224l24 227h-77c-5 0 -8 2 -6 9l7 21c1 5 3 6 9 6h72
c11 82 28 153 80 216c34 42 74 72 137 72c61 0 97 -32 97 -62c0 -23 -20 -39 -49 -39c-27 0 -35 21 -39 40c-1 7 -11 24 -41 24c-61 0 -97 -69 -114 -251z" />
    <glyph glyph-name="colonmonetary" unicode="&#x20a1;" 
d="M220 100l113 486c-15 9 -31 14 -48 17l-110 -473c15 -15 30 -24 45 -30zM147 156l104 449c-121 -2 -164 -136 -164 -238c0 -53 4 -136 59 -210zM479 197l11 -8c3 -1 3 -4 1 -9c-41 -74 -116 -144 -226 -144c-9 0 -17 0 -26 2l-13 -56c-1 -4 -5 -5 -10 -4l-16 4
c-4 1 -6 4 -5 10l12 52c-18 3 -34 9 -49 17l-18 -77c-1 -4 -5 -5 -10 -4l-16 4c-4 1 -6 5 -5 11l20 83c-79 54 -119 162 -119 258c0 66 17 148 69 214c34 44 99 86 178 86h2l14 65c2 4 4 6 8 5l19 -5c4 -2 6 -5 5 -10l-13 -56c19 -2 36 -6 50 -11l17 74c1 5 4 6 8 5l19 -5
c4 -1 6 -5 5 -10l-17 -76c17 -8 30 -16 40 -23c11 -7 15 -6 16 0l7 25c2 5 3 5 11 5c7 0 9 -2 9 -14c0 -16 8 -142 12 -166c1 -5 0 -8 -3 -9l-13 -3c-4 -1 -5 0 -7 7c-9 39 -54 109 -82 134l-113 -478c12 -2 23 -3 35 -3c88 0 148 53 186 107c3 4 4 5 7 3z" />
    <glyph glyph-name="R_p" horiz-adv-x="1078" 
d="M211 599v-264c14 -3 25 -4 43 -4c175 0 209 119 209 168c0 41 -20 75 -48 99c-38 26 -80 41 -160 41c-11 0 -24 -2 -32 -8c-7 -5 -12 -16 -12 -32zM136 302v113c0 74 0 138 -1 167c-1 33 -12 50 -35 50h-39c-5 0 -6 3 -6 7v25c0 5 1 7 6 7c9 0 39 -3 107 -3
c54 0 143 3 161 3c67 0 131 -20 167 -56c32 -32 50 -67 50 -105c0 -76 -55 -166 -165 -194v-2c23 -9 41 -22 54 -37c17 -21 41 -69 65 -109c16 -26 66 -101 84 -116c15 -13 39 -16 71 -16v247c0 24 -7 38 -36 54l-23 13c-7 3 -7 6 -7 9v8c0 3 2 5 7 7l96 48c8 4 16 8 23 8
c5 0 7 -5 7 -20l4 -47h3c27 34 79 66 146 66c51 0 85 -22 114 -49c38 -38 54 -79 54 -156c0 -131 -91 -236 -216 -236c-27 0 -69 2 -100 8v-201c0 -29 7 -34 22 -34h44c8 0 9 -4 9 -10v-17c0 -6 -2 -9 -9 -9c-5 0 -39 3 -103 3c-58 0 -93 -3 -101 -3c-7 0 -9 3 -9 10v18
c0 5 2 8 12 8h39c17 0 19 11 21 26c3 22 3 76 3 173v37c-14 1 -38 3 -64 3c-28 0 -64 -2 -78 -3c-10 10 -32 44 -40 57c-8 12 -43 78 -65 115c-17 28 -39 70 -62 92c-22 21 -47 41 -103 41c-8 0 -18 0 -32 -3v-38c0 -59 0 -171 2 -186c2 -21 10 -39 24 -39h61c7 0 8 -3 8 -8
v-22c0 -7 -1 -9 -11 -9c-11 0 -35 3 -114 3c-87 0 -109 -3 -120 -3c-8 0 -8 3 -8 8v23c0 5 0 8 5 8h40c20 0 37 7 37 34c2 99 1 146 1 232zM727 317v-226c0 -19 1 -42 21 -51c28 -12 59 -16 100 -16c57 0 116 42 116 163c0 140 -63 193 -130 193c-42 0 -83 -25 -107 -63z
" />
    <glyph glyph-name="percent" unicode="%" horiz-adv-x="750" 
d="M170 294c18 0 45 4 58 41c9 28 14 73 14 134c0 80 -11 184 -80 184c-17 0 -39 -10 -51 -35c-19 -40 -21 -111 -21 -154c0 -52 7 -93 18 -121c14 -33 45 -49 62 -49zM165 683c115 0 146 -122 150 -209c-2 -133 -59 -210 -145 -210c-130 0 -150 144 -150 201
c0 110 44 218 145 218zM598 654l-406 -656c-5 -9 -7 -13 -10 -13s-6 1 -18 8s-14 8 -14 12c0 3 2 7 5 12l406 658c2 4 4 8 8 8c3 0 6 -1 16 -6c16 -9 17 -11 17 -14c0 -2 -2 -5 -4 -9zM585 21c18 0 45 4 58 41c9 28 14 73 14 134c0 80 -11 184 -80 184
c-17 0 -39 -10 -51 -35c-19 -40 -21 -111 -21 -154c0 -52 7 -93 18 -121c14 -33 45 -49 62 -49zM580 410c115 0 146 -122 150 -209c-2 -133 -59 -210 -145 -210c-130 0 -150 144 -150 201c0 110 44 218 145 218z" />
    <glyph glyph-name="perthousand" unicode="&#x2030;" horiz-adv-x="1100" 
d="M170 294c18 0 45 4 58 41c9 28 14 73 14 134c0 80 -11 184 -80 184c-17 0 -39 -10 -51 -35c-19 -40 -21 -111 -21 -154c0 -52 7 -93 18 -121c14 -33 45 -49 62 -49zM165 683c115 0 146 -122 150 -209c-2 -133 -59 -210 -145 -210c-130 0 -150 144 -150 201
c0 110 44 218 145 218zM598 654l-406 -656c-5 -9 -7 -13 -10 -13s-6 1 -18 8s-14 8 -14 12c0 3 2 7 5 12l406 658c2 4 4 8 8 8c3 0 6 -1 16 -6c16 -9 17 -11 17 -14c0 -2 -2 -5 -4 -9zM585 21c18 0 45 4 58 41c9 28 14 73 14 134c0 80 -11 184 -80 184
c-17 0 -39 -10 -51 -35c-19 -40 -21 -111 -21 -154c0 -52 7 -93 18 -121c14 -33 45 -49 62 -49zM580 410c115 0 146 -122 150 -209c-2 -133 -59 -210 -145 -210c-130 0 -150 144 -150 201c0 110 44 218 145 218zM935 21c18 0 45 4 58 41c9 28 14 73 14 134
c0 80 -11 184 -80 184c-17 0 -39 -10 -51 -35c-19 -40 -21 -111 -21 -154c0 -52 7 -93 18 -121c14 -33 45 -49 62 -49zM930 410c115 0 146 -122 150 -209c-2 -133 -59 -210 -145 -210c-130 0 -150 144 -150 201c0 110 44 218 145 218z" />
    <glyph glyph-name="onehalf" unicode="&#xbd;" horiz-adv-x="742" 
d="M581 654l-406 -656c-5 -9 -7 -13 -10 -13s-6 1 -18 8s-14 8 -14 12c0 3 2 7 5 12l406 658c2 4 4 8 8 8c3 0 6 -1 16 -6c16 -9 17 -11 17 -14c0 -2 -2 -5 -4 -9zM602 0h-141c-21 0 -51 -2 -57 -2c-5 0 -7 1 -7 6c0 3 1 6 4 8c28 25 84 71 137 129c45 49 73 95 73 144
c0 54 -39 74 -65 74c-49 0 -75 -30 -89 -48c-3 -5 -7 -7 -11 -5l-13 7c-3 1 -3 3 -2 7c10 26 50 90 137 90c56 0 112 -33 112 -105c0 -48 -22 -93 -79 -153c-46 -49 -90 -86 -106 -98v-2h111c40 0 56 17 71 39c5 7 9 6 17 3c9 -3 11 -6 8 -13l-41 -89c-2 -5 -7 -6 -13 -6
c-7 0 -10 0 -14 6c-4 7 -11 8 -32 8zM183 498v-158c0 -30 4 -35 46 -35h23c4 0 6 -2 6 -6v-24c0 -4 -3 -5 -7 -5s-75 3 -104 3c-26 0 -102 -3 -105 -3c-5 0 -7 2 -7 5v26c0 3 4 4 9 4h29c43 0 45 5 46 33c0 8 1 88 1 122v30c0 14 -1 61 -2 84c-1 14 -4 24 -15 24
c-6 0 -15 -2 -26 -6l-39 -16c-6 -3 -9 -3 -10 -1l-11 20c-1 2 0 4 4 6l138 75c9 5 13 7 18 7c6 0 8 -4 8 -9c0 -9 -2 -99 -2 -176z" />
    <glyph glyph-name="onequarter" unicode="&#xbc;" horiz-adv-x="742" 
d="M630 0h-43c-6 0 -8 1 -8 10v95h-193c-5 0 -9 5 -9 11s2 10 7 15l223 267c4 4 10 12 18 12c9 0 15 -6 15 -23v-235h65c4 0 7 -2 7 -9v-30c0 -6 -2 -8 -10 -8h-62v-94c0 -9 -2 -11 -10 -11zM579 152v142c0 10 -7 15 -14 6l-113 -132c-9 -11 -5 -16 4 -16h123zM603 654
l-406 -656c-5 -9 -7 -13 -10 -13s-6 1 -18 8s-14 8 -14 12c0 3 2 7 5 12l406 658c2 4 4 8 8 8c3 0 6 -1 16 -6c16 -9 17 -11 17 -14c0 -2 -2 -5 -4 -9zM190 498v-158c0 -30 4 -35 46 -35h23c4 0 6 -2 6 -6v-24c0 -4 -3 -5 -7 -5s-75 3 -104 3c-26 0 -102 -3 -105 -3
c-5 0 -7 2 -7 5v26c0 3 4 4 9 4h29c43 0 45 5 46 33c0 8 1 88 1 122v30c0 14 -1 61 -2 84c-1 14 -4 24 -15 24c-6 0 -15 -2 -26 -6l-39 -16c-6 -3 -9 -3 -10 -1l-11 20c-1 2 0 4 4 6l138 75c9 5 13 7 18 7c6 0 8 -4 8 -9c0 -9 -2 -99 -2 -176z" />
    <glyph glyph-name="threequarters" unicode="&#xbe;" horiz-adv-x="742" 
d="M601 654l-406 -656c-5 -9 -7 -13 -10 -13s-6 1 -18 8s-14 8 -14 12c0 3 2 7 5 12l406 658c2 4 4 8 8 8c3 0 6 -1 16 -6c16 -9 17 -11 17 -14c0 -2 -2 -5 -4 -9zM26 311c0 23 11 37 26 37c23 0 26 -25 31 -33c4 -5 16 -20 54 -20c54 0 88 43 88 79c0 51 -36 91 -84 99
c-11 2 -14 6 -14 14c1 6 4 10 11 11c34 3 74 34 74 80c0 29 -24 60 -59 60c-38 0 -66 -22 -79 -58c-2 -6 -6 -8 -10 -7l-13 3c-4 1 -5 5 -4 10c8 41 39 97 126 97c74 0 99 -49 99 -79c0 -52 -38 -86 -71 -105c42 -9 93 -50 93 -103c0 -80 -72 -132 -163 -132
c-84 0 -105 30 -105 47zM620 0h-43c-6 0 -8 1 -8 10v95h-193c-5 0 -9 5 -9 11s2 10 7 15l223 267c4 4 10 12 18 12c9 0 15 -6 15 -23v-235h65c4 0 7 -2 7 -9v-30c0 -6 -2 -8 -10 -8h-62v-94c0 -9 -2 -11 -10 -11zM569 152v142c0 10 -7 15 -14 6l-113 -132
c-9 -11 -5 -16 4 -16h123z" />
    <glyph glyph-name="onethird" unicode="&#x2153;" horiz-adv-x="742" 
d="M581 654l-406 -656c-5 -9 -7 -13 -10 -13s-6 1 -18 8s-14 8 -14 12c0 3 2 7 5 12l406 658c2 4 4 8 8 8c3 0 6 -1 16 -6c16 -9 17 -11 17 -14c0 -2 -2 -5 -4 -9zM423 38c0 23 11 37 26 37c23 0 26 -25 31 -33c4 -5 16 -20 54 -20c54 0 88 43 88 79c0 51 -36 91 -84 99
c-11 2 -14 6 -14 14c1 6 4 10 11 11c34 3 74 34 74 80c0 29 -24 60 -59 60c-38 0 -66 -22 -79 -58c-2 -6 -6 -8 -10 -7l-13 3c-4 1 -5 5 -4 10c8 41 39 97 126 97c74 0 99 -49 99 -79c0 -52 -38 -86 -71 -105c42 -9 93 -50 93 -103c0 -80 -72 -132 -163 -132
c-84 0 -105 30 -105 47zM182 498v-158c0 -30 4 -35 46 -35h23c4 0 6 -2 6 -6v-24c0 -4 -3 -5 -7 -5s-75 3 -104 3c-26 0 -102 -3 -105 -3c-5 0 -7 2 -7 5v26c0 3 4 4 9 4h29c43 0 45 5 46 33c0 8 1 88 1 122v30c0 14 -1 61 -2 84c-1 14 -4 24 -15 24c-6 0 -15 -2 -26 -6
l-39 -16c-6 -3 -9 -3 -10 -1l-11 20c-1 2 0 4 4 6l138 75c9 5 13 7 18 7c6 0 8 -4 8 -9c0 -9 -2 -99 -2 -176z" />
    <glyph glyph-name="twothirds" unicode="&#x2154;" horiz-adv-x="742" 
d="M621 654l-406 -656c-5 -9 -7 -13 -10 -13s-6 1 -18 8s-14 8 -14 12c0 3 2 7 5 12l406 658c2 4 4 8 8 8c3 0 6 -1 16 -6c16 -9 17 -11 17 -14c0 -2 -2 -5 -4 -9zM463 38c0 23 11 37 26 37c23 0 26 -25 31 -33c4 -5 16 -20 54 -20c54 0 88 43 88 79c0 51 -36 91 -84 99
c-11 2 -14 6 -14 14c1 6 4 10 11 11c34 3 74 34 74 80c0 29 -24 60 -59 60c-38 0 -66 -22 -79 -58c-2 -6 -6 -8 -10 -7l-13 3c-4 1 -5 5 -4 10c8 41 39 97 126 97c74 0 99 -49 99 -79c0 -52 -38 -86 -71 -105c42 -9 93 -50 93 -103c0 -80 -72 -132 -163 -132
c-84 0 -105 30 -105 47zM203 273h-141c-21 0 -51 -2 -57 -2c-5 0 -7 1 -7 6c0 3 1 6 4 8c28 25 84 71 137 129c45 49 73 95 73 144c0 54 -39 74 -65 74c-49 0 -75 -30 -89 -48c-3 -5 -7 -7 -11 -5l-13 7c-3 1 -3 3 -2 7c10 26 50 90 137 90c56 0 112 -33 112 -105
c0 -48 -22 -93 -79 -153c-46 -49 -90 -86 -106 -98v-2h111c40 0 56 17 71 39c5 7 9 6 17 3c9 -3 11 -6 8 -13l-41 -89c-2 -5 -7 -6 -13 -6c-7 0 -10 0 -14 6c-4 7 -11 8 -32 8z" />
    <glyph glyph-name="oneeighth" unicode="&#x215b;" horiz-adv-x="742" 
d="M573 -9c-94 0 -124 49 -124 86c0 52 35 86 86 112c-45 23 -90 55 -90 107c0 54 50 114 144 114c66 0 116 -38 116 -89c0 -45 -26 -78 -91 -112c48 -23 92 -54 92 -112c0 -47 -49 -106 -133 -106zM577 20c47 0 71 34 71 65c0 43 -36 66 -86 89c-42 -18 -60 -52 -60 -87
c0 -41 38 -67 75 -67zM579 379c-47 0 -71 -34 -71 -70c0 -40 25 -56 78 -86c34 16 64 48 64 89c0 37 -27 67 -71 67zM583 654l-406 -656c-5 -9 -7 -13 -10 -13s-6 1 -18 8s-14 8 -14 12c0 3 2 7 5 12l406 658c2 4 4 8 8 8c3 0 6 -1 16 -6c16 -9 17 -11 17 -14
c0 -2 -2 -5 -4 -9zM185 498v-158c0 -30 4 -35 46 -35h23c4 0 6 -2 6 -6v-24c0 -4 -3 -5 -7 -5s-75 3 -104 3c-26 0 -102 -3 -105 -3c-5 0 -7 2 -7 5v26c0 3 4 4 9 4h29c43 0 45 5 46 33c0 8 1 88 1 122v30c0 14 -1 61 -2 84c-1 14 -4 24 -15 24c-6 0 -15 -2 -26 -6l-39 -16
c-6 -3 -9 -3 -10 -1l-11 20c-1 2 0 4 4 6l138 75c9 5 13 7 18 7c6 0 8 -4 8 -9c0 -9 -2 -99 -2 -176z" />
    <glyph glyph-name="threeeighths" unicode="&#x215c;" horiz-adv-x="742" 
d="M569 -9c-94 0 -124 49 -124 86c0 52 35 86 86 112c-45 23 -90 55 -90 107c0 54 50 114 144 114c66 0 116 -38 116 -89c0 -45 -26 -78 -91 -112c48 -23 92 -54 92 -112c0 -47 -49 -106 -133 -106zM573 20c47 0 71 34 71 65c0 43 -36 66 -86 89c-42 -18 -60 -52 -60 -87
c0 -41 38 -67 75 -67zM575 379c-47 0 -71 -34 -71 -70c0 -40 25 -56 78 -86c34 16 64 48 64 89c0 37 -27 67 -71 67zM577 654l-406 -656c-5 -9 -7 -13 -10 -13s-6 1 -18 8s-14 8 -14 12c0 3 2 7 5 12l406 658c2 4 4 8 8 8c3 0 6 -1 16 -6c16 -9 17 -11 17 -14
c0 -2 -2 -5 -4 -9zM9 311c0 23 11 37 26 37c23 0 26 -25 31 -33c4 -5 16 -20 54 -20c54 0 88 43 88 79c0 51 -36 91 -84 99c-11 2 -14 6 -14 14c1 6 4 10 11 11c34 3 74 34 74 80c0 29 -24 60 -59 60c-38 0 -66 -22 -79 -58c-2 -6 -6 -8 -10 -7l-13 3c-4 1 -5 5 -4 10
c8 41 39 97 126 97c74 0 99 -49 99 -79c0 -52 -38 -86 -71 -105c42 -9 93 -50 93 -103c0 -80 -72 -132 -163 -132c-84 0 -105 30 -105 47z" />
    <glyph glyph-name="fiveeighths" unicode="&#x215d;" horiz-adv-x="742" 
d="M569 -9c-94 0 -124 49 -124 86c0 52 35 86 86 112c-45 23 -90 55 -90 107c0 54 50 114 144 114c66 0 116 -38 116 -89c0 -45 -26 -78 -91 -112c48 -23 92 -54 92 -112c0 -47 -49 -106 -133 -106zM573 20c47 0 71 34 71 65c0 43 -36 66 -86 89c-42 -18 -60 -52 -60 -87
c0 -41 38 -67 75 -67zM575 379c-47 0 -71 -34 -71 -70c0 -40 25 -56 78 -86c34 16 64 48 64 89c0 37 -27 67 -71 67zM577 654l-406 -656c-5 -9 -7 -13 -10 -13s-6 1 -18 8s-14 8 -14 12c0 3 2 7 5 12l406 658c2 4 4 8 8 8c3 0 6 -1 16 -6c16 -9 17 -11 17 -14
c0 -2 -2 -5 -4 -9zM118 615l-14 -84c13 3 28 5 61 5c63 0 121 -43 121 -110c0 -98 -91 -162 -179 -162c-48 0 -85 16 -85 42c0 16 11 30 25 30c16 0 23 -11 28 -19c6 -8 13 -18 45 -18c50 0 101 37 101 103c0 39 -30 81 -78 81c-29 0 -47 -3 -63 -9c-4 -1 -7 -2 -12 0
c-3 2 -3 4 -3 15l24 169c1 8 4 13 13 13h144c21 0 27 10 38 30c2 4 6 4 13 2c6 -2 9 -6 8 -10l-23 -64c-4 -11 -10 -14 -27 -14h-137z" />
    <glyph glyph-name="seveneighths" unicode="&#x215e;" horiz-adv-x="742" 
d="M549 -9c-94 0 -124 49 -124 86c0 52 35 86 86 112c-45 23 -90 55 -90 107c0 54 50 114 144 114c66 0 116 -38 116 -89c0 -45 -26 -78 -91 -112c48 -23 92 -54 92 -112c0 -47 -49 -106 -133 -106zM553 20c47 0 71 34 71 65c0 43 -36 66 -86 89c-42 -18 -60 -52 -60 -87
c0 -41 38 -67 75 -67zM555 379c-47 0 -71 -34 -71 -70c0 -40 25 -56 78 -86c34 16 64 48 64 89c0 37 -27 67 -71 67zM542 654l-406 -656c-5 -9 -7 -13 -10 -13s-6 1 -18 8s-14 8 -14 12c0 3 2 7 5 12l406 658c2 4 4 8 8 8c3 0 6 -1 16 -6c16 -9 17 -11 17 -14
c0 -2 -2 -5 -4 -9zM153 671h189c3 0 6 -2 6 -5s0 -6 -4 -11c-4 -6 -57 -96 -83 -156c-6 -13 -64 -120 -88 -204c-7 -25 -20 -31 -42 -31c-15 0 -25 9 -25 22c0 15 14 40 22 56c11 22 123 217 159 277h-148c-31 0 -43 -15 -62 -40c-5 -7 -8 -6 -14 -3s-7 7 -6 10l39 100
c2 4 4 7 12 7c7 0 9 -2 8 -11c-1 -8 4 -11 37 -11z" />
    <glyph glyph-name="fraction" unicode="&#x2044;" horiz-adv-x="63" 
d="M224 654l-372 -656c-4 -9 -6 -13 -9 -13s-6 1 -18 8c-13 7 -15 8 -15 12c0 3 2 7 4 12l372 658c2 4 3 8 7 8c3 0 7 -1 17 -6c16 -9 17 -11 18 -14c0 -2 -2 -5 -4 -9z" />
    <glyph glyph-name="numbersign" unicode="#" 
d="M289 263l32 155h-108l-33 -155h109zM233 -4l45 214h-109l-45 -209c-2 -12 -4 -16 -10 -16h-45c-6 0 -6 4 -4 14l46 211h-113c-5 0 -8 3 -6 9l10 37c1 5 5 7 11 7h109l32 155h-104c-12 0 -15 2 -14 7l8 39c2 6 6 7 13 7h108l45 203c1 5 2 9 8 9h44c5 0 6 -4 4 -10
l-42 -202h108l42 203c2 5 3 9 10 9h44c5 0 6 -4 5 -11l-42 -201h109c6 0 10 -2 9 -7l-9 -39c-1 -5 -4 -7 -15 -7h-105l-33 -155h111c8 0 12 -2 11 -8l-10 -40c-1 -4 -4 -5 -12 -5h-111l-44 -213c-2 -8 -4 -12 -10 -12h-45c-6 0 -6 4 -4 11z" />
    <glyph glyph-name="degree" unicode="&#xb0;" horiz-adv-x="300" 
d="M150 723c72 0 112 -42 112 -101c0 -56 -44 -103 -112 -103c-71 0 -111 43 -111 103c0 55 44 101 111 101zM150 691c-33 0 -67 -28 -67 -69c0 -42 34 -72 67 -72c34 0 68 30 68 72c0 41 -34 69 -68 69z" />
    <glyph glyph-name="figuredash" unicode="&#x2012;" 
d="M460 238h-420v56h420v-56z" />
    <glyph glyph-name="plus" unicode="+" 
d="M281 40h-60v172h-165v56h165v172h60v-172h163v-56h-163v-172z" />
    <glyph glyph-name="minus" unicode="&#x2212;" 
d="M56 268h388v-56h-388v56z" />
    <glyph glyph-name="multiply" unicode="&#xd7;" 
d="M433 101l-41 -42l-145 146l-145 -146l-35 42l143 141l-142 140l40 41l143 -144l143 144l38 -37l-144 -142z" />
    <glyph glyph-name="divide" unicode="&#xf7;" 
d="M56 268h388v-56h-388v56zM251 344c-32 0 -56 23 -56 52c0 30 24 51 56 51c31 0 55 -21 55 -51c0 -29 -24 -52 -55 -52zM251 33c-32 0 -56 23 -56 52c0 30 24 51 56 51c31 0 55 -21 55 -51c0 -29 -24 -52 -55 -52z" />
    <glyph glyph-name="less" unicode="&#x3c;" 
d="M395 40l-311 185v32l311 183v-66l-221 -128v-5l221 -133v-68z" />
    <glyph glyph-name="equal" unicode="=" 
d="M56 347h388v-56h-388v56zM56 196h388v-56h-388v56z" />
    <glyph glyph-name="greater" unicode="&#x3e;" 
d="M105 440l311 -185v-32l-311 -183v66l221 128v5l-221 133v68z" />
    <glyph glyph-name="asciicircum" unicode="^" 
d="M23 260l211 423h32l212 -423h-65l-164 328h-5l-159 -328h-62z" />
    <glyph glyph-name="bar" unicode="|" horiz-adv-x="350" 
d="M197 -260h-42c-5 0 -6 4 -6 10v1003c0 6 1 9 6 9h40c5 0 7 -4 7 -12v-1000c0 -5 -1 -10 -5 -10z" />
    <glyph glyph-name="asciitilde" unicode="~" 
d="M390 309h53c0 -88 -47 -140 -99 -140c-31 0 -55 15 -83 33l-39 27c-25 16 -43 22 -66 22c-18 0 -46 -20 -46 -80h-53c0 88 47 140 99 140c29 0 51 -6 80 -24l42 -28c18 -11 40 -30 63 -30c25 0 49 22 49 80z" />
    <glyph glyph-name="brokenbar" unicode="&#xa6;" horiz-adv-x="350" 
d="M158 175h38c5 0 6 -4 6 -10v-330c0 -5 -2 -10 -9 -10h-38c-5 0 -6 4 -6 10v330c0 5 2 10 9 10zM193 325h-38c-5 0 -6 4 -6 10v331c0 6 1 9 6 9h40c5 0 7 -4 7 -12v-328c0 -5 -2 -10 -9 -10z" />
    <glyph glyph-name="logicalnot" unicode="&#xac;" 
d="M56 291v56h388v-225h-60v169h-328z" />
    <glyph glyph-name="plusminus" unicode="&#xb1;" 
d="M281 147h-60v142h-165v56h165v137h60v-137h163v-56h-163v-142zM56 65h388v-56h-388v56z" />
    <glyph glyph-name="mu" unicode="&#xb5;" horiz-adv-x="520" 
d="M351 114v215c0 26 -4 56 -4 70c0 10 1 18 11 18h50c12 0 19 -3 19 -13c0 -9 -4 -58 -4 -127v-74c0 -48 0 -97 1 -118c1 -34 14 -46 27 -46c11 0 27 6 34 12c5 5 9 2 11 -2l6 -11c2 -4 0 -8 -5 -12c-24 -24 -48 -38 -83 -38c-42 0 -56 44 -62 75h-2
c-28 -43 -86 -75 -133 -75c-21 0 -52 9 -73 41h-2c0 -143 11 -263 11 -278c0 -6 -2 -8 -10 -10l-53 -13c-7 0 -9 2 -9 6l-1 546c0 56 -3 106 -3 118c0 14 4 19 13 19h51c11 0 14 -7 14 -19c0 -9 -2 -46 -2 -110v-62c0 -52 -2 -108 13 -141c12 -25 35 -51 79 -51
c37 0 76 27 96 54c4 5 10 18 10 26z" />
    <glyph glyph-name="pi" unicode="&#x3c0;" horiz-adv-x="526" 
d="M36 321l-16 20c24 28 67 77 171 76c66 -1 160 -2 234 -2c27 0 38 2 50 29l25 -7c-5 -36 -15 -64 -23 -80c-14 -4 -54 -4 -73 -4c-5 -70 -5 -145 -4 -214c0 -66 15 -88 38 -88c12 0 27 4 41 10l10 -19c-19 -29 -52 -54 -86 -54c-36 -1 -70 24 -70 120c0 89 4 166 8 246
c-53 1 -97 1 -137 1v-20c0 -230 -42 -317 -51 -329c-27 -11 -44 -16 -61 -17l-7 18c58 84 76 249 76 349c-58 0 -95 -10 -125 -35z" />
    <glyph glyph-name="Agrave" unicode="&#xc0;" horiz-adv-x="743" 
d="M465 278h-246c-10 -25 -65 -177 -70 -198c-1 -7 -3 -17 -3 -22c0 -14 12 -22 34 -22h47c7 0 10 -2 10 -7v-23c0 -7 -3 -9 -8 -9c-14 0 -55 3 -114 3c-73 0 -95 -3 -109 -3c-5 0 -7 2 -7 8v24c0 5 4 7 8 7h35c30 0 44 14 58 46c7 16 80 201 109 283c7 20 88 235 97 262
c3 10 8 23 1 34c-3 4 -7 9 -7 13c0 3 2 7 9 9c28 6 72 36 83 50c5 5 8 9 13 9c6 0 8 -6 11 -17c19 -63 97 -287 116 -351c23 -78 88 -264 102 -293c17 -33 43 -45 68 -45h33c6 0 8 -3 8 -7v-25c0 -5 -3 -7 -10 -7c-18 0 -39 3 -120 3c-83 0 -118 -3 -141 -3c-5 0 -8 3 -8 9
v23c0 6 3 7 9 7h25c28 0 37 10 30 38c-8 36 -49 164 -63 204zM232 314h221c-9 30 -90 280 -95 295c-3 7 -5 14 -8 14c-4 0 -8 -7 -11 -15c-5 -13 -100 -269 -107 -294zM409 783l-12 -14c-1 -1 -4 -2 -8 0l-167 82c-20 10 -29 25 -29 40c0 18 15 35 36 35c14 0 25 -7 41 -20
l139 -114c3 -3 3 -5 0 -9z" />
    <glyph glyph-name="Aacute" unicode="&#xc1;" horiz-adv-x="743" 
d="M465 278h-246c-10 -25 -65 -177 -70 -198c-1 -7 -3 -17 -3 -22c0 -14 12 -22 34 -22h47c7 0 10 -2 10 -7v-23c0 -7 -3 -9 -8 -9c-14 0 -55 3 -114 3c-73 0 -95 -3 -109 -3c-5 0 -7 2 -7 8v24c0 5 4 7 8 7h35c30 0 44 14 58 46c7 16 80 201 109 283c7 20 88 235 97 262
c3 10 8 23 1 34c-3 4 -7 9 -7 13c0 3 2 7 9 9c28 6 72 36 83 50c5 5 8 9 13 9c6 0 8 -6 11 -17c19 -63 97 -287 116 -351c23 -78 88 -264 102 -293c17 -33 43 -45 68 -45h33c6 0 8 -3 8 -7v-25c0 -5 -3 -7 -10 -7c-18 0 -39 3 -120 3c-83 0 -118 -3 -141 -3c-5 0 -8 3 -8 9
v23c0 6 3 7 9 7h25c28 0 37 10 30 38c-8 36 -49 164 -63 204zM232 314h221c-9 30 -90 280 -95 295c-3 7 -5 14 -8 14c-4 0 -8 -7 -11 -15c-5 -13 -100 -269 -107 -294zM331 769l-12 16c-2 2 -1 6 2 8l137 113c16 13 27 20 41 20c21 0 36 -17 36 -35c0 -15 -9 -30 -29 -40
l-168 -82c-3 -2 -6 -1 -7 0z" />
    <glyph glyph-name="Acircumflex" unicode="&#xc2;" horiz-adv-x="743" 
d="M465 278h-246c-10 -25 -65 -177 -70 -198c-1 -7 -3 -17 -3 -22c0 -14 12 -22 34 -22h47c7 0 10 -2 10 -7v-23c0 -7 -3 -9 -8 -9c-14 0 -55 3 -114 3c-73 0 -95 -3 -109 -3c-5 0 -7 2 -7 8v24c0 5 4 7 8 7h35c30 0 44 14 58 46c7 16 80 201 109 283c7 20 88 235 97 262
c3 10 8 23 1 34c-3 4 -7 9 -7 13c0 3 2 7 9 9c28 6 72 36 83 50c5 5 8 9 13 9c6 0 8 -6 11 -17c19 -63 97 -287 116 -351c23 -78 88 -264 102 -293c17 -33 43 -45 68 -45h33c6 0 8 -3 8 -7v-25c0 -5 -3 -7 -10 -7c-18 0 -39 3 -120 3c-83 0 -118 -3 -141 -3c-5 0 -8 3 -8 9
v23c0 6 3 7 9 7h25c28 0 37 10 30 38c-8 36 -49 164 -63 204zM232 314h221c-9 30 -90 280 -95 295c-3 7 -5 14 -8 14c-4 0 -8 -7 -11 -15c-5 -13 -100 -269 -107 -294zM506 770l-128 57l-119 -57c-4 -2 -7 -3 -10 0l-8 10c-2 3 -1 5 3 9l123 111c5 4 10 9 13 9
c4 0 9 -5 14 -9l127 -112c3 -3 3 -5 1 -8l-7 -9c-2 -3 -5 -3 -9 -1z" />
    <glyph glyph-name="Atilde" unicode="&#xc3;" horiz-adv-x="743" 
d="M465 278h-246c-10 -25 -65 -177 -70 -198c-1 -7 -3 -17 -3 -22c0 -14 12 -22 34 -22h47c7 0 10 -2 10 -7v-23c0 -7 -3 -9 -8 -9c-14 0 -55 3 -114 3c-73 0 -95 -3 -109 -3c-5 0 -7 2 -7 8v24c0 5 4 7 8 7h35c30 0 44 14 58 46c7 16 80 201 109 283c7 20 88 235 97 262
c3 10 8 23 1 34c-3 4 -7 9 -7 13c0 3 2 7 9 9c28 6 72 36 83 50c5 5 8 9 13 9c6 0 8 -6 11 -17c19 -63 97 -287 116 -351c23 -78 88 -264 102 -293c17 -33 43 -45 68 -45h33c6 0 8 -3 8 -7v-25c0 -5 -3 -7 -10 -7c-18 0 -39 3 -120 3c-83 0 -118 -3 -141 -3c-5 0 -8 3 -8 9
v23c0 6 3 7 9 7h25c28 0 37 10 30 38c-8 36 -49 164 -63 204zM232 314h221c-9 30 -90 280 -95 295c-3 7 -5 14 -8 14c-4 0 -8 -7 -11 -15c-5 -13 -100 -269 -107 -294zM258 782h-18c-4 0 -6 4 -3 17c9 53 41 85 81 85c29 0 51 -9 80 -16c25 -7 44 -13 68 -13
c22 0 29 19 33 34c1 4 3 6 7 6h17c4 0 6 -4 3 -18c-8 -39 -33 -78 -77 -78c-28 0 -52 10 -83 18c-23 7 -41 10 -62 10c-16 0 -33 -15 -39 -40c-1 -4 -4 -5 -7 -5z" />
    <glyph glyph-name="Adieresis" unicode="&#xc4;" horiz-adv-x="743" 
d="M465 278h-246c-10 -25 -65 -177 -70 -198c-1 -7 -3 -17 -3 -22c0 -14 12 -22 34 -22h47c7 0 10 -2 10 -7v-23c0 -7 -3 -9 -8 -9c-14 0 -55 3 -114 3c-73 0 -95 -3 -109 -3c-5 0 -7 2 -7 8v24c0 5 4 7 8 7h35c30 0 44 14 58 46c7 16 80 201 109 283c7 20 88 235 97 262
c3 10 8 23 1 34c-3 4 -7 9 -7 13c0 3 2 7 9 9c28 6 72 36 83 50c5 5 8 9 13 9c6 0 8 -6 11 -17c19 -63 97 -287 116 -351c23 -78 88 -264 102 -293c17 -33 43 -45 68 -45h33c6 0 8 -3 8 -7v-25c0 -5 -3 -7 -10 -7c-18 0 -39 3 -120 3c-83 0 -118 -3 -141 -3c-5 0 -8 3 -8 9
v23c0 6 3 7 9 7h25c28 0 37 10 30 38c-8 36 -49 164 -63 204zM232 314h221c-9 30 -90 280 -95 295c-3 7 -5 14 -8 14c-4 0 -8 -7 -11 -15c-5 -13 -100 -269 -107 -294zM281 880c22 0 44 -18 44 -48c0 -27 -21 -45 -44 -45c-18 0 -52 10 -52 49c0 12 11 44 52 44zM480 880
c23 0 45 -18 45 -48c0 -27 -21 -45 -45 -45c-18 0 -52 10 -52 49c0 12 11 44 52 44z" />
    <glyph glyph-name="Aring" unicode="&#xc5;" horiz-adv-x="743" 
d="M465 278h-246c-10 -25 -65 -177 -70 -198c-1 -7 -3 -17 -3 -22c0 -14 12 -22 34 -22h47c7 0 10 -2 10 -7v-23c0 -7 -3 -9 -8 -9c-14 0 -55 3 -114 3c-73 0 -95 -3 -109 -3c-5 0 -7 2 -7 8v24c0 5 4 7 8 7h35c30 0 44 14 58 46c7 16 80 201 109 283c7 20 88 235 97 262
c3 10 8 23 1 34c-3 4 -7 9 -7 13c0 3 2 7 9 8c31 5 54 9 75 15c16 5 24 11 32 11c7 0 10 -12 13 -22c7 -23 84 -248 103 -312c23 -78 88 -264 102 -293c17 -33 43 -45 68 -45h33c6 0 8 -3 8 -7v-25c0 -5 -3 -7 -10 -7c-18 0 -39 3 -120 3c-83 0 -118 -3 -141 -3
c-5 0 -8 3 -8 9v23c0 6 3 7 9 7h25c28 0 37 10 30 38c-8 36 -49 164 -63 204zM232 314h221c-9 30 -90 280 -95 295c-2 7 -4 14 -8 14c-5 0 -8 -7 -11 -15c-5 -13 -100 -269 -107 -294zM369 755c-50 0 -94 27 -94 71c0 47 48 79 103 79c64 0 95 -31 95 -69
c0 -64 -64 -81 -104 -81zM374 780c29 0 47 19 47 51c0 31 -23 49 -45 49c-33 -1 -49 -27 -49 -49c0 -29 16 -51 47 -51z" />
    <glyph glyph-name="Amacron" unicode="&#x100;" horiz-adv-x="743" 
d="M465 278h-246c-10 -25 -65 -177 -70 -198c-1 -7 -3 -17 -3 -22c0 -14 12 -22 34 -22h47c7 0 10 -2 10 -7v-23c0 -7 -3 -9 -8 -9c-14 0 -55 3 -114 3c-73 0 -95 -3 -109 -3c-5 0 -7 2 -7 8v24c0 5 4 7 8 7h35c30 0 44 14 58 46c7 16 80 201 109 283c7 20 88 235 97 262
c3 10 8 23 1 34c-3 4 -7 9 -7 13c0 3 2 7 9 9c28 6 72 36 83 50c5 5 8 9 13 9c6 0 8 -6 11 -17c19 -63 97 -287 116 -351c23 -78 88 -264 102 -293c17 -33 43 -45 68 -45h33c6 0 8 -3 8 -7v-25c0 -5 -3 -7 -10 -7c-18 0 -39 3 -120 3c-83 0 -118 -3 -141 -3c-5 0 -8 3 -8 9
v23c0 6 3 7 9 7h25c28 0 37 10 30 38c-8 36 -49 164 -63 204zM232 314h221c-9 30 -90 280 -95 295c-3 7 -5 14 -8 14c-4 0 -8 -7 -11 -15c-5 -13 -100 -269 -107 -294zM501 834v-33c0 -5 -5 -7 -11 -7h-239c-7 0 -8 2 -8 7v33c0 5 2 7 8 7h241c6 0 9 -2 9 -7z" />
    <glyph glyph-name="Abreve" unicode="&#x102;" horiz-adv-x="743" 
d="M465 278h-246c-10 -25 -65 -177 -70 -198c-1 -7 -3 -17 -3 -22c0 -14 12 -22 34 -22h47c7 0 10 -2 10 -7v-23c0 -7 -3 -9 -8 -9c-14 0 -55 3 -114 3c-73 0 -95 -3 -109 -3c-5 0 -7 2 -7 8v24c0 5 4 7 8 7h35c30 0 44 14 58 46c7 16 80 201 109 283c7 20 88 235 97 262
c3 10 8 23 1 34c-3 4 -7 9 -7 13c0 3 2 7 9 9c28 6 72 36 83 50c5 5 8 9 13 9c6 0 8 -6 11 -17c19 -63 97 -287 116 -351c23 -78 88 -264 102 -293c17 -33 43 -45 68 -45h33c6 0 8 -3 8 -7v-25c0 -5 -3 -7 -10 -7c-18 0 -39 3 -120 3c-83 0 -118 -3 -141 -3c-5 0 -8 3 -8 9
v23c0 6 3 7 9 7h25c28 0 37 10 30 38c-8 36 -49 164 -63 204zM232 314h221c-9 30 -90 280 -95 295c-3 7 -5 14 -8 14c-4 0 -8 -7 -11 -15c-5 -13 -100 -269 -107 -294zM370 767c-63 0 -116 58 -131 119c-2 8 -1 12 2 13l11 5c2 1 5 -1 8 -6c26 -43 69 -69 110 -69
c50 0 99 40 113 69c2 4 4 7 8 5l12 -5c3 -2 3 -6 2 -10c-12 -48 -74 -121 -135 -121z" />
    <glyph glyph-name="Aogonek" unicode="&#x104;" horiz-adv-x="743" 
d="M232 314h221c-9 30 -90 280 -95 295c-3 7 -5 14 -8 14c-4 0 -8 -7 -11 -15c-5 -13 -100 -269 -107 -294zM735 36c6 0 8 -3 8 -7v-25c0 -5 -3 -7 -10 -7c-20 2 -35 3 -46 3h-59c-81 0 -145 -77 -145 -154c0 -38 18 -62 49 -62c24 0 43 13 55 23c6 7 11 11 15 11
c7 0 9 -9 9 -16c0 -24 -41 -66 -109 -66c-42 0 -99 29 -99 94c0 68 61 114 99 152c25 25 31 35 31 58c0 11 -2 20 -5 34c-8 36 -49 164 -63 204h-246c-10 -25 -65 -177 -70 -198c-1 -7 -3 -17 -3 -22c0 -14 12 -22 34 -22h47c7 0 10 -2 10 -7v-23c0 -7 -3 -9 -8 -9
c-14 0 -55 3 -114 3c-73 0 -95 -3 -109 -3c-5 0 -7 2 -7 8v24c0 5 4 7 8 7h35c30 0 44 14 58 46c7 16 80 201 109 283c7 20 88 235 97 262c3 10 8 23 1 34c-3 4 -7 9 -7 13c0 3 2 7 9 9c28 6 72 36 83 50c5 5 8 9 13 9c6 0 8 -6 11 -17c19 -63 97 -287 116 -351
c23 -78 88 -264 102 -293c17 -33 43 -45 68 -45h33z" />
    <glyph glyph-name="Ccedilla" unicode="&#xc7;" horiz-adv-x="746" 
d="M303 -95l64 82c-96 8 -159 42 -212 90c-72 68 -107 184 -107 280c0 93 30 189 102 265c51 54 141 101 250 101c91 0 166 -34 202 -55c13 -8 18 -7 20 0l8 29c2 6 4 6 13 6s11 -2 11 -16c0 -19 20 -166 25 -194c1 -5 0 -9 -4 -10l-15 -4c-5 -2 -7 0 -10 9
c-12 32 -39 83 -78 123c-42 43 -95 77 -174 77c-179 0 -251 -159 -250 -305c0 -58 18 -171 96 -257c68 -76 125 -84 192 -84c113 0 201 62 247 127c3 5 5 6 8 3l13 -10c3 -2 5 -4 2 -9c-60 -87 -157 -168 -297 -168l-42 -53c36 -10 67 -37 67 -68c0 -63 -93 -100 -158 -100
c-16 0 -20 9 -20 20c0 12 15 14 32 14c31 0 79 18 79 56c0 25 -20 41 -64 51z" />
    <glyph glyph-name="Cacute" unicode="&#x106;" horiz-adv-x="746" 
d="M408 -15c-118 0 -193 37 -253 92c-72 68 -107 184 -107 280c0 93 30 189 102 265c51 54 141 101 250 101c91 0 166 -34 202 -55c13 -8 18 -7 20 0l8 29c2 6 4 6 13 6s11 -2 11 -16c0 -19 20 -166 25 -194c1 -5 0 -9 -4 -10l-15 -4c-5 -1 -7 0 -10 8
c-14 33 -36 81 -78 124s-95 77 -174 77c-179 0 -251 -159 -250 -305c0 -58 18 -171 96 -257c68 -76 125 -84 192 -84c113 0 201 62 247 127c3 5 5 6 8 3l13 -10c3 -2 5 -4 2 -9c-60 -87 -157 -168 -298 -168zM328 769l-12 16c-2 2 -1 6 2 8l137 113c16 13 27 20 41 20
c21 0 36 -17 36 -35c0 -15 -9 -30 -29 -40l-168 -82c-3 -2 -6 -1 -7 0z" />
    <glyph glyph-name="Ccaron" unicode="&#x10c;" horiz-adv-x="746" 
d="M408 -15c-118 0 -193 37 -253 92c-72 68 -107 184 -107 280c0 93 30 189 102 265c51 54 141 101 250 101c91 0 166 -34 202 -55c13 -8 18 -7 20 0l8 29c2 6 4 6 13 6s11 -2 11 -16c0 -19 20 -166 25 -194c1 -5 0 -9 -4 -10l-15 -4c-5 -1 -7 0 -10 8
c-14 33 -36 81 -78 124s-95 77 -174 77c-179 0 -251 -159 -250 -305c0 -58 18 -171 96 -257c68 -76 125 -84 192 -84c113 0 201 62 247 127c3 5 5 6 8 3l13 -10c3 -2 5 -4 2 -9c-60 -87 -157 -168 -298 -168zM288 909l131 -56l117 55c5 3 8 4 10 1l8 -10c3 -3 2 -5 -2 -9
l-126 -111c-5 -4 -10 -9 -13 -9c-4 0 -8 4 -14 9l-126 112c-3 3 -3 5 -1 8l7 9c2 3 5 3 9 1z" />
    <glyph glyph-name="Dcaron" unicode="&#x10e;" horiz-adv-x="813" 
d="M143 384v75c0 26 -3 168 -5 185c-3 24 -16 28 -43 28h-55c-5 0 -8 1 -8 7v27c0 4 3 5 7 5c13 0 57 -3 147 -3c26 0 126 3 149 3c129 0 237 -15 325 -90c65 -56 111 -139 111 -255c0 -115 -33 -191 -99 -263c-96 -106 -234 -106 -311 -106c-63 0 -139 3 -184 3
c-87 0 -127 -3 -141 -3c-5 0 -7 2 -7 7v26c0 4 3 6 8 6h67c19 0 30 8 32 24c3 21 7 246 7 324zM235 433v-71c0 -13 1 -183 2 -245c0 -20 4 -36 17 -56c16 -21 56 -32 106 -32c102 0 185 44 235 108c42 52 73 134 73 225c0 78 -34 168 -82 221c-52 57 -140 96 -251 96
c-22 0 -63 0 -80 -10c-14 -9 -18 -25 -19 -47c-1 -42 -1 -173 -1 -189zM281 909l131 -56l117 55c5 3 8 4 10 1l8 -10c3 -3 2 -5 -2 -9l-126 -111c-5 -4 -10 -9 -13 -9c-4 0 -8 4 -14 9l-126 112c-3 3 -3 5 -1 8l7 9c2 3 5 3 9 1z" />
    <glyph glyph-name="Dcroat" unicode="&#x110;" horiz-adv-x="813" 
d="M235 433v-57h170c8 0 9 -3 9 -9v-20c0 -7 -2 -9 -9 -9h-170c0 -21 1 -165 2 -221c0 -20 4 -36 17 -56c16 -21 56 -32 107 -32c101 0 184 44 234 108c42 52 73 134 73 225c0 78 -34 168 -82 221c-52 57 -140 96 -251 96c-22 0 -63 0 -80 -10c-14 -8 -18 -25 -19 -47
c-1 -42 -1 -173 -1 -189zM29 5v24c0 4 1 7 7 7h68c19 0 29 8 33 30c2 12 6 151 6 245v27h-97c-7 0 -9 3 -9 9v20c0 6 1 9 9 9h97v83c0 26 -3 168 -5 185c-2 20 -16 28 -43 28h-57c-5 0 -6 2 -6 9v22c0 6 1 8 8 8c12 0 46 -3 146 -3c42 0 126 3 149 3c129 0 237 -15 325 -90
c65 -56 111 -139 111 -255c0 -115 -33 -191 -99 -263c-96 -106 -235 -106 -311 -106c-16 0 -141 3 -184 3c-83 0 -132 -3 -140 -3c-7 0 -8 1 -8 8z" />
    <glyph glyph-name="Egrave" unicode="&#xc8;" horiz-adv-x="690" 
d="M238 676v-293c8 0 115 4 127 6c29 5 37 13 46 44c3 10 7 30 8 49c0 5 3 7 7 7l25 -1c5 0 7 -4 6 -8c-3 -17 -3 -99 -3 -114c0 -35 4 -83 6 -104c0 -5 -2 -7 -6 -8l-22 -3c-5 -1 -7 2 -8 9c-2 13 -8 36 -11 47c-6 21 -17 36 -43 39c-47 5 -116 5 -132 5v-62
c0 -54 2 -151 2 -171c1 -52 26 -72 57 -78c20 -4 49 -7 74 -7c17 0 67 1 88 3c17 2 61 13 87 35c12 10 68 82 82 105c3 5 6 9 12 6l16 -9c5 -3 5 -6 2 -14l-53 -147c-3 -9 -10 -15 -22 -15c-5 0 -27 1 -87 2c-60 0 -157 1 -313 1c-37 0 -65 -1 -85 -1c-21 -1 -34 -2 -43 -2
c-6 0 -9 2 -9 7v27c0 4 3 5 10 5h40c46 0 50 7 50 44v237v98c0 83 -2 208 -3 218c-4 32 -14 39 -51 39h-36c-5 0 -8 1 -8 7v27c0 3 2 5 7 5c22 0 57 -3 123 -3h44c99 0 198 1 297 1c16 0 35 2 40 2s7 -2 8 -5c4 -14 48 -151 51 -161c1 -4 1 -7 -3 -9l-15 -8c-3 -2 -7 1 -8 3
c-2 4 -76 99 -100 114c-21 14 -49 26 -76 27zM412 783l-12 -14c-1 -1 -4 -2 -8 0l-167 82c-20 10 -29 25 -29 40c0 18 15 35 36 35c14 0 25 -7 41 -20l139 -114c3 -3 3 -5 0 -9z" />
    <glyph glyph-name="Eacute" unicode="&#xc9;" horiz-adv-x="690" 
d="M238 676v-293c8 0 115 4 127 6c29 5 37 13 46 44c3 10 7 30 8 49c0 5 3 7 7 7l25 -1c5 0 7 -4 6 -8c-3 -17 -3 -99 -3 -114c0 -35 4 -83 6 -104c0 -5 -2 -7 -6 -8l-22 -3c-5 -1 -7 2 -8 9c-2 13 -8 36 -11 47c-6 21 -17 36 -43 39c-47 5 -116 5 -132 5v-62
c0 -54 2 -151 2 -171c1 -52 26 -72 57 -78c20 -4 49 -7 74 -7c17 0 67 1 88 3c17 2 61 13 87 35c12 10 68 82 82 105c3 5 6 9 12 6l16 -9c5 -3 5 -6 2 -14l-53 -147c-3 -9 -10 -15 -22 -15c-5 0 -27 1 -87 2c-60 0 -157 1 -313 1c-37 0 -65 -1 -85 -1c-21 -1 -34 -2 -43 -2
c-6 0 -9 2 -9 7v27c0 4 3 5 10 5h40c46 0 50 7 50 44v237v98c0 83 -2 208 -3 218c-4 32 -14 39 -51 39h-36c-5 0 -8 1 -8 7v27c0 3 2 5 7 5c22 0 57 -3 123 -3h44c99 0 198 1 297 1c16 0 35 2 40 2s7 -2 8 -5c4 -14 48 -151 51 -161c1 -4 1 -7 -3 -9l-15 -8c-3 -2 -7 1 -8 3
c-2 4 -76 99 -100 114c-21 14 -49 26 -76 27zM300 769l-12 16c-2 2 -1 6 2 8l137 113c16 13 27 20 41 20c21 0 36 -17 36 -35c0 -15 -9 -30 -29 -40l-168 -82c-3 -2 -6 -1 -7 0z" />
    <glyph glyph-name="Ecircumflex" unicode="&#xca;" horiz-adv-x="690" 
d="M238 676v-293c8 0 115 4 127 6c29 5 37 13 46 44c3 10 7 30 8 49c0 5 3 7 7 7l25 -1c5 0 7 -4 6 -8c-3 -17 -3 -99 -3 -114c0 -35 4 -83 6 -104c0 -5 -2 -7 -6 -8l-22 -3c-5 -1 -7 2 -8 9c-2 13 -8 36 -11 47c-6 21 -17 36 -43 39c-47 5 -116 5 -132 5v-62
c0 -54 2 -151 2 -171c1 -52 26 -72 57 -78c20 -4 49 -7 74 -7c17 0 67 1 88 3c17 2 61 13 87 35c12 10 68 82 82 105c3 5 6 9 12 6l16 -9c5 -3 5 -6 2 -14l-53 -147c-3 -9 -10 -15 -22 -15c-5 0 -27 1 -87 2c-60 0 -157 1 -313 1c-37 0 -65 -1 -85 -1c-21 -1 -34 -2 -43 -2
c-6 0 -9 2 -9 7v27c0 4 3 5 10 5h40c46 0 50 7 50 44v237v98c0 83 -2 208 -3 218c-4 32 -14 39 -51 39h-36c-5 0 -8 1 -8 7v27c0 3 2 5 7 5c22 0 57 -3 123 -3h44c99 0 198 1 297 1c16 0 35 2 40 2s7 -2 8 -5c4 -14 48 -151 51 -161c1 -4 1 -7 -3 -9l-15 -8c-3 -2 -7 1 -8 3
c-2 4 -76 99 -100 114c-21 14 -49 26 -76 27zM485 770l-128 57l-119 -57c-4 -2 -7 -3 -10 0l-8 10c-2 3 -1 5 3 9l123 111c5 4 10 9 13 9c4 0 9 -5 14 -9l127 -112c3 -3 3 -5 1 -8l-7 -9c-2 -3 -5 -3 -9 -1z" />
    <glyph glyph-name="Edieresis" unicode="&#xcb;" horiz-adv-x="690" 
d="M238 676v-293c8 0 115 4 127 6c29 5 37 13 46 44c3 10 7 30 8 49c0 5 3 7 7 7l25 -1c5 0 7 -4 6 -8c-3 -17 -3 -99 -3 -114c0 -35 4 -83 6 -104c0 -5 -2 -7 -6 -8l-22 -3c-5 -1 -7 2 -8 9c-2 13 -8 36 -11 47c-6 21 -17 36 -43 39c-47 5 -116 5 -132 5v-62
c0 -54 2 -151 2 -171c1 -52 26 -72 57 -78c20 -4 49 -7 74 -7c17 0 67 1 88 3c17 2 61 13 87 35c12 10 68 82 82 105c3 5 6 9 12 6l16 -9c5 -3 5 -6 2 -14l-53 -147c-3 -9 -10 -15 -22 -15c-5 0 -27 1 -87 2c-60 0 -157 1 -313 1c-37 0 -65 -1 -85 -1c-21 -1 -34 -2 -43 -2
c-6 0 -9 2 -9 7v27c0 4 3 5 10 5h40c46 0 50 7 50 44v237v98c0 83 -2 208 -3 218c-4 32 -14 39 -51 39h-36c-5 0 -8 1 -8 7v27c0 3 2 5 7 5c22 0 57 -3 123 -3h44c99 0 198 1 297 1c16 0 35 2 40 2s7 -2 8 -5c4 -14 48 -151 51 -161c1 -4 1 -7 -3 -9l-15 -8c-3 -2 -7 1 -8 3
c-2 4 -76 99 -100 114c-21 14 -49 26 -76 27zM259 880c22 0 44 -18 44 -48c0 -27 -21 -45 -44 -45c-18 0 -52 10 -52 49c0 12 11 44 52 44zM458 880c23 0 45 -18 45 -48c0 -27 -21 -45 -45 -45c-18 0 -52 10 -52 49c0 12 11 44 52 44z" />
    <glyph glyph-name="Emacron" unicode="&#x112;" horiz-adv-x="690" 
d="M238 676v-293c8 0 115 4 127 6c29 5 37 13 46 44c3 10 7 30 8 49c0 5 3 7 7 7l25 -1c5 0 7 -4 6 -8c-3 -17 -3 -99 -3 -114c0 -35 4 -83 6 -104c0 -5 -2 -7 -6 -8l-22 -3c-5 -1 -7 2 -8 9c-2 13 -8 36 -11 47c-6 21 -17 36 -43 39c-47 5 -116 5 -132 5v-62
c0 -54 2 -151 2 -171c1 -52 26 -72 57 -78c20 -4 49 -7 74 -7c17 0 67 1 88 3c17 2 61 13 87 35c12 10 68 82 82 105c3 5 6 9 12 6l16 -9c5 -3 5 -6 2 -14l-53 -147c-3 -9 -10 -15 -22 -15c-5 0 -27 1 -87 2c-60 0 -157 1 -313 1c-37 0 -65 -1 -85 -1c-21 -1 -34 -2 -43 -2
c-6 0 -9 2 -9 7v27c0 4 3 5 10 5h40c46 0 50 7 50 44v237v98c0 83 -2 208 -3 218c-4 32 -14 39 -51 39h-36c-5 0 -8 1 -8 7v27c0 3 2 5 7 5c22 0 57 -3 123 -3h44c99 0 198 1 297 1c16 0 35 2 40 2s7 -2 8 -5c4 -14 48 -151 51 -161c1 -4 1 -7 -3 -9l-15 -8c-3 -2 -7 1 -8 3
c-2 4 -76 99 -100 114c-21 14 -49 26 -76 27zM474 834v-33c0 -5 -5 -7 -11 -7h-239c-7 0 -8 2 -8 7v33c0 5 2 7 8 7h241c6 0 9 -2 9 -7z" />
    <glyph glyph-name="Edotaccent" unicode="&#x116;" horiz-adv-x="690" 
d="M238 676v-293c8 0 115 4 127 6c29 5 37 13 46 44c3 10 7 30 8 49c0 5 3 7 7 7l25 -1c5 0 7 -4 6 -8c-3 -17 -3 -99 -3 -114c0 -35 4 -83 6 -104c0 -5 -2 -7 -6 -8l-22 -3c-5 -1 -7 2 -8 9c-2 13 -8 36 -11 47c-6 21 -17 36 -43 39c-47 5 -116 5 -132 5v-62
c0 -54 2 -151 2 -171c1 -52 26 -72 57 -78c20 -4 49 -7 74 -7c17 0 67 1 88 3c17 2 61 13 87 35c12 10 68 82 82 105c3 5 6 9 12 6l16 -9c5 -3 5 -6 2 -14l-53 -147c-3 -9 -10 -15 -22 -15c-5 0 -27 1 -87 2c-60 0 -157 1 -313 1c-37 0 -65 -1 -85 -1c-21 -1 -34 -2 -43 -2
c-6 0 -9 2 -9 7v27c0 4 3 5 10 5h40c46 0 50 7 50 44v237v98c0 83 -2 208 -3 218c-4 32 -14 39 -51 39h-36c-5 0 -8 1 -8 7v27c0 3 2 5 7 5c22 0 57 -3 123 -3h44c99 0 198 1 297 1c16 0 35 2 40 2s7 -2 8 -5c4 -14 48 -151 51 -161c1 -4 1 -7 -3 -9l-15 -8c-3 -2 -7 1 -8 3
c-2 4 -76 99 -100 114c-21 14 -49 26 -76 27zM349 890c26 0 50 -20 50 -53c0 -30 -23 -50 -50 -50c-20 0 -57 11 -57 54c0 14 12 49 57 49z" />
    <glyph glyph-name="Eogonek" unicode="&#x118;" horiz-adv-x="690" 
d="M656 173c5 -3 5 -6 2 -14l-53 -147c-3 -9 -15 -12 -34 -23c-36 -21 -100 -66 -100 -143c0 -38 18 -62 49 -62c24 0 43 13 55 23c6 7 11 11 15 11c7 0 9 -9 9 -16c0 -24 -41 -66 -109 -66c-42 0 -99 29 -99 94c0 61 54 122 137 165c-7 2 -23 3 -32 3c-60 0 -157 2 -313 2
c-37 0 -65 -1 -85 -1c-21 -1 -34 -2 -43 -2c-6 0 -9 2 -9 7v27c0 4 3 5 10 5h40c46 0 50 7 50 44v335c0 83 -2 208 -3 218c-4 32 -14 39 -51 39h-36c-5 0 -8 1 -8 7v27c0 3 2 5 7 5c22 0 57 -3 123 -3h44c99 0 198 1 297 1c16 0 35 2 40 2s7 -2 8 -5c4 -14 48 -151 51 -161
c1 -4 1 -7 -3 -9l-15 -8c-3 -2 -7 1 -8 3c-2 4 -76 98 -100 113c-21 13 -49 27 -76 28l-178 4v-293c8 0 115 4 127 6c29 5 37 13 46 44c3 10 7 30 8 49c0 5 3 7 7 7l25 -1c5 0 7 -4 6 -8c-3 -17 -3 -99 -3 -114c0 -35 4 -83 6 -104c0 -5 -2 -7 -6 -8l-22 -3c-5 -1 -7 2 -8 9
c-2 13 -8 36 -11 47c-6 21 -17 36 -43 39c-47 5 -116 5 -132 5v-62c0 -54 2 -151 2 -171c1 -52 26 -72 57 -78c20 -4 49 -7 74 -7c17 0 67 1 88 3c17 2 61 13 87 35c12 10 68 82 82 105c3 5 6 9 12 6z" />
    <glyph glyph-name="Ecaron" unicode="&#x11a;" horiz-adv-x="690" 
d="M238 676v-293c8 0 115 4 127 6c29 5 37 13 46 44c3 10 7 30 8 49c0 5 3 7 7 7l25 -1c5 0 7 -4 6 -8c-3 -17 -3 -99 -3 -114c0 -35 4 -83 6 -104c0 -5 -2 -7 -6 -8l-22 -3c-5 -1 -7 2 -8 9c-2 13 -8 36 -11 47c-6 21 -17 36 -43 39c-47 5 -116 5 -132 5v-62
c0 -54 2 -151 2 -171c1 -52 26 -72 57 -78c20 -4 49 -7 74 -7c17 0 67 1 88 3c17 2 61 13 87 35c12 10 68 82 82 105c3 5 6 9 12 6l16 -9c5 -3 5 -6 2 -14l-53 -147c-3 -9 -10 -15 -22 -15c-5 0 -27 1 -87 2c-60 0 -157 1 -313 1c-37 0 -65 -1 -85 -1c-21 -1 -34 -2 -43 -2
c-6 0 -9 2 -9 7v27c0 4 3 5 10 5h40c46 0 50 7 50 44v237v98c0 83 -2 208 -3 218c-4 32 -14 39 -51 39h-36c-5 0 -8 1 -8 7v27c0 3 2 5 7 5c22 0 57 -3 123 -3h44c99 0 198 1 297 1c16 0 35 2 40 2s7 -2 8 -5c4 -14 48 -151 51 -161c1 -4 1 -7 -3 -9l-15 -8c-3 -2 -7 1 -8 3
c-2 4 -76 99 -100 114c-21 14 -49 26 -76 27zM230 909l131 -56l117 55c5 3 8 4 10 1l8 -10c3 -3 2 -5 -2 -9l-126 -111c-5 -4 -10 -9 -13 -9c-4 0 -8 4 -14 9l-126 112c-3 3 -3 5 -1 8l7 9c2 3 5 3 9 1z" />
    <glyph glyph-name="Gbreve" unicode="&#x11e;" horiz-adv-x="818" 
d="M613 147v74c0 36 -11 46 -41 46h-42c-5 0 -7 2 -7 6v25c0 6 1 8 6 8c14 0 59 -3 127 -3c72 0 104 3 118 3c7 0 8 -3 8 -7v-24c0 -4 -1 -8 -7 -8h-39c-18 0 -31 -7 -31 -38v-132c0 -14 4 -24 4 -32s-6 -12 -16 -16c-81 -41 -161 -64 -273 -64c-89 0 -211 33 -280 114
c-61 69 -92 154 -92 275c0 91 39 188 113 254c71 61 161 95 281 95c86 0 163 -32 197 -58c11 -9 17 -7 23 1l15 18c4 4 8 9 14 9c7 0 9 -5 9 -12l3 -191c0 -5 -1 -9 -5 -9l-18 -2c-4 0 -7 3 -8 8c-8 28 -25 75 -60 118c-30 37 -92 82 -182 82c-69 0 -131 -17 -191 -81
c-54 -57 -88 -140 -88 -230c0 -118 33 -221 95 -280c50 -48 111 -71 176 -71c80 0 129 14 164 34c23 14 27 36 27 88zM428 767c-63 0 -116 58 -131 119c-2 8 -1 12 2 13l11 5c2 1 5 -1 8 -6c26 -43 69 -69 110 -69c50 0 99 40 113 69c2 4 4 7 8 5l12 -5c3 -2 3 -6 2 -10
c-12 -48 -74 -121 -135 -121z" />
    <glyph glyph-name="Gcommaaccent" unicode="&#x122;" horiz-adv-x="818" 
d="M613 147v74c0 36 -11 46 -41 46h-42c-5 0 -7 2 -7 6v25c0 6 1 8 6 8c14 0 59 -3 127 -3c72 0 104 3 118 3c7 0 8 -3 8 -7v-24c0 -4 -1 -8 -7 -8h-39c-18 0 -31 -7 -31 -38v-132c0 -14 4 -24 4 -32s-6 -12 -16 -16c-81 -41 -161 -64 -273 -64c-89 0 -211 33 -280 114
c-61 69 -92 154 -92 275c0 91 39 188 113 254c71 61 161 95 281 95c86 0 163 -32 197 -58c11 -9 17 -7 23 1l15 18c4 4 8 9 14 9c7 0 9 -5 9 -12l3 -191c0 -5 -1 -9 -5 -9l-18 -2c-4 0 -7 3 -8 8c-8 28 -25 75 -60 118c-30 37 -92 82 -182 82c-69 0 -131 -17 -191 -81
c-54 -57 -88 -140 -88 -230c0 -118 33 -221 95 -280c50 -48 111 -71 176 -71c80 0 129 14 164 34c23 14 27 36 27 88zM396 -60c26 0 64 -24 64 -71c0 -77 -71 -130 -87 -139c-3 -3 -9 -7 -14 -7c-6 0 -9 3 -9 7c0 5 1 6 7 11c17 16 53 52 53 93c0 10 -8 20 -13 23
c-7 3 -43 12 -43 49c0 18 16 34 42 34z" />
    <glyph glyph-name="Igrave" unicode="&#xcc;" horiz-adv-x="371" 
d="M140 349v70c0 24 -3 204 -4 219c-2 24 -12 34 -50 34h-58c-5 0 -8 2 -8 6v27c0 4 3 6 7 6c12 0 63 -3 156 -3c89 0 121 3 135 3c5 0 7 -3 7 -7v-25c0 -5 -3 -7 -8 -7h-47c-20 0 -35 -8 -35 -28c0 -10 -3 -231 -3 -243v-77c0 -10 3 -241 3 -252c0 -31 15 -36 47 -36h41
c5 0 8 -2 8 -7v-26c0 -4 -3 -6 -9 -6c-12 0 -52 3 -139 3c-95 0 -138 -3 -149 -3c-5 0 -8 2 -8 6v27c0 4 3 6 8 6h56c20 0 41 3 45 29c2 15 5 231 5 284zM233 783l-12 -14c-1 -1 -4 -2 -8 0l-167 82c-20 10 -29 25 -29 40c0 18 15 35 36 35c14 0 25 -7 41 -20l139 -114
c3 -3 3 -5 0 -9z" />
    <glyph glyph-name="Iacute" unicode="&#xcd;" horiz-adv-x="371" 
d="M140 349v70c0 24 -3 204 -4 219c-2 24 -12 34 -50 34h-58c-5 0 -8 2 -8 6v27c0 4 3 6 7 6c12 0 63 -3 156 -3c89 0 121 3 135 3c5 0 7 -3 7 -7v-25c0 -5 -3 -7 -8 -7h-47c-20 0 -35 -8 -35 -28c0 -10 -3 -231 -3 -243v-77c0 -10 3 -241 3 -252c0 -31 15 -36 47 -36h41
c5 0 8 -2 8 -7v-26c0 -4 -3 -6 -9 -6c-12 0 -52 3 -139 3c-95 0 -138 -3 -149 -3c-5 0 -8 2 -8 6v27c0 4 3 6 8 6h56c20 0 41 3 45 29c2 15 5 231 5 284zM150 769l-12 16c-2 2 -1 6 2 8l137 113c16 13 27 20 41 20c21 0 36 -17 36 -35c0 -15 -9 -30 -29 -40l-168 -82
c-3 -2 -6 -1 -7 0z" />
    <glyph glyph-name="Icircumflex" unicode="&#xce;" horiz-adv-x="371" 
d="M140 349v70c0 24 -3 204 -4 219c-2 24 -12 34 -50 34h-58c-5 0 -8 2 -8 6v27c0 4 3 6 7 6c12 0 63 -3 156 -3c89 0 121 3 135 3c5 0 7 -3 7 -7v-25c0 -5 -3 -7 -8 -7h-47c-20 0 -35 -8 -35 -28c0 -10 -3 -231 -3 -243v-77c0 -10 3 -241 3 -252c0 -31 15 -36 47 -36h41
c5 0 8 -2 8 -7v-26c0 -4 -3 -6 -9 -6c-12 0 -52 3 -139 3c-95 0 -138 -3 -149 -3c-5 0 -8 2 -8 6v27c0 4 3 6 8 6h56c20 0 41 3 45 29c2 15 5 231 5 284zM310 770l-128 57l-119 -57c-4 -2 -7 -3 -10 0l-8 10c-2 3 -1 5 3 9l123 111c5 4 10 9 13 9c4 0 9 -5 14 -9l127 -112
c3 -3 3 -5 1 -8l-7 -9c-2 -3 -5 -3 -9 -1z" />
    <glyph glyph-name="Idieresis" unicode="&#xcf;" horiz-adv-x="371" 
d="M140 349v70c0 24 -3 204 -4 219c-2 24 -12 34 -50 34h-58c-5 0 -8 2 -8 6v27c0 4 3 6 7 6c12 0 63 -3 156 -3c89 0 121 3 135 3c5 0 7 -3 7 -7v-25c0 -5 -3 -7 -8 -7h-47c-20 0 -35 -8 -35 -28c0 -10 -3 -231 -3 -243v-77c0 -10 3 -241 3 -252c0 -31 15 -36 47 -36h41
c5 0 8 -2 8 -7v-26c0 -4 -3 -6 -9 -6c-12 0 -52 3 -139 3c-95 0 -138 -3 -149 -3c-5 0 -8 2 -8 6v27c0 4 3 6 8 6h56c20 0 41 3 45 29c2 15 5 231 5 284zM90 880c22 0 44 -18 44 -48c0 -27 -21 -45 -44 -45c-18 0 -52 10 -52 49c0 12 11 44 52 44zM289 880
c23 0 45 -18 45 -48c0 -27 -21 -45 -45 -45c-18 0 -52 10 -52 49c0 12 11 44 52 44z" />
    <glyph glyph-name="Imacron" unicode="&#x12a;" horiz-adv-x="371" 
d="M140 349v70c0 24 -3 204 -4 219c-2 24 -12 34 -50 34h-58c-5 0 -8 2 -8 6v27c0 4 3 6 7 6c12 0 63 -3 156 -3c89 0 121 3 135 3c5 0 7 -3 7 -7v-25c0 -5 -3 -7 -8 -7h-47c-20 0 -35 -8 -35 -28c0 -10 -3 -231 -3 -243v-77c0 -10 3 -241 3 -252c0 -31 15 -36 47 -36h41
c5 0 8 -2 8 -7v-26c0 -4 -3 -6 -9 -6c-12 0 -52 3 -139 3c-95 0 -138 -3 -149 -3c-5 0 -8 2 -8 6v27c0 4 3 6 8 6h56c20 0 41 3 45 29c2 15 5 231 5 284zM305 834v-33c0 -5 -5 -7 -11 -7h-239c-7 0 -8 2 -8 7v33c0 5 2 7 8 7h241c6 0 9 -2 9 -7z" />
    <glyph glyph-name="Iogonek" unicode="&#x12e;" horiz-adv-x="371" 
d="M323 36c5 0 8 -2 8 -7v-26c0 -4 -3 -6 -9 -6c-8 0 -24 3 -58 3c-66 0 -132 -77 -132 -154c0 -38 18 -62 49 -62c24 0 43 13 55 23c6 7 11 11 15 11c7 0 9 -9 9 -16c0 -24 -41 -66 -109 -66c-42 0 -99 29 -99 94c0 61 44 117 126 170c-92 0 -133 -3 -144 -3
c-5 0 -8 2 -8 6v27c0 4 3 6 8 6h56c20 0 41 3 45 29c2 15 5 231 5 284v70c0 24 -3 204 -4 219c-2 24 -12 34 -50 34h-58c-5 0 -8 2 -8 6v27c0 4 3 6 7 6c12 0 63 -3 156 -3c89 0 121 3 135 3c5 0 7 -3 7 -7v-25c0 -5 -3 -7 -8 -7h-47c-20 0 -35 -8 -35 -28
c0 -10 -3 -231 -3 -243v-77c0 -10 3 -241 3 -252c0 -31 15 -36 47 -36h41z" />
    <glyph glyph-name="Idotaccent" unicode="&#x130;" horiz-adv-x="371" 
d="M140 349v70c0 24 -3 204 -4 219c-2 24 -12 34 -50 34h-58c-5 0 -8 2 -8 6v27c0 4 3 6 7 6c12 0 63 -3 156 -3c89 0 121 3 135 3c5 0 7 -3 7 -7v-25c0 -5 -3 -7 -8 -7h-47c-20 0 -35 -8 -35 -28c0 -10 -3 -231 -3 -243v-77c0 -10 3 -241 3 -252c0 -31 15 -36 47 -36h41
c5 0 8 -2 8 -7v-26c0 -4 -3 -6 -9 -6c-12 0 -52 3 -139 3c-95 0 -138 -3 -149 -3c-5 0 -8 2 -8 6v27c0 4 3 6 8 6h56c20 0 41 3 45 29c2 15 5 231 5 284zM189 890c26 0 50 -20 50 -53c0 -30 -23 -50 -50 -50c-20 0 -57 11 -57 54c0 14 12 49 57 49z" />
    <glyph glyph-name="Kcommaaccent" unicode="&#x136;" horiz-adv-x="712" 
d="M134 369v58c0 18 -3 213 -3 221c0 11 -5 24 -30 24h-35c-6 0 -8 2 -8 7v26c0 4 2 6 8 6c12 0 42 -3 117 -3c67 0 100 3 113 3c6 0 8 -2 8 -6v-26c0 -5 -2 -7 -7 -7h-42c-20 0 -28 -7 -28 -31c0 -15 -3 -171 -3 -220v-50h18c16 0 27 4 41 14c22 16 207 252 216 265
c9 14 4 24 -9 24h-14c-4 0 -5 2 -5 7v23c0 5 2 7 6 7c12 0 53 -3 99 -3c29 0 64 3 76 3c5 0 7 -2 7 -5v-27c0 -5 -3 -7 -8 -7h-21c-14 0 -37 -6 -55 -19c-37 -27 -190 -204 -233 -260c9 -11 259 -321 268 -332c17 -21 46 -25 70 -25h35c5 0 7 -3 7 -7v-25c0 -5 -2 -7 -8 -7
c-10 0 -48 3 -123 3c-83 0 -122 -3 -136 -3c-4 0 -6 2 -6 6v26c0 4 2 6 6 6h15c19 0 21 17 16 27c-9 20 -186 254 -199 264c-16 13 -29 15 -44 15h-19v-72c0 -50 2 -197 3 -211c1 -13 10 -22 23 -22h44c5 0 8 -2 8 -6v-26c0 -4 -1 -7 -6 -7c-12 0 -42 3 -113 3
c-79 0 -111 -3 -120 -3c-5 0 -7 2 -7 7v26c0 5 3 6 7 6h41c18 0 25 8 27 18c1 9 3 190 3 315zM343 -60c26 0 64 -24 64 -71c0 -77 -71 -130 -87 -139c-3 -3 -9 -7 -14 -7c-6 0 -9 3 -9 7c0 5 1 6 7 11c17 16 53 52 53 93c0 10 -8 20 -13 23c-7 3 -43 12 -43 49
c0 18 16 34 42 34z" />
    <glyph glyph-name="Lacute" unicode="&#x139;" horiz-adv-x="662" 
d="M140 392v56c0 64 -2 170 -3 188c-2 26 -7 36 -37 36h-47c-6 0 -7 5 -7 10v22c0 5 1 7 7 7c11 0 47 -3 130 -3c97 0 139 3 148 3c8 0 9 -3 9 -8v-23c0 -5 -2 -8 -10 -8h-60c-31 0 -35 -10 -35 -39c0 -13 -3 -164 -3 -234v-86c0 -17 0 -233 3 -274c22 -2 220 -4 251 0
c59 9 119 129 133 168c2 4 4 6 8 4l16 -6c3 -2 3 -3 2 -9c-3 -7 -43 -172 -49 -199c-13 1 -91 2 -180 2c-89 1 -187 1 -241 1c-39 0 -68 -1 -89 -1c-20 -1 -32 -2 -39 -2s-8 2 -8 7v25c0 5 1 7 7 7h48c37 0 43 14 43 27c0 19 3 268 3 329zM151 769l-12 16c-2 2 -1 6 2 8
l137 113c16 13 27 20 41 20c21 0 36 -17 36 -35c0 -15 -9 -30 -29 -40l-168 -82c-3 -2 -6 -1 -7 0z" />
    <glyph glyph-name="Lcommaaccent" unicode="&#x13b;" horiz-adv-x="662" 
d="M140 392v56c0 64 -2 170 -3 188c-2 26 -7 36 -37 36h-47c-6 0 -7 5 -7 10v22c0 5 1 7 7 7c11 0 47 -3 130 -3c97 0 139 3 148 3c8 0 9 -3 9 -8v-23c0 -5 -2 -8 -10 -8h-60c-31 0 -35 -10 -35 -39c0 -13 -3 -164 -3 -234v-86c0 -17 0 -233 3 -274c22 -2 220 -4 251 0
c59 9 119 129 133 168c2 4 4 6 8 4l16 -6c3 -2 3 -3 2 -9c-3 -7 -43 -172 -49 -199c-13 1 -91 2 -180 2c-89 1 -187 1 -241 1c-39 0 -68 -1 -89 -1c-20 -1 -32 -2 -39 -2s-8 2 -8 7v25c0 5 1 7 7 7h48c37 0 43 14 43 27c0 19 3 268 3 329zM318 -60c26 0 64 -24 64 -71
c0 -77 -71 -130 -87 -139c-3 -3 -9 -7 -14 -7c-6 0 -9 3 -9 7c0 5 1 6 7 11c17 16 53 52 53 93c0 10 -8 20 -13 23c-7 3 -43 12 -43 49c0 18 16 34 42 34z" />
    <glyph glyph-name="Lcaron" unicode="&#x13d;" horiz-adv-x="662" 
d="M140 392v56c0 64 -2 170 -3 188c-2 26 -7 36 -37 36h-47c-6 0 -7 5 -7 10v22c0 5 1 7 7 7c11 0 47 -3 130 -3c97 0 139 3 148 3c8 0 9 -3 9 -8v-23c0 -5 -2 -8 -10 -8h-60c-31 0 -35 -10 -35 -39c0 -13 -3 -164 -3 -234v-86c0 -17 0 -233 3 -274c22 -2 220 -4 251 0
c59 9 119 129 133 168c2 4 4 6 8 4l16 -6c3 -2 3 -3 2 -9c-3 -7 -43 -172 -49 -199c-13 1 -91 2 -180 2c-89 1 -187 1 -241 1c-39 0 -68 -1 -89 -1c-20 -1 -32 -2 -39 -2s-8 2 -8 7v25c0 5 1 7 7 7h48c37 0 43 14 43 27c0 19 3 268 3 329zM518 715c26 0 64 -24 64 -71
c0 -77 -71 -130 -87 -139c-3 -3 -9 -7 -14 -7c-6 0 -9 3 -9 7c0 5 1 6 7 11c17 16 53 52 53 93c0 10 -8 20 -13 23c-7 3 -43 12 -43 49c0 18 16 34 42 34z" />
    <glyph glyph-name="Lslash" unicode="&#x141;" horiz-adv-x="662" 
d="M627 211l16 -6c3 -2 3 -3 2 -9c-3 -7 -43 -172 -49 -199c-13 1 -92 1 -182 2c-89 0 -187 1 -239 1c-41 0 -70 -1 -90 -1c-20 -1 -31 -2 -38 -2s-8 2 -8 7v25c0 5 1 7 7 7h58c27 0 33 14 33 27c0 14 1 163 3 248l-93 -36c-5 -2 -7 -1 -9 4l-10 26c-2 5 1 9 6 11l106 40v92
c0 64 -2 170 -3 188c-2 26 -7 36 -37 36h-47c-6 0 -7 5 -7 10v22c0 5 1 7 7 7c11 0 47 -3 130 -3c107 0 139 3 148 3c8 0 9 -3 9 -8v-23c0 -5 -2 -8 -10 -8h-58c-33 0 -37 -10 -37 -39c0 -13 -3 -164 -3 -234v-12l215 80c6 2 10 1 12 -4l9 -25c3 -7 0 -10 -4 -11l-232 -85
v-29c0 -17 0 -233 3 -274c22 -2 220 -4 251 0c59 9 119 129 133 168c2 4 4 6 8 4z" />
    <glyph glyph-name="Ntilde" unicode="&#xd1;" horiz-adv-x="795" 
d="M135 408v170c0 59 -30 92 -66 93l-41 1c-5 0 -6 4 -6 7v26c0 4 1 6 6 6s13 -1 28 -1c15 -1 37 -2 71 -2s55 2 67 2c13 0 21 -4 29 -13c5 -6 199 -258 210 -272s180 -221 204 -253h4v119c0 89 -1 138 -3 188c-1 39 -6 137 -12 154c-8 25 -27 39 -55 39h-32c-4 0 -6 2 -6 7
v26c0 4 2 6 6 6c14 0 46 -3 110 -3c60 0 84 3 97 3c7 0 8 -3 8 -7v-25c0 -4 -2 -7 -6 -7h-27c-27 0 -37 -17 -39 -55c-4 -67 -4 -166 -4 -231v-374c0 -14 -1 -24 -5 -24c-12 0 -21 12 -24 16c-1 2 -60 76 -122 154c-70 87 -143 179 -149 185c-11 10 -195 241 -201 249h-6
v-222c0 -93 8 -256 10 -276c4 -39 10 -58 37 -58h30c7 0 8 -3 8 -9v-22c0 -6 -1 -8 -8 -8c-10 0 -70 3 -97 3c-21 0 -90 -3 -100 -3c-4 0 -5 2 -5 7v26c0 3 1 6 6 6h34c29 0 40 12 45 61c2 19 4 133 4 311zM294 782h-18c-4 0 -6 4 -3 17c9 53 41 85 81 85c29 0 51 -9 80 -16
c25 -7 44 -13 68 -13c22 0 29 19 33 34c1 4 3 6 7 6h17c4 0 6 -4 3 -18c-8 -39 -33 -78 -77 -78c-28 0 -52 10 -83 18c-23 7 -41 10 -62 10c-16 0 -33 -15 -39 -40c-1 -4 -4 -5 -7 -5z" />
    <glyph glyph-name="Nacute" unicode="&#x143;" horiz-adv-x="795" 
d="M135 408v170c0 59 -30 92 -66 93l-41 1c-5 0 -6 4 -6 7v26c0 4 1 6 6 6s13 -1 28 -1c15 -1 37 -2 71 -2s55 2 67 2c13 0 21 -4 29 -13c5 -6 199 -258 210 -272s180 -221 204 -253h4v119c0 89 -1 138 -3 188c-1 39 -6 137 -12 154c-8 25 -27 39 -55 39h-32c-4 0 -6 2 -6 7
v26c0 4 2 6 6 6c14 0 46 -3 110 -3c60 0 84 3 97 3c7 0 8 -3 8 -7v-25c0 -4 -2 -7 -6 -7h-27c-27 0 -37 -17 -39 -55c-4 -67 -4 -166 -4 -231v-374c0 -14 -1 -24 -5 -24c-12 0 -21 12 -24 16c-1 2 -60 76 -122 154c-70 87 -143 179 -149 185c-11 10 -195 241 -201 249h-6
v-222c0 -93 8 -256 10 -276c4 -39 10 -58 37 -58h30c7 0 8 -3 8 -9v-22c0 -6 -1 -8 -8 -8c-10 0 -70 3 -97 3c-21 0 -90 -3 -100 -3c-4 0 -5 2 -5 7v26c0 3 1 6 6 6h34c29 0 40 12 45 61c2 19 4 133 4 311zM362 769l-12 16c-2 2 -1 6 2 8l137 113c16 13 27 20 41 20
c21 0 36 -17 36 -35c0 -15 -9 -30 -29 -40l-168 -82c-3 -2 -6 -1 -7 0z" />
    <glyph glyph-name="Ncommaaccent" unicode="&#x145;" horiz-adv-x="795" 
d="M135 408v170c0 59 -30 92 -66 93l-41 1c-5 0 -6 4 -6 7v26c0 4 1 6 6 6s13 -1 28 -1c15 -1 37 -2 71 -2s55 2 67 2c13 0 21 -4 29 -13c5 -6 199 -258 210 -272s180 -221 204 -253h4v119c0 89 -1 138 -3 188c-1 39 -6 137 -12 154c-8 25 -27 39 -55 39h-32c-4 0 -6 2 -6 7
v26c0 4 2 6 6 6c14 0 46 -3 110 -3c60 0 84 3 97 3c7 0 8 -3 8 -7v-25c0 -4 -2 -7 -6 -7h-27c-27 0 -37 -17 -39 -55c-4 -67 -4 -166 -4 -231v-374c0 -14 -1 -24 -5 -24c-12 0 -21 12 -24 16c-1 2 -60 76 -122 154c-70 87 -143 179 -149 185c-11 10 -195 241 -201 249h-6
v-222c0 -93 8 -256 10 -276c4 -39 10 -58 37 -58h30c7 0 8 -3 8 -9v-22c0 -6 -1 -8 -8 -8c-10 0 -70 3 -97 3c-21 0 -90 -3 -100 -3c-4 0 -5 2 -5 7v26c0 3 1 6 6 6h34c29 0 40 12 45 61c2 19 4 133 4 311zM385 -20c26 0 64 -24 64 -71c0 -77 -71 -130 -87 -139
c-3 -3 -9 -7 -14 -7c-6 0 -9 3 -9 7c0 5 1 6 7 11c17 16 53 52 53 93c0 10 -8 20 -13 23c-7 3 -43 12 -43 49c0 18 16 34 42 34z" />
    <glyph glyph-name="Ncaron" unicode="&#x147;" horiz-adv-x="795" 
d="M135 408v170c0 59 -30 92 -66 93l-41 1c-5 0 -6 4 -6 7v26c0 4 1 6 6 6s13 -1 28 -1c15 -1 37 -2 71 -2s55 2 67 2c13 0 21 -4 29 -13c5 -6 199 -258 210 -272s180 -221 204 -253h4v119c0 89 -1 138 -3 188c-1 39 -6 137 -12 154c-8 25 -27 39 -55 39h-32c-4 0 -6 2 -6 7
v26c0 4 2 6 6 6c14 0 46 -3 110 -3c60 0 84 3 97 3c7 0 8 -3 8 -7v-25c0 -4 -2 -7 -6 -7h-27c-27 0 -37 -17 -39 -55c-4 -67 -4 -166 -4 -231v-374c0 -14 -1 -24 -5 -24c-12 0 -21 12 -24 16c-1 2 -60 76 -122 154c-70 87 -143 179 -149 185c-11 10 -195 241 -201 249h-6
v-222c0 -93 8 -256 10 -276c4 -39 10 -58 37 -58h30c7 0 8 -3 8 -9v-22c0 -6 -1 -8 -8 -8c-10 0 -70 3 -97 3c-21 0 -90 -3 -100 -3c-4 0 -5 2 -5 7v26c0 3 1 6 6 6h34c29 0 40 12 45 61c2 19 4 133 4 311zM272 909l131 -56l117 55c5 3 8 4 10 1l8 -10c3 -3 2 -5 -2 -9
l-126 -111c-5 -4 -10 -9 -13 -9c-4 0 -8 4 -14 9l-126 112c-3 3 -3 5 -1 8l7 9c2 3 5 3 9 1z" />
    <glyph glyph-name="Ograve" unicode="&#xd2;" horiz-adv-x="821" 
d="M410 -15c-49 0 -136 16 -215 65c-71 43 -147 151 -147 297c0 61 16 156 93 249c88 107 187 127 271 127c63 0 145 -13 224 -79c73 -63 137 -161 137 -299c0 -73 -23 -149 -75 -219c-61 -81 -150 -141 -288 -141zM418 23c220 0 257 225 257 314c0 219 -156 348 -267 348
c-15 0 -83 12 -158 -59c-67 -64 -100 -165 -100 -247c0 -263 183 -356 268 -356zM468 783l-12 -14c-1 -1 -4 -2 -8 0l-167 82c-20 10 -29 25 -29 40c0 18 15 35 36 35c14 0 25 -7 41 -20l139 -114c3 -3 3 -5 0 -9z" />
    <glyph glyph-name="Oacute" unicode="&#xd3;" horiz-adv-x="821" 
d="M410 -15c-49 0 -136 16 -215 65c-71 43 -147 151 -147 297c0 61 16 156 93 249c88 107 187 127 271 127c63 0 145 -13 224 -79c73 -63 137 -161 137 -299c0 -73 -23 -149 -75 -219c-61 -81 -150 -141 -288 -141zM418 23c220 0 257 225 257 314c0 219 -156 348 -267 348
c-15 0 -83 12 -158 -59c-67 -64 -100 -165 -100 -247c0 -263 183 -356 268 -356zM355 769l-12 16c-2 2 -1 6 2 8l137 113c16 13 27 20 41 20c21 0 36 -17 36 -35c0 -15 -9 -30 -29 -40l-168 -82c-3 -2 -6 -1 -7 0z" />
    <glyph glyph-name="Ocircumflex" unicode="&#xd4;" horiz-adv-x="821" 
d="M410 -15c-49 0 -136 16 -215 65c-71 43 -147 151 -147 297c0 61 16 156 93 249c88 107 187 127 271 127c63 0 145 -13 224 -79c73 -63 137 -161 137 -299c0 -73 -23 -149 -75 -219c-61 -81 -150 -141 -288 -141zM418 23c220 0 257 225 257 314c0 219 -156 348 -267 348
c-15 0 -83 12 -158 -59c-67 -64 -100 -165 -100 -247c0 -263 183 -356 268 -356zM535 770l-128 57l-119 -57c-4 -2 -7 -3 -10 0l-8 10c-2 3 -1 5 3 9l123 111c5 4 10 9 13 9c4 0 9 -5 14 -9l127 -112c3 -3 3 -5 1 -8l-7 -9c-2 -3 -5 -3 -9 -1z" />
    <glyph glyph-name="Otilde" unicode="&#xd5;" horiz-adv-x="821" 
d="M410 -15c-49 0 -136 16 -215 65c-71 43 -147 151 -147 297c0 61 16 156 93 249c88 107 187 127 271 127c63 0 145 -13 224 -79c73 -63 137 -161 137 -299c0 -73 -23 -149 -75 -219c-61 -81 -150 -141 -288 -141zM418 23c220 0 257 225 257 314c0 219 -156 348 -267 348
c-15 0 -83 12 -158 -59c-67 -64 -100 -165 -100 -247c0 -263 183 -356 268 -356zM287 782h-18c-4 0 -6 4 -3 17c9 53 41 85 81 85c29 0 51 -9 80 -16c25 -7 44 -13 68 -13c22 0 29 19 33 34c1 4 3 6 7 6h17c4 0 6 -4 3 -18c-8 -39 -33 -78 -77 -78c-28 0 -52 10 -83 18
c-23 7 -41 10 -62 10c-16 0 -33 -15 -39 -40c-1 -4 -4 -5 -7 -5z" />
    <glyph glyph-name="Odieresis" unicode="&#xd6;" horiz-adv-x="821" 
d="M410 -15c-49 0 -136 16 -215 65c-71 43 -147 151 -147 297c0 61 16 156 93 249c88 107 187 127 271 127c63 0 145 -13 224 -79c73 -63 137 -161 137 -299c0 -73 -23 -149 -75 -219c-61 -81 -150 -141 -288 -141zM418 23c220 0 257 225 257 314c0 219 -156 348 -267 348
c-15 0 -83 12 -158 -59c-67 -64 -100 -165 -100 -247c0 -263 183 -356 268 -356zM315 880c22 0 44 -18 44 -48c0 -27 -21 -45 -44 -45c-18 0 -52 10 -52 49c0 12 11 44 52 44zM514 880c23 0 45 -18 45 -48c0 -27 -21 -45 -45 -45c-18 0 -52 10 -52 49c0 12 11 44 52 44z" />
    <glyph glyph-name="Oslash" unicode="&#xd8;" horiz-adv-x="821" 
d="M72 -10l-20 19c-2 3 -4 5 -4 7s2 5 4 9l80 81c-47 56 -84 139 -84 241c0 61 16 156 93 249c88 107 187 127 271 127c63 0 145 -13 224 -79c5 -4 9 -8 14 -13l87 88c2 2 4 4 6 4c1 0 3 -2 5 -4l25 -20c2 -2 5 -4 5 -6s-2 -3 -3 -5l-91 -93c51 -60 89 -143 89 -250
c0 -73 -23 -149 -75 -219c-61 -81 -150 -141 -288 -141c-49 0 -136 16 -215 65c-9 5 -18 12 -28 21l-79 -80c-4 -4 -6 -6 -8 -6s-5 2 -8 5zM625 535l-399 -404c60 -76 143 -108 192 -108c220 0 257 225 257 314c0 78 -20 145 -50 198zM199 174l398 403
c-56 72 -129 108 -189 108c-15 0 -83 10 -157 -60c-68 -63 -101 -164 -101 -246c0 -85 19 -152 49 -205z" />
    <glyph glyph-name="Omacron" unicode="&#x14c;" horiz-adv-x="821" 
d="M410 -15c-49 0 -136 16 -215 65c-71 43 -147 151 -147 297c0 61 16 156 93 249c88 107 187 127 271 127c63 0 145 -13 224 -79c73 -63 137 -161 137 -299c0 -73 -23 -149 -75 -219c-61 -81 -150 -141 -288 -141zM418 23c220 0 257 225 257 314c0 219 -156 348 -267 348
c-15 0 -83 12 -158 -59c-67 -64 -100 -165 -100 -247c0 -263 183 -356 268 -356zM540 834v-33c0 -5 -5 -7 -11 -7h-239c-7 0 -8 2 -8 7v33c0 5 2 7 8 7h241c6 0 9 -2 9 -7z" />
    <glyph glyph-name="Ohungarumlaut" unicode="&#x150;" horiz-adv-x="821" 
d="M410 -15c-49 0 -136 16 -215 65c-71 43 -147 151 -147 297c0 61 16 156 93 249c88 107 187 127 271 127c63 0 145 -13 224 -79c73 -63 137 -161 137 -299c0 -73 -23 -149 -75 -219c-61 -81 -150 -141 -288 -141zM418 23c220 0 257 225 257 314c0 219 -156 348 -267 348
c-15 0 -83 12 -158 -59c-67 -64 -100 -165 -100 -247c0 -263 183 -356 268 -356zM275 769l-12 16c-2 2 -1 6 2 8l137 111c17 14 29 22 42 22c20 0 35 -17 35 -35c0 -15 -10 -28 -29 -38l-168 -84c-3 -2 -6 -1 -7 0zM435 769l-12 16c-2 2 -1 6 2 8l137 111c17 14 29 22 42 22
c20 0 35 -17 35 -35c0 -15 -10 -28 -29 -38l-168 -84c-3 -2 -6 -1 -7 0z" />
    <glyph glyph-name="Racute" unicode="&#x154;" horiz-adv-x="697" 
d="M139 358v97c0 74 0 138 -1 167c-1 33 -13 50 -38 50h-40c-5 0 -6 3 -6 7v25c0 5 1 7 6 7c9 0 40 -3 124 -3c56 0 149 3 167 3c83 0 149 -25 187 -61c33 -32 52 -77 52 -114c0 -125 -57 -172 -185 -200v-2c24 -9 38 -27 46 -38c12 -13 83 -115 91 -128
c5 -10 69 -101 88 -115c21 -15 44 -17 72 -17c7 0 8 -4 8 -8v-22c0 -6 -1 -9 -8 -9c-8 0 -34 3 -78 3c-29 0 -66 -2 -81 -3c-11 10 -33 44 -42 57c-8 12 -62 107 -67 115c-4 7 -52 79 -64 93c-26 31 -50 58 -108 58c-9 0 -19 0 -33 -3v-56c0 -59 1 -171 2 -186
c2 -21 10 -39 25 -39h63c7 0 8 -3 8 -8v-22c0 -7 -1 -9 -11 -9c-11 0 -36 3 -131 3c-91 0 -114 -3 -125 -3c-8 0 -8 3 -8 8v23c0 5 0 8 5 8h41c22 0 39 7 39 34c2 99 2 193 2 288zM229 639v-283c15 -3 26 -4 45 -4c182 0 217 125 217 167c0 46 -21 90 -50 114
c-39 31 -83 46 -166 46c-12 0 -25 -2 -34 -8c-7 -5 -12 -16 -12 -32zM313 769l-12 16c-2 2 -1 6 2 8l137 113c16 13 27 20 41 20c21 0 36 -17 36 -35c0 -15 -9 -30 -29 -40l-168 -82c-3 -2 -6 -1 -7 0z" />
    <glyph glyph-name="Rcommaaccent" unicode="&#x156;" horiz-adv-x="697" 
d="M139 358v97c0 74 0 138 -1 167c-1 33 -13 50 -38 50h-40c-5 0 -6 3 -6 7v25c0 5 1 7 6 7c9 0 40 -3 124 -3c56 0 149 3 167 3c83 0 149 -25 187 -61c33 -32 52 -77 52 -114c0 -125 -57 -172 -185 -200v-2c24 -9 38 -27 46 -38c12 -13 83 -115 91 -128
c5 -10 69 -101 88 -115c21 -15 44 -17 72 -17c7 0 8 -4 8 -8v-22c0 -6 -1 -9 -8 -9c-8 0 -34 3 -78 3c-29 0 -66 -2 -81 -3c-11 10 -33 44 -42 57c-8 12 -62 107 -67 115c-4 7 -52 79 -64 93c-26 31 -50 58 -108 58c-9 0 -19 0 -33 -3v-56c0 -59 1 -171 2 -186
c2 -21 10 -39 25 -39h63c7 0 8 -3 8 -8v-22c0 -7 -1 -9 -11 -9c-11 0 -36 3 -131 3c-91 0 -114 -3 -125 -3c-8 0 -8 3 -8 8v23c0 5 0 8 5 8h41c22 0 39 7 39 34c2 99 2 193 2 288zM229 639v-283c15 -3 26 -4 45 -4c182 0 217 125 217 167c0 46 -21 90 -50 114
c-39 31 -83 46 -166 46c-12 0 -25 -2 -34 -8c-7 -5 -12 -16 -12 -32zM356 -40c26 0 64 -24 64 -71c0 -77 -71 -130 -87 -139c-3 -3 -9 -7 -14 -7c-6 0 -9 3 -9 7c0 5 1 6 7 11c17 16 53 52 53 93c0 10 -8 20 -13 23c-7 3 -43 12 -43 49c0 18 16 34 42 34z" />
    <glyph glyph-name="Rcaron" unicode="&#x158;" horiz-adv-x="697" 
d="M139 358v97c0 74 0 138 -1 167c-1 33 -13 50 -38 50h-40c-5 0 -6 3 -6 7v25c0 5 1 7 6 7c9 0 40 -3 124 -3c56 0 149 3 167 3c83 0 149 -25 187 -61c33 -32 52 -77 52 -114c0 -125 -57 -172 -185 -200v-2c24 -9 38 -27 46 -38c12 -13 83 -115 91 -128
c5 -10 69 -101 88 -115c21 -15 44 -17 72 -17c7 0 8 -4 8 -8v-22c0 -6 -1 -9 -8 -9c-8 0 -34 3 -78 3c-29 0 -66 -2 -81 -3c-11 10 -33 44 -42 57c-8 12 -62 107 -67 115c-4 7 -52 79 -64 93c-26 31 -50 58 -108 58c-9 0 -19 0 -33 -3v-56c0 -59 1 -171 2 -186
c2 -21 10 -39 25 -39h63c7 0 8 -3 8 -8v-22c0 -7 -1 -9 -11 -9c-11 0 -36 3 -131 3c-91 0 -114 -3 -125 -3c-8 0 -8 3 -8 8v23c0 5 0 8 5 8h41c22 0 39 7 39 34c2 99 2 193 2 288zM229 639v-283c15 -3 26 -4 45 -4c182 0 217 125 217 167c0 46 -21 90 -50 114
c-39 31 -83 46 -166 46c-12 0 -25 -2 -34 -8c-7 -5 -12 -16 -12 -32zM223 909l131 -56l117 55c5 3 8 4 10 1l8 -10c3 -3 2 -5 -2 -9l-126 -111c-5 -4 -10 -9 -13 -9c-4 0 -8 4 -14 9l-126 112c-3 3 -3 5 -1 8l7 9c2 3 5 3 9 1z" />
    <glyph glyph-name="Sacute" unicode="&#x15a;" horiz-adv-x="548" 
d="M292 -15c-70 0 -119 21 -159 52c-12 9 -18 12 -23 12c-6 0 -10 -7 -16 -17c-6 -11 -11 -12 -18 -12c-6 0 -11 5 -9 16c4 25 14 152 17 181c1 6 3 6 7 6l15 -1c4 0 6 -2 6 -8c1 -32 3 -65 36 -116c30 -47 85 -74 140 -74c60 0 136 37 136 127c0 103 -74 141 -154 169
c-31 11 -103 36 -146 81c-33 33 -50 80 -50 146c0 50 31 99 62 128c36 34 86 48 140 48c57 0 101 -17 118 -25c9 -5 14 -4 19 1l13 12c5 4 8 6 13 6s8 -8 8 -17c0 -35 13 -137 14 -159c0 -5 -1 -7 -5 -8l-12 -3c-3 -1 -5 0 -6 3c-8 29 -21 68 -62 111c-27 29 -62 43 -109 43
c-89 0 -121 -66 -121 -117c0 -28 6 -61 31 -87c29 -29 85 -51 114 -60c69 -22 125 -39 161 -83c26 -31 44 -70 44 -136c0 -118 -72 -219 -204 -219zM229 769l-12 16c-2 2 -1 6 2 8l137 113c16 13 27 20 41 20c21 0 36 -17 36 -35c0 -15 -9 -30 -29 -40l-168 -82
c-3 -2 -6 -1 -7 0z" />
    <glyph glyph-name="Scedilla" unicode="&#x15e;" horiz-adv-x="548" 
d="M313 -14l-46 -54c36 -10 67 -37 67 -68c0 -63 -93 -100 -158 -100c-16 0 -20 9 -20 20c0 12 15 14 32 14c31 0 79 18 79 56c0 25 -20 41 -64 51l67 81c-58 4 -101 24 -137 51c-12 9 -18 12 -23 12c-6 0 -10 -7 -16 -17c-6 -11 -11 -12 -18 -12c-6 0 -11 5 -9 16
c4 25 14 152 17 181c1 6 3 6 7 6l15 -1c4 0 6 -2 6 -8c1 -32 3 -65 36 -116c30 -47 85 -74 140 -74c60 0 136 37 136 127c0 103 -74 140 -156 167c-31 10 -101 38 -144 83c-33 33 -50 80 -50 146c0 50 31 99 62 128c36 34 86 48 140 48c57 0 101 -17 118 -25
c9 -5 14 -4 19 1l13 12c5 4 8 6 13 6s8 -8 8 -17c0 -35 13 -137 14 -159c0 -5 -1 -7 -5 -8l-12 -3c-3 -1 -5 0 -6 3c-8 29 -21 68 -62 111c-27 29 -62 43 -109 43c-89 0 -121 -66 -121 -117c0 -28 6 -61 31 -87c29 -29 85 -51 114 -60c69 -22 125 -39 161 -83
c26 -31 44 -70 44 -136c0 -112 -64 -208 -183 -218z" />
    <glyph glyph-name="Scaron" unicode="&#x160;" horiz-adv-x="548" 
d="M292 -15c-70 0 -119 21 -159 52c-12 9 -18 12 -23 12c-6 0 -10 -7 -16 -17c-6 -11 -11 -12 -18 -12c-6 0 -11 5 -9 16c4 25 14 152 17 181c1 6 3 6 7 6l15 -1c4 0 6 -2 6 -8c1 -32 3 -65 36 -116c30 -47 85 -74 140 -74c60 0 136 37 136 127c0 103 -74 141 -154 169
c-31 11 -103 36 -146 81c-33 33 -50 80 -50 146c0 50 31 99 62 128c36 34 86 48 140 48c57 0 101 -17 118 -25c9 -5 14 -4 19 1l13 12c5 4 8 6 13 6s8 -8 8 -17c0 -35 13 -137 14 -159c0 -5 -1 -7 -5 -8l-12 -3c-3 -1 -5 0 -6 3c-8 29 -21 68 -62 111c-27 29 -62 43 -109 43
c-89 0 -121 -66 -121 -117c0 -28 6 -61 31 -87c29 -29 85 -51 114 -60c69 -22 125 -39 161 -83c26 -31 44 -70 44 -136c0 -118 -72 -219 -204 -219zM169 909l131 -56l117 55c5 3 8 4 10 1l8 -10c3 -3 2 -5 -2 -9l-126 -111c-5 -4 -10 -9 -13 -9c-4 0 -8 4 -14 9l-126 112
c-3 3 -3 5 -1 8l7 9c2 3 5 3 9 1z" />
    <glyph glyph-name="Scommaaccent" unicode="&#x218;" horiz-adv-x="548" 
d="M292 -15c-70 0 -119 21 -159 52c-12 9 -18 12 -23 12c-6 0 -10 -7 -16 -17c-6 -11 -11 -12 -18 -12c-6 0 -11 5 -9 16c4 25 14 152 17 181c1 6 3 6 7 6l15 -1c4 0 6 -2 6 -8c1 -32 3 -65 36 -116c30 -47 85 -74 140 -74c60 0 136 37 136 127c0 103 -74 141 -154 169
c-31 11 -103 36 -146 81c-33 33 -50 80 -50 146c0 50 31 99 62 128c36 34 86 48 140 48c57 0 101 -17 118 -25c9 -5 14 -4 19 1l13 12c5 4 8 6 13 6s8 -8 8 -17c0 -35 13 -137 14 -159c0 -5 -1 -7 -5 -8l-12 -3c-3 -1 -5 0 -6 3c-8 29 -21 68 -62 111c-27 29 -62 43 -109 43
c-89 0 -121 -66 -121 -117c0 -28 6 -61 31 -87c29 -29 85 -51 114 -60c69 -22 125 -39 161 -83c26 -31 44 -70 44 -136c0 -118 -72 -219 -204 -219zM261 -60c26 0 64 -24 64 -71c0 -77 -71 -130 -87 -139c-3 -3 -9 -7 -14 -7c-6 0 -9 3 -9 7c0 5 1 6 7 11c17 16 53 52 53 93
c0 10 -8 20 -13 23c-7 3 -43 12 -43 49c0 18 16 34 42 34z" />
    <glyph glyph-name="Tcommaaccent" unicode="&#x162;" horiz-adv-x="702" 
d="M297 415v257h-25c-32 0 -119 0 -158 -12c-45 -14 -75 -84 -89 -116c-2 -5 -5 -6 -10 -5l-18 5c-3 1 -6 2 -4 8c10 36 45 165 47 176c2 13 6 16 10 16c5 0 8 -1 12 -4l13 -9c18 -13 28 -16 57 -17c53 -2 95 -6 189 -6h48c109 0 152 4 201 6c22 1 35 4 52 14l19 12
c5 3 8 4 12 4c5 0 7 -3 9 -16c2 -12 21 -136 29 -180c1 -5 -1 -7 -6 -8l-16 -4c-4 -1 -5 0 -8 7c-8 19 -38 96 -71 112c-30 15 -124 17 -173 17h-28v-285c0 -14 0 -294 1 -311c2 -25 10 -40 34 -40h63c9 0 10 -3 10 -10v-21c0 -5 -1 -8 -10 -8c-10 0 -42 3 -140 3
c-96 0 -138 -3 -152 -3c-8 0 -9 4 -9 10v19c0 7 1 10 7 10h68c20 0 32 12 33 24c3 29 3 336 3 355zM338 -60c26 0 64 -24 64 -71c0 -77 -71 -130 -87 -139c-3 -3 -9 -7 -14 -7c-6 0 -9 3 -9 7c0 5 1 6 7 11c17 16 53 52 53 93c0 10 -8 20 -13 23c-7 3 -43 12 -43 49
c0 18 16 34 42 34z" />
    <glyph glyph-name="Tcaron" unicode="&#x164;" horiz-adv-x="702" 
d="M297 415v257h-25c-32 0 -119 0 -158 -12c-45 -14 -75 -84 -89 -116c-2 -5 -5 -6 -10 -5l-18 5c-3 1 -6 2 -4 8c10 36 45 165 47 176c2 13 6 16 10 16c5 0 8 -1 12 -4l13 -9c18 -13 28 -16 57 -17c53 -2 95 -6 189 -6h48c109 0 152 4 201 6c22 1 35 4 52 14l19 12
c5 3 8 4 12 4c5 0 7 -3 9 -16c2 -12 21 -136 29 -180c1 -5 -1 -7 -6 -8l-16 -4c-4 -1 -5 0 -8 7c-8 19 -38 96 -71 112c-30 15 -124 17 -173 17h-28v-285c0 -14 0 -294 1 -311c2 -25 10 -40 34 -40h63c9 0 10 -3 10 -10v-21c0 -5 -1 -8 -10 -8c-10 0 -42 3 -140 3
c-96 0 -138 -3 -152 -3c-8 0 -9 4 -9 10v19c0 7 1 10 7 10h68c20 0 32 12 33 24c3 29 3 336 3 355zM226 909l131 -56l117 55c5 3 8 4 10 1l8 -10c3 -3 2 -5 -2 -9l-126 -111c-5 -4 -10 -9 -13 -9c-4 0 -8 4 -14 9l-126 112c-3 3 -3 5 -1 8l7 9c2 3 5 3 9 1z" />
    <glyph glyph-name="Ugrave" unicode="&#xd9;" horiz-adv-x="746" 
d="M370 -15c-52 0 -102 7 -135 21c-68 27 -103 71 -119 134c-12 45 -16 112 -16 243v238c0 35 -7 51 -38 51h-47c-6 0 -7 2 -7 9v22c0 6 1 8 9 8c10 0 59 -3 137 -3s126 3 137 3c8 0 9 -2 9 -6v-26c0 -5 -1 -7 -8 -7h-50c-29 0 -46 -19 -48 -41c-1 -9 -2 -79 -2 -130v-66
c0 -53 4 -180 5 -212c1 -46 9 -93 32 -127c37 -54 101 -72 159 -72c57 0 115 19 150 55c39 42 52 102 52 176v214c0 76 -2 134 -5 159c-3 26 -19 44 -45 44h-44c-6 0 -7 3 -7 8v24c0 5 1 7 7 7c10 0 56 -3 123 -3c69 0 101 3 110 3s10 -4 10 -7v-22c0 -6 -1 -10 -6 -10h-41
c-37 0 -40 -28 -43 -40c-2 -10 -2 -152 -2 -166s-2 -189 -5 -228c-6 -82 -28 -145 -84 -193c-40 -37 -101 -60 -188 -60zM440 783l-12 -14c-1 -1 -4 -2 -8 0l-167 82c-20 10 -29 25 -29 40c0 18 15 35 36 35c14 0 25 -7 41 -20l139 -114c3 -3 3 -5 0 -9z" />
    <glyph glyph-name="Uacute" unicode="&#xda;" horiz-adv-x="746" 
d="M370 -15c-52 0 -102 7 -135 21c-68 27 -103 71 -119 134c-12 45 -16 112 -16 243v238c0 35 -7 51 -38 51h-47c-6 0 -7 2 -7 9v22c0 6 1 8 9 8c10 0 59 -3 137 -3s126 3 137 3c8 0 9 -2 9 -6v-26c0 -5 -1 -7 -8 -7h-50c-29 0 -46 -19 -48 -41c-1 -9 -2 -79 -2 -130v-66
c0 -53 4 -180 5 -212c1 -46 9 -93 32 -127c37 -54 101 -72 159 -72c57 0 115 19 150 55c39 42 52 102 52 176v214c0 76 -2 134 -5 159c-3 26 -19 44 -45 44h-44c-6 0 -7 3 -7 8v24c0 5 1 7 7 7c10 0 56 -3 123 -3c69 0 101 3 110 3s10 -4 10 -7v-22c0 -6 -1 -10 -6 -10h-41
c-37 0 -40 -28 -43 -40c-2 -10 -2 -152 -2 -166s-2 -189 -5 -228c-6 -82 -28 -145 -84 -193c-40 -37 -101 -60 -188 -60zM368 769l-12 16c-2 2 -1 6 2 8l137 113c16 13 27 20 41 20c21 0 36 -17 36 -35c0 -15 -9 -30 -29 -40l-168 -82c-3 -2 -6 -1 -7 0z" />
    <glyph glyph-name="Ucircumflex" unicode="&#xdb;" horiz-adv-x="746" 
d="M370 -15c-52 0 -102 7 -135 21c-68 27 -103 71 -119 134c-12 45 -16 112 -16 243v238c0 35 -7 51 -38 51h-47c-6 0 -7 2 -7 9v22c0 6 1 8 9 8c10 0 59 -3 137 -3s126 3 137 3c8 0 9 -2 9 -6v-26c0 -5 -1 -7 -8 -7h-50c-29 0 -46 -19 -48 -41c-1 -9 -2 -79 -2 -130v-66
c0 -53 4 -180 5 -212c1 -46 9 -93 32 -127c37 -54 101 -72 159 -72c57 0 115 19 150 55c39 42 52 102 52 176v214c0 76 -2 134 -5 159c-3 26 -19 44 -45 44h-44c-6 0 -7 3 -7 8v24c0 5 1 7 7 7c10 0 56 -3 123 -3c69 0 101 3 110 3s10 -4 10 -7v-22c0 -6 -1 -10 -6 -10h-41
c-37 0 -40 -28 -43 -40c-2 -10 -2 -152 -2 -166s-2 -189 -5 -228c-6 -82 -28 -145 -84 -193c-40 -37 -101 -60 -188 -60zM518 770l-128 57l-119 -57c-4 -2 -7 -3 -10 0l-8 10c-2 3 -1 5 3 9l123 111c5 4 10 9 13 9c4 0 9 -5 14 -9l127 -112c3 -3 3 -5 1 -8l-7 -9
c-2 -3 -5 -3 -9 -1z" />
    <glyph glyph-name="Udieresis" unicode="&#xdc;" horiz-adv-x="746" 
d="M370 -15c-52 0 -102 7 -135 21c-68 27 -103 71 -119 134c-12 45 -16 112 -16 243v238c0 35 -7 51 -38 51h-47c-6 0 -7 2 -7 9v22c0 6 1 8 9 8c10 0 59 -3 137 -3s126 3 137 3c8 0 9 -2 9 -6v-26c0 -5 -1 -7 -8 -7h-50c-29 0 -46 -19 -48 -41c-1 -9 -2 -79 -2 -130v-66
c0 -53 4 -180 5 -212c1 -46 9 -93 32 -127c37 -54 101 -72 159 -72c57 0 115 19 150 55c39 42 52 102 52 176v214c0 76 -2 134 -5 159c-3 26 -19 44 -45 44h-44c-6 0 -7 3 -7 8v24c0 5 1 7 7 7c10 0 56 -3 123 -3c69 0 101 3 110 3s10 -4 10 -7v-22c0 -6 -1 -10 -6 -10h-41
c-37 0 -40 -28 -43 -40c-2 -10 -2 -152 -2 -166s-2 -189 -5 -228c-6 -82 -28 -145 -84 -193c-40 -37 -101 -60 -188 -60zM287 880c22 0 44 -18 44 -48c0 -27 -21 -45 -44 -45c-18 0 -52 10 -52 49c0 12 11 44 52 44zM486 880c23 0 45 -18 45 -48c0 -27 -21 -45 -45 -45
c-18 0 -52 10 -52 49c0 12 11 44 52 44z" />
    <glyph glyph-name="Umacron" unicode="&#x16a;" horiz-adv-x="746" 
d="M370 -15c-52 0 -102 7 -135 21c-68 27 -103 71 -119 134c-12 45 -16 112 -16 243v238c0 35 -7 51 -38 51h-47c-6 0 -7 2 -7 9v22c0 6 1 8 9 8c10 0 59 -3 137 -3s126 3 137 3c8 0 9 -2 9 -6v-26c0 -5 -1 -7 -8 -7h-50c-29 0 -46 -19 -48 -41c-1 -9 -2 -79 -2 -130v-66
c0 -53 4 -180 5 -212c1 -46 9 -93 32 -127c37 -54 101 -72 159 -72c57 0 115 19 150 55c39 42 52 102 52 176v214c0 76 -2 134 -5 159c-3 26 -19 44 -45 44h-44c-6 0 -7 3 -7 8v24c0 5 1 7 7 7c10 0 56 -3 123 -3c69 0 101 3 110 3s10 -4 10 -7v-22c0 -6 -1 -10 -6 -10h-41
c-37 0 -40 -28 -43 -40c-2 -10 -2 -152 -2 -166s-2 -189 -5 -228c-6 -82 -28 -145 -84 -193c-40 -37 -101 -60 -188 -60zM522 834v-33c0 -5 -5 -7 -11 -7h-239c-7 0 -8 2 -8 7v33c0 5 2 7 8 7h241c6 0 9 -2 9 -7z" />
    <glyph glyph-name="Uring" unicode="&#x16e;" horiz-adv-x="746" 
d="M370 -15c-52 0 -102 7 -135 21c-68 27 -103 71 -119 134c-12 45 -16 112 -16 243v238c0 35 -7 51 -38 51h-47c-6 0 -7 2 -7 9v22c0 6 1 8 9 8c10 0 59 -3 137 -3s126 3 137 3c8 0 9 -2 9 -6v-26c0 -5 -1 -7 -8 -7h-50c-29 0 -46 -19 -48 -41c-1 -9 -2 -79 -2 -130v-66
c0 -53 4 -180 5 -212c1 -46 9 -93 32 -127c37 -54 101 -72 159 -72c57 0 115 19 150 55c39 42 52 102 52 176v214c0 76 -2 134 -5 159c-3 26 -19 44 -45 44h-44c-6 0 -7 3 -7 8v24c0 5 1 7 7 7c10 0 56 -3 123 -3c69 0 101 3 110 3s10 -4 10 -7v-22c0 -6 -1 -10 -6 -10h-41
c-37 0 -40 -28 -43 -40c-2 -10 -2 -152 -2 -166s-2 -189 -5 -228c-6 -82 -28 -145 -84 -193c-40 -37 -101 -60 -188 -60zM393 784c-50 0 -94 27 -94 71c0 47 48 79 103 79c64 0 95 -31 95 -69c0 -64 -64 -81 -104 -81zM398 809c29 0 47 19 47 51c0 31 -23 49 -45 49
c-33 -1 -49 -27 -49 -49c0 -29 16 -51 47 -51z" />
    <glyph glyph-name="Uhungarumlaut" unicode="&#x170;" horiz-adv-x="746" 
d="M370 -15c-52 0 -102 7 -135 21c-68 27 -103 71 -119 134c-12 45 -16 112 -16 243v238c0 35 -7 51 -38 51h-47c-6 0 -7 2 -7 9v22c0 6 1 8 9 8c10 0 59 -3 137 -3s126 3 137 3c8 0 9 -2 9 -6v-26c0 -5 -1 -7 -8 -7h-50c-29 0 -46 -19 -48 -41c-1 -9 -2 -79 -2 -130v-66
c0 -53 4 -180 5 -212c1 -46 9 -93 32 -127c37 -54 101 -72 159 -72c57 0 115 19 150 55c39 42 52 102 52 176v214c0 76 -2 134 -5 159c-3 26 -19 44 -45 44h-44c-6 0 -7 3 -7 8v24c0 5 1 7 7 7c10 0 56 -3 123 -3c69 0 101 3 110 3s10 -4 10 -7v-22c0 -6 -1 -10 -6 -10h-41
c-37 0 -40 -28 -43 -40c-2 -10 -2 -152 -2 -166s-2 -189 -5 -228c-6 -82 -28 -145 -84 -193c-40 -37 -101 -60 -188 -60zM233 769l-12 16c-2 2 -1 6 2 8l137 111c17 14 29 22 42 22c20 0 35 -17 35 -35c0 -15 -10 -28 -29 -38l-168 -84c-3 -2 -6 -1 -7 0zM393 769l-12 16
c-2 2 -1 6 2 8l137 111c17 14 29 22 42 22c20 0 35 -17 35 -35c0 -15 -10 -28 -29 -38l-168 -84c-3 -2 -6 -1 -7 0z" />
    <glyph glyph-name="Uogonek" unicode="&#x172;" horiz-adv-x="746" 
d="M692 672c-37 0 -40 -28 -43 -40c-2 -10 -2 -152 -2 -166s-2 -189 -5 -228c-6 -82 -29 -144 -84 -193c-23 -21 -66 -40 -89 -54c-38 -23 -94 -75 -94 -145c0 -38 18 -62 49 -62c24 0 44 12 55 23c7 6 11 11 15 11c7 0 9 -9 9 -16c0 -24 -41 -66 -109 -66
c-42 0 -99 29 -99 94c0 61 37 106 116 157c-13 -1 -26 -2 -41 -2c-52 0 -102 8 -135 21c-68 28 -103 71 -119 134c-12 45 -16 112 -16 243v238c0 35 -7 51 -38 51h-47c-6 0 -7 2 -7 9v22c0 6 1 8 9 8c10 0 59 -3 137 -3s126 3 137 3c8 0 9 -2 9 -6v-26c0 -5 -1 -7 -8 -7h-50
c-29 0 -46 -19 -48 -41c-1 -9 -2 -79 -2 -130v-66c0 -53 4 -180 5 -212c1 -46 9 -93 32 -127c37 -54 101 -72 159 -72c57 0 115 19 150 55c39 42 52 102 52 176v214c0 76 -2 134 -5 159c-3 26 -19 44 -45 44h-44c-6 0 -7 3 -7 8v24c0 5 1 7 7 7c10 0 56 -3 123 -3
c69 0 101 3 110 3s10 -4 10 -7v-22c0 -6 -1 -10 -6 -10h-41z" />
    <glyph glyph-name="Yacute" unicode="&#xdd;" horiz-adv-x="665" 
d="M369 317v-131c0 -39 3 -104 4 -115c3 -32 18 -35 44 -35h39c7 0 7 -3 7 -7v-23c0 -6 0 -9 -7 -9c-12 0 -51 3 -135 3c-90 0 -121 -3 -132 -3c-4 0 -6 3 -6 8v24c0 4 1 7 7 7h49c26 0 34 10 35 25c1 14 3 93 3 186v58c-13 26 -179 308 -208 343c-13 15 -36 24 -52 24h-25
c-6 0 -7 3 -7 7v26c0 4 1 6 7 6c9 0 56 -3 117 -3c103 0 139 3 149 3c6 0 7 -2 7 -5v-25c0 -5 -1 -9 -7 -9h-33c-30 0 -34 -9 -30 -33c3 -16 126 -233 156 -290c37 58 177 266 181 284c4 17 9 39 -33 39h-27c-6 0 -7 3 -7 9v24c0 4 1 6 7 6c10 0 51 -3 118 -3
c59 0 81 3 90 3c7 0 8 -2 8 -6v-24c0 -6 -1 -9 -8 -9h-25c-15 0 -32 -6 -49 -22c-20 -19 -199 -278 -237 -333zM352 769l-12 16c-2 2 -1 6 2 8l137 113c16 13 27 20 41 20c21 0 36 -17 36 -35c0 -15 -9 -30 -29 -40l-168 -82c-3 -2 -6 -1 -7 0z" />
    <glyph glyph-name="Ydieresis" unicode="&#x178;" horiz-adv-x="665" 
d="M369 317v-131c0 -39 3 -104 4 -115c3 -32 18 -35 44 -35h39c7 0 7 -3 7 -7v-23c0 -6 0 -9 -7 -9c-12 0 -51 3 -135 3c-90 0 -121 -3 -132 -3c-4 0 -6 3 -6 8v24c0 4 1 7 7 7h49c26 0 34 10 35 25c1 14 3 93 3 186v58c-13 26 -179 308 -208 343c-13 15 -36 24 -52 24h-25
c-6 0 -7 3 -7 7v26c0 4 1 6 7 6c9 0 56 -3 117 -3c103 0 139 3 149 3c6 0 7 -2 7 -5v-25c0 -5 -1 -9 -7 -9h-33c-30 0 -34 -9 -30 -33c3 -16 126 -233 156 -290c37 58 177 266 181 284c4 17 9 39 -33 39h-27c-6 0 -7 3 -7 9v24c0 4 1 6 7 6c10 0 51 -3 118 -3
c59 0 81 3 90 3c7 0 8 -2 8 -6v-24c0 -6 -1 -9 -8 -9h-25c-15 0 -32 -6 -49 -22c-20 -19 -199 -278 -237 -333zM267 880c22 0 44 -18 44 -48c0 -27 -21 -45 -44 -45c-18 0 -52 10 -52 49c0 12 11 44 52 44zM466 880c23 0 45 -18 45 -48c0 -27 -21 -45 -45 -45
c-18 0 -52 10 -52 49c0 12 11 44 52 44z" />
    <glyph glyph-name="Zacute" unicode="&#x179;" horiz-adv-x="702" 
d="M273 0h-211c-8 0 -19 0 -19 8c0 6 1 14 6 19c52 61 466 637 473 649h-271c-14 0 -26 -5 -40 -16c-21 -17 -103 -118 -122 -149c-3 -4 -6 -3 -9 -1l-13 6c-3 2 -4 3 -2 9l63 180c3 9 7 11 12 11c4 0 12 -1 20 -2c47 -6 188 -6 271 -6c36 0 72 2 108 3c36 2 71 3 106 3
c16 0 18 -11 7 -24c-19 -22 -459 -623 -478 -654h352c37 23 127 131 140 148c3 3 5 4 9 2l14 -8c3 -2 4 -5 2 -9c-13 -25 -63 -146 -71 -173c-2 -7 -8 -11 -13 -11c-4 0 -12 2 -25 4c-55 7 -214 11 -309 11zM331 769l-12 16c-2 2 -1 6 2 8l137 113c16 13 27 20 41 20
c21 0 36 -17 36 -35c0 -15 -9 -30 -29 -40l-168 -82c-3 -2 -6 -1 -7 0z" />
    <glyph glyph-name="Zdotaccent" unicode="&#x17b;" horiz-adv-x="702" 
d="M273 0h-211c-8 0 -19 0 -19 8c0 6 1 14 6 19c52 61 466 637 473 649h-271c-14 0 -26 -5 -40 -16c-21 -17 -103 -118 -122 -149c-3 -4 -6 -3 -9 -1l-13 6c-3 2 -4 3 -2 9l63 180c3 9 7 11 12 11c4 0 12 -1 20 -2c47 -6 188 -6 271 -6c36 0 72 2 108 3c36 2 71 3 106 3
c16 0 18 -11 7 -24c-19 -22 -459 -623 -478 -654h352c37 23 127 131 140 148c3 3 5 4 9 2l14 -8c3 -2 4 -5 2 -9c-13 -25 -63 -146 -71 -173c-2 -7 -8 -11 -13 -11c-4 0 -12 2 -25 4c-55 7 -214 11 -309 11zM385 890c26 0 50 -20 50 -53c0 -30 -23 -50 -50 -50
c-20 0 -57 11 -57 54c0 14 12 49 57 49z" />
    <glyph glyph-name="Zcaron" unicode="&#x17d;" horiz-adv-x="702" 
d="M273 0h-211c-8 0 -19 0 -19 8c0 6 1 14 6 19c52 61 466 637 473 649h-271c-14 0 -26 -5 -40 -16c-21 -17 -103 -118 -122 -149c-3 -4 -6 -3 -9 -1l-13 6c-3 2 -4 3 -2 9l63 180c3 9 7 11 12 11c4 0 12 -1 20 -2c47 -6 188 -6 271 -6c36 0 72 2 108 3c36 2 71 3 106 3
c16 0 18 -11 7 -24c-19 -22 -459 -623 -478 -654h352c37 23 127 131 140 148c3 3 5 4 9 2l14 -8c3 -2 4 -5 2 -9c-13 -25 -63 -146 -71 -173c-2 -7 -8 -11 -13 -11c-4 0 -12 2 -25 4c-55 7 -214 11 -309 11zM251 909l131 -56l117 55c5 3 8 4 10 1l8 -10c3 -3 2 -5 -2 -9
l-126 -111c-5 -4 -10 -9 -13 -9c-4 0 -8 4 -14 9l-126 112c-3 3 -3 5 -1 8l7 9c2 3 5 3 9 1z" />
    <glyph glyph-name="Eth" unicode="&#xd0;" horiz-adv-x="813" 
d="M235 433v-57h170c8 0 9 -3 9 -9v-20c0 -7 -2 -9 -9 -9h-170c0 -21 1 -165 2 -221c0 -20 4 -36 17 -56c16 -21 56 -32 107 -32c101 0 184 44 234 108c42 52 73 134 73 225c0 78 -34 168 -82 221c-52 57 -140 96 -251 96c-22 0 -63 0 -80 -10c-14 -8 -18 -25 -19 -47
c-1 -42 -1 -173 -1 -189zM29 5v24c0 4 1 7 7 7h68c19 0 29 8 33 30c2 12 6 151 6 245v27h-97c-7 0 -9 3 -9 9v20c0 6 1 9 9 9h97v83c0 26 -3 168 -5 185c-2 20 -16 28 -43 28h-57c-5 0 -6 2 -6 9v22c0 6 1 8 8 8c12 0 46 -3 146 -3c42 0 126 3 149 3c129 0 237 -15 325 -90
c65 -56 111 -139 111 -255c0 -115 -33 -191 -99 -263c-96 -106 -235 -106 -311 -106c-16 0 -141 3 -184 3c-83 0 -132 -3 -140 -3c-7 0 -8 1 -8 8z" />
    <glyph glyph-name="Thorn" unicode="&#xde;" horiz-adv-x="607" 
d="M225 184v-33c0 -22 1 -69 2 -83c2 -21 12 -32 35 -32h62c7 0 8 -3 8 -7v-24c0 -5 -1 -8 -9 -8c-14 0 -45 3 -139 3c-96 0 -127 -3 -138 -3c-7 0 -8 3 -8 7v25c0 5 1 7 6 7h46c31 0 38 5 41 32c1 10 4 166 4 282v115c0 66 -1 175 -2 185c-1 16 -12 22 -43 22h-52
c-6 0 -7 2 -7 8v24c0 5 1 7 6 7c11 0 43 -3 146 -3c87 0 127 3 141 3c5 0 8 -2 8 -8v-20c0 -9 -2 -11 -10 -11h-60c-24 0 -33 -3 -34 -15c-2 -18 -3 -46 -3 -92c26 1 48 2 64 2c108 0 162 -10 218 -49c47 -34 71 -88 71 -141c0 -121 -95 -198 -244 -198c-37 0 -77 1 -109 5z
M225 529v-308c20 -7 53 -10 92 -10c88 0 157 66 157 161c0 128 -122 163 -171 163c-23 0 -58 -1 -78 -6z" />
    <glyph glyph-name="agrave" unicode="&#xe0;" horiz-adv-x="427" 
d="M336 178v-59c0 -57 12 -75 30 -75c16 0 30 8 35 15c4 5 6 7 10 4l10 -8c3 -3 5 -8 -1 -18c-8 -15 -27 -49 -78 -49c-36 0 -62 26 -71 67h-2c-21 -25 -54 -46 -99 -61c-19 -6 -37 -6 -59 -6c-24 0 -60 20 -60 83c0 46 21 86 100 121c45 20 97 44 113 58v64
c-2 17 -3 43 -14 56s-31 22 -60 22c-20 0 -51 -8 -65 -21s-5 -28 -5 -46c0 -35 -12 -57 -53 -57c-16 0 -24 9 -24 32c0 32 28 70 69 94c42 25 77 35 122 35c47 0 66 -14 80 -27c21 -21 22 -44 22 -71v-153zM263 97v123c-36 -27 -134 -47 -134 -130c0 -37 22 -55 52 -55
c29 0 82 35 82 62zM271 497l-12 -11c-2 -2 -4 -2 -6 0l-132 94c-38 27 -15 66 14 66c20 0 32 -14 41 -25l96 -119c1 -2 1 -4 -1 -5z" />
    <glyph glyph-name="aacute" unicode="&#xe1;" horiz-adv-x="427" 
d="M336 178v-59c0 -57 12 -75 30 -75c16 0 30 8 35 15c4 5 6 7 10 4l10 -8c3 -3 5 -8 -1 -18c-8 -15 -27 -49 -78 -49c-36 0 -62 26 -71 67h-2c-21 -25 -54 -46 -99 -61c-19 -6 -37 -6 -59 -6c-24 0 -60 20 -60 83c0 46 21 86 100 121c45 20 97 44 113 58v64
c-2 17 -3 43 -14 56s-31 22 -60 22c-20 0 -51 -8 -65 -21s-5 -28 -5 -46c0 -35 -12 -57 -53 -57c-16 0 -24 9 -24 32c0 32 28 70 69 94c42 25 77 35 122 35c47 0 66 -14 80 -27c21 -21 22 -44 22 -71v-153zM263 97v123c-36 -27 -134 -47 -134 -130c0 -37 22 -55 52 -55
c29 0 82 35 82 62zM171 486l-12 10c-2 2 -2 4 0 6l96 119c11 13 24 25 42 25c27 0 50 -38 11 -66l-131 -94c-2 -2 -4 -2 -6 0z" />
    <glyph glyph-name="acircumflex" unicode="&#xe2;" horiz-adv-x="427" 
d="M336 178v-59c0 -57 12 -75 30 -75c16 0 30 8 35 15c4 5 6 7 10 4l10 -8c3 -3 5 -8 -1 -18c-8 -15 -27 -49 -78 -49c-36 0 -62 26 -71 67h-2c-21 -25 -54 -46 -99 -61c-19 -6 -37 -6 -59 -6c-24 0 -60 20 -60 83c0 46 21 86 100 121c45 20 97 44 113 58v64
c-2 17 -3 43 -14 56s-31 22 -60 22c-20 0 -51 -8 -65 -21s-5 -28 -5 -46c0 -35 -12 -57 -53 -57c-16 0 -24 9 -24 32c0 32 28 70 69 94c42 25 77 35 122 35c47 0 66 -14 80 -27c21 -21 22 -44 22 -71v-153zM263 97v123c-36 -27 -134 -47 -134 -130c0 -37 22 -55 52 -55
c29 0 82 35 82 62zM315 488l-109 77l-101 -76c-3 -2 -6 -4 -9 -1l-9 9c-2 2 -1 6 3 10l105 131c4 4 8 9 12 9s9 -5 13 -10l110 -131c3 -3 4 -6 2 -8l-8 -9c-2 -3 -5 -4 -9 -1z" />
    <glyph glyph-name="atilde" unicode="&#xe3;" horiz-adv-x="427" 
d="M336 178v-59c0 -57 12 -75 30 -75c16 0 30 8 35 15c4 5 6 7 10 4l10 -8c3 -3 5 -8 -1 -18c-8 -15 -27 -49 -78 -49c-36 0 -62 26 -71 67h-2c-21 -25 -54 -46 -99 -61c-19 -6 -37 -6 -59 -6c-24 0 -60 20 -60 83c0 46 21 86 100 121c45 20 97 44 113 58v64
c-2 17 -3 43 -14 56s-31 22 -60 22c-20 0 -51 -8 -65 -21s-5 -28 -5 -46c0 -35 -12 -57 -53 -57c-16 0 -24 9 -24 32c0 32 28 70 69 94c42 25 77 35 122 35c47 0 66 -14 80 -27c21 -21 22 -44 22 -71v-153zM263 97v123c-36 -27 -134 -47 -134 -130c0 -37 22 -55 52 -55
c29 0 82 35 82 62zM328 607h17c4 0 6 -4 3 -18c-8 -39 -33 -76 -77 -76c-28 0 -52 10 -73 17c-23 8 -41 11 -62 11c-16 0 -34 -14 -39 -42c-1 -4 -4 -5 -7 -5h-18c-4 0 -6 4 -3 17c9 53 41 83 77 83c30 0 55 -9 74 -15c25 -8 44 -14 68 -14c22 0 29 18 33 36c1 4 3 6 7 6z
" />
    <glyph glyph-name="adieresis" unicode="&#xe4;" horiz-adv-x="427" 
d="M336 331v-212c0 -57 12 -75 30 -75c16 0 30 8 35 15c4 5 6 7 10 4l10 -8c3 -3 5 -8 -1 -18c-8 -15 -27 -49 -78 -49c-36 0 -62 26 -71 67h-2c-21 -25 -54 -46 -99 -61c-19 -6 -37 -6 -59 -6c-24 0 -60 20 -60 83c0 46 21 86 100 121c45 20 97 44 113 58v64
c-2 17 -3 43 -14 56s-31 22 -60 22c-20 0 -51 -8 -65 -21s-5 -28 -5 -46c0 -35 -12 -57 -53 -57c-16 0 -24 9 -24 32c0 32 28 70 69 94c42 25 77 35 122 35c47 0 66 -14 80 -27c21 -21 22 -44 22 -71zM263 97v123c-36 -27 -134 -47 -134 -130c0 -37 22 -55 52 -55
c29 0 82 35 82 62zM132 637c23 0 45 -18 45 -49c0 -26 -21 -44 -45 -44c-18 0 -51 10 -51 48c0 13 11 45 51 45zM302 637c22 0 44 -18 44 -49c0 -26 -21 -44 -44 -44c-18 0 -52 10 -52 48c0 13 11 45 52 45z" />
    <glyph glyph-name="aring" unicode="&#xe5;" horiz-adv-x="427" 
d="M336 178v-59c0 -57 12 -75 30 -75c16 0 30 8 35 15c4 5 6 7 10 4l10 -8c3 -3 5 -8 -1 -18c-8 -15 -27 -49 -78 -49c-36 0 -62 26 -71 67h-2c-21 -25 -54 -46 -99 -61c-19 -6 -37 -6 -59 -6c-24 0 -60 20 -60 83c0 46 21 86 100 121c45 20 97 44 113 58v64
c-2 17 -3 43 -14 56s-31 22 -60 22c-20 0 -51 -8 -65 -21s-5 -28 -5 -46c0 -35 -12 -57 -53 -57c-16 0 -24 9 -24 32c0 32 28 70 69 94c42 25 77 35 122 35c47 0 66 -14 80 -27c21 -21 22 -44 22 -71v-153zM263 97v123c-36 -27 -134 -47 -134 -130c0 -37 22 -55 52 -55
c29 0 82 35 82 62zM201 495c-57 0 -89 30 -89 66c0 43 39 75 98 75c57 0 89 -30 89 -65c0 -46 -37 -76 -98 -76zM205 519c27 0 45 16 45 48c0 26 -18 44 -41 44c-28 0 -48 -21 -48 -47s17 -45 44 -45z" />
    <glyph glyph-name="amacron" unicode="&#x101;" horiz-adv-x="427" 
d="M336 178v-59c0 -57 12 -75 30 -75c16 0 30 8 35 15c4 5 6 7 10 4l10 -8c3 -3 5 -8 -1 -18c-8 -15 -27 -49 -78 -49c-36 0 -62 26 -71 67h-2c-21 -25 -54 -46 -99 -61c-19 -6 -37 -6 -59 -6c-24 0 -60 20 -60 83c0 46 21 86 100 121c45 20 97 44 113 58v64
c-2 17 -3 43 -14 56s-31 22 -60 22c-20 0 -51 -8 -65 -21s-5 -28 -5 -46c0 -35 -12 -57 -53 -57c-16 0 -24 9 -24 32c0 32 28 70 69 94c42 25 77 35 122 35c47 0 66 -14 80 -27c21 -21 22 -44 22 -71v-153zM263 97v123c-36 -27 -134 -47 -134 -130c0 -37 22 -55 52 -55
c29 0 82 35 82 62zM95 519v32c0 5 2 7 8 7h220c6 0 9 -2 9 -7v-32c0 -5 -5 -7 -11 -7h-218c-7 0 -8 2 -8 7z" />
    <glyph glyph-name="abreve" unicode="&#x103;" horiz-adv-x="427" 
d="M336 178v-59c0 -57 12 -75 30 -75c16 0 30 8 35 15c4 5 6 7 10 4l10 -8c3 -3 5 -8 -1 -18c-8 -15 -27 -49 -78 -49c-36 0 -62 26 -71 67h-2c-21 -25 -54 -46 -99 -61c-19 -6 -37 -6 -59 -6c-24 0 -60 20 -60 83c0 46 21 86 100 121c45 20 97 44 113 58v64
c-2 17 -3 43 -14 56s-31 22 -60 22c-20 0 -51 -8 -65 -21s-5 -28 -5 -46c0 -35 -12 -57 -53 -57c-16 0 -24 9 -24 32c0 32 28 70 69 94c42 25 77 35 122 35c47 0 66 -14 80 -27c21 -21 22 -44 22 -71v-153zM263 97v123c-36 -27 -134 -47 -134 -130c0 -37 22 -55 52 -55
c29 0 82 35 82 62zM212 485c-62 0 -123 55 -131 119c-1 8 -1 12 3 13l11 5c2 1 5 0 8 -6c22 -44 69 -70 109 -70c51 0 99 41 113 70c2 4 4 7 8 5l12 -6c3 -1 3 -4 2 -9c-10 -50 -73 -121 -135 -121z" />
    <glyph glyph-name="aogonek" unicode="&#x105;" horiz-adv-x="427" 
d="M354 -14c-51 -35 -78 -76 -78 -127c0 -32 19 -50 43 -50c22 0 37 12 55 28c6 6 11 10 14 10c7 0 9 -8 9 -15c0 -20 -43 -68 -97 -68c-41 0 -94 25 -94 86c0 65 65 111 110 144c-20 8 -37 25 -45 61h-2c-21 -25 -54 -46 -99 -61c-19 -6 -37 -6 -59 -6c-24 0 -60 20 -60 83
c0 46 21 86 100 121c45 20 97 44 113 58v64c-2 17 -3 43 -14 56s-31 22 -60 22c-20 0 -51 -8 -65 -21s-5 -28 -5 -46c0 -35 -12 -57 -53 -57c-16 0 -24 9 -24 32c0 32 28 70 69 94c42 25 77 35 122 35c47 0 66 -14 80 -27c21 -21 22 -44 22 -71v-212c0 -57 12 -75 30 -75
c16 0 30 8 35 15c4 5 6 7 10 4l10 -8c3 -3 4 -8 -2 -18c-12 -22 -32 -43 -65 -51zM263 97v123c-36 -27 -134 -47 -134 -130c0 -37 22 -55 52 -55c29 0 82 35 82 62z" />
    <glyph glyph-name="ccedilla" unicode="&#xe7;" horiz-adv-x="417" 
d="M161 -95l65 84c-50 0 -102 14 -146 69c-37 49 -45 91 -45 136c0 117 82 235 214 235c104 0 136 -60 136 -81c-1 -23 -16 -35 -37 -35c-23 0 -40 13 -55 40c-22 41 -43 44 -67 44c-57 0 -118 -52 -118 -155c0 -54 24 -115 51 -152c33 -43 75 -51 109 -51
c50 0 76 11 110 43c2 2 5 3 8 0l10 -10c4 -4 5 -7 0 -13c-24 -27 -70 -57 -123 -67l-48 -60c31 -9 62 -37 62 -68c0 -63 -88 -100 -153 -100c-16 0 -20 9 -20 20c0 12 15 14 32 14c31 0 81 18 81 56c0 25 -22 43 -66 51z" />
    <glyph glyph-name="cacute" unicode="&#x107;" horiz-adv-x="411" 
d="M228 397c-57 0 -118 -52 -118 -155c0 -54 24 -115 51 -152c33 -43 75 -51 109 -51c50 0 76 11 110 43c2 2 5 3 8 0l10 -10c4 -4 5 -7 0 -13c-29 -33 -93 -71 -161 -71c-53 0 -109 12 -155 70c-37 49 -45 91 -45 136c0 117 82 235 214 235c104 0 136 -60 136 -81
c-1 -23 -16 -35 -37 -35c-23 0 -40 13 -55 40c-22 41 -43 44 -67 44zM185 486l-12 10c-2 2 -2 4 0 6l96 119c11 13 24 25 42 25c27 0 50 -38 11 -66l-131 -94c-2 -2 -4 -2 -6 0z" />
    <glyph glyph-name="ccaron" unicode="&#x10d;" horiz-adv-x="411" 
d="M228 397c-57 0 -118 -52 -118 -155c0 -54 24 -115 51 -152c33 -43 75 -51 109 -51c50 0 76 11 110 43c2 2 5 3 8 0l10 -10c4 -4 5 -7 0 -13c-29 -33 -93 -71 -161 -71c-53 0 -109 12 -155 70c-37 49 -45 91 -45 136c0 117 82 235 214 235c104 0 136 -60 136 -81
c-1 -23 -16 -35 -37 -35c-23 0 -40 13 -55 40c-22 41 -43 44 -67 44zM130 646l110 -76l100 75c3 2 6 4 9 1l9 -9c2 -2 1 -6 -3 -10l-105 -131c-4 -4 -8 -9 -12 -9s-9 5 -13 10l-110 131c-3 3 -4 6 -2 8l8 9c2 3 5 4 9 1z" />
    <glyph glyph-name="dcaron" unicode="&#x10f;" horiz-adv-x="521" 
d="M363 414v195c0 38 -7 50 -63 59c-6 1 -7 3 -7 7v17c0 4 2 6 8 7c39 8 91 17 110 21c9 1 16 3 23 3c5 0 6 -7 5 -18c-3 -50 -4 -195 -4 -322v-221c0 -37 2 -81 10 -91c9 -10 30 -16 44 -17s18 -2 20 -7l2 -8c1 -6 -1 -9 -7 -11l-113 -38c-6 -2 -11 1 -13 8l-13 44
c-32 -32 -96 -54 -147 -54c-33 0 -71 -2 -118 46c-51 50 -63 95 -63 162c0 62 23 123 70 170c39 42 93 63 149 63c41 0 77 -6 107 -15zM363 120v172c0 14 0 33 -9 49c-14 27 -46 54 -105 54c-31 0 -65 -9 -91 -36c-39 -42 -46 -95 -46 -133c0 -113 78 -195 136 -195
c56 0 99 29 109 55c5 15 6 23 6 34zM535 727c26 0 49 -24 49 -71c0 -69 -50 -118 -81 -137c-3 -2 -9 -6 -14 -6c-6 0 -9 3 -9 7c0 5 1 6 7 11c22 17 41 50 41 74c0 19 -4 26 -10 34c-13 8 -27 27 -27 48c0 24 18 40 44 40z" />
    <glyph glyph-name="dcroat" unicode="&#x111;" horiz-adv-x="521" 
d="M363 546h-145c-6 0 -9 1 -9 7v23c0 4 1 6 7 6h147v27c0 38 -7 50 -63 59c-6 1 -7 3 -7 7v17c0 4 2 6 8 7c39 8 91 18 110 21c9 1 16 3 23 3c5 0 6 -7 5 -18c-2 -24 -3 -69 -3 -123h67c7 0 9 -2 9 -6v-23c0 -5 -2 -7 -10 -7h-67v-384c0 -37 2 -81 10 -91
c9 -10 30 -16 44 -17s18 -2 20 -7l2 -8c1 -6 -1 -9 -7 -11l-113 -38c-6 -2 -11 1 -13 8l-13 44c-32 -32 -96 -54 -147 -54c-33 0 -70 -2 -118 46c-51 51 -63 95 -63 162c0 62 24 122 70 170c40 41 93 63 149 63c41 0 77 -6 107 -15v132zM363 120v172c0 14 0 33 -9 49
c-14 27 -46 54 -105 54c-31 0 -65 -9 -91 -36c-39 -42 -46 -95 -46 -133c0 -113 78 -195 136 -195c56 0 99 29 109 55c5 15 6 23 6 34z" />
    <glyph glyph-name="egrave" unicode="&#xe8;" horiz-adv-x="426" 
d="M362 266h-247c-2 -9 -3 -25 -3 -48c0 -98 62 -172 142 -172c61 0 104 35 121 68c2 4 6 6 9 5l13 -7c3 -1 5 -4 0 -15c-18 -40 -70 -109 -159 -109c-57 0 -120 17 -157 71c-35 51 -44 88 -44 158c0 39 10 106 63 159c43 44 93 53 143 53c115 0 147 -108 147 -147
c0 -14 -12 -16 -28 -16zM119 296h155c19 0 27 5 27 14c0 23 -12 89 -77 89c-44 0 -86 -29 -105 -103zM290 497l-12 -11c-2 -2 -4 -2 -6 0l-132 94c-38 27 -15 66 14 66c20 0 32 -14 41 -25l96 -119c1 -2 1 -4 -1 -5z" />
    <glyph glyph-name="eacute" unicode="&#xe9;" horiz-adv-x="426" 
d="M362 266h-247c-2 -9 -3 -25 -3 -48c0 -98 62 -172 142 -172c61 0 104 35 121 68c2 4 6 6 9 5l13 -7c3 -1 5 -4 0 -15c-18 -40 -70 -109 -159 -109c-57 0 -120 17 -157 71c-35 51 -44 88 -44 158c0 39 10 106 63 159c43 44 93 53 143 53c115 0 147 -108 147 -147
c0 -14 -12 -16 -28 -16zM119 296h155c19 0 27 5 27 14c0 23 -12 89 -77 89c-44 0 -86 -29 -105 -103zM190 486l-12 10c-2 2 -2 4 0 6l96 119c11 13 24 25 42 25c27 0 50 -38 11 -66l-131 -94c-2 -2 -4 -2 -6 0z" />
    <glyph glyph-name="ecircumflex" unicode="&#xea;" horiz-adv-x="426" 
d="M362 266h-247c-2 -9 -3 -25 -3 -48c0 -98 62 -172 142 -172c61 0 104 35 121 68c2 4 6 6 9 5l13 -7c3 -1 5 -4 0 -15c-18 -40 -70 -109 -159 -109c-57 0 -120 17 -157 71c-35 51 -44 88 -44 158c0 39 10 106 63 159c43 44 93 53 143 53c115 0 147 -108 147 -147
c0 -14 -12 -16 -28 -16zM119 296h155c19 0 27 5 27 14c0 23 -12 89 -77 89c-44 0 -86 -29 -105 -103zM339 488l-109 77l-101 -76c-3 -2 -6 -4 -9 -1l-9 9c-2 2 -1 6 3 10l105 131c4 4 8 9 12 9s9 -5 13 -10l110 -131c3 -3 4 -6 2 -8l-8 -9c-2 -3 -5 -4 -9 -1z" />
    <glyph glyph-name="edieresis" unicode="&#xeb;" horiz-adv-x="426" 
d="M362 266h-247c-2 -9 -3 -25 -3 -48c0 -98 62 -172 142 -172c61 0 104 35 121 68c2 4 6 6 9 5l13 -7c3 -1 5 -4 0 -15c-18 -40 -70 -109 -159 -109c-57 0 -120 17 -157 71c-35 51 -44 88 -44 158c0 39 10 106 63 159c43 44 93 53 143 53c115 0 147 -108 147 -147
c0 -14 -12 -16 -28 -16zM119 296h155c19 0 27 5 27 14c0 23 -12 89 -77 89c-44 0 -86 -29 -105 -103zM152 637c23 0 45 -18 45 -49c0 -26 -21 -44 -45 -44c-18 0 -51 10 -51 48c0 13 11 45 51 45zM322 637c22 0 44 -18 44 -49c0 -26 -21 -44 -44 -44c-18 0 -52 10 -52 48
c0 13 11 45 52 45z" />
    <glyph glyph-name="emacron" unicode="&#x113;" horiz-adv-x="426" 
d="M362 266h-247c-2 -9 -3 -25 -3 -48c0 -98 62 -172 142 -172c61 0 104 35 121 68c2 4 6 6 9 5l13 -7c3 -1 5 -4 0 -15c-18 -40 -70 -109 -159 -109c-57 0 -120 17 -157 71c-35 51 -44 88 -44 158c0 39 10 106 63 159c43 44 93 53 143 53c115 0 147 -108 147 -147
c0 -14 -12 -16 -28 -16zM119 296h155c19 0 27 5 27 14c0 23 -12 89 -77 89c-44 0 -86 -29 -105 -103zM115 519v32c0 5 2 7 8 7h220c6 0 9 -2 9 -7v-32c0 -5 -5 -7 -11 -7h-218c-7 0 -8 2 -8 7z" />
    <glyph glyph-name="edotaccent" unicode="&#x117;" horiz-adv-x="426" 
d="M362 266h-247c-2 -9 -3 -25 -3 -48c0 -98 62 -172 142 -172c61 0 104 35 121 68c2 4 6 6 9 5l13 -7c3 -1 5 -4 0 -15c-18 -40 -70 -109 -159 -109c-57 0 -120 17 -157 71c-35 51 -44 88 -44 158c0 39 10 106 63 159c43 44 93 53 143 53c115 0 147 -108 147 -147
c0 -14 -12 -16 -28 -16zM119 296h155c19 0 27 5 27 14c0 23 -12 89 -77 89c-44 0 -86 -29 -105 -103zM231 544c-22 0 -55 20 -55 52c0 25 21 52 61 52c35 0 52 -27 52 -49c0 -26 -18 -55 -58 -55z" />
    <glyph glyph-name="eogonek" unicode="&#x119;" horiz-adv-x="426" 
d="M254 46c61 0 104 35 121 68c2 4 6 6 9 5l13 -7c3 -1 5 -4 0 -15c-15 -29 -43 -65 -92 -100c-39 -28 -69 -76 -69 -128c0 -36 17 -59 46 -59c22 0 40 12 51 22c6 6 11 10 14 10c7 0 9 -8 9 -15c0 -23 -39 -63 -102 -63c-39 0 -92 25 -92 91c0 60 44 92 88 133h-12
c-57 0 -120 17 -157 71c-35 51 -44 88 -44 158c0 39 10 106 63 159c43 44 93 53 143 53c115 0 147 -108 147 -147c0 -14 -12 -16 -28 -16h-247c-2 -9 -3 -25 -3 -48c0 -98 62 -172 142 -172zM301 311c0 23 -12 89 -77 89c-44 0 -86 -29 -105 -103h155c19 0 27 5 27 14z" />
    <glyph glyph-name="ecaron" unicode="&#x11b;" horiz-adv-x="426" 
d="M362 266h-247c-2 -9 -3 -25 -3 -48c0 -98 62 -172 142 -172c61 0 104 35 121 68c2 4 6 6 9 5l13 -7c3 -1 5 -4 0 -15c-18 -40 -70 -109 -159 -109c-57 0 -120 17 -157 71c-35 51 -44 88 -44 158c0 39 10 106 63 159c43 44 93 53 143 53c115 0 147 -108 147 -147
c0 -14 -12 -16 -28 -16zM119 296h155c19 0 27 5 27 14c0 23 -12 89 -77 89c-44 0 -86 -29 -105 -103zM128 646l110 -76l100 75c3 2 6 4 9 1l9 -9c2 -2 1 -6 -3 -10l-105 -131c-4 -4 -8 -9 -12 -9s-9 5 -13 10l-110 131c-3 3 -4 6 -2 8l8 9c2 3 5 4 9 1z" />
    <glyph glyph-name="gbreve" unicode="&#x11f;" horiz-adv-x="485" 
d="M218 -272c-48 0 -105 5 -153 32c-36 22 -51 48 -51 81c0 56 57 99 105 120v4c-42 9 -67 40 -67 70c0 48 55 82 90 95v2c-39 17 -93 63 -93 152c0 65 58 145 171 145c76 0 116 -46 126 -58c27 19 61 39 94 39s49 -22 47 -42c0 -19 -16 -37 -39 -37c-17 0 -27 8 -35 15
c-6 4 -13 9 -21 9c-7 0 -19 0 -32 -6c8 -20 15 -42 15 -76c0 -39 -11 -77 -37 -108c-26 -29 -83 -50 -116 -50c-22 0 -36 1 -51 5c-20 -8 -53 -28 -53 -56c0 -41 50 -38 117 -34c82 4 132 -5 172 -36c43 -32 48 -72 49 -96c0 -47 -17 -86 -67 -123c-26 -19 -86 -47 -171 -47
zM212 143c68 0 90 83 90 146c0 44 -9 70 -27 90c-13 13 -33 22 -48 22c-23 0 -47 -4 -71 -28c-32 -34 -36 -80 -36 -118c0 -34 11 -65 32 -87c18 -17 36 -25 60 -25zM253 -240c37 0 147 26 142 103c0 59 -45 104 -145 97l-96 -7c-31 -8 -80 -42 -80 -96c0 -25 19 -55 39 -69
c33 -23 69 -28 140 -28zM226 485c-62 0 -123 55 -131 119c-1 8 -1 12 3 13l11 5c2 1 5 0 8 -6c22 -44 69 -70 109 -70c51 0 99 41 113 70c2 4 4 7 8 5l12 -6c3 -1 3 -4 2 -9c-10 -50 -73 -121 -135 -121z" />
    <glyph glyph-name="gcommaaccent" unicode="&#x123;" horiz-adv-x="485" 
d="M218 -272c-48 0 -105 5 -153 32c-36 22 -51 48 -51 81c0 56 57 99 105 120v4c-42 9 -67 40 -67 70c0 48 55 82 90 95v2c-39 17 -93 63 -93 152c0 65 58 145 171 145c76 0 116 -46 126 -58c27 19 61 39 94 39s49 -22 47 -42c0 -19 -16 -37 -39 -37c-17 0 -27 8 -35 15
c-6 4 -13 9 -21 9c-7 0 -19 0 -32 -6c8 -20 15 -42 15 -76c0 -39 -11 -77 -37 -108c-26 -29 -83 -50 -116 -50c-22 0 -36 1 -51 5c-20 -8 -53 -28 -53 -56c0 -41 50 -38 117 -34c82 4 132 -5 172 -36c43 -32 48 -72 49 -96c0 -47 -17 -86 -67 -123c-26 -19 -86 -47 -171 -47
zM212 143c68 0 90 83 90 146c0 44 -9 70 -27 90c-13 13 -33 22 -48 22c-23 0 -47 -4 -71 -28c-32 -34 -36 -80 -36 -118c0 -34 11 -65 32 -87c18 -17 36 -25 60 -25zM253 -240c37 0 147 26 142 103c0 59 -45 104 -145 97l-96 -7c-31 -8 -80 -42 -80 -96c0 -25 19 -55 39 -69
c33 -23 69 -28 140 -28zM219 505c-26 0 -65 24 -65 71c-1 77 71 130 87 139c3 3 9 7 15 7s9 -3 8 -7c0 -5 -1 -6 -6 -11c-17 -16 -53 -52 -54 -93c0 -10 8 -20 13 -23c7 -3 43 -12 44 -49c0 -18 -16 -34 -42 -34z" />
    <glyph glyph-name="igrave" unicode="&#xec;" horiz-adv-x="267" 
d="M102 144v147c0 34 -6 52 -56 60c-7 1 -9 3 -9 7v9c0 3 2 5 7 7c32 12 70 28 108 49c8 4 13 6 19 6c5 0 6 -5 5 -12c-2 -17 -2 -80 -2 -163v-109c0 -39 0 -75 1 -86c2 -19 5 -26 16 -26h46c8 0 10 -3 10 -9v-17c0 -7 -2 -10 -9 -10c-8 0 -54 3 -96 3c-58 0 -97 -3 -108 -3
c-5 0 -8 2 -8 8v20c0 6 3 8 10 8h49c11 0 15 4 16 20c1 30 1 61 1 91zM196 497l-12 -11c-2 -2 -4 -2 -6 0l-132 94c-38 27 -15 66 14 66c20 0 32 -14 41 -25l96 -119c1 -2 1 -4 -1 -5z" />
    <glyph glyph-name="iacute" unicode="&#xed;" horiz-adv-x="267" 
d="M102 144v147c0 34 -6 52 -56 60c-7 1 -9 3 -9 7v9c0 3 2 5 7 7c32 12 70 28 108 49c8 4 13 6 19 6c5 0 6 -5 5 -12c-2 -17 -2 -80 -2 -163v-109c0 -39 0 -75 1 -86c2 -19 5 -26 16 -26h46c8 0 10 -3 10 -9v-17c0 -7 -2 -10 -9 -10c-8 0 -54 3 -96 3c-58 0 -97 -3 -108 -3
c-5 0 -8 2 -8 8v20c0 6 3 8 10 8h49c11 0 15 4 16 20c1 30 1 61 1 91zM101 486l-12 10c-2 2 -2 4 0 6l96 119c11 13 24 25 42 25c27 0 50 -38 11 -66l-131 -94c-2 -2 -4 -2 -6 0z" />
    <glyph glyph-name="icircumflex" unicode="&#xee;" horiz-adv-x="267" 
d="M102 144v147c0 34 -6 52 -56 60c-7 1 -9 3 -9 7v9c0 3 2 5 7 7c32 12 70 28 108 49c8 4 13 6 19 6c5 0 6 -5 5 -12c-2 -17 -2 -80 -2 -163v-109c0 -39 0 -75 1 -86c2 -19 5 -26 16 -26h46c8 0 10 -3 10 -9v-17c0 -7 -2 -10 -9 -10c-8 0 -54 3 -96 3c-58 0 -97 -3 -108 -3
c-5 0 -8 2 -8 8v20c0 6 3 8 10 8h49c11 0 15 4 16 20c1 30 1 61 1 91zM244 488l-109 77l-101 -76c-3 -2 -6 -4 -9 -1l-9 9c-2 2 -1 6 3 10l105 131c4 4 8 9 12 9s9 -5 13 -10l110 -131c3 -3 4 -6 2 -8l-8 -9c-2 -3 -5 -4 -9 -1z" />
    <glyph glyph-name="idieresis" unicode="&#xef;" horiz-adv-x="267" 
d="M102 144v147c0 34 -6 52 -56 60c-7 1 -9 3 -9 7v9c0 3 2 5 7 7c32 12 70 28 108 49c8 4 13 6 19 6c5 0 6 -5 5 -12c-2 -17 -2 -80 -2 -163v-109c0 -39 0 -75 1 -86c2 -19 5 -26 16 -26h46c8 0 10 -3 10 -9v-17c0 -7 -2 -10 -9 -10c-8 0 -54 3 -96 3c-58 0 -97 -3 -108 -3
c-5 0 -8 2 -8 8v20c0 6 3 8 10 8h49c11 0 15 4 16 20c1 30 1 61 1 91zM52 637c23 0 45 -18 45 -49c0 -26 -21 -44 -45 -44c-18 0 -51 10 -51 48c0 13 11 45 51 45zM222 637c22 0 44 -18 44 -49c0 -26 -21 -44 -44 -44c-18 0 -52 10 -52 48c0 13 11 45 52 45z" />
    <glyph glyph-name="imacron" unicode="&#x12b;" horiz-adv-x="267" 
d="M102 144v147c0 34 -6 52 -56 60c-7 1 -9 3 -9 7v9c0 3 2 5 7 7c32 12 70 28 108 49c8 4 13 6 19 6c5 0 6 -5 5 -12c-2 -17 -2 -80 -2 -163v-109c0 -39 0 -75 1 -86c2 -19 5 -26 16 -26h46c8 0 10 -3 10 -9v-17c0 -7 -2 -10 -9 -10c-8 0 -54 3 -96 3c-58 0 -97 -3 -108 -3
c-5 0 -8 2 -8 8v20c0 6 3 8 10 8h49c11 0 15 4 16 20c1 30 1 61 1 91zM15 519v32c0 5 2 7 8 7h220c6 0 9 -2 9 -7v-32c0 -5 -5 -7 -11 -7h-218c-7 0 -8 2 -8 7z" />
    <glyph glyph-name="iogonek" unicode="&#x12f;" horiz-adv-x="267" 
d="M170 639c0 -26 -18 -55 -58 -55c-22 0 -55 20 -55 52c0 25 21 52 61 52c35 0 52 -27 52 -49zM237 33c8 0 10 -3 10 -9v-17c0 -7 -2 -10 -9 -10c-5 0 -21 3 -39 3c-51 0 -100 -63 -100 -131c0 -36 17 -59 46 -59c22 0 40 12 51 22c6 6 11 10 14 10c7 0 9 -8 9 -15
c0 -23 -39 -63 -102 -63c-39 0 -92 25 -92 91c0 60 60 121 105 145c-24 0 -52 0 -67 -1c-14 0 -24 -2 -29 -2s-8 2 -8 8v20c0 6 3 8 10 8h49c11 0 15 4 16 20c1 30 1 61 1 91v147c0 34 -6 52 -56 60c-7 1 -9 3 -9 7v9c0 3 2 5 7 7c32 12 70 28 108 49c8 4 13 6 19 6
c5 0 6 -5 5 -12c-2 -17 -2 -80 -2 -163v-109c0 -39 0 -75 1 -86c2 -19 5 -26 16 -26h46z" />
    <glyph glyph-name="dotlessi" unicode="&#x131;" horiz-adv-x="267" 
d="M102 144v147c0 34 -6 52 -56 60c-7 1 -9 3 -9 7v9c0 3 2 5 7 7c32 12 70 28 108 49c8 4 13 6 19 6c5 0 6 -5 5 -12c-2 -17 -2 -80 -2 -163v-109c0 -39 0 -75 1 -86c2 -19 5 -26 16 -26h46c8 0 10 -3 10 -9v-17c0 -7 -2 -10 -9 -10c-8 0 -54 3 -96 3c-58 0 -97 -3 -108 -3
c-5 0 -8 2 -8 8v20c0 6 3 8 10 8h49c11 0 15 4 16 20c1 30 1 61 1 91z" />
    <glyph glyph-name="kcommaaccent" unicode="&#x137;" horiz-adv-x="496" 
d="M95 243v331c0 41 -3 58 -52 71c-11 3 -14 4 -14 7v9c0 4 3 6 13 10l102 44c9 4 16 8 22 8s7 -5 6 -17c-5 -48 -5 -195 -5 -315v-158c13 0 38 3 48 11c19 13 98 99 106 111c6 11 6 19 0 23c-8 6 -20 6 -26 6c-7 0 -8 3 -8 9v19c0 5 2 8 7 8c6 0 42 -3 93 -3
c49 0 74 3 81 3c4 0 6 -3 6 -10v-18c0 -6 -1 -8 -8 -8h-7c-20 0 -49 -10 -69 -23c-14 -8 -98 -85 -132 -118c20 -20 188 -188 205 -196c18 -9 41 -14 52 -14c6 0 8 -2 8 -9v-18c0 -6 -2 -9 -9 -9c-8 0 -36 3 -83 3c-59 0 -101 -3 -109 -3c-5 0 -7 3 -7 10v16c0 5 2 8 10 8h7
c8 0 14 7 11 16c-3 8 -117 129 -133 144c-11 9 -30 11 -43 11v-44c0 -35 0 -69 1 -104c1 -14 6 -21 20 -21h29c7 0 9 -2 9 -8v-17c0 -8 -2 -11 -8 -11s-39 3 -89 3c-54 0 -89 -3 -96 -3c-3 0 -5 4 -5 10v17c0 7 3 9 10 9h37c13 0 18 11 18 24c1 44 2 98 2 186zM275 -60
c26 0 64 -24 64 -71c0 -77 -71 -130 -87 -139c-3 -3 -9 -7 -14 -7c-6 0 -9 3 -9 7c0 5 1 6 7 11c17 16 53 52 53 93c0 10 -8 20 -13 23c-7 3 -43 12 -43 49c0 18 16 34 42 34z" />
    <glyph glyph-name="lacute" unicode="&#x13a;" horiz-adv-x="256" 
d="M168 387v-89c0 -52 0 -203 1 -234c1 -17 5 -31 26 -31h45c9 0 11 -3 11 -9v-17c0 -6 -2 -10 -6 -10c-7 0 -51 3 -113 3c-64 0 -104 -3 -113 -3c-5 0 -7 4 -7 10v17c0 7 2 9 13 9h48c11 0 21 7 22 25c1 31 1 203 1 261v63c0 71 -1 162 -3 188c-2 34 -18 50 -50 60l-20 7
c-5 2 -6 3 -6 5v8c0 3 3 5 9 7c35 16 80 34 117 58c9 6 15 8 21 8c7 0 9 -5 8 -18c-1 -55 -4 -263 -4 -318zM92 769l-12 16c-2 2 -1 6 2 8l137 113c16 13 27 20 41 20c21 0 36 -17 36 -35c0 -15 -9 -30 -29 -40l-168 -82c-3 -2 -6 -1 -7 0z" />
    <glyph glyph-name="lcommaaccent" unicode="&#x13c;" horiz-adv-x="256" 
d="M168 387v-89c0 -52 0 -203 1 -234c1 -17 5 -31 26 -31h45c9 0 11 -3 11 -9v-17c0 -6 -2 -10 -6 -10c-7 0 -51 3 -113 3c-64 0 -104 -3 -113 -3c-5 0 -7 4 -7 10v17c0 7 2 9 13 9h48c11 0 21 7 22 25c1 31 1 203 1 261v63c0 71 -1 162 -3 188c-2 34 -18 50 -50 60l-20 7
c-5 2 -6 3 -6 5v8c0 3 3 5 9 7c35 16 80 34 117 58c9 6 15 8 21 8c7 0 9 -5 8 -18c-1 -55 -4 -263 -4 -318zM115 -60c26 0 64 -24 64 -71c0 -77 -71 -130 -87 -139c-3 -3 -9 -7 -14 -7c-6 0 -9 3 -9 7c0 5 1 6 7 11c17 16 53 52 53 93c0 10 -8 20 -13 23c-7 3 -43 12 -43 49
c0 18 16 34 42 34z" />
    <glyph glyph-name="lcaron" unicode="&#x13e;" horiz-adv-x="256" 
d="M168 387v-89c0 -52 0 -203 1 -234c1 -17 5 -31 26 -31h45c9 0 11 -3 11 -9v-17c0 -6 -2 -10 -6 -10c-7 0 -51 3 -113 3c-64 0 -104 -3 -113 -3c-5 0 -7 4 -7 10v17c0 7 2 9 13 9h48c11 0 21 7 22 25c1 31 1 203 1 261v63c0 71 -1 162 -3 188c-2 34 -18 50 -50 60l-20 7
c-5 2 -6 3 -6 5v8c0 3 3 5 9 7c35 16 80 34 117 58c9 6 15 8 21 8c7 0 9 -5 8 -18c-1 -55 -4 -263 -4 -318zM275 727c26 0 49 -24 49 -71c0 -69 -50 -118 -81 -137c-3 -2 -9 -6 -14 -6c-6 0 -9 3 -9 7c0 5 1 6 7 11c22 17 41 50 41 74c0 19 -4 26 -10 34
c-13 8 -27 27 -27 48c0 24 18 40 44 40z" />
    <glyph glyph-name="lslash" unicode="&#x142;" horiz-adv-x="291" 
d="M180 415v-70c0 -52 0 -250 1 -276c2 -32 9 -36 21 -36h49c10 0 12 -3 12 -9v-17c0 -6 -2 -10 -7 -10c-6 0 -78 3 -112 3c-35 0 -104 -3 -113 -3c-5 0 -7 4 -7 10v17c0 7 2 9 13 9h46c14 0 23 5 24 28c1 28 1 236 1 284v23l-52 -34c-5 -3 -8 1 -11 5l-12 19c-2 5 0 8 5 11
l70 44v26c0 42 -1 105 -3 131c-2 34 -18 49 -50 60l-20 7c-5 2 -6 3 -6 5v8c0 3 3 5 9 7c35 16 80 34 117 58c9 6 15 8 21 8c7 0 8 -5 8 -18c-2 -55 -4 -211 -4 -231v-13l55 37c6 4 8 2 11 -2l12 -19c5 -6 -2 -12 -2 -12z" />
    <glyph glyph-name="ntilde" unicode="&#xf1;" horiz-adv-x="532" 
d="M448 312v-258c0 -16 9 -21 22 -21h32c9 0 11 -3 11 -9v-16c0 -7 -2 -11 -8 -11c-7 0 -38 3 -95 3c-51 0 -83 -3 -90 -3c-6 0 -8 3 -8 11v16c0 7 3 9 13 9h29c11 0 19 5 20 23c1 26 2 58 2 84v132c0 40 0 69 -29 90c-24 18 -48 18 -73 18c-16 0 -51 -7 -81 -39
c-20 -22 -23 -49 -23 -68v-207c0 -27 3 -33 24 -33h25c8 0 10 -3 10 -10v-17c0 -6 -2 -9 -7 -9c-7 0 -34 3 -87 3c-51 0 -83 -3 -89 -3c-5 0 -7 3 -7 9v18c0 6 2 9 10 9h29c13 0 20 3 20 20v234c0 30 -16 47 -41 59l-8 4c-7 3 -8 6 -8 9v5c0 5 4 8 9 10l86 48c8 4 14 7 18 7
c5 0 7 -4 8 -12l7 -61h2c29 36 87 73 137 73c30 0 61 -6 85 -22c30 -20 55 -70 55 -95zM386 607h17c4 0 6 -4 3 -18c-8 -39 -33 -76 -77 -76c-28 0 -52 10 -73 17c-23 8 -41 11 -62 11c-16 0 -34 -14 -39 -42c-1 -4 -4 -5 -7 -5h-18c-4 0 -6 4 -3 17c9 53 41 83 77 83
c30 0 55 -9 74 -15c25 -8 44 -14 68 -14c22 0 29 18 33 36c1 4 3 6 7 6z" />
    <glyph glyph-name="nacute" unicode="&#x144;" horiz-adv-x="532" 
d="M448 312v-258c0 -16 9 -21 22 -21h32c9 0 11 -3 11 -9v-16c0 -7 -2 -11 -8 -11c-7 0 -38 3 -95 3c-51 0 -83 -3 -90 -3c-6 0 -8 3 -8 11v16c0 7 3 9 13 9h29c11 0 19 5 20 23c1 26 2 58 2 84v132c0 40 0 69 -29 90c-24 18 -48 18 -73 18c-16 0 -51 -7 -81 -39
c-20 -22 -23 -49 -23 -68v-207c0 -27 3 -33 24 -33h25c8 0 10 -3 10 -10v-17c0 -6 -2 -9 -7 -9c-7 0 -34 3 -87 3c-51 0 -83 -3 -89 -3c-5 0 -7 3 -7 9v18c0 6 2 9 10 9h29c13 0 20 3 20 20v234c0 30 -16 47 -41 59l-8 4c-7 3 -8 6 -8 9v5c0 5 4 8 9 10l86 48c8 4 14 7 18 7
c5 0 7 -4 8 -12l7 -61h2c29 36 87 73 137 73c30 0 61 -6 85 -22c30 -20 55 -70 55 -95zM243 486l-12 10c-2 2 -2 4 0 6l96 119c11 13 24 25 42 25c27 0 50 -38 11 -66l-131 -94c-2 -2 -4 -2 -6 0z" />
    <glyph glyph-name="ncommaaccent" unicode="&#x146;" horiz-adv-x="532" 
d="M448 312v-258c0 -16 9 -21 22 -21h32c9 0 11 -3 11 -9v-16c0 -7 -2 -11 -8 -11c-7 0 -38 3 -95 3c-51 0 -83 -3 -90 -3c-6 0 -8 3 -8 11v16c0 7 3 9 13 9h29c11 0 19 5 20 23c1 26 2 58 2 84v132c0 40 0 69 -29 90c-24 18 -48 18 -73 18c-16 0 -51 -7 -81 -39
c-20 -22 -23 -49 -23 -68v-207c0 -27 3 -33 24 -33h25c8 0 10 -3 10 -10v-17c0 -6 -2 -9 -7 -9c-7 0 -34 3 -87 3c-51 0 -83 -3 -89 -3c-5 0 -7 3 -7 9v18c0 6 2 9 10 9h29c13 0 20 3 20 20v234c0 30 -16 47 -41 59l-8 4c-7 3 -8 6 -8 9v5c0 5 4 8 9 10l86 48c8 4 14 7 18 7
c5 0 7 -4 8 -12l7 -61h2c29 36 87 73 137 73c30 0 61 -6 85 -22c30 -20 55 -70 55 -95zM253 -60c26 0 64 -24 64 -71c0 -77 -71 -130 -87 -139c-3 -3 -9 -7 -14 -7c-6 0 -9 3 -9 7c0 5 1 6 7 11c17 16 53 52 53 93c0 10 -8 20 -13 23c-7 3 -43 12 -43 49c0 18 16 34 42 34z
" />
    <glyph glyph-name="ncaron" unicode="&#x148;" horiz-adv-x="532" 
d="M448 312v-258c0 -16 9 -21 22 -21h32c9 0 11 -3 11 -9v-16c0 -7 -2 -11 -8 -11c-7 0 -38 3 -95 3c-51 0 -83 -3 -90 -3c-6 0 -8 3 -8 11v16c0 7 3 9 13 9h29c11 0 19 5 20 23c1 26 2 58 2 84v132c0 40 0 69 -29 90c-24 18 -48 18 -73 18c-16 0 -51 -7 -81 -39
c-20 -22 -23 -49 -23 -68v-207c0 -27 3 -33 24 -33h25c8 0 10 -3 10 -10v-17c0 -6 -2 -9 -7 -9c-7 0 -34 3 -87 3c-51 0 -83 -3 -89 -3c-5 0 -7 3 -7 9v18c0 6 2 9 10 9h29c13 0 20 3 20 20v234c0 30 -16 47 -41 59l-8 4c-7 3 -8 6 -8 9v5c0 5 4 8 9 10l86 48c8 4 14 7 18 7
c5 0 7 -4 8 -12l7 -61h2c29 36 87 73 137 73c30 0 61 -6 85 -22c30 -20 55 -70 55 -95zM171 646l110 -76l100 75c3 2 6 4 9 1l9 -9c2 -2 1 -6 -3 -10l-105 -131c-4 -4 -8 -9 -12 -9s-9 5 -13 10l-110 131c-3 3 -4 6 -2 8l8 9c2 3 5 4 9 1z" />
    <glyph glyph-name="ograve" unicode="&#xf2;" horiz-adv-x="498" 
d="M242 -12c-48 0 -110 19 -152 69c-46 55 -55 92 -55 163c0 51 27 115 86 161c52 40 101 48 134 48c55 0 110 -28 140 -58c45 -46 68 -98 68 -163c0 -109 -98 -220 -221 -220zM254 18c76 0 125 93 125 200c0 111 -81 181 -132 181c-27 0 -53 -6 -77 -32
c-39 -40 -53 -81 -53 -157c0 -56 6 -94 38 -140c23 -33 52 -52 99 -52zM306 497l-12 -11c-2 -2 -4 -2 -6 0l-132 94c-38 27 -15 66 14 66c20 0 32 -14 41 -25l96 -119c1 -2 1 -4 -1 -5z" />
    <glyph glyph-name="oacute" unicode="&#xf3;" horiz-adv-x="498" 
d="M242 -12c-48 0 -110 19 -152 69c-46 55 -55 92 -55 163c0 51 27 115 86 161c52 40 101 48 134 48c55 0 110 -28 140 -58c45 -46 68 -98 68 -163c0 -109 -98 -220 -221 -220zM254 18c76 0 125 93 125 200c0 111 -81 181 -132 181c-27 0 -53 -6 -77 -32
c-39 -40 -53 -81 -53 -157c0 -56 6 -94 38 -140c23 -33 52 -52 99 -52zM226 486l-12 10c-2 2 -2 4 0 6l96 119c11 13 24 25 42 25c27 0 50 -38 11 -66l-131 -94c-2 -2 -4 -2 -6 0z" />
    <glyph glyph-name="ocircumflex" unicode="&#xf4;" horiz-adv-x="498" 
d="M242 -12c-48 0 -110 19 -152 69c-46 55 -55 92 -55 163c0 51 27 115 86 161c52 40 101 48 134 48c55 0 110 -28 140 -58c45 -46 68 -98 68 -163c0 -109 -98 -220 -221 -220zM254 18c76 0 125 93 125 200c0 111 -81 181 -132 181c-27 0 -53 -6 -77 -32
c-39 -40 -53 -81 -53 -157c0 -56 6 -94 38 -140c23 -33 52 -52 99 -52zM355 488l-109 77l-101 -76c-3 -2 -6 -4 -9 -1l-9 9c-2 2 -1 6 3 10l105 131c4 4 8 9 12 9s9 -5 13 -10l110 -131c3 -3 4 -6 2 -8l-8 -9c-2 -3 -5 -4 -9 -1z" />
    <glyph glyph-name="otilde" unicode="&#xf5;" horiz-adv-x="498" 
d="M242 -12c-48 0 -110 19 -152 69c-46 55 -55 92 -55 163c0 51 27 115 86 161c52 40 101 48 134 48c55 0 110 -28 140 -58c45 -46 68 -98 68 -163c0 -109 -98 -220 -221 -220zM254 18c76 0 125 93 125 200c0 111 -81 181 -132 181c-27 0 -53 -6 -77 -32
c-39 -40 -53 -81 -53 -157c0 -56 6 -94 38 -140c23 -33 52 -52 99 -52zM369 607h17c4 0 6 -4 3 -18c-8 -39 -33 -76 -77 -76c-28 0 -52 10 -73 17c-23 8 -41 11 -62 11c-16 0 -34 -14 -39 -42c-1 -4 -4 -5 -7 -5h-18c-4 0 -6 4 -3 17c9 53 41 83 77 83c30 0 55 -9 74 -15
c25 -8 44 -14 68 -14c22 0 29 18 33 36c1 4 3 6 7 6z" />
    <glyph glyph-name="odieresis" unicode="&#xf6;" horiz-adv-x="498" 
d="M242 -12c-48 0 -110 19 -152 69c-46 55 -55 92 -55 163c0 51 27 115 86 161c52 40 101 48 134 48c55 0 110 -28 140 -58c45 -46 68 -98 68 -163c0 -109 -98 -220 -221 -220zM254 18c76 0 125 93 125 200c0 111 -81 181 -132 181c-27 0 -53 -6 -77 -32
c-39 -40 -53 -81 -53 -157c0 -56 6 -94 38 -140c23 -33 52 -52 99 -52zM168 637c23 0 45 -18 45 -49c0 -26 -21 -44 -45 -44c-18 0 -51 10 -51 48c0 13 11 45 51 45zM338 637c22 0 44 -18 44 -49c0 -26 -21 -44 -44 -44c-18 0 -52 10 -52 48c0 13 11 45 52 45z" />
    <glyph glyph-name="oslash" unicode="&#xf8;" horiz-adv-x="498" 
d="M241 -12c-36 0 -93 14 -133 49l-41 -44c-4 -4 -5 -5 -7 -5s-4 1 -6 3l-13 14c-3 3 -5 5 -5 8s3 6 9 12l38 40c-40 52 -48 88 -48 155c0 51 27 115 87 159c53 42 104 50 133 50c49 0 97 -22 123 -48l47 44c3 3 4 4 6 4s3 -1 4 -2l19 -17c2 -2 3 -3 3 -5c0 -1 0 -2 -2 -4
l-48 -48c38 -41 56 -88 56 -145c0 -109 -97 -220 -222 -220zM361 303l-213 -225l5 -9c23 -32 57 -51 101 -51c78 0 125 93 125 200c0 32 -7 61 -18 85zM131 114l210 224c-28 39 -66 61 -94 61c-23 0 -51 -6 -77 -32c-39 -40 -53 -81 -53 -157c0 -38 3 -67 14 -96z" />
    <glyph glyph-name="omacron" unicode="&#x14d;" horiz-adv-x="498" 
d="M242 -12c-48 0 -110 19 -152 69c-46 55 -55 92 -55 163c0 51 27 115 86 161c52 40 101 48 134 48c55 0 110 -28 140 -58c45 -46 68 -98 68 -163c0 -109 -98 -220 -221 -220zM254 18c76 0 125 93 125 200c0 111 -81 181 -132 181c-27 0 -53 -6 -77 -32
c-39 -40 -53 -81 -53 -157c0 -56 6 -94 38 -140c23 -33 52 -52 99 -52zM131 519v32c0 5 2 7 8 7h220c6 0 9 -2 9 -7v-32c0 -5 -5 -7 -11 -7h-218c-7 0 -8 2 -8 7z" />
    <glyph glyph-name="ohungarumlaut" unicode="&#x151;" horiz-adv-x="498" 
d="M242 -12c-48 0 -110 19 -152 69c-46 55 -55 92 -55 163c0 51 27 115 86 161c52 40 101 48 134 48c55 0 110 -28 140 -58c45 -46 68 -98 68 -163c0 -109 -98 -220 -221 -220zM254 18c76 0 125 93 125 200c0 111 -81 181 -132 181c-27 0 -53 -6 -77 -32
c-39 -40 -53 -81 -53 -157c0 -56 6 -94 38 -140c23 -33 52 -52 99 -52zM150 486l-12 10c-2 2 -2 4 0 6l98 119c10 12 23 25 41 25c26 0 48 -37 8 -66l-129 -94c-2 -2 -4 -2 -6 0zM285 486l-12 10c-2 2 -2 4 0 6l98 119c10 12 23 25 41 25c26 0 48 -37 8 -66l-129 -94
c-2 -2 -4 -2 -6 0z" />
    <glyph glyph-name="racute" unicode="&#x155;" horiz-adv-x="341" 
d="M97 172v94c0 51 -8 61 -36 76l-19 10c-6 2 -8 3 -8 7v6c0 4 2 6 8 9l99 51c6 3 10 4 14 4c6 0 7 -6 7 -12l5 -69h4c30 46 77 87 120 87c34 0 51 -21 51 -44c0 -29 -24 -49 -42 -49c-11 0 -21 4 -29 8c-8 5 -20 8 -33 8c-16 0 -42 -10 -59 -42c-6 -11 -10 -29 -10 -32
v-210c0 -31 7 -41 28 -41h47c6 0 7 -3 7 -9v-18c0 -6 -1 -9 -5 -9c-6 0 -52 3 -106 3c-62 0 -104 -3 -110 -3c-4 0 -6 2 -6 10v17c0 7 2 9 11 9h39c15 0 22 6 22 19c1 33 1 68 1 120zM178 486l-12 10c-2 2 -2 4 0 6l96 119c11 13 24 25 42 25c27 0 50 -38 11 -66l-131 -94
c-2 -2 -4 -2 -6 0z" />
    <glyph glyph-name="rcommaaccent" unicode="&#x157;" horiz-adv-x="341" 
d="M97 172v94c0 51 -8 61 -36 76l-19 10c-6 2 -8 3 -8 7v6c0 4 2 6 8 9l99 51c6 3 10 4 14 4c6 0 7 -6 7 -12l5 -69h4c30 46 77 87 120 87c34 0 51 -21 51 -44c0 -29 -24 -49 -42 -49c-11 0 -21 4 -29 8c-8 5 -20 8 -33 8c-16 0 -42 -10 -59 -42c-6 -11 -10 -29 -10 -32
v-210c0 -31 7 -41 28 -41h47c6 0 7 -3 7 -9v-18c0 -6 -1 -9 -5 -9c-6 0 -52 3 -106 3c-62 0 -104 -3 -110 -3c-4 0 -6 2 -6 10v17c0 7 2 9 11 9h39c15 0 22 6 22 19c1 33 1 68 1 120zM138 -60c26 0 64 -24 64 -71c0 -77 -71 -130 -87 -139c-3 -3 -9 -7 -14 -7
c-6 0 -9 3 -9 7c0 5 1 6 7 11c17 16 53 52 53 93c0 10 -8 20 -13 23c-7 3 -43 12 -43 49c0 18 16 34 42 34z" />
    <glyph glyph-name="rcaron" unicode="&#x159;" horiz-adv-x="341" 
d="M97 172v94c0 51 -8 61 -36 76l-19 10c-6 2 -8 3 -8 7v6c0 4 2 6 8 9l99 51c6 3 10 4 14 4c6 0 7 -6 7 -12l5 -69h4c30 46 77 87 120 87c34 0 51 -21 51 -44c0 -29 -24 -49 -42 -49c-11 0 -21 4 -29 8c-8 5 -20 8 -33 8c-16 0 -42 -10 -59 -42c-6 -11 -10 -29 -10 -32
v-210c0 -31 7 -41 28 -41h47c6 0 7 -3 7 -9v-18c0 -6 -1 -9 -5 -9c-6 0 -52 3 -106 3c-62 0 -104 -3 -110 -3c-4 0 -6 2 -6 10v17c0 7 2 9 11 9h39c15 0 22 6 22 19c1 33 1 68 1 120zM85 646l110 -76l100 75c3 2 6 4 9 1l9 -9c2 -2 1 -6 -3 -10l-105 -131
c-4 -4 -8 -9 -12 -9s-9 5 -13 10l-110 131c-3 3 -4 6 -2 8l8 9c2 3 5 4 9 1z" />
    <glyph glyph-name="sacute" unicode="&#x15b;" horiz-adv-x="356" 
d="M166 -12c-49 0 -89 20 -101 29c-5 3 -5 9 -6 14l-17 95c-1 5 2 7 6 8l13 3c4 1 7 -1 9 -6l25 -49c20 -37 34 -62 87 -62c35 0 79 21 79 68c0 45 -22 71 -97 92c-59 17 -118 48 -118 127c0 69 65 122 140 122c48 0 74 -12 92 -21c15 -7 17 -12 18 -18l15 -70
c0 -4 -2 -7 -7 -9l-12 -4c-4 -1 -6 0 -9 5l-34 46c-12 19 -31 39 -70 39c-38 0 -77 -23 -77 -66c0 -58 47 -69 96 -83c73 -21 119 -51 120 -128c-1 -81 -67 -132 -152 -132zM155 486l-12 10c-2 2 -2 4 0 6l96 119c11 13 24 25 42 25c27 0 50 -38 11 -66l-131 -94
c-2 -2 -4 -2 -6 0z" />
    <glyph glyph-name="scedilla" unicode="&#x15f;" horiz-adv-x="356" 
d="M222 -4l-55 -64c31 -9 62 -37 62 -68c0 -63 -88 -100 -153 -100c-16 0 -20 9 -20 20c0 12 15 14 32 14c31 0 81 18 81 56c0 25 -22 43 -66 51l68 83h-5c-49 0 -89 20 -101 29c-5 3 -5 9 -6 14l-17 95c-1 5 2 7 6 8l13 3c4 1 7 -1 9 -6l25 -49c19 -37 34 -62 87 -62
c35 0 79 21 79 68c0 45 -22 71 -97 92c-59 17 -118 48 -118 127c0 69 65 122 140 122c48 0 74 -12 92 -21c15 -7 17 -12 18 -18l15 -70c0 -4 -2 -7 -7 -9l-12 -4c-4 -1 -6 0 -9 5l-34 46c-13 18 -31 39 -70 39c-38 0 -77 -23 -77 -66c0 -58 47 -69 96 -83
c73 -21 120 -51 120 -128c0 -62 -40 -107 -96 -124z" />
    <glyph glyph-name="scaron" unicode="&#x161;" horiz-adv-x="356" 
d="M166 -12c-49 0 -89 20 -101 29c-5 3 -5 9 -6 14l-17 95c-1 5 2 7 6 8l13 3c4 1 7 -1 9 -6l25 -49c20 -37 34 -62 87 -62c35 0 79 21 79 68c0 45 -22 71 -97 92c-59 17 -118 48 -118 127c0 69 65 122 140 122c48 0 74 -12 92 -21c15 -7 17 -12 18 -18l15 -70
c0 -4 -2 -7 -7 -9l-12 -4c-4 -1 -6 0 -9 5l-34 46c-12 19 -31 39 -70 39c-38 0 -77 -23 -77 -66c0 -58 47 -69 96 -83c73 -21 119 -51 120 -128c-1 -81 -67 -132 -152 -132zM85 646l110 -76l100 75c3 2 6 4 9 1l9 -9c2 -2 1 -6 -3 -10l-105 -131c-4 -4 -8 -9 -12 -9
s-9 5 -13 10l-110 131c-3 3 -4 6 -2 8l8 9c2 3 5 4 9 1z" />
    <glyph glyph-name="scommaaccent" unicode="&#x219;" horiz-adv-x="356" 
d="M166 -12c-49 0 -89 20 -101 29c-5 3 -5 9 -6 14l-17 95c-1 5 2 7 6 8l13 3c4 1 7 -1 9 -6l25 -49c20 -37 34 -62 87 -62c35 0 79 21 79 68c0 45 -22 71 -97 92c-59 17 -118 48 -118 127c0 69 65 122 140 122c48 0 74 -12 92 -21c15 -7 17 -12 18 -18l15 -70
c0 -4 -2 -7 -7 -9l-12 -4c-4 -1 -6 0 -9 5l-34 46c-12 19 -31 39 -70 39c-38 0 -77 -23 -77 -66c0 -58 47 -69 96 -83c73 -21 119 -51 120 -128c-1 -81 -67 -132 -152 -132zM165 -60c26 0 64 -24 64 -71c0 -77 -71 -130 -87 -139c-3 -3 -9 -7 -14 -7c-6 0 -9 3 -9 7
c0 5 1 6 7 11c17 16 53 52 53 93c0 10 -8 20 -13 23c-7 3 -43 12 -43 49c0 18 16 34 42 34z" />
    <glyph glyph-name="tcommaaccent" unicode="&#x163;" horiz-adv-x="319" 
d="M169 225v-100c0 -75 34 -88 52 -88c23 0 52 4 66 13c5 3 9 2 12 -2l5 -9c3 -4 1 -8 -2 -11c-10 -10 -51 -40 -111 -40c-49 0 -97 47 -97 85c0 41 3 129 3 143v22c0 18 1 85 2 127h-61c-9 0 -15 4 -15 12s6 11 18 18c24 14 101 92 114 126c3 8 8 10 14 10
c8 0 10 -7 10 -15l-5 -99h139c6 0 9 -5 7 -9l-10 -35c-1 -5 -3 -8 -9 -8h-129c-2 -46 -3 -94 -3 -140zM147 -60c26 0 64 -24 64 -71c0 -77 -71 -130 -87 -139c-3 -3 -9 -7 -14 -7c-6 0 -9 3 -9 7c0 5 1 6 7 11c17 16 53 52 53 93c0 10 -8 20 -13 23c-7 3 -43 12 -43 49
c0 18 16 34 42 34z" />
    <glyph glyph-name="tcaron" unicode="&#x165;" horiz-adv-x="319" 
d="M169 225v-100c0 -75 34 -88 52 -88c23 0 52 4 66 13c5 3 9 2 12 -2l5 -9c3 -4 1 -8 -2 -11c-10 -10 -51 -40 -111 -40c-49 0 -97 47 -97 85c0 41 3 129 3 143v22c0 18 1 85 2 127h-61c-9 0 -15 4 -15 12s6 11 18 18c24 14 101 92 114 126c3 8 8 10 14 10
c8 0 10 -7 10 -15l-5 -99h139c6 0 9 -5 7 -9l-10 -35c-1 -5 -3 -8 -9 -8h-129c-2 -46 -3 -94 -3 -140zM298 695c26 0 49 -24 49 -71c0 -69 -50 -118 -81 -137c-3 -2 -9 -6 -14 -6c-6 0 -9 3 -9 7c0 5 1 6 7 11c22 17 41 50 41 74c0 19 -4 26 -10 34c-13 8 -27 27 -27 48
c0 24 18 40 44 40z" />
    <glyph glyph-name="ugrave" unicode="&#xf9;" horiz-adv-x="506" 
d="M417 277v-74c0 -48 0 -97 2 -118c3 -31 14 -35 26 -35c6 0 21 0 33 3c8 2 11 0 12 -4l3 -13c1 -6 -1 -8 -5 -9l-105 -35c-6 -2 -12 -4 -20 -4c-4 0 -8 2 -9 12l-8 58h-2c-28 -39 -86 -70 -136 -70c-28 0 -61 3 -94 46c-41 53 -39 86 -39 196v116c-1 28 -15 35 -38 38
c-17 1 -22 2 -22 7v18c0 6 2 8 11 8h89c6 0 10 1 14 2c4 0 8 1 11 1c7 0 12 -5 11 -12c-1 -9 -4 -56 -4 -115v-71c0 -40 -10 -104 22 -150c25 -36 53 -38 80 -38s67 26 86 50c4 5 10 18 10 27v238c-2 28 -18 33 -43 35c-17 0 -22 2 -22 7v17c0 8 2 9 12 9h93c7 0 12 1 17 2
c5 0 9 1 12 1c6 0 10 -5 9 -10c-1 -9 -6 -35 -6 -133zM281 497l-12 -11c-2 -2 -4 -2 -6 0l-132 94c-38 27 -15 66 14 66c20 0 32 -14 41 -25l96 -119c1 -2 1 -4 -1 -5z" />
    <glyph glyph-name="uacute" unicode="&#xfa;" horiz-adv-x="506" 
d="M417 277v-74c0 -48 0 -97 2 -118c3 -31 14 -35 26 -35c6 0 21 0 33 3c8 2 11 0 12 -4l3 -13c1 -6 -1 -8 -5 -9l-105 -35c-6 -2 -12 -4 -20 -4c-4 0 -8 2 -9 12l-8 58h-2c-28 -39 -86 -70 -136 -70c-28 0 -61 3 -94 46c-41 53 -39 86 -39 196v116c-1 28 -15 35 -38 38
c-17 1 -22 2 -22 7v18c0 6 2 8 11 8h89c6 0 10 1 14 2c4 0 8 1 11 1c7 0 12 -5 11 -12c-1 -9 -4 -56 -4 -115v-71c0 -40 -10 -104 22 -150c25 -36 53 -38 80 -38s67 26 86 50c4 5 10 18 10 27v238c-2 28 -18 33 -43 35c-17 0 -22 2 -22 7v17c0 8 2 9 12 9h93c7 0 12 1 17 2
c5 0 9 1 12 1c6 0 10 -5 9 -10c-1 -9 -6 -35 -6 -133zM210 486l-12 10c-2 2 -2 4 0 6l96 119c11 13 24 25 42 25c27 0 50 -38 11 -66l-131 -94c-2 -2 -4 -2 -6 0z" />
    <glyph glyph-name="ucircumflex" unicode="&#xfb;" horiz-adv-x="506" 
d="M417 277v-74c0 -48 0 -97 2 -118c3 -31 14 -35 26 -35c6 0 21 0 33 3c8 2 11 0 12 -4l3 -13c1 -6 -1 -8 -5 -9l-105 -35c-6 -2 -12 -4 -20 -4c-4 0 -8 2 -9 12l-8 58h-2c-28 -39 -86 -70 -136 -70c-28 0 -61 3 -94 46c-41 53 -39 86 -39 196v116c-1 28 -15 35 -38 38
c-17 1 -22 2 -22 7v18c0 6 2 8 11 8h89c6 0 10 1 14 2c4 0 8 1 11 1c7 0 12 -5 11 -12c-1 -9 -4 -56 -4 -115v-71c0 -40 -10 -104 22 -150c25 -36 53 -38 80 -38s67 26 86 50c4 5 10 18 10 27v238c-2 28 -18 33 -43 35c-17 0 -22 2 -22 7v17c0 8 2 9 12 9h93c7 0 12 1 17 2
c5 0 9 1 12 1c6 0 10 -5 9 -10c-1 -9 -6 -35 -6 -133zM359 488l-109 77l-101 -76c-3 -2 -6 -4 -9 -1l-9 9c-2 2 -1 6 3 10l105 131c4 4 8 9 12 9s9 -5 13 -10l110 -131c3 -3 4 -6 2 -8l-8 -9c-2 -3 -5 -4 -9 -1z" />
    <glyph glyph-name="udieresis" unicode="&#xfc;" horiz-adv-x="506" 
d="M417 277v-74c0 -48 0 -97 2 -118c3 -31 14 -35 26 -35c6 0 21 0 33 3c8 2 11 0 12 -4l3 -13c1 -6 -1 -8 -5 -9l-105 -35c-6 -2 -12 -4 -20 -4c-4 0 -8 2 -9 12l-8 58h-2c-28 -39 -86 -70 -136 -70c-28 0 -61 3 -94 46c-41 53 -39 86 -39 196v116c0 28 -15 36 -38 38
c-17 2 -22 2 -22 7v18c0 6 2 8 11 8h89c6 0 10 1 14 2c4 0 8 1 11 1c7 0 12 -5 11 -12c-1 -9 -4 -56 -4 -115v-71c0 -40 -10 -104 22 -150c25 -36 53 -38 80 -38s67 26 86 50c4 5 10 18 10 27v238c0 28 -18 34 -43 35c-17 1 -22 2 -22 7v17c0 8 2 9 12 9h93c7 0 12 1 17 2
c5 0 9 1 12 1c6 0 10 -5 9 -10c-1 -9 -6 -35 -6 -133zM172 637c23 0 45 -18 45 -49c0 -26 -21 -44 -45 -44c-18 0 -51 10 -51 48c0 13 11 45 51 45zM342 637c22 0 44 -18 44 -49c0 -26 -21 -44 -44 -44c-18 0 -52 10 -52 48c0 13 11 45 52 45z" />
    <glyph glyph-name="umacron" unicode="&#x16b;" horiz-adv-x="506" 
d="M417 277v-74c0 -48 0 -97 2 -118c3 -31 14 -35 26 -35c6 0 21 0 33 3c8 2 11 0 12 -4l3 -13c1 -6 -1 -8 -5 -9l-105 -35c-6 -2 -12 -4 -20 -4c-4 0 -8 2 -9 12l-8 58h-2c-28 -39 -86 -70 -136 -70c-28 0 -61 3 -94 46c-41 53 -39 86 -39 196v116c-1 28 -15 35 -38 38
c-17 1 -22 2 -22 7v18c0 6 2 8 11 8h89c6 0 10 1 14 2c4 0 8 1 11 1c7 0 12 -5 11 -12c-1 -9 -4 -56 -4 -115v-71c0 -40 -10 -104 22 -150c25 -36 53 -38 80 -38s67 26 86 50c4 5 10 18 10 27v238c-2 28 -18 33 -43 35c-17 0 -22 2 -22 7v17c0 8 2 9 12 9h93c7 0 12 1 17 2
c5 0 9 1 12 1c6 0 10 -5 9 -10c-1 -9 -6 -35 -6 -133zM135 519v32c0 5 2 7 8 7h220c6 0 9 -2 9 -7v-32c0 -5 -5 -7 -11 -7h-218c-7 0 -8 2 -8 7z" />
    <glyph glyph-name="uring" unicode="&#x16f;" horiz-adv-x="506" 
d="M417 277v-74c0 -48 0 -97 2 -118c3 -31 14 -35 26 -35c6 0 21 0 33 3c8 2 11 0 12 -4l3 -13c1 -6 -1 -8 -5 -9l-105 -35c-6 -2 -12 -4 -20 -4c-4 0 -8 2 -9 12l-8 58h-2c-28 -39 -86 -70 -136 -70c-28 0 -61 3 -94 46c-41 53 -39 86 -39 196v116c-1 28 -15 35 -38 38
c-17 1 -22 2 -22 7v18c0 6 2 8 11 8h89c6 0 10 1 14 2c4 0 8 1 11 1c7 0 12 -5 11 -12c-1 -9 -4 -56 -4 -115v-71c0 -40 -10 -104 22 -150c25 -36 53 -38 80 -38s67 26 86 50c4 5 10 18 10 27v238c-2 28 -18 33 -43 35c-17 0 -22 2 -22 7v17c0 8 2 9 12 9h93c7 0 12 1 17 2
c5 0 9 1 12 1c6 0 10 -5 9 -10c-1 -9 -6 -35 -6 -133zM249 495c-57 0 -89 30 -89 66c0 43 39 75 98 75c57 0 89 -30 89 -65c0 -46 -37 -76 -98 -76zM253 519c27 0 45 16 45 48c0 26 -18 44 -41 44c-28 0 -48 -21 -48 -47s17 -45 44 -45z" />
    <glyph glyph-name="uhungarumlaut" unicode="&#x171;" horiz-adv-x="506" 
d="M417 277v-74c0 -48 0 -97 2 -118c3 -31 14 -35 26 -35c6 0 21 0 33 3c8 2 11 0 12 -4l3 -13c1 -6 -1 -8 -5 -9l-105 -35c-6 -2 -12 -4 -20 -4c-4 0 -8 2 -9 12l-8 58h-2c-28 -39 -86 -70 -136 -70c-28 0 -61 3 -94 46c-41 53 -39 86 -39 196v116c-1 28 -15 35 -38 38
c-17 1 -22 2 -22 7v18c0 6 2 8 11 8h89c6 0 10 1 14 2c4 0 8 1 11 1c7 0 12 -5 11 -12c-1 -9 -4 -56 -4 -115v-71c0 -40 -10 -104 22 -150c25 -36 53 -38 80 -38s67 26 86 50c4 5 10 18 10 27v238c-2 28 -18 33 -43 35c-17 0 -22 2 -22 7v17c0 8 2 9 12 9h93c7 0 12 1 17 2
c5 0 9 1 12 1c6 0 10 -5 9 -10c-1 -9 -6 -35 -6 -133zM154 486l-12 10c-2 2 -2 4 0 6l98 119c10 12 23 25 41 25c26 0 48 -37 8 -66l-129 -94c-2 -2 -4 -2 -6 0zM289 486l-12 10c-2 2 -2 4 0 6l98 119c10 12 23 25 41 25c26 0 48 -37 8 -66l-129 -94c-2 -2 -4 -2 -6 0z" />
    <glyph glyph-name="uogonek" unicode="&#x173;" horiz-adv-x="506" 
d="M356 -8c-4 23 -7 45 -10 66h-2c-28 -39 -86 -70 -136 -70c-28 0 -61 3 -94 46c-41 53 -39 86 -39 196v116c0 28 -15 36 -38 38c-17 2 -22 2 -22 7v18c0 6 2 8 11 8h89c6 0 10 1 14 2c4 0 8 1 11 1c7 0 12 -5 11 -12c-1 -9 -4 -56 -4 -115v-71c0 -40 -10 -104 22 -150
c25 -36 53 -38 80 -38s67 26 86 50c4 5 10 18 10 27v238c0 28 -18 34 -43 35c-17 1 -22 2 -22 7v17c0 8 2 9 12 9h93c7 0 12 1 17 2c5 0 9 1 12 1c6 0 10 -5 9 -10c-1 -9 -6 -35 -6 -133v-74c0 -48 0 -97 2 -118c3 -31 14 -35 26 -35c6 0 21 0 33 3c8 2 11 0 12 -4l3 -13
c1 -6 -1 -8 -6 -10c-25 -8 -50 -19 -70 -31c-51 -30 -80 -74 -80 -128c0 -34 17 -57 46 -57c22 0 40 12 51 22c6 6 11 10 14 10c7 0 9 -8 9 -15c0 -23 -39 -63 -102 -63c-39 0 -92 25 -92 91c0 60 58 108 93 137z" />
    <glyph glyph-name="yacute" unicode="&#xfd;" horiz-adv-x="436" 
d="M56 -272c-38 0 -57 21 -57 51c0 21 22 39 46 39c19 0 37 -9 46 -11c7 -1 15 0 21 6c15 18 66 132 80 171c-5 25 -111 337 -119 358c-12 25 -21 42 -47 42h-26c-7 0 -8 3 -8 9v20c0 4 1 7 8 7c9 0 33 -3 92 -3c51 0 82 3 93 3c8 0 9 -3 9 -7v-21c0 -5 -1 -8 -6 -8h-19
c-11 0 -15 -7 -13 -22c3 -22 71 -242 82 -264h4c10 16 97 223 103 248s-2 38 -17 38h-16c-6 0 -7 3 -7 8v20c0 5 1 8 6 8c13 0 34 -3 82 -3c27 0 50 3 61 3c6 0 6 -4 6 -8v-19c0 -6 0 -9 -5 -9h-16c-11 0 -25 -5 -35 -18c-22 -27 -88 -179 -157 -336
c-49 -111 -88 -204 -106 -237c-14 -26 -32 -65 -85 -65zM235 486l-12 10c-2 2 -2 4 0 6l96 119c11 13 24 25 42 25c27 0 50 -38 11 -66l-131 -94c-2 -2 -4 -2 -6 0z" />
    <glyph glyph-name="ydieresis" unicode="&#xff;" horiz-adv-x="436" 
d="M56 -272c-38 0 -57 21 -57 51c0 21 22 39 46 39c19 0 37 -9 46 -11c7 -1 15 0 21 6c15 18 66 132 80 171c-5 25 -110 337 -119 358c-11 25 -21 42 -47 42h-26c-7 0 -8 3 -8 9v20c0 4 1 7 8 7c9 0 33 -3 92 -3c51 0 82 3 93 3c8 0 9 -3 9 -7v-21c0 -5 -1 -8 -6 -8h-19
c-11 0 -15 -7 -13 -22c3 -22 71 -242 82 -264h4c10 16 97 223 103 248s-2 38 -17 38h-16c-6 0 -7 3 -7 8v20c0 5 1 8 6 8c13 0 34 -3 82 -3c27 0 50 3 61 3c6 0 6 -4 6 -8v-19c0 -6 0 -9 -5 -9h-16c-11 0 -25 -5 -35 -18c-22 -27 -88 -179 -157 -336
c-49 -111 -88 -204 -106 -237c-14 -26 -32 -65 -85 -65zM157 637c23 0 45 -18 45 -49c0 -26 -21 -44 -45 -44c-18 0 -51 10 -51 48c0 13 11 45 51 45zM327 637c22 0 44 -18 44 -49c0 -26 -21 -44 -44 -44c-18 0 -52 10 -52 48c0 13 11 45 52 45z" />
    <glyph glyph-name="zacute" unicode="&#x17a;" horiz-adv-x="434" 
d="M189 0h-138c-11 0 -15 4 -6 17l257 370h-106c-63 0 -76 -7 -157 -109c-4 -5 -7 -7 -11 -4l-13 6c-3 2 -4 5 -2 10l66 140c12 -4 31 -7 48 -9c37 -3 55 -4 131 -4h138c10 0 14 -7 9 -14l-265 -372h142c25 0 73 20 137 107c4 6 8 6 13 3l10 -7c4 -3 5 -5 2 -10l-77 -136
c-18 7 -49 9 -90 10c-40 2 -80 2 -88 2zM194 486l-12 10c-2 2 -2 4 0 6l96 119c11 13 24 25 42 25c27 0 50 -38 11 -66l-131 -94c-2 -2 -4 -2 -6 0z" />
    <glyph glyph-name="zdotaccent" unicode="&#x17c;" horiz-adv-x="434" 
d="M189 0h-138c-11 0 -15 4 -6 17l257 370h-106c-63 0 -76 -7 -157 -109c-4 -5 -7 -7 -11 -4l-13 6c-3 2 -4 5 -2 10l66 140c12 -4 31 -7 48 -9c37 -3 55 -4 131 -4h138c10 0 14 -7 9 -14l-265 -372h142c25 0 73 20 137 107c4 6 8 6 13 3l10 -7c4 -3 5 -5 2 -10l-77 -136
c-18 7 -49 9 -90 10c-40 2 -80 2 -88 2zM235 544c-22 0 -55 20 -55 52c0 25 21 52 61 52c35 0 52 -27 52 -49c0 -26 -18 -55 -58 -55z" />
    <glyph glyph-name="zcaron" unicode="&#x17e;" horiz-adv-x="434" 
d="M189 0h-138c-11 0 -15 4 -6 17l257 370h-106c-63 0 -76 -7 -157 -109c-4 -5 -7 -7 -11 -4l-13 6c-3 2 -4 5 -2 10l66 140c12 -4 31 -7 48 -9c37 -3 55 -4 131 -4h138c10 0 14 -7 9 -14l-265 -372h142c25 0 73 20 137 107c4 6 8 6 13 3l10 -7c4 -3 5 -5 2 -10l-77 -136
c-18 7 -49 9 -90 10c-40 2 -80 2 -88 2zM137 646l110 -76l100 75c3 2 6 4 9 1l9 -9c2 -2 1 -6 -3 -10l-105 -131c-4 -4 -8 -9 -12 -9s-9 5 -13 10l-110 131c-3 3 -4 6 -2 8l8 9c2 3 5 4 9 1z" />
    <glyph glyph-name="eth" unicode="&#xf0;" horiz-adv-x="488" 
d="M232 18c101 0 129 116 129 223c0 138 -56 158 -106 158c-31 0 -61 -9 -92 -37c-32 -30 -51 -94 -51 -156c0 -45 15 -98 34 -132c22 -37 59 -56 86 -56zM103 555l109 60c-27 25 -60 50 -99 66c-15 6 -16 7 -16 11c0 3 1 6 3 9l9 18c1 3 3 4 5 4c3 0 5 0 8 -1
c43 -16 85 -39 140 -77l107 61c4 2 10 2 12 -1l13 -23c3 -6 1 -10 -3 -12l-97 -53c13 -11 36 -36 59 -67c51 -67 81 -164 85 -273c5 -141 -56 -289 -215 -289c-35 0 -75 4 -112 33c-49 37 -74 87 -74 177c0 53 23 132 86 181c44 35 83 50 134 50c27 0 57 -7 88 -31l2 2
c-17 61 -38 106 -71 147c-7 11 -18 25 -33 41l-118 -69c-4 -2 -8 -1 -11 3l-14 23c-2 4 0 8 3 10z" />
    <glyph glyph-name="thorn" unicode="&#xfe;" horiz-adv-x="513" 
d="M89 -40v190c0 172 -2 272 -2 341c1 83 -19 103 -41 109l-17 5c-5 2 -6 4 -6 8v7c0 3 2 5 7 7l100 48c7 3 18 8 23 8c6 0 9 -5 9 -20l-1 -303h2c27 35 79 69 141 69c46 0 82 -8 121 -52c26 -29 51 -46 51 -151c0 -141 -92 -238 -212 -238c-26 0 -72 4 -103 19v-218
c0 -20 8 -29 25 -29h41c8 0 9 -4 9 -10v-16c0 -6 -2 -9 -9 -9c-5 0 -45 3 -103 3c-64 0 -93 -3 -101 -3c-7 0 -9 3 -9 9v18c0 5 2 8 12 8h34c18 0 25 6 27 26c2 22 2 76 2 174zM161 317v-215c0 -22 5 -46 21 -55c22 -13 52 -27 100 -27c54 0 117 43 117 167
c0 110 -41 196 -131 196c-42 0 -83 -25 -107 -66z" />
    <glyph glyph-name="grave" unicode="`" horiz-adv-x="334" 
d="M200 497l-12 -11c-2 -2 -4 -2 -6 0l-132 94c-38 27 -15 66 14 66c20 0 32 -14 41 -25l96 -119c1 -2 1 -4 -1 -5z" />
    <glyph glyph-name="dieresis" unicode="&#xa8;" horiz-adv-x="325" 
d="M81 637c23 0 45 -18 45 -49c0 -26 -21 -44 -45 -44c-18 0 -51 10 -51 48c0 13 11 45 51 45zM251 637c22 0 44 -18 44 -49c0 -26 -21 -44 -44 -44c-18 0 -52 10 -52 48c0 13 11 45 52 45z" />
    <glyph glyph-name="macron" unicode="&#xaf;" horiz-adv-x="297" 
d="M30 519v32c0 5 2 7 8 7h220c6 0 9 -2 9 -7v-32c0 -5 -5 -7 -11 -7h-218c-7 0 -8 2 -8 7z" />
    <glyph glyph-name="acute" unicode="&#xb4;" horiz-adv-x="330" 
d="M142 486l-12 10c-2 2 -2 4 0 6l96 119c11 13 24 25 42 25c27 0 50 -38 11 -66l-131 -94c-2 -2 -4 -2 -6 0z" />
    <glyph glyph-name="cedilla" unicode="&#xb8;" horiz-adv-x="326" 
d="M155 0h44l-58 -68c31 -9 62 -37 62 -68c0 -63 -88 -100 -153 -100c-16 0 -20 9 -20 20c0 12 15 14 32 14c31 0 81 18 81 56c0 25 -22 43 -66 51z" />
    <glyph glyph-name="circumflex" unicode="&#x2c6;" horiz-adv-x="307" 
d="M259 488l-109 77l-101 -76c-3 -2 -6 -4 -9 -1l-9 9c-2 2 -1 6 3 10l105 131c4 4 8 9 12 9s9 -5 13 -10l110 -131c3 -3 4 -6 2 -8l-8 -9c-2 -3 -5 -4 -9 -1z" />
    <glyph glyph-name="caron" unicode="&#x2c7;" horiz-adv-x="307" 
d="M48 646l110 -76l100 75c3 2 6 4 9 1l9 -9c2 -2 1 -6 -3 -10l-105 -131c-4 -4 -8 -9 -12 -9s-9 5 -13 10l-110 131c-3 3 -4 6 -2 8l8 9c2 3 5 4 9 1z" />
    <glyph glyph-name="breve" unicode="&#x2d8;" horiz-adv-x="326" 
d="M161 485c-62 0 -123 55 -131 119c-1 8 -1 12 3 13l11 5c2 1 5 0 8 -6c22 -44 69 -70 109 -70c51 0 99 41 113 70c2 4 4 7 8 5l12 -6c3 -1 3 -4 2 -9c-10 -50 -73 -121 -135 -121z" />
    <glyph glyph-name="dotaccent" unicode="&#x2d9;" horiz-adv-x="167" 
d="M81 544c-22 0 -55 20 -55 52c0 25 21 52 61 52c35 0 52 -27 52 -49c0 -26 -18 -55 -58 -55z" />
    <glyph glyph-name="ring" unicode="&#x2da;" horiz-adv-x="247" 
d="M119 495c-57 0 -89 30 -89 66c0 43 39 75 98 75c57 0 89 -30 89 -65c0 -46 -37 -76 -98 -76zM123 519c27 0 45 16 45 48c0 26 -18 44 -41 44c-28 0 -48 -21 -48 -47s17 -45 44 -45z" />
    <glyph glyph-name="ogonek" unicode="&#x2db;" horiz-adv-x="227" 
d="M121 0h39c-26 -24 -70 -63 -70 -131c0 -36 17 -59 46 -59c22 0 40 12 51 22c6 6 11 10 14 10c7 0 9 -8 9 -15c0 -23 -39 -63 -102 -63c-39 0 -92 25 -92 91c0 60 59 115 105 145z" />
    <glyph glyph-name="tilde" unicode="&#x2dc;" horiz-adv-x="341" 
d="M290 607h17c4 0 6 -4 3 -18c-8 -39 -33 -76 -77 -76c-28 0 -52 10 -73 17c-23 8 -41 11 -62 11c-16 0 -34 -14 -39 -42c-1 -4 -4 -5 -7 -5h-18c-4 0 -6 4 -3 17c9 53 41 83 77 83c30 0 55 -9 74 -15c25 -8 44 -14 68 -14c22 0 29 18 33 36c1 4 3 6 7 6z" />
    <glyph glyph-name="hungarumlaut" unicode="&#x2dd;" horiz-adv-x="365" 
d="M83 486l-12 10c-2 2 -2 4 0 6l98 119c10 12 23 25 41 25c26 0 48 -37 8 -66l-129 -94c-2 -2 -4 -2 -6 0zM218 486l-12 10c-2 2 -2 4 0 6l98 119c10 12 23 25 41 25c26 0 48 -37 8 -66l-129 -94c-2 -2 -4 -2 -6 0z" />
    <glyph glyph-name="space_uni0326" horiz-adv-x="190" 
d="M82 -60c26 0 64 -24 64 -71c0 -77 -71 -130 -87 -139c-3 -3 -9 -7 -14 -7c-6 0 -9 3 -9 7c0 5 1 6 7 11c17 16 53 52 53 93c0 10 -8 20 -13 23c-7 3 -43 12 -43 49c0 18 16 34 42 34z" />
    <glyph glyph-name="AE" unicode="&#xc6;" horiz-adv-x="924" 
d="M490 676v-322c8 0 121 4 133 6c28 4 38 11 44 43l9 49c0 7 3 8 9 7l22 -2c5 0 9 -1 8 -7c-3 -16 -3 -99 -3 -113c0 -36 4 -84 6 -104c1 -6 -3 -8 -8 -8l-20 -3c-5 -1 -7 0 -8 6l-13 49c-5 21 -16 36 -41 38c-48 3 -121 3 -138 3v-29c0 -54 2 -151 2 -171
c0 -57 16 -72 49 -79c18 -4 62 -6 83 -6c17 0 54 1 77 3c26 1 61 9 81 35l78 105c4 7 10 7 15 4l12 -7c5 -3 8 -4 6 -10l-55 -151c-3 -11 -8 -15 -16 -15c-7 0 -25 1 -79 2c-55 0 -147 1 -302 1c-34 0 -61 -1 -81 -1c-19 -1 -33 -2 -42 -2c-8 0 -10 3 -10 9v21c0 7 3 9 9 9
h57c25 0 29 8 29 44v238h-199c-41 -78 -101 -198 -109 -216s-11 -32 -11 -43c0 -16 16 -23 28 -23h48c8 0 10 -4 10 -8v-18c0 -10 -1 -13 -9 -13c-12 0 -37 3 -112 3c-63 0 -96 -3 -109 -3c-6 0 -7 6 -7 13v17c0 6 1 9 7 9h34c20 0 37 23 54 46c15 20 109 195 156 282
c35 64 138 236 150 262c15 34 6 47 -14 47h-18c-7 0 -9 3 -9 9v21c0 8 4 9 11 9c32 0 68 -4 130 -4h68c83 0 166 1 249 1c16 0 37 3 41 3c3 0 7 -2 8 -5c4 -15 47 -152 50 -162c2 -5 2 -7 -3 -9l-12 -7c-5 -3 -7 -1 -10 2l-95 113c-17 21 -50 29 -67 29zM225 354h178v272
c0 9 -3 16 -9 16s-10 -2 -16 -12z" />
    <glyph glyph-name="OE" unicode="&#x152;" horiz-adv-x="1119" 
d="M665 675v-292c8 0 121 4 133 6c29 5 37 13 45 44c3 10 7 30 8 49c0 7 3 8 9 7l22 -2c5 0 9 -1 8 -7c-3 -17 -3 -99 -3 -114c0 -35 4 -83 6 -104c1 -6 -3 -8 -8 -8l-20 -3c-5 -1 -7 0 -8 6c-3 16 -9 39 -12 50c-5 21 -16 36 -42 39c-48 5 -121 5 -138 5v-62
c0 -54 2 -151 2 -171c0 -57 16 -72 49 -79c19 -4 62 -6 83 -6c17 0 74 1 97 3c26 1 55 12 78 34c12 12 68 83 81 106c4 7 10 7 15 4l12 -7c5 -3 8 -4 6 -10l-55 -151c-3 -9 -10 -15 -17 -15c-5 0 -27 1 -87 2c-60 0 -157 1 -313 1c-33 0 -63 -4 -94 -7
c-31 -4 -63 -8 -102 -8c-64 0 -154 12 -226 65c-72 57 -146 151 -146 313c0 45 11 140 79 225c65 83 179 135 285 135c48 0 88 -4 121 -7c33 -4 60 -8 81 -8h324c13 0 25 1 33 2s14 2 16 2c3 0 7 -2 8 -5c4 -15 47 -152 50 -162c2 -5 2 -7 -3 -9l-12 -7c-5 -2 -8 -2 -10 2
s-77 99 -98 116c-24 18 -49 25 -64 25zM578 99v500c-35 64 -110 85 -154 85c-15 0 -111 7 -177 -51c-64 -58 -97 -145 -97 -254c0 -270 173 -357 278 -357c90 0 131 30 150 77z" />
    </font>
</defs>
</svg>
