<?xml version="1.0" standalone="no"?>
<!DOCTYPE svg PUBLIC "-//W3C//DTD SVG 1.1//EN" "http://www.w3.org/Graphics/SVG/1.1/DTD/svg11.dtd" >
<svg xmlns="http://www.w3.org/2000/svg" width="100%" height="100%">
<metadata>
Created by FontXChange 20110222 at Wed Dec  7 14:37:42 2011
 By kjen
Copyright 2000, 2001, 2007 Adobe Systems Incorporated. All rights reserved. Adobe Caslon is either a registered trademark or a trademark of Adobe Systems Incorporated in the United States and/or other countries.
</metadata>
<defs>
<font id="ACaslonPro-Bold" horiz-adv-x="500" >
  <font-face 
    font-family="Adobe Caslon Pro"
    font-weight="700"
    font-stretch="normal"
    units-per-em="1000"
    panose-1="2 5 7 2 6 5 10 2 4 3"
    ascent="735"
    descent="-265"
    x-height="423"
    cap-height="711"
    bbox="-191 -700 1501 1002"
    underline-thickness="50"
    underline-position="-50"
    stemh="41"
    stemv="133"
    unicode-range="U+0020-FB04"
  />
<missing-glyph 
d="M0 0v700h500v-700h-500zM250 395l170 255h-340zM280 350l170 -255v510zM80 50h340l-170 255zM50 605v-510l170 255z" />
    <glyph glyph-name="T_h" unicode="Th" horiz-adv-x="1129" 
d="M776 292v-216c0 -30 6 -41 15 -41h20c5 0 8 -2 8 -8v-19c0 -7 -1 -11 -7 -11c-8 0 -54 3 -113 3c-70 0 -108 -3 -117 -3c-4 0 -7 3 -7 10v20c0 7 4 8 15 8h16c16 0 31 4 34 17c5 18 5 36 5 66l-1 433c0 58 -20 90 -56 99c-40 10 -105 12 -117 12h-33v-275
c0 -14 0 -294 1 -309c2 -25 10 -40 34 -40h45c9 0 10 -3 10 -10v-23c0 -5 -1 -8 -10 -8c-10 0 -42 3 -153 3c-106 0 -148 -3 -162 -3c-8 0 -9 4 -9 12v19c0 7 1 10 7 10h51c20 0 32 12 34 30c2 21 2 328 2 347v247h-35c-32 0 -99 0 -134 -18c-26 -13 -66 -75 -91 -111
c-3 -5 -6 -8 -10 -7l-22 8c-4 1 -5 6 -4 9c11 42 44 174 48 194c3 13 8 17 15 17s10 -4 19 -15c11 -14 30 -23 66 -25c53 -3 95 -6 199 -6h58c109 0 232 4 274 6c28 1 50 16 73 30c14 9 9 10 26 10c9 0 11 -8 9 -25s-4 -237 -4 -296v-60h7c24 38 73 61 128 61
c45 0 71 -13 102 -39c47 -39 43 -89 43 -153v-62c0 -50 -2 -111 -2 -130c0 -14 20 -15 32 -15h19c8 0 11 -2 11 -7v-21c0 -6 -2 -10 -8 -10c-7 0 -39 3 -109 3c-69 0 -105 -3 -114 -3c-7 0 -9 3 -9 11v19c0 5 1 8 7 8h13c9 0 22 5 24 19c1 14 3 67 3 97v61
c0 49 3 119 -23 145c-14 14 -26 19 -47 19c-22 0 -44 -18 -59 -35c-8 -10 -17 -23 -17 -49z" />
    <glyph glyph-name="Tcommaaccent_h" unicode="&#x162;h" horiz-adv-x="1129" 
d="M776 292v-216c0 -30 6 -41 15 -41h20c5 0 8 -2 8 -8v-19c0 -7 -1 -11 -7 -11c-8 0 -54 3 -113 3c-70 0 -108 -3 -117 -3c-4 0 -7 3 -7 10v20c0 7 4 8 15 8h16c16 0 31 4 34 17c5 18 5 36 5 66l-1 433c0 58 -20 90 -56 99c-40 10 -105 12 -117 12h-33v-275
c0 -14 0 -294 1 -309c2 -25 10 -40 34 -40h45c9 0 10 -3 10 -10v-23c0 -5 -1 -8 -10 -8c-10 0 -42 3 -153 3c-106 0 -148 -3 -162 -3c-8 0 -9 4 -9 12v19c0 7 1 10 7 10h51c20 0 32 12 34 30c2 21 2 328 2 347v247h-35c-32 0 -99 0 -134 -18c-26 -13 -66 -75 -91 -111
c-3 -5 -6 -8 -10 -7l-22 8c-4 1 -5 6 -4 9c11 42 44 174 48 194c3 13 8 17 15 17s10 -4 19 -15c11 -14 30 -23 66 -25c53 -3 95 -6 199 -6h58c109 0 232 4 274 6c28 1 50 16 73 30c14 9 9 10 26 10c9 0 11 -8 9 -25s-4 -237 -4 -296v-60h7c24 38 73 61 128 61
c45 0 71 -13 102 -39c47 -39 43 -89 43 -153v-62c0 -50 -2 -111 -2 -130c0 -14 20 -15 32 -15h19c8 0 11 -2 11 -7v-21c0 -6 -2 -10 -8 -10c-7 0 -39 3 -109 3c-69 0 -105 -3 -114 -3c-7 0 -9 3 -9 11v19c0 5 1 8 7 8h13c9 0 22 5 24 19c1 14 3 67 3 97v61
c0 49 3 119 -23 145c-14 14 -26 19 -47 19c-22 0 -44 -18 -59 -35c-8 -10 -17 -23 -17 -49zM350 -60c39 0 78 -30 78 -86c-1 -89 -82 -143 -95 -151c-9 -5 -17 -8 -24 -8c-5 0 -8 3 -8 8c0 4 4 9 9 11c12 9 45 53 45 95c0 11 -6 21 -12 25c-8 4 -44 12 -44 57
c0 26 21 49 51 49z" />
    <glyph glyph-name="Tcaron_h" unicode="&#x164;h" horiz-adv-x="1129" 
d="M776 292v-216c0 -30 6 -41 15 -41h20c5 0 8 -2 8 -8v-19c0 -7 -1 -11 -7 -11c-8 0 -54 3 -113 3c-70 0 -108 -3 -117 -3c-4 0 -7 3 -7 10v20c0 7 4 8 15 8h16c16 0 31 4 34 17c5 18 5 36 5 66l-1 433c0 58 -20 90 -56 99c-40 10 -105 12 -117 12h-33v-275
c0 -14 0 -294 1 -309c2 -25 10 -40 34 -40h45c9 0 10 -3 10 -10v-23c0 -5 -1 -8 -10 -8c-10 0 -42 3 -153 3c-106 0 -148 -3 -162 -3c-8 0 -9 4 -9 12v19c0 7 1 10 7 10h51c20 0 32 12 34 30c2 21 2 328 2 347v247h-35c-32 0 -99 0 -134 -18c-26 -13 -66 -75 -91 -111
c-3 -5 -6 -8 -10 -7l-22 8c-4 1 -5 6 -4 9c11 42 44 174 48 194c3 13 8 17 15 17s10 -4 19 -15c11 -14 30 -23 66 -25c53 -3 95 -6 199 -6h58c109 0 232 4 274 6c28 1 50 16 73 30c14 9 9 10 26 10c9 0 11 -8 9 -25s-4 -237 -4 -296v-60h7c24 38 73 61 128 61
c45 0 71 -13 102 -39c47 -39 43 -89 43 -153v-62c0 -50 -2 -111 -2 -130c0 -14 20 -15 32 -15h19c8 0 11 -2 11 -7v-21c0 -6 -2 -10 -8 -10c-7 0 -39 3 -109 3c-69 0 -105 -3 -114 -3c-7 0 -9 3 -9 11v19c0 5 1 8 7 8h13c9 0 22 5 24 19c1 14 3 67 3 97v61
c0 49 3 119 -23 145c-14 14 -26 19 -47 19c-22 0 -44 -18 -59 -35c-8 -10 -17 -23 -17 -49zM349 784l-131 127c-3 3 -3 5 -1 8l7 9c2 3 5 3 9 2l141 -54l127 53c5 2 8 3 10 0l8 -10c3 -3 2 -5 -2 -9l-136 -131c-5 -4 -10 -9 -13 -9c-4 0 -8 4 -19 14z" />
    <glyph glyph-name="f_f" unicode="ff" horiz-adv-x="618" 
d="M84 367h-62c-5 0 -8 3 -7 11l4 35c1 6 4 7 12 7h53v30c0 85 33 150 84 198c54 50 107 69 189 69c42 0 86 -21 105 -43h2c25 22 51 38 78 48s56 15 87 15c59 0 103 -24 103 -70c0 -31 -32 -50 -55 -50c-32 0 -52 12 -67 38c-12 20 -26 30 -36 30c-20 0 -34 -6 -50 -32
c-18 -28 -11 -99 -11 -191v-42h116c7 0 8 -6 7 -10l-5 -38c-1 -4 -5 -5 -13 -5h-105v-87c0 -48 -3 -175 -1 -214c1 -22 13 -31 29 -31h36c9 0 11 -2 11 -8v-20c0 -6 -2 -10 -7 -10c-6 0 -43 3 -110 3c-65 0 -116 -3 -124 -3c-6 0 -8 2 -8 9v22c0 5 2 7 10 7h3
c19 0 27 12 27 33l-3 299h-155v-87c0 -48 -3 -175 -1 -214c1 -22 13 -31 29 -31h11c9 0 11 -2 11 -8v-20c0 -6 -2 -10 -7 -10c-6 0 -43 3 -115 3c-65 0 -116 -3 -124 -3c-6 0 -8 2 -8 9v22c0 5 2 7 10 7h33c19 0 27 12 27 33zM221 420h155v30c0 62 11 109 36 158l-1 2
c-29 -2 -56 10 -71 27c-14 18 -28 28 -58 28c-20 0 -34 -6 -50 -32c-18 -28 -11 -99 -11 -171v-42z" />
    <glyph glyph-name="f_i" unicode="fi" horiz-adv-x="579" 
d="M221 367l-1 -87c-1 -116 -2 -175 -1 -214c1 -22 13 -31 25 -31h9c9 0 11 -2 11 -8v-20c0 -6 -2 -10 -7 -10c-6 0 -43 3 -112 3c-61 0 -112 -3 -120 -3c-6 0 -8 2 -8 9v22c0 5 2 7 10 7h38c14 0 22 12 22 33l-3 299h-60c-5 0 -7 4 -6 12l3 34c1 6 4 7 12 7h51v30
c0 118 43 186 92 226s103 61 178 61c84 0 132 -30 132 -76c0 -29 -29 -59 -69 -59c-38 0 -55 19 -77 49c-13 19 -29 33 -48 33c-20 0 -42 -6 -52 -19c-30 -40 -19 -111 -19 -228v-17h135c29 0 59 2 84 4s46 6 55 6c8 0 11 -5 10 -12c-2 -17 -2 -80 -2 -164l-1 -107
c0 -39 -1 -75 0 -86c2 -19 7 -26 18 -26h31c8 0 10 -3 10 -9v-19c0 -7 -2 -10 -9 -10c-8 0 -54 3 -107 3c-52 0 -91 -3 -102 -3c-5 0 -8 2 -8 10v20c0 6 3 8 10 8h4c11 0 18 4 19 20c2 30 2 61 2 89l2 186c0 26 -18 37 -64 37h-87z" />
    <glyph glyph-name="f_j" unicode="fj" horiz-adv-x="579" 
d="M505 418c-2 -17 0 -80 -2 -164c-1 -59 -1 -303 -13 -358c-18 -88 -116 -168 -206 -168c-46 0 -87 21 -87 60c0 24 21 58 51 58c28 0 47 -21 56 -38c12 -22 23 -28 37 -28c17 0 26 20 28 58c7 162 1 329 3 492c0 26 -18 37 -64 37h-87l-1 -87c-1 -116 -2 -175 -1 -214
c1 -22 13 -31 25 -31h9c9 0 11 -2 11 -8v-20c0 -6 -2 -10 -7 -10c-6 0 -43 3 -112 3c-61 0 -112 -3 -120 -3c-6 0 -8 2 -8 9v22c0 5 2 7 10 7h38c14 0 22 12 22 33l-3 299h-60c-5 0 -7 4 -6 12l3 34c1 6 4 7 12 7h51v30c0 118 43 186 92 226s103 61 178 61
c84 0 132 -30 132 -76c0 -29 -29 -59 -69 -59c-38 0 -55 19 -77 49c-13 19 -29 33 -48 33c-20 0 -42 -6 -52 -19c-30 -40 -19 -111 -19 -228v-17h135c29 0 59 2 84 4s46 6 55 6c8 0 11 -5 10 -12z" />
    <glyph glyph-name="f_l" unicode="fl" horiz-adv-x="584" 
d="M221 367l-1 -87c-1 -116 -2 -175 -1 -214c1 -22 9 -31 18 -31h18c9 0 11 -2 11 -8v-20c0 -6 -2 -10 -7 -10c-6 0 -43 3 -120 3c-55 0 -106 -3 -114 -3c-6 0 -8 2 -8 9v22c0 5 2 7 10 7h33c19 0 27 12 27 33l-3 299h-60c-5 0 -7 2 -6 11l3 35c1 6 4 7 12 7h51v30
c0 122 29 174 76 217c54 49 107 70 195 70c57 0 97 -7 124 -15c21 -6 31 -12 30 -26c-6 -84 -5 -240 -5 -309l-1 -187c0 -40 -1 -105 1 -134c1 -17 6 -31 27 -31h30c9 0 11 -3 11 -9v-19c0 -6 -2 -10 -6 -10c-7 0 -51 3 -115 3c-67 0 -107 -3 -116 -3c-5 0 -7 4 -7 12v17
c0 7 2 9 10 9h9c12 0 24 7 24 43v289h-150zM221 420h150l2 130c1 72 0 96 -18 115c-16 16 -33 22 -59 22c-27 0 -45 -7 -56 -27c-19 -35 -19 -106 -19 -223v-17z" />
    <glyph glyph-name="f_f_i" unicode="ffi" horiz-adv-x="868" 
d="M84 367h-64c-5 0 -8 3 -7 11l4 35c1 6 4 7 12 7h55v30c0 85 31 150 82 198c54 50 107 69 182 69c50 0 90 -21 109 -43h3c25 22 51 38 79 48s59 15 100 15c86 0 136 -29 136 -76c0 -29 -29 -59 -71 -59c-36 0 -53 20 -75 50c-13 17 -29 32 -54 32s-39 -6 -55 -32
c-18 -27 -11 -99 -11 -190v-42h134c29 0 59 2 84 4s46 6 55 6c8 0 11 -5 10 -12c-2 -17 -2 -80 -2 -164l-1 -107c0 -39 -1 -75 0 -86c2 -19 7 -26 18 -26h31c8 0 10 -3 10 -9v-19c0 -7 -2 -10 -9 -10c-8 0 -54 3 -107 3c-52 0 -91 -3 -102 -3c-5 0 -8 2 -8 10v20
c0 6 3 8 10 8h4c11 0 20 4 21 20c2 30 2 61 2 89l1 176c0 38 -21 47 -68 47h-83v-87c0 -48 -3 -175 -1 -214c1 -22 13 -31 24 -31h11c9 0 11 -2 11 -8v-20c0 -6 -2 -10 -7 -10c-6 0 -43 3 -80 3c-65 0 -116 -3 -124 -3c-6 0 -8 2 -8 9v22c0 5 2 7 10 7h3c19 0 29 12 29 33
l-3 299h-155v-87c0 -48 -3 -175 -1 -214c1 -22 13 -31 29 -31h11c9 0 11 -2 11 -8v-20c0 -6 -2 -10 -7 -10c-6 0 -43 3 -115 3c-65 0 -116 -3 -124 -3c-6 0 -8 2 -8 9v22c0 5 2 7 10 7h33c19 0 29 12 29 33zM219 420h155v30c0 62 9 109 34 158l-1 1c-29 -1 -56 11 -71 28
c-14 18 -28 28 -53 28c-23 0 -37 -6 -53 -32c-18 -28 -11 -99 -11 -171v-42z" />
    <glyph glyph-name="f_f_l" unicode="ffl" horiz-adv-x="874" 
d="M88 367h-63c-6 0 -9 4 -8 13l4 33c1 6 4 7 12 7h55v30c0 85 31 150 82 198c54 50 107 69 182 69c45 0 91 -21 110 -43h2c25 22 51 38 79 48c29 10 60 15 102 15c57 0 97 -7 124 -15c21 -6 31 -12 30 -26c-6 -84 -5 -240 -5 -309l-1 -187c0 -40 -1 -105 1 -134
c1 -17 6 -31 27 -31h30c9 0 11 -3 11 -9v-19c0 -6 -2 -10 -6 -10c-7 0 -51 3 -115 3c-67 0 -107 -3 -116 -3c-5 0 -7 4 -7 12v17c0 7 2 9 10 9h9c12 0 28 7 28 43v289h-152v-87c0 -48 -3 -175 -1 -214c1 -22 13 -31 24 -31h11c9 0 11 -2 11 -8v-20c0 -6 -2 -10 -7 -10
c-6 0 -43 3 -80 3c-65 0 -116 -3 -124 -3c-6 0 -8 2 -8 9v22c0 5 2 7 10 7h3c19 0 29 12 29 33l-3 299h-155v-87c0 -48 -3 -175 -1 -214c1 -22 13 -31 29 -31h11c9 0 11 -2 11 -8v-20c0 -6 -2 -10 -7 -10c-6 0 -43 3 -115 3c-65 0 -116 -3 -124 -3c-6 0 -8 2 -8 9v22
c0 5 2 7 10 7h33c19 0 29 12 29 33zM223 420h155v30c0 62 9 109 34 158l-1 1c-29 -1 -56 11 -71 28c-14 18 -28 28 -52 28s-38 -6 -54 -32c-18 -28 -11 -99 -11 -171v-42zM514 420h151v130c1 72 0 96 -20 115c-16 16 -33 22 -56 22c-27 0 -45 -7 -56 -27
c-19 -35 -19 -106 -19 -223v-17z" />
    <glyph glyph-name="f_f_j" unicode="ffj" horiz-adv-x="868" 
d="M791 415c0 -158 0 -385 -13 -522c-9 -90 -115 -165 -205 -165c-46 0 -87 21 -87 60c0 24 21 58 51 58c28 0 47 -21 56 -38c12 -22 23 -28 37 -28c17 0 26 20 28 58c8 159 1 324 1 482c0 38 -20 47 -67 47h-83v-87c0 -48 -3 -175 -1 -214c1 -22 13 -31 24 -31h11
c9 0 11 -2 11 -8v-20c0 -6 -2 -10 -7 -10c-6 0 -43 3 -80 3c-65 0 -116 -3 -124 -3c-6 0 -8 2 -8 9v22c0 5 2 7 10 7h3c19 0 29 12 29 33l-3 299h-155v-87c0 -48 -3 -175 -1 -214c1 -22 13 -31 29 -31h11c9 0 11 -2 11 -8v-20c0 -6 -2 -10 -7 -10c-6 0 -43 3 -115 3
c-65 0 -116 -3 -124 -3c-6 0 -8 2 -8 9v22c0 5 2 7 10 7h33c19 0 29 12 29 33l-3 299h-64c-5 0 -8 3 -7 11l4 35c1 6 4 7 12 7h55v30c0 85 31 150 82 198c54 50 107 69 182 69c67 0 87 -20 112 -43c25 22 51 38 79 48s59 15 100 15c86 0 136 -29 136 -76
c0 -29 -29 -59 -71 -59c-36 0 -53 20 -75 50c-13 17 -29 32 -54 32s-39 -6 -55 -32c-18 -27 -11 -99 -11 -190v-42h134c29 0 59 2 84 4s46 6 55 6c8 0 9 -8 9 -15zM408 608l-1 1c-29 -1 -57 11 -71 28c-15 18 -28 28 -53 28c-23 0 -37 -6 -53 -32c-18 -28 -11 -99 -11 -171
v-42h155v30c0 62 9 109 34 158z" />
    <glyph glyph-name="longs_h" unicode="&#x17f;h" horiz-adv-x="850" 
d="M31 420h53v30c0 105 33 170 85 217c55 51 121 70 176 70c57 0 100 -13 125 -25c17 -8 27 -19 25 -34c-3 -22 1 -186 1 -245v-60h7c24 38 73 61 128 61c45 0 71 -13 102 -39c47 -39 43 -89 43 -153v-62c0 -50 -2 -111 -2 -130c0 -14 20 -15 32 -15h19c8 0 11 -2 11 -7v-21
c0 -6 -2 -10 -8 -10c-7 0 -39 3 -109 3c-69 0 -105 -3 -114 -3c-7 0 -9 3 -9 11v19c0 5 1 8 7 8h13c9 0 22 5 24 19c1 14 3 67 3 97v61c0 49 3 119 -23 145c-14 14 -26 19 -47 19c-22 0 -44 -18 -59 -35c-8 -10 -17 -23 -17 -49v-216c0 -30 6 -41 15 -41h20c5 0 8 -2 8 -8
v-19c0 -7 -1 -11 -7 -11c-8 0 -54 3 -88 3c-70 0 -108 -3 -117 -3c-4 0 -7 3 -7 10v20c0 7 4 8 18 9c11 1 20 4 23 16c4 18 4 36 4 66l-2 416c0 41 -1 95 -8 112c-11 28 -39 38 -68 38c-21 0 -39 -7 -55 -31c-19 -28 -13 -99 -13 -191v-182c0 -48 -2 -175 0 -214
c1 -22 13 -31 24 -31h11c9 0 11 -2 11 -8v-20c0 -6 -2 -10 -7 -10c-6 0 -43 3 -110 3c-65 0 -116 -3 -124 -3c-6 0 -8 2 -8 9v22c0 5 2 7 10 7h33c19 0 27 12 27 33l-3 299h-62c-5 0 -8 4 -7 11l4 35c1 6 4 7 12 7z" />
    <glyph glyph-name="longs_i" unicode="&#x17f;i" horiz-adv-x="580" 
d="M84 367h-62c-5 0 -8 4 -7 11l4 35c1 6 4 7 12 7h53v30c0 105 33 170 84 218c54 50 107 69 184 69c84 0 132 -30 132 -76c0 -29 -29 -59 -69 -59c-38 0 -55 19 -77 49c-13 19 -29 33 -53 33c-23 0 -37 -5 -53 -31c-18 -28 -12 -99 -12 -191v-182c0 -48 -2 -175 0 -214
c1 -22 13 -31 22 -31h13c9 0 11 -2 11 -8v-20c0 -6 -2 -10 -7 -10c-6 0 -43 3 -110 3c-65 0 -116 -3 -124 -3c-6 0 -8 2 -8 9v22c0 5 2 7 10 7h33c19 0 27 12 27 33zM320 380l149 48c11 4 20 6 27 6c8 0 11 -5 10 -12c-2 -17 -2 -80 -2 -168v-107c0 -39 0 -75 1 -86
c2 -19 7 -26 18 -26h36c8 0 10 -3 10 -9v-19c0 -7 -2 -10 -9 -10c-8 0 -54 3 -121 3c-53 0 -92 -3 -103 -3c-5 0 -8 2 -8 10v20c0 6 3 8 10 8h12c11 0 18 4 19 20c2 30 2 61 2 89l-2 140c0 28 -6 48 -48 63c-11 4 -12 8 -12 14v11c0 3 2 5 11 8z" />
    <glyph glyph-name="longs_l" unicode="&#x17f;l" horiz-adv-x="578" 
d="M84 367h-62c-5 0 -8 4 -7 11l4 35c1 6 4 7 12 7h53v30c0 105 33 170 84 218c54 50 107 69 169 69c55 0 104 -13 131 -26c22 -11 30 -17 31 -31c2 -36 -1 -224 -1 -293v-187c0 -40 0 -105 3 -134c1 -17 4 -31 25 -31h34c9 0 11 -3 11 -9v-19c0 -6 -2 -10 -6 -10
c-7 0 -51 3 -133 3c-54 0 -94 -3 -103 -3c-5 0 -7 4 -7 12v17c0 7 2 9 8 9h9c10 0 26 7 26 43v318c0 71 0 152 -2 186c-4 62 -10 103 -77 103c-24 0 -38 -6 -54 -32c-18 -28 -12 -99 -12 -191v-182c0 -48 -2 -175 0 -214c1 -22 13 -31 22 -31h13c9 0 11 -2 11 -8v-20
c0 -6 -2 -10 -7 -10c-6 0 -43 3 -110 3c-65 0 -116 -3 -124 -3c-6 0 -8 2 -8 9v22c0 5 2 7 10 7h33c19 0 27 12 27 33z" />
    <glyph glyph-name="longs_longs" unicode="&#x17f;&#x17f;" horiz-adv-x="593" 
d="M31 420h53v12c0 103 33 168 84 216c55 50 108 69 171 69c49 0 88 -18 112 -55c58 56 111 75 173 75c59 0 103 -24 103 -70c0 -31 -32 -50 -55 -50c-32 0 -52 12 -67 38c-12 20 -26 30 -36 30c-20 0 -34 -6 -50 -32c-18 -28 -12 -99 -12 -191v-182c0 -48 -2 -175 0 -214
c1 -22 13 -31 29 -31h36c9 0 11 -2 11 -8v-20c0 -6 -2 -10 -7 -10c-6 0 -43 3 -120 3c-65 0 -116 -3 -124 -3c-6 0 -8 2 -8 9v22c0 5 2 7 10 7h13c19 0 27 12 27 33l-3 299h-62c-5 0 -8 4 -7 11l4 35c1 6 4 7 12 7h53v30c0 64 12 113 34 153l-2 2c-35 1 -59 16 -74 32
c-15 17 -29 28 -47 28c-20 0 -34 -6 -50 -32c-18 -28 -12 -99 -12 -176v-177c0 -48 -2 -175 0 -214c1 -22 13 -31 21 -31h14c9 0 11 -2 11 -8v-20c0 -6 -2 -10 -7 -10c-6 0 -43 3 -110 3c-65 0 -116 -3 -124 -3c-6 0 -8 2 -8 9v22c0 5 2 7 10 7h33c19 0 27 12 27 33l-3 299
h-62c-5 0 -8 4 -7 11l4 35c1 6 4 7 12 7z" />
    <glyph glyph-name="longs_t" unicode="&#x17f;t" horiz-adv-x="636" 
d="M84 367h-62c-5 0 -8 4 -7 11l4 35c1 6 4 7 12 7h53v28c0 104 36 168 89 217c55 51 125 72 203 72c44 0 92 -12 118 -23c20 -9 24 -20 24 -34c0 -24 -5 -66 -8 -154l-3 -106h128c6 0 9 -5 7 -9l-10 -43c-1 -4 -3 -8 -9 -8h-117c-2 -41 -2 -89 -2 -135v-79
c0 -82 31 -100 55 -100c21 0 36 3 52 12c3 2 6 2 9 -4l7 -15c3 -5 0 -10 -4 -13c-17 -12 -62 -40 -140 -40c-68 0 -111 47 -111 93c0 35 2 111 2 149l1 132h-55c-9 0 -16 4 -16 14s6 17 22 25c14 6 36 23 60 50c2 28 1 141 0 175c-1 33 -31 61 -78 61c-22 0 -50 -3 -74 -34
c-20 -26 -14 -97 -14 -189v-182c0 -48 -2 -175 0 -214c1 -22 13 -31 29 -31h36c9 0 11 -2 11 -8v-20c0 -6 -2 -10 -7 -10c-6 0 -43 3 -140 3c-65 0 -116 -3 -124 -3c-6 0 -8 2 -8 9v22c0 5 2 7 10 7h33c19 0 27 12 27 33z" />
    <glyph glyph-name=".notdef" 
d="M0 0v700h500v-700h-500zM250 395l170 255h-340zM280 350l170 -255v510zM80 50h340l-170 255zM50 605v-510l170 255z" />
    <glyph glyph-name="A" unicode="A" horiz-adv-x="725" 
d="M414 274h-219c-8 -21 -57 -158 -57 -190c0 -22 9 -46 39 -46h35c10 0 11 -4 11 -8v-22c0 -8 -1 -11 -9 -11c-13 0 -54 3 -136 3c-73 0 -95 -3 -109 -3c-6 0 -7 6 -7 13v19c0 6 1 9 7 9h26c24 0 48 14 68 44c14 21 85 195 118 283c8 20 89 235 98 262c3 10 8 23 1 34
c-3 4 -7 9 -7 13c0 3 2 7 10 9c32 7 97 33 112 50c5 5 8 9 13 9c6 0 8 -6 11 -17c19 -63 97 -287 116 -351c23 -78 88 -264 102 -291c17 -33 43 -45 58 -45h34c6 0 7 -4 7 -9v-19c0 -6 -1 -13 -9 -13c-19 0 -40 3 -168 3c-83 0 -118 -3 -138 -3c-10 0 -11 6 -11 13v19
c0 5 1 9 6 9h28c27 0 36 10 30 36c-9 36 -48 164 -60 200zM208 314h197c-9 30 -68 240 -75 265c-4 15 -6 22 -11 22c-6 0 -9 -4 -12 -13c-5 -13 -91 -249 -99 -274z" />
    <glyph glyph-name="B" unicode="B" horiz-adv-x="689" 
d="M124 317v118c0 37 -2 159 -3 175c-3 58 -19 60 -52 60h-32c-7 0 -7 1 -7 9v23c0 6 1 9 8 9c13 0 61 -3 156 -3c32 0 92 3 160 3c72 0 136 -7 171 -27c57 -31 77 -77 77 -136c0 -66 -40 -130 -146 -165v-2c124 -32 189 -92 189 -198c0 -54 -30 -128 -78 -152
c-41 -21 -111 -37 -235 -37c-9 0 -35 2 -63 3c-29 2 -60 3 -79 3c-50 0 -83 -1 -105 -1c-21 -1 -32 -2 -39 -2c-10 0 -11 3 -11 11v22c0 6 1 8 10 8h35c30 0 35 12 39 42c3 23 5 155 5 237zM270 470v-76c41 -4 105 2 134 28c33 29 48 74 48 118c0 38 -12 78 -41 101
c-34 27 -83 36 -94 36c-21 0 -43 -1 -44 -17c-2 -20 -3 -107 -3 -190zM270 360v-198c0 -95 22 -134 75 -134c71 0 138 35 138 160c0 81 -36 134 -90 155c-50 19 -98 17 -123 17z" />
    <glyph glyph-name="C" unicode="C" horiz-adv-x="752" 
d="M426 -15c-133 0 -203 36 -266 92c-74 66 -109 181 -109 267c0 103 33 196 103 271c57 61 140 108 264 108c91 0 166 -23 201 -42c14 -7 19 -6 21 1l8 25c2 6 4 6 19 6s17 -2 17 -16c0 -19 18 -189 23 -219c1 -7 0 -12 -5 -13l-22 -6c-5 -2 -9 2 -12 11
c-11 40 -38 91 -80 134c-43 42 -96 75 -172 75c-146 0 -208 -133 -207 -281c0 -63 18 -186 89 -261c65 -67 122 -75 156 -75c114 0 199 52 236 107c5 8 10 12 15 8l17 -15c3 -2 4 -6 0 -12c-58 -84 -155 -165 -296 -165z" />
    <glyph glyph-name="D" unicode="D" horiz-adv-x="841" 
d="M122 384v75c0 26 -3 168 -5 183c-3 24 -16 28 -33 28h-50c-5 0 -8 1 -8 7v29c0 4 3 5 7 5c13 0 57 -3 157 -3c26 0 126 3 149 3c136 0 244 -12 339 -91c66 -55 112 -138 112 -254c0 -115 -33 -191 -99 -263c-97 -105 -268 -106 -331 -106c-16 0 -134 3 -189 3
c-87 0 -127 -3 -141 -3c-5 0 -7 2 -7 9v26c0 4 3 6 8 6h52c19 0 30 8 32 24c3 21 7 246 7 322zM272 433v-71c0 -13 1 -183 2 -245c0 -20 4 -36 17 -55c12 -18 46 -24 80 -24c58 0 135 29 187 98c40 53 71 135 71 228c0 82 -34 166 -81 218c-53 59 -141 91 -199 91
c-28 0 -43 -1 -56 -8c-15 -7 -19 -23 -20 -43c-1 -42 -1 -173 -1 -189z" />
    <glyph glyph-name="E" unicode="E" horiz-adv-x="695" 
d="M277 674l-3 -291c46 0 90 3 102 6c17 4 31 13 46 31c11 15 23 43 23 62c0 7 3 9 8 9l27 -3c5 -1 9 -2 8 -8c-3 -17 -3 -69 -3 -104c0 -45 4 -93 6 -114c1 -6 -3 -7 -8 -8l-24 -5c-4 -1 -6 1 -8 8c-4 16 -14 39 -20 51c-11 19 -35 32 -55 35c-27 4 -58 6 -102 6v-60
c0 -54 5 -151 5 -169c0 -52 11 -70 24 -76c15 -6 34 -9 84 -9c17 0 59 1 80 3c20 2 50 12 76 33s82 83 102 107c4 4 7 5 10 3l17 -10c4 -2 5 -5 4 -8l-45 -151c-3 -9 -10 -15 -22 -15c-5 0 -27 1 -91 2c-65 0 -171 1 -344 1c-37 0 -65 -1 -85 -1c-21 -1 -34 -2 -43 -2
c-7 0 -9 3 -9 11v21c0 6 3 9 10 9h30c46 0 50 7 50 42v335c0 83 -2 206 -3 216c-4 32 -14 39 -41 39h-39c-4 0 -5 3 -5 10v24c0 3 1 7 7 7c22 0 57 -3 148 -3l351 1c16 0 35 2 40 2s7 -2 8 -5c4 -14 37 -151 41 -161c2 -5 2 -7 -3 -10l-16 -8c-4 -2 -9 -1 -12 4
c-5 8 -95 98 -118 112c-21 13 -49 26 -76 27z" />
    <glyph glyph-name="F" unicode="F" horiz-adv-x="629" 
d="M273 400v-47c39 0 80 3 99 6c17 2 36 15 52 36c11 14 18 35 22 53c1 5 4 8 8 8l23 -2c4 0 6 -3 6 -7c-2 -17 -2 -100 -2 -114c0 -36 3 -84 5 -104c0 -5 -2 -7 -7 -8l-22 -5c-4 -1 -7 2 -8 8c-2 8 -13 38 -19 48c-12 17 -31 35 -49 40c-32 6 -67 7 -108 7v-38
c0 -30 1 -198 1 -211c0 -27 10 -32 24 -32h59c6 0 9 -2 9 -6v-27c0 -6 -2 -8 -8 -8c-10 0 -50 3 -154 3c-98 0 -136 -3 -151 -3c-4 0 -6 2 -6 9v27c0 4 3 5 7 5h35c21 0 29 4 30 20c1 20 4 146 4 318v70c0 44 -2 185 -2 195c0 19 -14 29 -41 29h-41c-6 0 -9 2 -9 6v29
c0 4 3 6 7 6c11 0 49 -3 171 -3c14 0 277 3 325 3c22 0 44 4 52 4c5 0 8 -6 10 -17l39 -163c1 -4 0 -7 -3 -8l-20 -11c-5 -2 -7 0 -14 10c-13 17 -37 49 -78 92c-18 20 -45 39 -69 45c-25 7 -131 10 -176 10c0 -13 -1 -212 -1 -273z" />
    <glyph glyph-name="G" unicode="G" horiz-adv-x="840" 
d="M738 229v-132c0 -14 4 -24 4 -32s-6 -12 -16 -16c-81 -41 -166 -64 -293 -64c-104 0 -221 33 -290 114c-61 69 -92 154 -92 275c0 91 43 188 116 251c73 64 163 98 283 98c101 0 176 -28 209 -49c12 -7 19 -5 25 3l10 16c5 7 7 10 13 10c11 0 14 -7 14 -18l15 -206
c1 -12 0 -17 -4 -18l-28 -6c-6 -1 -9 1 -12 10c-16 49 -48 113 -91 152c-39 37 -90 62 -158 62c-54 0 -104 -17 -151 -75c-46 -55 -80 -138 -80 -228c0 -118 33 -221 87 -275c47 -47 85 -68 153 -68c52 0 80 4 113 20c21 10 23 42 23 94v72c0 36 -10 46 -35 46h-42
c-6 0 -7 4 -7 9v25c0 4 1 7 7 7c9 0 58 -3 148 -3c92 0 129 3 137 3s9 -3 9 -8v-25c0 -6 -1 -8 -7 -8h-29c-18 0 -31 -7 -31 -36z" />
    <glyph glyph-name="H" unicode="H" horiz-adv-x="869" 
d="M119 351v43c0 62 -2 197 -2 211c0 51 -7 65 -34 65h-41c-11 0 -12 4 -12 10v19c0 6 1 12 11 12c17 0 49 -3 149 -3c98 0 134 3 151 3c11 0 12 -3 12 -11v-21c0 -6 -1 -9 -12 -9h-24c-36 0 -41 -17 -44 -55c-1 -14 -6 -146 -6 -202v-15c0 -5 3 -8 16 -8h299
c15 0 20 2 20 13v10c0 57 -7 196 -7 206c-1 32 -5 51 -23 51h-41c-9 0 -10 3 -10 10v22c0 6 1 9 9 9c18 0 61 -3 146 -3c83 0 125 3 138 3c12 0 13 -3 13 -11v-19c0 -7 -1 -11 -13 -11h-30c-29 0 -32 -17 -32 -51c0 -14 -2 -183 -2 -220v-34c0 -32 2 -222 3 -277
c0 -36 10 -50 40 -50h34c8 0 9 -3 9 -9v-22c0 -5 -1 -10 -11 -10c-16 0 -50 3 -140 3c-102 0 -134 -3 -157 -3c-11 0 -13 5 -13 10v22c0 6 1 9 11 9h44c24 0 27 19 28 44c2 47 4 208 4 240v12c0 11 -10 12 -22 12h-299c-11 0 -14 -3 -14 -12v-15c0 -25 4 -179 7 -247
c1 -24 11 -34 33 -34h28c8 0 9 -2 9 -8v-24c0 -6 -1 -9 -9 -9c-18 0 -53 3 -137 3c-106 0 -136 -3 -156 -3c-9 0 -10 3 -10 11v21c0 7 1 9 10 9h46c25 0 28 24 28 46c1 47 3 241 3 267z" />
    <glyph glyph-name="I" unicode="I" horiz-adv-x="415" 
d="M133 349v70c0 24 -3 204 -4 217c-2 24 -12 34 -33 34h-48c-5 0 -8 2 -8 6v29c0 4 3 6 7 6c12 0 63 -3 161 -3c102 0 134 3 148 3c5 0 7 -3 7 -9v-25c0 -5 -3 -7 -8 -7h-29c-25 0 -40 -8 -40 -26c0 -10 -3 -231 -3 -243v-77c0 -10 3 -241 3 -250c0 -31 15 -36 34 -36h41
c5 0 8 -2 8 -7v-28c0 -4 -3 -6 -9 -6c-12 0 -52 3 -147 3c-105 0 -148 -3 -159 -3c-5 0 -8 2 -8 8v27c0 4 3 6 8 6h29c20 0 41 3 45 27c2 15 5 231 5 284z" />
    <glyph glyph-name="J" unicode="J" horiz-adv-x="358" 
d="M109 332v70c0 16 0 193 -3 234c-6 22 -10 34 -44 34h-34c-4 0 -7 1 -7 5v29c0 5 1 7 7 7c11 0 48 -3 158 -3c98 0 133 3 148 3c6 0 8 -2 8 -8v-25c0 -6 -2 -8 -8 -8h-35c-27 0 -36 -8 -37 -27c-1 -16 -3 -144 -3 -265v-46c0 -127 -4 -225 -4 -248c0 -53 -7 -96 -40 -152
c-45 -76 -128 -151 -244 -151c-27 0 -75 18 -75 72c0 34 25 64 60 64c50 0 72 -41 90 -81c21 0 43 24 53 60c21 73 10 363 10 436z" />
    <glyph glyph-name="K" unicode="K" horiz-adv-x="740" 
d="M268 421v-37h17c8 0 19 5 28 13c18 14 180 219 193 236c18 24 0 39 -20 39h-17c-4 0 -5 2 -5 7v25c0 5 2 7 6 7c12 0 53 -3 132 -3c49 0 84 3 96 3c5 0 7 -2 7 -7v-27c0 -5 -3 -7 -8 -7h-16c-14 0 -38 -5 -58 -17c-55 -33 -185 -183 -219 -229c64 -81 227 -310 271 -361
c19 -22 42 -25 54 -25h12c5 0 7 -3 7 -7v-27c0 -5 -2 -7 -8 -7c-10 0 -43 3 -143 3c-83 0 -122 -3 -136 -3c-4 0 -6 2 -6 8v26c0 4 2 6 6 6h15c17 0 18 17 14 26c-9 20 -164 250 -181 269c-6 7 -16 14 -27 14h-14v-75c0 -50 2 -197 3 -211c1 -13 10 -22 23 -22h31
c5 0 8 -2 8 -6v-28c0 -4 -1 -7 -6 -7c-12 0 -42 3 -135 3c-92 0 -124 -3 -133 -3c-5 0 -7 2 -7 7v28c0 5 3 6 7 6h31c18 0 25 8 27 18c1 9 3 190 3 313v58c0 18 -3 208 -3 219s-5 24 -30 24h-25c-6 0 -8 2 -8 7v28c0 4 2 6 8 6c12 0 42 -3 132 -3c87 0 120 3 133 3
c6 0 8 -2 8 -8v-26c0 -5 -2 -7 -7 -7h-24c-20 0 -33 -7 -33 -29c0 -15 -3 -171 -3 -220z" />
    <glyph glyph-name="L" unicode="L" horiz-adv-x="663" 
d="M271 399v-86c0 -17 0 -233 3 -273h57c47 0 92 0 146 5s122 125 137 162c3 6 6 9 12 6l20 -8c3 -2 3 -3 2 -9c-3 -7 -43 -172 -49 -199c-26 2 -314 3 -406 3c-99 0 -135 -3 -148 -3c-7 0 -8 2 -8 9v25c0 5 1 7 7 7h31c37 0 43 14 43 25c0 19 3 268 3 329v56
c0 64 -2 170 -3 186c-2 26 -7 36 -30 36h-37c-6 0 -7 5 -7 10v24c0 5 1 7 7 7c11 0 47 -3 138 -3c117 0 159 3 168 3c8 0 9 -3 9 -10v-23c0 -5 -2 -8 -10 -8h-47c-31 0 -35 -10 -35 -37c0 -13 -3 -164 -3 -234z" />
    <glyph glyph-name="M" unicode="M" horiz-adv-x="990" 
d="M163 367c0 -12 1 -148 7 -236c3 -37 19 -93 52 -93h39c6 0 7 -3 7 -7v-27c0 -4 -1 -7 -9 -7c-11 0 -38 3 -111 3c-85 0 -120 -3 -129 -3c-8 0 -9 1 -9 9v26c0 3 1 6 6 6h41c32 0 44 46 48 78c9 71 18 307 18 325l-1 153c0 46 -10 76 -55 76h-33c-6 0 -7 3 -7 7v28
c0 3 1 6 7 6c10 0 37 -3 155 -3c47 0 78 3 90 3c10 0 18 -1 24 -17c64 -170 136 -336 192 -486c11 19 87 205 93 219c4 10 104 249 109 269c3 11 16 12 46 12c156 0 190 3 201 3c5 0 6 -3 6 -9v-23c0 -6 -1 -9 -8 -9h-44c-23 0 -26 -18 -26 -39c0 -15 1 -261 2 -282
c0 -20 3 -239 3 -257c0 -38 9 -54 23 -54h48c6 0 7 -3 7 -7v-25c0 -6 -1 -9 -9 -9c-12 0 -30 3 -148 3c-102 0 -141 -3 -154 -3c-7 0 -8 3 -8 9v25c0 5 1 7 8 7h56c17 0 26 6 28 34c1 12 4 194 4 264v305h-6c-10 -17 -122 -289 -140 -330c-21 -46 -110 -268 -115 -277
c-5 -8 -12 -23 -24 -23c-7 0 -13 7 -18 18c-3 7 -135 317 -142 335c-18 46 -110 270 -118 282c-4 -14 -6 -267 -6 -279z" />
    <glyph glyph-name="N" unicode="N" horiz-adv-x="810" 
d="M658 200v91c0 89 -1 138 -3 188c-1 39 -6 137 -9 152c-6 25 -30 39 -53 39h-32c-5 0 -6 3 -6 9v25c0 5 1 7 9 7c11 0 43 -3 117 -3c60 0 84 3 95 3c9 0 10 -2 10 -8v-24c0 -5 -1 -9 -5 -9h-28c-17 0 -27 -17 -30 -53c-7 -67 -23 -293 -23 -425v-171c0 -15 -1 -33 -15 -33
c-15 0 -28 5 -39 16c-17 16 -66 69 -126 140c-72 85 -152 181 -171 203c-17 20 -155 192 -178 225h-8v-202c0 -83 9 -206 10 -244c2 -58 20 -88 62 -88h25c7 0 8 -3 8 -9v-24c0 -6 -1 -8 -8 -8c-10 0 -70 3 -117 3c-31 0 -100 -3 -110 -3c-4 0 -5 2 -5 9v26c0 3 1 6 6 6h35
c22 0 38 32 43 99c1 19 9 179 9 327v90c0 59 -36 115 -86 116l-25 1c-5 0 -6 4 -6 7v27c0 4 1 6 6 6s13 -1 32 -1c20 -1 52 -2 104 -2c34 0 64 2 76 2c13 0 21 -4 29 -13c5 -6 202 -247 232 -284c14 -17 160 -200 171 -213h4z" />
    <glyph glyph-name="O" unicode="O" horiz-adv-x="867" 
d="M433 -15c-69 0 -156 16 -235 65c-71 43 -147 151 -147 297c0 61 16 156 93 249c88 107 201 127 291 127c83 0 160 -13 244 -79c76 -60 137 -161 137 -299c0 -73 -23 -149 -75 -219c-65 -81 -150 -141 -308 -141zM441 32c185 0 218 223 218 305c0 219 -144 339 -228 339
c-20 0 -70 5 -131 -54c-59 -56 -89 -161 -89 -243c0 -256 147 -347 230 -347z" />
    <glyph glyph-name="P" unicode="P" horiz-adv-x="640" 
d="M268 302v-37c0 -47 1 -183 2 -195c2 -22 12 -32 28 -32h51c7 0 8 -3 8 -7v-26c0 -5 -1 -8 -9 -8c-14 0 -45 3 -162 3c-88 0 -127 -3 -138 -3c-7 0 -8 3 -8 7v27c0 5 1 7 6 7h26c34 0 41 5 44 30c1 10 4 166 4 282v115c0 66 -1 171 -2 183c-2 20 -12 22 -32 22h-47
c-5 0 -6 2 -6 8v26c0 5 1 7 6 7c11 0 47 -3 152 -3c18 0 77 3 110 3c123 0 182 -10 240 -55c42 -32 72 -89 72 -155c0 -120 -96 -202 -264 -202c-31 0 -54 1 -81 3zM268 670v-329c22 -5 45 -6 61 -6c31 0 81 32 103 67c20 31 24 69 24 106c0 138 -100 167 -141 167
c-17 0 -29 -1 -47 -5z" />
    <glyph glyph-name="Q" unicode="Q" horiz-adv-x="871" 
d="M430 723c142 2 232 -42 294 -107c68 -71 98 -162 96 -252c2 -107 -43 -204 -103 -263c-59 -59 -111 -87 -179 -108v-2c83 -34 167 -59 236 -76c214 -52 262 -48 294 -48c30 0 59 16 72 29c5 5 9 4 12 2l14 -12c3 -2 3 -7 0 -12c-19 -31 -96 -118 -156 -118
c-50 0 -113 5 -254 53c-115 40 -219 84 -382 170c-19 10 -136 23 -228 119c-52 54 -95 145 -95 256c0 108 44 204 116 271c78 71 185 100 263 98zM439 28c179 0 223 220 223 305c0 120 -44 214 -88 267c-44 54 -94 76 -150 76c-54 0 -97 -34 -126 -57
c-64 -63 -88 -152 -88 -233c0 -140 60 -243 98 -291c34 -42 103 -67 131 -67z" />
    <glyph glyph-name="R" unicode="R" horiz-adv-x="735" 
d="M124 358v97c0 74 0 138 -1 165c-1 33 -14 50 -28 50h-40c-5 0 -6 3 -6 7v27c0 5 1 7 6 7c9 0 40 -3 149 -3c56 0 144 3 185 3c78 0 136 -28 177 -66c36 -33 57 -72 57 -109c0 -127 -95 -184 -183 -192v-7c31 -10 47 -29 66 -53c13 -16 68 -105 76 -117
c6 -9 60 -85 80 -108c12 -13 50 -21 73 -21c7 0 8 -4 8 -8v-24c0 -6 -1 -9 -8 -9c-8 0 -34 3 -111 3c-29 0 -66 -2 -95 -3c-30 23 -92 139 -109 173c-34 68 -75 142 -123 142h-34v-51c0 -59 3 -171 5 -184c2 -21 10 -39 25 -39h41c7 0 8 -3 8 -8v-24c0 -7 -1 -9 -16 -9
c-1 0 -26 3 -131 3c-106 0 -129 -3 -140 -3c-8 0 -8 3 -8 10v23c0 5 0 8 5 8h30c22 0 40 7 40 32c2 99 2 193 2 288zM269 639l-5 -292c19 -1 31 -1 40 -1c132 0 163 126 163 173c0 46 -16 90 -38 112c-36 32 -81 44 -111 44c-17 0 -30 -2 -38 -9c-6 -4 -9 -15 -11 -27z" />
    <glyph glyph-name="S" unicode="S" horiz-adv-x="574" 
d="M79 223l26 -2c4 0 7 -1 7 -8c2 -31 16 -74 40 -113c29 -46 78 -68 126 -68s125 32 125 111c0 83 -16 107 -146 156c-30 11 -94 43 -145 87c-35 31 -50 84 -50 142c0 61 15 102 75 147c45 34 83 48 144 48c73 0 112 -12 133 -20c10 -4 17 -2 23 5l13 13c4 4 9 6 15 6
c7 0 9 -11 10 -17l16 -171c0 -4 -2 -5 -5 -6l-22 -7c-5 -2 -10 0 -13 7c-11 29 -28 68 -62 104c-25 28 -55 42 -100 42c-75 0 -106 -65 -106 -91c0 -37 1 -67 26 -92c26 -27 83 -51 132 -65c48 -14 87 -39 128 -76c39 -35 55 -79 55 -149c0 -122 -87 -221 -219 -221
c-90 0 -137 15 -179 43c-12 8 -18 11 -23 11c-6 0 -10 -7 -16 -17c-6 -11 -11 -12 -18 -12c-11 0 -15 5 -14 16l16 190c1 7 4 7 8 7z" />
    <glyph glyph-name="T" unicode="T" horiz-adv-x="738" 
d="M288 415v247h-35c-32 0 -92 -1 -134 -16c-22 -16 -66 -77 -91 -113c-3 -5 -6 -8 -10 -7l-22 8c-4 1 -5 6 -4 9c11 42 44 174 48 194c3 13 8 17 15 17s10 -4 19 -15c11 -14 30 -23 66 -25c53 -3 95 -6 199 -6h58c109 0 152 4 194 6c22 1 61 13 73 25c10 10 16 15 23 15
s10 -4 12 -16c3 -22 22 -146 30 -199c1 -4 -1 -8 -4 -9l-21 -8c-4 -1 -6 2 -10 9c-22 36 -61 88 -86 112c-25 15 -114 19 -137 19h-33v-275c0 -14 0 -294 1 -309c2 -25 10 -40 34 -40h45c9 0 10 -3 10 -10v-23c0 -5 -1 -8 -10 -8c-10 0 -42 3 -153 3c-106 0 -148 -3 -162 -3
c-8 0 -9 4 -9 12v19c0 7 1 10 7 10h51c20 0 32 12 34 30c2 21 2 328 2 347z" />
    <glyph glyph-name="U" unicode="U" horiz-adv-x="730" 
d="M88 383v236c0 35 -7 51 -28 51h-47c-6 0 -7 2 -7 9v24c0 6 1 8 9 8c10 0 59 -3 164 -3c88 0 136 3 147 3c8 0 9 -2 9 -8v-26c0 -5 -1 -7 -8 -7h-34c-34 0 -51 -19 -53 -39c-1 -11 -2 -79 -2 -130v-66c0 -53 4 -180 5 -212c1 -46 10 -91 32 -119c33 -40 80 -56 125 -56
c37 0 91 19 118 44c40 36 63 91 63 163v154c0 84 -10 194 -14 217c-4 26 -20 44 -37 44h-32c-6 0 -7 3 -7 8v26c0 5 1 7 7 7c10 0 56 -3 124 -3c54 0 86 3 95 3s10 -4 10 -9v-22c0 -6 -1 -10 -6 -10h-31c-38 0 -41 -28 -43 -38c-2 -14 -2 -152 -2 -166s-2 -189 -5 -228
c-6 -82 -33 -145 -85 -191c-44 -39 -112 -62 -177 -62c-47 0 -111 7 -153 25c-48 21 -92 68 -116 132c-17 43 -21 110 -21 241z" />
    <glyph glyph-name="V" unicode="V" horiz-adv-x="682" 
d="M470 679v25c0 5 1 7 6 7c9 0 55 -3 122 -3c93 0 118 3 127 3c6 0 7 -2 7 -9v-25c0 -4 -1 -7 -7 -7h-23c-17 0 -48 -7 -74 -52c-40 -68 -83 -186 -121 -270c-25 -54 -138 -322 -155 -351c-7 -12 -12 -17 -23 -17c-13 0 -17 12 -23 25c-37 79 -128 321 -156 390
s-78 214 -90 242c-10 23 -22 33 -43 33h-26c-4 0 -5 5 -5 10v24c0 5 1 7 7 7c10 0 43 -3 163 -3c104 0 149 3 158 3s10 -3 10 -9v-23c0 -5 -1 -9 -8 -9h-43c-24 0 -43 -11 -43 -24c0 -8 0 -20 3 -34c8 -36 46 -155 67 -213c13 -37 63 -184 76 -223h4c29 67 78 192 91 228
c19 49 50 133 66 178c10 26 10 43 10 55s-12 33 -41 33h-31c-4 0 -5 3 -5 9z" />
    <glyph glyph-name="W" unicode="W" horiz-adv-x="1050" 
d="M709 7l-179 502h-6c-11 -29 -186 -494 -190 -504c-4 -11 -9 -25 -25 -25c-11 0 -17 8 -21 20l-225 634c-10 28 -28 36 -41 36h-25c-5 0 -6 4 -6 8v26c0 5 1 7 8 7c8 0 39 -3 142 -3c72 0 113 3 123 3c7 0 8 -3 8 -8v-25c0 -5 -1 -8 -8 -8h-22c-16 0 -26 -14 -20 -34
l137 -436h6c12 34 132 352 132 388c0 25 -10 51 -19 63s-22 19 -30 19h-20c-5 0 -6 2 -6 8v26c0 4 1 7 7 7c9 0 44 -3 132 -3c84 0 122 3 132 3c6 0 7 -3 7 -9v-25c0 -4 -1 -7 -7 -7h-30c-16 0 -25 -22 -20 -39l138 -431h6c49 136 136 390 136 444c0 11 -13 26 -32 26h-29
c-6 0 -7 3 -7 9v25c0 4 1 7 8 7c10 0 45 -3 107 -3c56 0 85 3 93 3c6 0 7 -2 7 -9v-25c0 -4 0 -7 -7 -7h-19c-17 0 -37 -11 -47 -36c-12 -32 -213 -575 -233 -623c-5 -12 -12 -31 -30 -31c-14 0 -20 13 -25 27z" />
    <glyph glyph-name="X" unicode="X" horiz-adv-x="693" 
d="M700 31v-26c0 -4 -1 -8 -8 -8c-8 0 -43 3 -157 3c-80 0 -134 -3 -141 -3s-8 3 -8 9v25c0 4 1 7 6 7h15c23 0 31 5 31 18s-88 168 -126 234h-4c-40 -60 -138 -203 -138 -226c0 -14 10 -26 25 -26h29c7 0 8 -3 8 -6v-26c0 -6 -1 -9 -8 -9c-10 0 -49 3 -130 3
c-59 0 -99 -3 -108 -3c-5 0 -6 4 -6 11v23c0 4 1 7 6 7h24c16 0 49 10 75 31c52 44 101 121 204 262c-49 77 -179 305 -203 325c-11 10 -37 14 -46 14h-34c-4 0 -5 4 -5 8v25c0 5 1 8 5 8c10 0 56 -3 157 -3c100 0 142 3 151 3c7 0 8 -4 8 -9v-23c0 -6 -1 -9 -9 -9h-24
c-16 0 -28 -8 -28 -22c0 -17 93 -182 111 -211h4c41 64 126 185 126 210c0 11 -5 23 -28 23h-25c-5 0 -6 4 -6 9v25c0 5 1 7 7 7c11 0 52 -3 129 -3c55 0 91 3 101 3c7 0 8 -4 8 -9v-23c0 -7 -1 -9 -6 -9h-27c-27 0 -44 -3 -63 -17c-31 -23 -109 -133 -195 -256
c63 -105 170 -280 208 -334c15 -21 40 -25 54 -25h33c7 0 8 -3 8 -7z" />
    <glyph glyph-name="Y" unicode="Y" horiz-adv-x="613" 
d="M373 297v-111c0 -39 3 -104 4 -113c3 -32 18 -35 34 -35h29c7 0 7 -3 7 -7v-25c0 -6 0 -9 -7 -9c-12 0 -51 3 -145 3c-104 0 -135 -3 -146 -3c-4 0 -6 3 -6 10v24c0 4 1 7 7 7h35c26 0 34 10 35 23c1 14 3 93 3 186v43c-16 31 -176 323 -201 357c-12 15 -36 23 -52 23
h-15c-6 0 -7 3 -7 7v28c0 4 1 6 7 6c9 0 56 -3 145 -3c103 0 139 3 149 3c6 0 7 -2 7 -7v-25c0 -5 -1 -9 -7 -9h-23c-14 0 -24 -10 -24 -26c0 -18 119 -247 146 -305c30 55 150 266 150 297c0 17 -17 34 -38 34h-27c-6 0 -7 3 -7 9v26c0 4 1 6 7 6c10 0 51 -3 125 -3
c69 0 91 3 100 3c7 0 8 -2 8 -8v-24c0 -6 -1 -9 -8 -9h-18c-12 0 -42 -6 -57 -24c-13 -16 -169 -272 -210 -349z" />
    <glyph glyph-name="Z" unicode="Z" horiz-adv-x="703" 
d="M487 672h-208c-14 0 -30 -1 -56 -19c-21 -14 -107 -111 -128 -138c-3 -5 -8 -8 -12 -6l-17 9c-3 1 -4 4 -3 9l63 178c3 9 9 11 14 11c7 0 15 -1 23 -2c47 -6 188 -6 271 -6c61 0 113 2 151 3c34 2 66 3 73 3c16 0 23 -13 14 -24c-8 -9 -446 -623 -466 -650h241
c28 0 49 0 74 11c29 13 127 116 141 133c4 4 8 5 13 3l17 -9c3 -2 5 -4 2 -9c-14 -23 -62 -146 -76 -173c-2 -5 -8 -10 -13 -10c-4 0 -12 1 -25 3c-55 7 -214 11 -304 11h-234c-8 0 -19 0 -19 8c0 6 1 14 5 20c41 63 452 632 459 644z" />
    <glyph glyph-name="a" unicode="a" horiz-adv-x="456" 
d="M254 266v53c0 20 -2 43 -15 55c-10 9 -26 12 -42 12c-18 0 -35 -4 -53 -16c-15 -10 -3 -27 -3 -59c0 -34 -25 -57 -65 -57c-23 0 -43 14 -43 36s7 52 28 70c42 38 111 74 192 74c64 0 81 -10 102 -29c22 -20 28 -49 28 -85l2 -199c1 -52 4 -68 23 -68c14 0 25 11 29 18
c4 6 7 7 10 5l14 -8c4 -2 7 -5 3 -14c-9 -21 -39 -68 -101 -68c-39 0 -76 14 -95 61h-5c-25 -23 -46 -37 -86 -52c-20 -7 -43 -9 -72 -9c-35 0 -66 38 -66 92c0 44 21 90 86 122c78 37 103 48 129 66zM255 84v142c-49 -28 -90 -43 -90 -112c0 -46 21 -65 43 -66
c27 2 47 27 47 36z" />
    <glyph glyph-name="b" unicode="b" horiz-adv-x="525" 
d="M129 12l-41 -25c-5 -3 -8 -3 -12 -2l-14 5c-4 1 -5 3 -4 8c3 14 3 97 3 172v373c0 67 -13 79 -44 88l-14 4c-11 3 -13 5 -13 8v12c0 3 2 7 11 10c50 14 113 39 152 57c17 9 25 15 35 15s12 -7 12 -17c0 -8 -7 -122 -8 -220l-2 -114c36 36 84 48 134 48
c65 0 116 -43 142 -85c17 -27 29 -64 29 -129c0 -105 -100 -234 -229 -234c-66 0 -104 12 -137 26zM191 344v-131c0 -83 -1 -120 12 -146c14 -26 31 -43 58 -43c29 0 64 10 83 52c21 46 16 71 16 111c0 132 -55 176 -107 176c-18 0 -42 -6 -62 -19z" />
    <glyph glyph-name="c" unicode="c" horiz-adv-x="436" 
d="M253 434c131 0 160 -66 160 -97c0 -28 -20 -47 -52 -47c-42 0 -64 28 -72 53c-12 36 -31 48 -59 48c-27 0 -66 -39 -66 -102s-2 -108 32 -170c25 -45 62 -58 107 -58c46 0 68 9 100 32c5 3 8 5 11 1l14 -14c3 -4 2 -8 -1 -13c-19 -33 -97 -81 -189 -81
c-75 0 -125 21 -157 61c-39 48 -51 87 -51 138c0 68 22 141 75 190c45 41 94 59 148 59z" />
    <glyph glyph-name="d" unicode="d" horiz-adv-x="538" 
d="M329 421l-4 202c-1 28 -12 44 -65 57c-6 1 -7 3 -7 7v19c0 4 2 7 8 8c59 5 136 11 169 18c14 3 18 5 26 5c6 0 10 -7 9 -18c-4 -50 -6 -195 -6 -336v-221c0 -37 0 -76 10 -92c8 -13 21 -14 45 -11c11 1 15 -2 16 -7l3 -15c1 -6 -1 -9 -7 -11l-150 -38c-6 -2 -11 1 -14 9
l-16 50c-32 -37 -91 -61 -134 -61c-52 0 -72 4 -119 48c-39 35 -63 76 -63 142c0 80 14 132 70 194c39 43 85 64 148 64c33 0 62 -6 81 -13zM331 120l-3 182c0 18 -1 35 -8 48c-15 27 -48 45 -76 45c-18 0 -37 -7 -52 -28c-24 -33 -32 -67 -32 -115c0 -118 51 -200 113 -200
c27 0 38 10 48 20c8 8 10 26 10 48z" />
    <glyph glyph-name="e" unicode="e" horiz-adv-x="451" 
d="M389 249h-229v-27c0 -104 59 -155 132 -155c49 0 89 23 109 55c2 5 6 6 10 3l17 -9c4 -2 7 -7 -2 -24c-18 -37 -83 -106 -177 -106c-64 0 -117 11 -150 47c-51 55 -68 94 -69 172c0 28 0 81 45 147c36 53 97 82 174 82c162 0 171 -155 171 -171c0 -13 -9 -14 -31 -14z
M161 287h96c22 0 32 5 32 20c0 44 -18 87 -49 87c-47 0 -72 -37 -79 -107z" />
    <glyph glyph-name="f" unicode="f" horiz-adv-x="326" 
d="M326 367h-105v-87c0 -48 -3 -175 -1 -214c1 -22 13 -31 29 -31h36c9 0 11 -2 11 -8v-20c0 -6 -2 -10 -7 -10c-6 0 -43 3 -140 3c-65 0 -116 -3 -124 -3c-6 0 -8 2 -8 9v22c0 5 2 7 10 7h33c19 0 27 12 27 33l-3 299h-64c-5 0 -7 2 -6 11l5 35c1 6 4 7 12 7h53v30
c0 105 33 170 84 218c54 50 107 69 169 69c59 0 103 -24 103 -70c0 -31 -32 -50 -55 -50c-32 0 -52 12 -67 38c-12 20 -26 30 -36 30c-20 0 -34 -6 -50 -32c-18 -28 -11 -99 -11 -191v-42h116c7 0 8 -6 7 -10l-5 -38c-1 -4 -5 -5 -13 -5z" />
    <glyph glyph-name="g" unicode="g" horiz-adv-x="502" 
d="M216 -272c-48 0 -121 8 -160 31c-37 21 -49 47 -49 78c0 50 56 86 103 105v5c-46 14 -69 45 -69 80c0 58 56 90 89 106v3c-43 25 -88 67 -88 152c0 65 52 146 194 146c88 0 132 -46 141 -56c23 19 60 35 88 35c36 0 55 -20 55 -52c0 -23 -21 -43 -44 -43
c-17 0 -25 7 -31 17c-5 8 -17 15 -28 15c-5 0 -14 -4 -19 -9c4 -7 12 -29 12 -65c0 -38 -11 -75 -45 -108c-38 -36 -95 -48 -135 -48c-20 0 -34 0 -59 3c-13 -8 -37 -26 -37 -46c0 -35 29 -38 137 -35c68 2 119 -2 168 -40c36 -29 49 -64 49 -101c0 -42 -19 -78 -58 -111
c-37 -30 -113 -62 -214 -62zM231 396c-22 0 -35 -12 -49 -32s-20 -66 -20 -111c0 -29 9 -61 22 -76c11 -14 26 -20 46 -20c44 0 59 67 59 144c0 37 -4 58 -9 67c-9 17 -21 28 -49 28zM250 -233c66 0 131 35 131 85c0 55 -39 85 -130 81l-87 -4c-29 -7 -50 -38 -50 -68
c0 -29 16 -54 35 -68c28 -20 56 -26 101 -26z" />
    <glyph glyph-name="h" unicode="h" horiz-adv-x="560" 
d="M207 292v-216c0 -30 6 -41 15 -41h20c5 0 8 -2 8 -8v-19c0 -7 -1 -11 -7 -11c-8 0 -54 3 -113 3c-70 0 -108 -3 -117 -3c-4 0 -7 3 -7 10v20c0 7 4 8 15 8h16c16 0 31 4 34 17c5 18 5 36 5 66l-2 416c0 50 -13 79 -47 92l-18 6c-6 3 -8 6 -8 9v13c0 4 3 8 17 12
c55 16 91 32 151 61c13 6 21 10 31 10c9 0 11 -8 9 -25s-3 -220 -3 -279v-60h7c24 38 73 61 128 61c45 0 71 -13 102 -39c47 -39 43 -89 43 -153v-62c0 -50 -2 -111 -2 -130c0 -14 20 -15 32 -15h19c8 0 11 -2 11 -7v-21c0 -6 -2 -10 -8 -10c-7 0 -39 3 -109 3
c-69 0 -105 -3 -114 -3c-7 0 -9 3 -9 11v19c0 5 1 8 7 8h13c9 0 22 5 24 19c1 14 3 67 3 97v61c0 49 3 119 -23 145c-14 14 -26 19 -47 19c-22 0 -44 -18 -59 -35c-8 -10 -17 -23 -17 -49z" />
    <glyph glyph-name="i" unicode="i" horiz-adv-x="290" 
d="M209 581c0 -32 -22 -67 -76 -68c-40 -1 -70 26 -70 65c0 32 33 61 75 61c47 0 71 -30 71 -58zM279 7c0 -7 -2 -10 -9 -10c-8 0 -54 3 -141 3c-58 0 -97 -3 -108 -3c-5 0 -8 2 -8 10v20c0 6 3 8 10 8h37c11 0 18 4 19 20c2 30 2 61 2 89l-2 140c0 28 -6 48 -48 63
c-11 4 -12 8 -12 14v11c0 3 2 5 11 8l149 48c11 4 20 6 27 6c8 0 11 -5 10 -12c-2 -17 -2 -80 -2 -168v-107c0 -39 0 -75 1 -86c2 -19 7 -26 18 -26h36c8 0 10 -3 10 -9v-19z" />
    <glyph glyph-name="j" unicode="j" horiz-adv-x="270" 
d="M212 584c0 -35 -30 -71 -83 -71c-40 0 -80 25 -80 69c0 32 29 70 86 70c42 0 77 -28 77 -68zM215 417c-2 -9 -4 -79 -4 -175v-125c0 -59 -3 -166 -15 -221c-18 -88 -116 -168 -206 -168c-46 0 -87 21 -87 60c0 24 21 58 51 58c28 0 47 -21 56 -38c12 -22 23 -28 37 -28
c17 0 26 20 28 58c4 79 4 164 3 235l-3 201c-1 42 -11 51 -50 67l-10 4c-4 2 -6 4 -6 7v14c0 3 3 6 8 8l158 54c13 5 23 6 30 6c9 0 12 -7 10 -17z" />
    <glyph glyph-name="k" unicode="k" horiz-adv-x="524" 
d="M76 59v516c0 33 -4 57 -54 72c-10 3 -14 7 -14 10v18c0 4 3 8 13 10c52 9 121 31 145 39c19 9 31 13 39 13s10 -5 9 -17c-4 -48 -4 -195 -5 -329l-1 -146c11 0 21 4 33 15c42 39 89 92 89 107c0 12 -13 18 -23 18c-7 0 -8 3 -8 9v21c0 5 2 8 7 8c6 0 42 -3 107 -3
c60 0 85 3 92 3c4 0 6 -3 6 -9v-21c0 -6 -2 -8 -6 -8h-12c-12 0 -32 -6 -57 -17c-31 -14 -107 -81 -128 -102c37 -44 157 -194 186 -216c16 -12 42 -15 53 -15c6 0 8 -2 8 -9v-20c0 -6 -2 -9 -9 -9c-8 0 -36 3 -118 3c-59 0 -101 -3 -109 -3c-5 0 -7 3 -7 12v16c0 5 2 8 6 8
h7c8 0 10 5 10 12c0 10 -78 115 -107 153c-8 10 -16 12 -22 12v-149c0 -19 9 -26 19 -26h19c7 0 9 -2 9 -8v-21c0 -6 -2 -9 -8 -9s-39 3 -103 3c-70 0 -105 -3 -112 -3c-3 0 -5 4 -5 10v19c0 7 3 9 10 9h19c13 0 22 11 22 24z" />
    <glyph glyph-name="l" unicode="l" horiz-adv-x="290" 
d="M210 387v-187c0 -40 0 -105 3 -134c1 -17 4 -31 25 -31h34c9 0 11 -3 11 -9v-19c0 -6 -2 -10 -6 -10c-7 0 -51 3 -130 3c-84 0 -124 -3 -133 -3c-5 0 -7 4 -7 12v17c0 7 2 9 13 9h30c11 0 27 7 27 43v318c0 71 0 152 -2 178c-2 34 -23 48 -55 58l-18 6c-7 3 -8 6 -8 11
v15c0 3 2 7 9 8c45 9 149 43 178 58c11 5 17 7 22 7c6 0 10 -5 9 -18c-1 -55 -2 -263 -2 -332z" />
    <glyph glyph-name="m" unicode="m" horiz-adv-x="823" 
d="M28 370l129 57c9 4 16 7 23 7c6 0 12 -3 14 -13l8 -57h5c28 39 79 70 142 70c64 0 95 -29 121 -70h5c34 40 83 67 134 67c45 0 66 -6 97 -38c29 -29 43 -38 43 -137v-72c0 -34 -3 -89 -4 -110c-1 -28 13 -39 29 -39h20c9 0 11 -2 11 -9v-19c0 -7 -2 -10 -7 -10
c-7 0 -35 3 -108 3c-60 0 -96 -3 -103 -3c-6 0 -8 3 -8 12v17c0 7 3 9 6 9h9c7 0 19 5 20 19c2 23 5 59 5 96v96c0 62 -3 83 -16 97c-16 18 -26 24 -49 24c-28 0 -48 -21 -60 -32c-15 -17 -15 -49 -15 -63v-198c0 -29 6 -39 17 -39h18c9 0 11 -2 11 -9v-18
c0 -8 -2 -11 -7 -11c-7 0 -33 3 -94 3c-74 0 -108 -3 -114 -3c-5 0 -7 3 -7 10v18c0 8 1 10 10 10h14c14 0 24 13 24 71v148c0 69 -10 92 -22 103c-9 9 -25 12 -47 12c-20 0 -43 -14 -55 -31c-13 -20 -17 -43 -16 -81v-161c0 -51 10 -61 21 -61h9c9 0 10 -2 10 -9v-18
c0 -7 -1 -11 -8 -11c-9 0 -36 3 -107 3c-67 0 -99 -3 -107 -3c-6 0 -8 2 -8 9v20c0 8 1 9 12 9h28c10 0 18 11 19 25c1 17 1 42 1 68v126c0 44 -7 60 -32 75l-20 12c-5 3 -7 5 -7 8v12c0 3 2 7 6 9z" />
    <glyph glyph-name="n" unicode="n" horiz-adv-x="565" 
d="M199 422l11 -43h8c11 13 29 26 48 36c22 12 44 19 77 19c39 0 77 -4 103 -28c42 -39 45 -64 45 -114v-106c0 -34 -2 -81 -4 -116c-1 -30 15 -35 24 -35h27c9 0 11 -3 11 -9v-18c0 -7 -2 -11 -8 -11c-7 0 -38 3 -118 3c-66 0 -98 -3 -105 -3c-6 0 -8 3 -8 11v18
c0 7 3 9 13 9h11c7 0 16 5 18 23c4 26 6 58 6 104v107c0 38 -3 64 -24 83c-18 16 -32 18 -49 18c-18 0 -31 -5 -51 -20c-12 -9 -20 -36 -20 -77l-2 -205c0 -18 7 -33 16 -33h13c8 0 10 -3 10 -10v-19c0 -6 -2 -9 -7 -9c-7 0 -34 3 -100 3c-71 0 -103 -3 -109 -3
c-5 0 -7 3 -7 9v20c0 6 2 9 10 9h15c11 0 28 3 28 20v222c0 30 -17 47 -40 58l-9 4c-6 3 -7 7 -7 11v9c0 5 4 8 9 10l128 58c8 3 15 7 23 7c6 0 12 -5 14 -12z" />
    <glyph glyph-name="o" unicode="o" horiz-adv-x="525" 
d="M257 -14c-73 0 -123 15 -174 73c-38 42 -53 95 -53 158c0 45 25 119 86 166c51 40 102 51 149 51c69 0 116 -21 161 -63c49 -44 69 -98 69 -159c0 -58 -25 -114 -64 -156c-48 -50 -106 -70 -174 -70zM263 28c55 0 80 81 80 191c0 116 -40 173 -84 173
c-25 0 -41 -7 -54 -27c-20 -31 -33 -74 -33 -155c0 -58 5 -96 25 -139c13 -27 29 -43 66 -43z" />
    <glyph glyph-name="p" unicode="p" horiz-adv-x="539" 
d="M77 -102l-1 369c0 34 -3 49 -33 65l-23 12c-5 3 -7 5 -7 9v13c0 3 2 5 7 7l130 51c13 5 22 10 31 10c6 0 9 -7 12 -21l7 -37h4c25 31 77 58 127 58c54 0 91 -15 124 -51c42 -46 56 -81 54 -139c1 -152 -101 -258 -228 -258c-17 0 -49 1 -75 16l1 -153
c1 -81 11 -86 35 -86h25c8 0 9 -4 9 -10v-19c0 -6 -2 -9 -9 -9c-5 0 -39 3 -128 3c-73 0 -108 -3 -116 -3c-7 0 -9 3 -9 10v20c0 5 2 8 12 8h23c17 0 24 10 26 26c2 22 2 52 2 109zM206 338v-232c0 -16 7 -42 27 -58c15 -12 36 -23 60 -23c42 0 79 37 79 133
c0 63 -7 207 -104 207c-19 0 -46 -8 -62 -27z" />
    <glyph glyph-name="q" unicode="q" horiz-adv-x="534" 
d="M366 411l93 25c4 1 7 1 10 -2l8 -8c2 -2 3 -5 0 -15c-5 -16 -6 -45 -8 -66c-2 -22 -3 -72 -3 -153v-222c0 -62 -1 -147 3 -178c3 -18 9 -29 23 -29h21c8 0 10 -3 10 -6v-24c0 -6 -2 -8 -7 -8c-9 0 -46 3 -127 3c-73 0 -107 -3 -115 -3c-6 0 -8 2 -8 11v20c0 5 2 7 11 7
h26c17 0 25 7 26 19c1 15 4 92 4 136l1 103h-6c-32 -25 -73 -35 -120 -35c-83 0 -178 54 -178 194c0 74 21 143 90 204c43 39 88 50 140 50c43 0 72 -7 106 -23zM333 69v239c0 41 -41 90 -79 90c-66 -1 -88 -92 -89 -136c-2 -80 -5 -118 44 -179c15 -18 39 -35 57 -35
c20 0 46 4 67 21z" />
    <glyph glyph-name="r" unicode="r" horiz-adv-x="366" 
d="M211 264v-188c0 -31 10 -41 31 -41h41c6 0 7 -3 7 -9v-20c0 -6 -1 -9 -5 -9c-6 0 -52 3 -142 3c-77 0 -119 -3 -125 -3c-4 0 -6 2 -6 10v19c0 7 2 9 11 9h29c15 0 24 6 26 24c2 28 2 63 2 113v83c0 43 -10 61 -40 78l-17 10c-6 3 -8 5 -8 9v9c0 4 2 6 8 8l140 61
c6 2 10 4 16 4c7 0 11 -6 12 -12l9 -78h7c31 66 75 96 119 96c30 0 53 -23 53 -58c0 -27 -31 -57 -64 -57c-14 0 -27 3 -36 9c-8 5 -17 7 -25 7c-10 0 -20 -5 -26 -18c-13 -27 -17 -46 -17 -59z" />
    <glyph glyph-name="s" unicode="s" horiz-adv-x="388" 
d="M328 394l14 -74c1 -5 0 -7 -4 -9l-18 -8c-3 -2 -6 -1 -10 3l-56 60c-13 13 -32 29 -62 29s-59 -20 -59 -54c2 -35 14 -45 88 -65c49 -13 73 -20 103 -52c26 -26 32 -50 32 -85c0 -89 -70 -153 -179 -153c-56 0 -105 20 -117 29c-4 3 -5 7 -6 13l-13 96c0 5 3 7 7 8l18 5
c3 1 5 0 7 -4l40 -59c18 -26 41 -51 87 -51c37 0 59 26 59 61c0 40 -29 53 -94 73c-71 21 -122 55 -122 127c0 47 14 86 52 114c40 29 68 36 110 36c54 0 87 -12 105 -21c15 -7 17 -12 18 -19z" />
    <glyph glyph-name="t" unicode="t" horiz-adv-x="341" 
d="M209 225v-79c0 -82 31 -100 55 -100c21 0 36 3 52 12c3 2 6 2 9 -4l7 -15c3 -5 0 -10 -4 -13c-17 -12 -62 -40 -140 -40c-68 0 -111 47 -111 93c0 35 2 111 2 149l1 132h-55c-9 0 -16 4 -16 14s6 17 22 25c33 15 117 90 154 132c7 8 14 10 19 10c9 0 13 -7 13 -15
l-4 -106h127c6 0 9 -5 7 -9l-10 -43c-1 -4 -3 -8 -9 -8h-117c-2 -41 -2 -89 -2 -135z" />
    <glyph glyph-name="u" unicode="u" horiz-adv-x="547" 
d="M533 25l-140 -35c-6 -2 -13 -4 -22 -4c-10 0 -16 5 -17 12l-6 54h-6c-20 -35 -78 -66 -132 -66c-40 0 -70 0 -105 46c-42 56 -38 88 -38 174l1 44c0 38 0 78 -1 100c-1 24 -22 33 -34 35c-17 3 -22 2 -22 7v20c0 6 2 8 11 8h146c6 0 10 1 14 2c4 0 8 1 11 1
c7 0 12 -5 11 -12c-1 -9 -4 -56 -4 -135v-54c0 -40 -6 -115 19 -154c15 -23 31 -21 49 -21c17 0 39 13 54 32c9 10 16 26 16 36l-1 235c0 25 -18 33 -43 35c-12 1 -17 2 -17 7v19c0 8 2 9 12 9h149c7 0 12 1 17 2c5 0 9 1 12 1c6 0 10 -5 9 -10c-1 -9 -6 -35 -6 -136v-74
c0 -48 0 -97 2 -115c3 -31 14 -35 18 -35c6 0 21 0 33 3c8 2 11 0 12 -4l3 -19c1 -5 -1 -7 -5 -8z" />
    <glyph glyph-name="v" unicode="v" horiz-adv-x="474" 
d="M-21 395v20c0 7 2 8 11 8c11 0 28 -3 132 -3c68 0 94 3 105 3c8 0 10 -2 10 -8v-20c0 -6 -1 -10 -7 -10h-13c-13 0 -26 -6 -26 -17c0 -18 30 -98 37 -116l43 -108h6c8 17 60 141 80 196c9 25 -7 45 -25 45h-18c-3 0 -4 5 -4 10v20c0 6 2 8 6 8c14 0 36 -3 97 -3
c52 0 76 3 85 3c8 0 9 -1 9 -9v-19c0 -7 0 -10 -5 -10h-17c-14 0 -34 -2 -46 -15c-18 -20 -62 -109 -85 -157c-12 -26 -91 -196 -97 -208c-6 -11 -12 -20 -26 -20c-13 0 -20 10 -29 25c-10 15 -91 194 -95 204s-51 122 -58 134c-17 28 -26 37 -44 37h-20c-5 0 -6 4 -6 10z
" />
    <glyph glyph-name="w" unicode="w" horiz-adv-x="682" 
d="M-18 394v21c0 5 1 8 6 8c14 0 34 -3 119 -3c50 0 74 3 89 3c6 0 8 -2 8 -8v-22c0 -5 -1 -8 -8 -8h-13c-9 0 -13 -9 -9 -23l68 -207h6l61 156c5 14 1 46 -9 59c-6 8 -17 9 -26 9h-7c-6 0 -8 3 -8 8v22c0 6 3 8 9 8c8 0 40 -3 103 -3c58 0 80 3 88 3c7 0 9 -2 9 -6v-22
c0 -5 -1 -10 -6 -10h-14c-8 0 -17 -10 -13 -22l71 -197h4l54 152c19 52 5 73 -22 73h-14c-5 0 -6 3 -6 8v23c0 5 3 7 7 7c6 0 36 -3 92 -3c43 0 61 3 73 3c5 0 7 -3 7 -9v-21c0 -5 -2 -8 -7 -8h-10c-16 0 -34 -6 -41 -21c-8 -17 -138 -331 -154 -366c-5 -11 -15 -13 -23 -13
c-11 0 -15 7 -22 24l-101 257h-6l-112 -265c-5 -11 -14 -16 -24 -16s-15 8 -20 20l-145 353c-8 20 -23 27 -35 27h-12c-6 0 -7 3 -7 9z" />
    <glyph glyph-name="x" unicode="x" horiz-adv-x="430" 
d="M448 27v-22c0 -4 -1 -8 -7 -8c-9 0 -28 3 -115 3c-59 0 -89 -3 -100 -3c-7 0 -8 4 -8 9v19c0 7 1 10 8 10h3c11 0 17 15 9 29l-56 92c-38 -42 -61 -87 -67 -97c-8 -13 -4 -24 18 -24h12c4 0 5 -4 5 -8v-22c0 -4 -1 -8 -7 -8c-9 0 -35 3 -84 3c-54 0 -71 -3 -81 -3
c-8 0 -9 4 -9 11v18c0 5 1 9 8 9h16c10 0 26 4 44 16c21 13 103 115 122 141c-48 77 -108 160 -125 179c-9 10 -23 14 -34 14h-14c-6 0 -7 4 -7 7v22c0 7 1 9 8 9c8 0 35 -3 117 -3c47 0 84 3 93 3c5 0 6 -3 6 -9v-19c0 -6 -1 -9 -5 -9h-7c-11 0 -10 -18 -1 -32l47 -78
l48 66c16 22 11 44 -9 44h-12c-5 0 -6 4 -6 8v21c0 6 1 8 5 8c12 0 35 -3 87 -3c46 0 64 3 71 3c8 0 9 -4 9 -10v-20c0 -6 -1 -8 -8 -8h-12c-11 0 -31 -2 -43 -15c-10 -11 -63 -62 -108 -127c39 -53 88 -137 132 -187c12 -14 23 -21 36 -21h16c4 0 5 -2 5 -8z" />
    <glyph glyph-name="y" unicode="y" horiz-adv-x="442" 
d="M44 -272c-35 0 -62 21 -62 58c0 33 24 57 49 57c14 0 28 -3 42 -11c12 -8 24 -9 32 -4c10 7 62 116 74 151c-8 35 -133 347 -140 363c-10 25 -21 43 -35 43h-16c-7 0 -8 3 -8 9v22c0 4 1 7 8 7c9 0 33 -3 120 -3c61 0 92 3 103 3c8 0 9 -3 9 -9v-21c0 -5 -1 -8 -6 -8h-14
c-11 0 -20 -7 -18 -23c3 -17 59 -210 66 -232h5c25 57 79 196 85 215c8 27 -5 40 -25 40h-16c-6 0 -7 3 -7 8v22c0 5 1 8 6 8c13 0 34 -3 90 -3c42 0 65 3 76 3c6 0 6 -4 6 -10v-19c0 -6 0 -9 -5 -9h-11c-11 0 -25 -4 -37 -20c-18 -24 -88 -173 -164 -337
c-51 -109 -94 -202 -113 -234c-16 -27 -38 -66 -94 -66z" />
    <glyph glyph-name="z" unicode="z" horiz-adv-x="454" 
d="M189 36h90c28 0 78 17 152 103c6 7 10 7 13 5l13 -10c4 -3 5 -5 2 -10l-67 -136c-16 6 -65 9 -115 10c-50 2 -101 2 -122 2h-117c-11 0 -16 7 -4 26l232 359h-70c-53 0 -77 -9 -157 -109c-4 -5 -8 -4 -12 -1l-12 8c-3 2 -4 5 -2 10l56 144c22 -5 41 -9 58 -11
c37 -5 55 -6 136 -6h155c10 0 15 -10 9 -20z" />
    <glyph glyph-name="space" unicode=" " horiz-adv-x="200" 
 />
    <glyph glyph-name="comma" unicode="," horiz-adv-x="280" 
d="M227 12c0 -105 -115 -178 -146 -194c-6 -3 -16 -4 -23 -4c-8 0 -12 4 -12 10c0 5 4 9 10 15c21 19 75 67 75 126c0 16 -14 27 -22 30c-10 4 -55 16 -55 66c0 43 28 82 72 82c57 0 101 -53 101 -131z" />
    <glyph glyph-name="hyphen" unicode="-" horiz-adv-x="400" 
d="M50 236v64c0 6 2 7 9 7h279c8 0 12 -2 12 -11v-58c0 -5 -4 -7 -10 -7h-282c-6 0 -8 2 -8 5z" />
    <glyph glyph-name="period" unicode="." horiz-adv-x="280" 
d="M143 -14c-47 0 -82 33 -82 79c0 30 24 76 81 76c42 0 77 -32 77 -80c0 -45 -33 -75 -76 -75z" />
    <glyph glyph-name="colon" unicode=":" horiz-adv-x="280" 
d="M143 -14c-47 0 -82 33 -82 79c0 30 24 76 81 76c42 0 77 -32 77 -80c0 -45 -33 -75 -76 -75zM143 279c-47 0 -82 33 -82 79c0 30 24 76 81 76c42 0 77 -32 77 -80c0 -45 -33 -75 -76 -75z" />
    <glyph glyph-name="semicolon" unicode=";" horiz-adv-x="280" 
d="M227 2c0 -105 -115 -178 -146 -194c-6 -3 -16 -4 -23 -4c-8 0 -12 4 -12 10c0 5 4 9 10 15c21 19 75 67 75 126c0 16 -14 27 -22 30c-10 4 -55 16 -55 66c0 43 28 82 72 82c57 0 101 -53 101 -131zM143 279c-47 0 -82 33 -82 79c0 30 24 76 81 76c42 0 77 -32 77 -80
c0 -45 -33 -75 -76 -75z" />
    <glyph glyph-name="ampersand" unicode="&#x26;" horiz-adv-x="920" 
d="M269 -15c-142 0 -232 98 -232 173s43 134 84 170c33 29 74 56 102 70c-68 45 -99 89 -100 139c1 79 97 171 191 171c112 0 174 -71 172 -139c-2 -56 -64 -111 -120 -132c77 -33 144 -107 197 -186c36 43 59 104 59 146c0 16 -10 31 -31 31h-13c-6 0 -7 3 -7 7v24
c0 3 1 5 7 5c9 0 63 -3 115 -3c37 0 97 3 103 3s7 -3 7 -8v-21c0 -4 -1 -7 -7 -7h-17c-30 0 -47 -4 -61 -26c-8 -13 -64 -112 -125 -188c13 -10 53 -62 83 -91c15 -15 57 -58 111 -58c64 0 96 55 104 66c3 4 6 5 8 3l20 -14c2 -1 2 -4 -1 -9c-18 -33 -85 -126 -211 -126
c-113 0 -157 59 -210 119c-42 -40 -100 -119 -228 -119zM307 62c88 0 132 43 167 80c-48 80 -141 184 -217 229c-33 -20 -83 -93 -81 -176c2 -86 84 -133 131 -133zM314 666c-54 0 -70 -52 -70 -104c0 -43 46 -82 84 -100c21 14 47 38 47 110c0 44 -21 94 -61 94z" />
    <glyph glyph-name="exclam" unicode="!" horiz-adv-x="260" 
d="M124 -14c-38 0 -70 25 -70 68c0 28 20 70 74 70c45 0 71 -33 71 -71c0 -39 -25 -67 -75 -67zM130 683c53 0 77 -26 77 -73c0 -58 -57 -302 -63 -397c0 -5 -1 -7 -7 -7h-18c-6 0 -7 4 -7 10c-7 96 -55 337 -55 378c0 51 20 89 73 89z" />
    <glyph glyph-name="exclamdown" unicode="&#xa1;" horiz-adv-x="260" 
d="M138 434c45 0 71 -33 71 -73c0 -37 -25 -65 -75 -65c-38 0 -70 25 -70 66c0 30 20 72 74 72zM128 -272c-53 0 -76 28 -76 89c0 42 56 286 62 381c0 5 1 7 7 7h18c6 0 7 -4 7 -10c7 -96 56 -337 56 -378c0 -51 -21 -89 -74 -89z" />
    <glyph glyph-name="question" unicode="?" horiz-adv-x="380" 
d="M145 270v-77c0 -4 -1 -7 -7 -7h-25c-5 0 -7 2 -7 7v200c0 12 6 15 16 13c17 -3 43 -3 61 -3c41 0 95 14 95 69c0 23 -22 53 -56 67c-32 13 -62 21 -104 21c-41 0 -75 22 -75 63c0 33 21 60 62 60c92 0 245 -139 245 -266c0 -141 -126 -139 -197 -139c-7 0 -8 -3 -8 -8z
M131 -14c-48 1 -72 25 -72 64c0 35 25 68 74 68c41 0 73 -27 73 -67c0 -38 -24 -65 -75 -65z" />
    <glyph glyph-name="questiondown" unicode="&#xbf;" horiz-adv-x="365" 
d="M281 218v-200c0 -12 -6 -15 -16 -13c-17 3 -43 3 -61 3c-41 0 -95 -15 -95 -61c0 -41 22 -61 56 -75c35 -14 62 -21 104 -21c41 0 75 -22 75 -63c0 -33 -21 -60 -62 -60c-92 0 -245 139 -245 266c0 141 126 139 197 139c7 0 8 3 8 8v77c0 4 1 7 7 7h25c5 0 7 -2 7 -7z
M251 302c-48 1 -72 25 -72 64c0 35 25 68 74 68c41 0 73 -27 73 -67c0 -38 -24 -65 -75 -65z" />
    <glyph glyph-name="endash" unicode="&#x2013;" 
d="M500 231h-500v76h500v-76z" />
    <glyph glyph-name="emdash" unicode="&#x2014;" horiz-adv-x="1000" 
d="M1000 307v-76h-1000v76h1000z" />
    <glyph glyph-name="parenleft" unicode="(" horiz-adv-x="327" 
d="M277 -173c-5 0 -12 2 -19 8c-48 38 -101 90 -155 181c-43 74 -69 178 -69 271c0 91 26 189 77 276c48 82 103 138 148 176c6 6 13 8 18 8c9 0 20 -9 20 -14c0 -4 -3 -12 -8 -18c-82 -99 -126 -247 -126 -428c0 -167 46 -329 126 -427c5 -6 8 -13 8 -18s-11 -15 -20 -15z
" />
    <glyph glyph-name="parenright" unicode=")" horiz-adv-x="327" 
d="M50 747c5 0 12 -2 19 -8c48 -38 101 -90 155 -181c43 -74 69 -178 69 -270s-26 -190 -77 -277c-48 -82 -103 -138 -148 -176c-6 -6 -13 -8 -18 -8c-9 0 -20 9 -20 14c0 4 3 12 8 18c81 101 126 247 126 429c0 166 -47 328 -126 426c-5 6 -8 13 -8 18s11 15 20 15z" />
    <glyph glyph-name="bracketleft" unicode="[" horiz-adv-x="350" 
d="M89 747h215c4 0 6 -3 6 -6v-24c0 -5 -2 -8 -8 -8h-100c-7 0 -10 -2 -10 -11v-819c0 -11 1 -14 7 -14h113c6 0 8 -3 8 -9v-21c0 -6 -3 -8 -9 -8h-221c-8 0 -11 4 -11 11v900c0 7 4 9 10 9z" />
    <glyph glyph-name="bracketright" unicode="]" horiz-adv-x="350" 
d="M260 -173h-221c-6 0 -9 2 -9 8v21c0 6 0 9 8 9h114c5 0 6 4 6 12v821c0 9 -2 11 -9 11h-101c-6 0 -8 3 -8 8v24c0 3 2 6 6 6h215c6 0 10 -2 10 -9v-900c0 -7 -3 -11 -11 -11z" />
    <glyph glyph-name="braceleft" unicode="{" horiz-adv-x="350" 
d="M119 297c0 -13 25 -18 43 -32c41 -30 58 -64 58 -117c0 -28 -6 -53 -12 -80c-7 -27 -13 -56 -13 -90c1 -74 40 -120 118 -120c11 0 13 -6 13 -17c0 -9 -2 -14 -23 -14c-171 0 -222 61 -222 159c0 94 40 136 40 200c0 49 -14 90 -66 94c-14 1 -20 8 -20 17
c0 12 6 19 20 19c53 0 66 32 66 84c0 31 -10 61 -20 92s-20 63 -20 97c0 98 55 158 223 158c17 0 22 -5 22 -14c0 -11 -3 -17 -12 -17c-80 0 -119 -43 -119 -110c0 -66 25 -107 25 -159c0 -55 -26 -102 -59 -120c-21 -11 -42 -17 -42 -30z" />
    <glyph glyph-name="braceright" unicode="}" horiz-adv-x="350" 
d="M231 297c0 13 -25 18 -43 32c-41 30 -58 64 -58 117c0 28 6 54 13 79c6 26 12 52 12 81c-1 64 -40 110 -118 110c-11 0 -13 6 -13 17c0 9 2 14 23 14c171 0 222 -61 222 -159c0 -74 -40 -116 -40 -180c0 -49 14 -90 66 -94c14 -1 20 -8 20 -17c0 -12 -6 -19 -20 -19
c-53 0 -66 -32 -66 -84c0 -31 10 -61 20 -94c10 -34 20 -70 20 -115c0 -98 -55 -158 -223 -158c-17 0 -22 5 -22 14c0 11 3 17 12 17c80 0 119 43 119 110c0 86 -25 127 -25 179c0 59 26 101 59 119c21 12 42 18 42 31z" />
    <glyph glyph-name="at" unicode="@" horiz-adv-x="803" 
d="M500 479c0 26 -10 47 -32 47c-73 0 -141 -187 -141 -252c0 -21 8 -33 25 -33c28 0 113 126 128 161c14 34 20 60 20 77zM555 552h73c8 0 9 -8 5 -17c-8 -18 -45 -122 -60 -167c-11 -34 -29 -101 -29 -128c0 -14 13 -20 21 -20c37 0 131 76 131 247
c0 147 -81 215 -216 215c-204 0 -364 -209 -364 -403c0 -161 109 -249 252 -248c58 0 120 4 181 34c5 2 7 3 9 0l10 -19c2 -4 1 -9 -4 -12c-47 -29 -130 -49 -211 -49c-220 0 -338 116 -338 280c0 237 227 458 476 458c198 0 297 -104 297 -267c0 -130 -113 -280 -305 -280
c-26 0 -44 16 -44 33c0 14 5 51 25 104l-5 2c-32 -46 -94 -139 -187 -139c-33 0 -63 20 -63 66c0 125 156 319 272 319c29 0 45 -14 51 -35l13 19c4 6 6 7 10 7z" />
    <glyph glyph-name="slash" unicode="/" horiz-adv-x="375" 
d="M9 26l293 693c3 6 7 8 13 6l50 -21c5 -2 5 -7 1 -17l-294 -693c-4 -9 -9 -10 -13 -8l-49 22c-6 3 -5 10 -1 18z" />
    <glyph glyph-name="backslash" unicode="\" horiz-adv-x="375" 
d="M12 712l52 21c5 2 8 -1 10 -5l293 -704c2 -6 3 -13 -2 -14l-54 -22c-4 -2 -7 0 -12 12l-291 698c-2 7 -2 11 4 14z" />
    <glyph glyph-name="underscore" unicode="_" 
d="M0 -125v50h500v-50h-500z" />
    <glyph glyph-name="asterisk" unicode="*" horiz-adv-x="328" 
d="M164 399c-26 0 -42 17 -42 41c0 20 32 94 35 104l-4 3c-13 -14 -61 -75 -77 -85s-38 -5 -52 17c-15 23 1 50 16 57c13 6 100 22 108 24v5c-10 2 -94 15 -109 21c-21 8 -32 26 -18 53c15 30 38 26 53 18c12 -6 76 -76 80 -81l4 3c-3 9 -36 83 -36 103c0 26 16 41 42 41
c25 0 42 -12 42 -36c0 -20 -33 -102 -36 -108l5 -4c5 6 58 73 73 81c21 11 41 6 53 -16c11 -21 5 -45 -15 -56c-12 -7 -101 -19 -107 -19v-5c6 -1 91 -13 114 -24c13 -6 25 -33 11 -57c-12 -20 -39 -26 -58 -12c-18 13 -68 78 -71 81l-5 -3c2 -9 36 -77 36 -105
c0 -21 -12 -41 -42 -41z" />
    <glyph glyph-name="section" unicode="&#xa7;" horiz-adv-x="540" 
d="M230 -135c-75 0 -130 22 -130 64c0 31 17 48 48 48c27 0 47 -13 62 -36c17 -25 31 -36 54 -36c29 0 64 28 64 77c0 83 -85 113 -171 183c-62 49 -93 103 -93 174c0 63 43 116 90 136c-26 26 -32 68 -32 103s18 67 40 92c40 44 90 53 155 53c70 0 121 -29 121 -68
c0 -34 -21 -46 -56 -46c-30 0 -40 14 -59 44c-11 18 -26 32 -45 32c-33 1 -70 -31 -70 -84c0 -57 56 -85 150 -144c77 -49 120 -96 119 -176c1 -83 -48 -122 -97 -144c33 -39 43 -71 43 -112c0 -45 -19 -84 -49 -115c-33 -34 -98 -45 -144 -45zM170 448
c-22 -14 -31 -36 -31 -67c0 -29 16 -54 54 -88c86 -67 147 -104 163 -128c25 8 43 36 43 60c0 25 -2 50 -65 98c-102 70 -143 91 -164 125z" />
    <glyph glyph-name="paragraph" unicode="&#xb6;" horiz-adv-x="574" 
d="M363 667v-788c0 -11 -1 -14 -7 -14h-35c-6 0 -7 4 -7 16v350c-89 6 -264 37 -264 237c0 196 148 240 386 240h87c16 0 19 -1 19 -7v-19c0 -6 -2 -7 -7 -8l-59 -2v-799c0 -6 -1 -8 -7 -8h-35c-6 0 -7 2 -7 15v791c-12 0 -49 -2 -64 -4z" />
    <glyph glyph-name="periodcentered" unicode="&#xb7;" horiz-adv-x="280" 
d="M143 277c-47 0 -82 33 -82 79c0 30 24 76 81 76c42 0 77 -32 77 -80c0 -45 -33 -75 -76 -75z" />
    <glyph glyph-name="dagger" unicode="&#x2020;" 
d="M261 -135h-21c-6 0 -7 4 -7 12c-1 93 -43 380 -61 425c11 13 57 53 57 129c-38 0 -104 -50 -146 -50c-39 0 -63 27 -63 60c0 40 31 61 63 61c42 0 106 -43 146 -43c0 71 -46 151 -46 195c0 30 25 69 69 69c52 0 69 -39 69 -69c0 -44 -50 -124 -50 -195
c40 0 102 43 146 43c38 0 63 -25 63 -61c0 -31 -22 -60 -67 -60c-36 0 -102 50 -142 50c0 -76 45 -114 57 -129c-19 -45 -59 -324 -60 -428c0 -6 -1 -9 -7 -9z" />
    <glyph glyph-name="daggerdbl" unicode="&#x2021;" 
d="M252 723c50 0 69 -39 69 -74c0 -39 -50 -129 -50 -190c52 0 113 43 149 43c39 0 60 -27 60 -61c0 -30 -19 -60 -60 -60c-31 0 -94 50 -149 50c0 -62 28 -92 48 -130c-17 -23 -48 -81 -48 -144c55 0 109 50 149 50c36 0 60 -29 60 -60c0 -37 -31 -61 -64 -61
c-36 0 -92 44 -145 44c0 -102 47 -151 47 -196c0 -30 -27 -69 -71 -69c-45 0 -67 39 -67 69c0 45 49 94 50 196c-55 0 -119 -44 -149 -44c-34 0 -61 27 -61 61c0 31 35 60 59 60c32 0 96 -50 151 -50c0 63 -35 123 -48 144c17 36 48 68 48 130c-53 0 -119 -50 -151 -50
c-28 0 -59 20 -59 60c0 35 33 61 63 61c28 0 92 -43 147 -43c0 61 -47 151 -47 190c0 35 27 74 69 74z" />
    <glyph glyph-name="bullet" unicode="&#x2022;" horiz-adv-x="340" 
d="M168 228c-67 0 -137 49 -137 132c0 88 69 138 140 138c70 0 138 -47 138 -138c0 -84 -69 -132 -141 -132z" />
    <glyph glyph-name="emdash.alt" horiz-adv-x="750" 
d="M750 231h-750v76h750v-76z" />
    <glyph glyph-name="onedotenleader" unicode="&#x2024;" 
d="M253 -14c-47 0 -82 33 -82 79c0 30 24 76 81 76c42 0 77 -32 77 -80c0 -45 -33 -75 -76 -75z" />
    <glyph glyph-name="twodotenleader" unicode="&#x2025;" 
d="M128 -14c-47 0 -82 33 -82 79c0 30 24 76 81 76c42 0 77 -32 77 -80c0 -45 -33 -75 -76 -75zM378 -14c-47 0 -82 33 -82 79c0 30 24 76 81 76c42 0 77 -32 77 -80c0 -45 -33 -75 -76 -75z" />
    <glyph glyph-name="ellipsis" unicode="&#x2026;" horiz-adv-x="1000" 
d="M169 -14c-47 0 -82 33 -82 79c0 30 24 76 81 76c42 0 77 -32 77 -80c0 -45 -33 -75 -76 -75zM837 -14c-47 0 -82 33 -82 79c0 30 24 76 81 76c42 0 77 -32 77 -80c0 -45 -33 -75 -76 -75zM503 -14c-47 0 -82 33 -82 79c0 30 24 76 81 76c42 0 77 -32 77 -80
c0 -45 -33 -75 -76 -75z" />
    <glyph glyph-name="copyright" unicode="&#xa9;" horiz-adv-x="825" 
d="M420 134c-64 0 -122 20 -159 55c-44 44 -67 97 -67 168c0 56 20 113 66 156c45 43 98 63 163 63c50 0 89 -16 103 -27c6 -4 11 -4 13 0l4 16c1 3 6 4 19 4c5 0 6 -1 7 -10c1 -15 12 -114 15 -130c1 -4 0 -7 -4 -8l-15 -4c-4 -1 -7 0 -9 5c-12 28 -29 56 -50 78
c-25 27 -48 34 -83 34c-60 0 -112 -70 -109 -162c1 -36 10 -98 39 -126c29 -29 64 -46 94 -46c63 0 106 26 134 51c6 6 10 10 14 6l12 -10c3 -2 2 -7 -1 -12c-38 -53 -98 -101 -186 -101zM413 -15c-224 0 -366 163 -366 369c0 210 163 369 366 369c212 0 366 -150 366 -369
c0 -207 -144 -369 -366 -369zM413 32c225 0 303 181 303 322c0 233 -178 322 -303 322c-171 0 -303 -126 -303 -322c0 -239 178 -322 303 -322z" />
    <glyph glyph-name="registered" unicode="&#xae;" horiz-adv-x="562" 
d="M281 723c140 0 236 -94 236 -229c0 -129 -93 -230 -236 -230c-148 0 -236 101 -236 230c0 130 101 229 236 229zM281 299c148 0 191 111 191 195c-5 141 -108 194 -191 194c-112 0 -191 -76 -191 -194c0 -145 108 -195 191 -195zM255 484v-22c0 -22 0 -60 2 -66
c0 -8 3 -15 7 -15h18c2 0 3 -1 3 -3v-11c0 -2 -1 -3 -5 -3s-37 1 -61 1c-18 0 -49 -1 -53 -1c-3 0 -4 1 -4 3v11c0 2 1 3 2 3h9c10 0 18 3 18 22v192c0 12 -6 18 -18 18h-7c-2 0 -3 1 -3 3v12c0 2 1 3 3 3c3 0 42 -2 51 -2c7 0 61 2 68 2c42 0 72 -10 85 -21
c13 -14 18 -31 18 -45c0 -48 -45 -69 -68 -75v-1c0 -4 16 -9 21 -14c10 -11 23 -32 32 -47c10 -17 22 -33 27 -39c6 -7 13 -8 18 -8c2 0 3 -1 3 -4v-10c0 -2 -1 -3 -4 -3c-2 0 -19 1 -28 1c-18 0 -33 -1 -41 -1c-5 3 -15 16 -18 21c-3 4 -25 41 -28 47c-15 30 -26 52 -39 52
h-8zM255 613v-113h8c50 -1 60 44 60 58c0 33 -32 56 -50 56c-5 0 -11 -1 -18 -1z" />
    <glyph glyph-name="trademark" unicode="&#x2122;" horiz-adv-x="910" 
d="M131 389v288c-10 0 -33 1 -48 -5c-20 -9 -36 -32 -49 -61c0 -5 -4 -6 -7 -5l-19 4c-3 1 -3 3 -3 5c5 30 19 95 20 100c1 6 4 8 7 8c4 0 6 -1 9 -4c4 -3 20 -10 39 -11c25 -1 58 -3 100 -3c39 0 85 2 112 3c18 0 33 7 38 12c2 2 4 3 8 3s5 -2 6 -8s8 -68 12 -102
c0 -3 -2 -4 -5 -5l-16 -3c-4 -1 -6 1 -8 5c-5 13 -26 48 -44 59c-16 9 -43 8 -53 8v-132c0 -6 -1 -139 0 -147c2 -13 6 -20 18 -20h22c3 0 5 -2 5 -6v-19c0 -3 -1 -4 -5 -4c-5 0 -53 1 -92 1c-31 0 -81 -1 -87 -1c-5 0 -6 1 -6 5v18c0 4 1 6 5 6h23c11 0 17 5 18 11z
M373 355v16c0 3 1 7 4 7h12c17 0 29 21 32 39c5 38 8 142 8 156v80c0 20 -11 28 -28 28h-16c-2 0 -3 1 -3 5v18c0 4 2 6 4 6c4 0 35 -2 63 -2c38 0 75 2 90 2c11 0 14 -1 17 -10l74 -196l76 195c3 7 8 9 12 9h132c5 0 8 -1 8 -4v-16c0 -6 -1 -7 -4 -7h-10
c-15 0 -17 -9 -17 -21c0 -8 -2 -122 -2 -132c0 -11 2 -113 2 -123c0 -16 5 -27 17 -27h19c4 0 4 -2 4 -6v-17c0 -4 0 -6 -5 -6c-7 0 -51 1 -87 1c-30 0 -78 -1 -83 -1c-4 0 -5 2 -5 6v16c0 4 1 7 5 7h20c11 0 17 8 19 18c1 9 1 116 1 125v134h-4l-117 -286
c-3 -5 -8 -12 -13 -12c-7 0 -13 2 -16 9l-113 288h-6v-117c0 -7 -1 -90 1 -114c2 -28 14 -45 33 -45h12c3 0 4 -3 4 -7v-16c0 -4 -1 -5 -5 -5h-64c-16 0 -61 -1 -66 -1c-5 1 -4 0 -5 6z" />
    <glyph glyph-name="quotedbl" unicode="&#x22;" horiz-adv-x="375" 
d="M119 431h-34c-8 71 -42 206 -42 235c0 28 19 57 59 57c42 0 58 -29 58 -56c0 -30 -33 -165 -41 -236zM290 431h-33c-8 71 -42 206 -42 235c0 28 19 57 58 57c43 0 59 -29 59 -56c0 -30 -33 -165 -42 -236z" />
    <glyph glyph-name="quotesingle" unicode="'" horiz-adv-x="200" 
d="M119 431h-34c-9 71 -43 201 -43 235c0 28 20 57 60 57s57 -29 57 -56c0 -35 -32 -165 -40 -236z" />
    <glyph glyph-name="quoteleft" unicode="&#x2018;" horiz-adv-x="200" 
d="M105 435c-46 0 -93 35 -93 101c0 105 97 169 112 177c11 6 21 10 28 10c6 0 10 -3 10 -8s-5 -11 -10 -15c-14 -10 -53 -62 -53 -111c0 -13 7 -25 15 -29c9 -5 51 -14 51 -67c0 -31 -25 -58 -60 -58z" />
    <glyph glyph-name="quoteright" unicode="&#x2019;" horiz-adv-x="200" 
d="M95 723c46 0 93 -35 93 -101c0 -105 -97 -169 -112 -177c-11 -6 -21 -10 -28 -10c-6 0 -10 3 -10 8s5 11 10 15c14 10 53 62 53 111c0 13 -7 25 -15 29c-9 5 -51 14 -51 67c0 31 25 58 60 58z" />
    <glyph glyph-name="quotedblleft" unicode="&#x201c;" horiz-adv-x="400" 
d="M117 435c-46 0 -93 35 -93 101c0 105 97 169 112 177c11 6 21 10 28 10c6 0 10 -3 10 -8s-5 -11 -10 -15c-14 -10 -53 -62 -53 -111c0 -13 7 -25 15 -29c9 -5 51 -14 51 -67c0 -31 -25 -58 -60 -58zM306 435c-46 0 -93 35 -93 101c0 105 97 169 112 177c11 6 21 10 28 10
c6 0 10 -3 10 -8s-5 -11 -10 -15c-14 -10 -53 -62 -53 -111c0 -13 7 -25 15 -29c9 -5 51 -14 51 -67c0 -31 -25 -58 -60 -58z" />
    <glyph glyph-name="quotedblright" unicode="&#x201d;" horiz-adv-x="400" 
d="M94 723c46 0 93 -35 93 -101c0 -105 -97 -169 -112 -177c-11 -6 -21 -10 -28 -10c-6 0 -10 3 -10 8s5 11 10 15c14 10 53 62 53 111c0 13 -7 25 -15 29c-9 5 -51 14 -51 67c0 31 25 58 60 58zM283 723c46 0 93 -35 93 -101c0 -105 -97 -169 -112 -177
c-11 -6 -21 -10 -28 -10c-6 0 -10 3 -10 8s5 11 10 15c14 10 53 62 53 111c0 13 -7 25 -15 29c-9 5 -51 14 -51 67c0 31 25 58 60 58z" />
    <glyph glyph-name="quotesinglbase" unicode="&#x201a;" horiz-adv-x="200" 
d="M95 128c46 0 93 -35 93 -101c0 -105 -97 -169 -112 -177c-11 -6 -21 -10 -28 -10c-6 0 -10 3 -10 8s5 11 10 15c14 10 53 62 53 111c0 13 -7 25 -15 29c-9 5 -51 14 -51 67c0 31 25 58 60 58z" />
    <glyph glyph-name="quotedblbase" unicode="&#x201e;" horiz-adv-x="400" 
d="M94 128c46 0 93 -35 93 -101c0 -105 -97 -169 -112 -177c-11 -6 -21 -10 -28 -10c-6 0 -10 3 -10 8s5 11 10 15c14 10 53 62 53 111c0 13 -7 25 -15 29c-9 5 -51 14 -51 67c0 31 25 58 60 58zM283 128c46 0 93 -35 93 -101c0 -105 -97 -169 -112 -177
c-11 -6 -21 -10 -28 -10c-6 0 -10 3 -10 8s5 11 10 15c14 10 53 62 53 111c0 13 -7 25 -15 29c-9 5 -51 14 -51 67c0 31 25 58 60 58z" />
    <glyph glyph-name="guilsinglleft" unicode="&#x2039;" horiz-adv-x="270" 
d="M191 50l-155 151c-5 5 -8 8 -8 12c0 5 5 8 9 11l155 150c2 2 4 4 6 4s3 -1 5 -3l24 -16c1 -1 3 -2 3 -4s-2 -4 -3 -6l-72 -137l72 -138c2 -3 3 -5 3 -6c0 -2 -1 -3 -3 -4l-25 -17c-1 -1 -3 -1 -4 -1c-2 0 -4 2 -7 4z" />
    <glyph glyph-name="guilsinglright" unicode="&#x203a;" horiz-adv-x="270" 
d="M115 212l-72 138c-2 3 -3 5 -3 6c0 2 1 3 3 4l25 17c1 1 3 1 4 1c2 0 4 -2 7 -4l155 -151c5 -5 8 -8 8 -12c0 -5 -5 -8 -9 -11l-155 -150c-2 -2 -4 -4 -6 -4s-3 1 -5 3l-24 16c-1 1 -3 2 -3 4s2 4 3 6z" />
    <glyph glyph-name="guillemotleft" unicode="&#xab;" horiz-adv-x="435" 
d="M148 212l65 -138c1 -3 2 -5 2 -6c0 -2 -1 -3 -3 -4l-25 -17c-1 -1 -3 -1 -4 -1c-2 0 -4 2 -6 5l-141 147c-6 7 -8 11 -8 15c0 5 4 9 9 14l140 147c2 2 4 4 6 4s3 -1 5 -3l24 -16c1 -1 3 -2 3 -4s-2 -4 -3 -6zM328 212l65 -138c1 -3 2 -5 2 -6c0 -2 -1 -3 -3 -4l-25 -17
c-1 -1 -3 -1 -4 -1c-2 0 -4 2 -6 5l-141 147c-6 7 -8 11 -8 15c0 5 4 9 9 14l140 147c2 2 4 4 6 4s3 -1 5 -3l24 -16c1 -1 3 -2 3 -4s-2 -4 -3 -6z" />
    <glyph glyph-name="guillemotright" unicode="&#xbb;" horiz-adv-x="435" 
d="M107 212l-65 138c-1 3 -2 5 -2 6c0 2 1 3 3 4l25 17c1 1 3 1 4 1c2 0 4 -2 6 -5l141 -147c6 -7 8 -11 8 -15c0 -5 -4 -9 -9 -14l-140 -147c-2 -2 -4 -4 -6 -4s-3 1 -5 3l-24 16c-1 1 -3 2 -3 4s2 4 3 6zM287 212l-65 138c-1 3 -2 5 -2 6c0 2 1 3 3 4l25 17c1 1 3 1 4 1
c2 0 4 -2 6 -5l141 -147c6 -7 8 -11 8 -15c0 -5 -4 -9 -9 -14l-140 -147c-2 -2 -4 -4 -6 -4s-3 1 -5 3l-24 16c-1 1 -3 2 -3 4s2 4 3 6z" />
    <glyph glyph-name="zero" unicode="0" 
d="M254 683c186 0 219 -191 219 -343c0 -229 -74 -355 -218 -355c-176 0 -227 194 -227 321c0 223 78 377 226 377zM259 642c-35 0 -54 -28 -62 -66c-16 -73 -28 -176 -28 -259c0 -95 4 -170 16 -213c16 -57 35 -78 71 -78c34 0 55 20 64 65c9 49 13 125 13 271
c0 168 -19 280 -74 280z" />
    <glyph glyph-name="one" unicode="1" 
d="M198 280v218c0 24 -5 46 -23 46c-10 0 -23 -1 -45 -7l-49 -14c-5 -1 -9 -1 -11 3l-7 20c-2 4 -1 8 6 12l243 119c7 3 12 6 19 6c6 0 9 -7 9 -15s-3 -165 -3 -294v-42c0 -52 1 -224 1 -235c1 -52 5 -59 55 -59h36c7 0 10 -3 10 -8v-26c0 -5 -3 -7 -11 -7
c-7 0 -143 3 -160 3c-29 0 -170 -3 -175 -3c-6 0 -8 2 -8 7v27c0 6 6 7 14 7h26c55 0 70 3 72 54c2 42 1 152 1 188z" />
    <glyph glyph-name="two" unicode="2" 
d="M312 0h-217c-17 0 -35 -1 -50 -2s-27 -2 -31 -2c-5 0 -8 0 -11 6c-3 7 -1 18 6 24c36 33 121 112 194 205c62 78 102 156 99 243c-3 74 -49 124 -116 122c-58 -3 -95 -42 -117 -78c-5 -8 -8 -8 -12 -6l-17 7c-3 2 -4 5 0 14c16 39 71 150 215 150c109 0 190 -83 190 -182
c0 -85 -40 -167 -151 -271c-58 -54 -103 -91 -134 -120v-4h173c65 0 91 39 113 76c5 9 8 11 18 6c11 -5 15 -9 12 -16l-71 -185c-3 -8 -6 -11 -15 -11c-8 0 -9 2 -13 10c-6 13 -25 14 -65 14z" />
    <glyph glyph-name="three" unicode="3" 
d="M180 -15c-123 0 -156 50 -156 78c0 26 19 51 42 52c40 0 57 -33 66 -52c6 -13 20 -35 65 -35c71 0 116 66 116 138c0 90 -45 148 -141 170c-20 5 -23 9 -23 19c0 12 3 16 17 19c78 15 127 58 127 135c0 46 -29 97 -91 97c-56 0 -92 -42 -113 -94c-5 -12 -9 -13 -12 -12
l-20 6c-5 1 -6 6 -4 15c14 69 74 162 200 162c121 0 172 -77 175 -137c0 -79 -61 -132 -128 -168v-2c79 -13 162 -82 162 -170c0 -117 -115 -221 -282 -221z" />
    <glyph glyph-name="four" unicode="4" 
d="M401 0h-102c-9 0 -12 1 -12 11v146h-258c-18 0 -30 7 -30 19c0 16 10 29 18 39l358 452c6 8 14 16 26 16c10 0 14 -7 14 -34v-401h63c7 0 12 -4 12 -9v-72c0 -6 -3 -10 -16 -10h-59v-143c0 -11 -2 -14 -14 -14zM114 248h174v221c0 14 -10 14 -19 2l-162 -203
c-9 -11 -6 -20 7 -20z" />
    <glyph glyph-name="five" unicode="5" 
d="M155 551l-17 -110c20 1 99 -7 148 -25c72 -27 131 -88 131 -189c0 -132 -123 -242 -279 -242c-67 0 -122 27 -122 56c0 23 13 35 27 34c22 -2 37 -11 58 -24c14 -8 37 -15 66 -15c57 0 134 33 134 137c0 66 -36 107 -72 125c-38 20 -94 28 -132 28c-12 0 -17 5 -16 15
l37 311c1 12 3 16 16 16h222c35 0 43 17 60 50c4 7 7 8 20 3c8 -2 11 -6 9 -15l-38 -134c-5 -17 -10 -21 -41 -21h-211z" />
    <glyph glyph-name="six" unicode="6" 
d="M238 -15c-71 0 -116 24 -148 66c-55 73 -61 143 -61 197c0 136 65 245 130 310c67 66 133 97 196 116c27 8 40 9 46 9s15 -5 15 -12c0 -9 -5 -17 -23 -24c-80 -30 -188 -148 -214 -269l6 -3c21 20 65 39 110 39c124 0 174 -98 174 -186s-28 -144 -65 -178
c-46 -43 -89 -65 -166 -65zM248 22c37 0 84 15 84 155c0 95 -28 172 -86 172c-29 0 -47 -4 -59 -17c-20 -20 -20 -63 -20 -133c0 -58 13 -177 81 -177z" />
    <glyph glyph-name="seven" unicode="7" 
d="M185 668h301c5 0 10 -3 10 -11s-11 -26 -18 -37c-14 -22 -79 -139 -119 -239c-54 -133 -75 -219 -102 -319c-11 -39 -38 -77 -84 -77c-34 0 -60 25 -60 63c0 32 25 84 44 117c17 31 193 319 238 389h-231c-60 0 -71 -19 -100 -55c-6 -8 -12 -7 -21 -2s-9 6 -6 15l63 186
c2 6 3 7 15 7c11 0 15 -3 13 -18c-2 -14 6 -19 57 -19z" />
    <glyph glyph-name="eight" unicode="8" 
d="M248 -15c-146 0 -199 75 -199 140c0 88 54 142 127 187c-82 59 -131 93 -131 179c0 81 76 192 229 192c105 0 180 -66 180 -137c0 -76 -29 -121 -128 -178c89 -47 142 -101 142 -200c0 -83 -80 -183 -220 -183zM247 24c63 0 98 42 98 115c0 58 -35 94 -134 149
c-34 -27 -66 -76 -66 -141c0 -85 62 -123 102 -123zM264 637c-63 0 -92 -59 -92 -121c0 -53 29 -79 115 -128c36 25 68 69 68 131c0 67 -33 120 -91 118z" />
    <glyph glyph-name="nine" unicode="9" 
d="M248 683c82 0 128 -21 168 -74c46 -62 56 -126 56 -157c0 -135 -55 -285 -162 -375c-57 -48 -100 -70 -160 -87c-10 -3 -24 -5 -31 -5c-8 0 -16 3 -16 15c0 7 6 14 13 17c84 32 178 140 199 279h-7c-15 -12 -50 -29 -110 -29c-119 0 -166 105 -166 178s34 151 72 183
c43 37 87 55 144 55zM251 646c-59 0 -89 -57 -89 -149c0 -99 41 -172 95 -172c23 0 43 7 56 20c16 18 15 80 15 126c0 93 -15 175 -77 175z" />
    <glyph glyph-name="zero.slash" 
d="M473 340c0 -229 -74 -355 -218 -355c-57 0 -101 20 -134 52l-28 -53c-5 -9 -10 -9 -14 -7l-33 20c-6 3 -4 10 0 18l37 70c-40 66 -55 153 -55 221c0 223 78 377 225 377c53 0 94 -15 125 -41l20 37c3 6 8 8 14 5l34 -18c5 -3 5 -8 0 -17l-28 -53c44 -69 55 -169 55 -256z
M323 536c-11 67 -31 106 -64 106c-35 0 -54 -28 -62 -66c-16 -73 -28 -176 -28 -259c0 -24 0 -47 1 -69l152 288h1zM334 362c0 25 0 49 -1 72l-155 -291c2 -15 5 -28 8 -39c16 -57 35 -78 71 -78c34 0 55 20 64 65c9 49 13 125 13 271z" />
    <glyph glyph-name="dollar" unicode="$" 
d="M291 -40h-20c-6 0 -7 3 -7 10l1 49c-11 -1 -42 1 -52 4l-2 -54c0 -6 -2 -9 -7 -9h-22c-6 0 -7 3 -7 10l2 59c-27 8 -57 22 -74 32c-12 7 -18 10 -22 10c-6 0 -10 -5 -18 -19c-2 -4 -8 -5 -14 -5s-10 4 -9 17c4 39 13 148 16 171c0 5 3 7 7 7l22 -1c4 0 6 -1 6 -7
c2 -27 3 -55 20 -97c15 -24 41 -49 67 -64l7 221c-41 10 -68 25 -92 46c-34 31 -51 68 -51 129c0 75 31 112 66 140c21 17 55 31 85 35l2 56c0 7 2 9 7 9h22c5 0 7 -3 7 -9l-1 -52c15 1 35 0 51 -2l1 53c0 9 2 10 7 10h22c5 0 7 -3 7 -9l-2 -59c20 -4 36 -9 59 -16
c8 -2 13 -1 18 3l11 12c4 4 7 4 12 4c6 0 9 -4 9 -12c0 -54 2 -141 3 -161c0 -4 -2 -7 -5 -7l-21 -3c-3 0 -5 0 -6 3c-8 27 -17 66 -35 90c-8 10 -23 32 -44 42l-8 -204c101 -28 151 -74 151 -188c0 -83 -54 -163 -160 -181l-1 -53c0 -8 -3 -10 -8 -10zM274 400l6 208
c-14 5 -38 8 -51 5l-6 -201c9 -5 29 -8 51 -12zM188 425l4 179c-45 -19 -52 -63 -52 -96c0 -45 17 -69 48 -83zM221 286l-7 -226c8 -3 34 -5 52 -4l6 216c-26 7 -40 10 -51 14zM307 261l-6 -200c34 13 61 47 61 109c0 33 -17 73 -55 91z" />
    <glyph glyph-name="cent" unicode="&#xa2;" 
d="M246 191l15 321c-37 -1 -85 -43 -85 -150c0 -54 17 -108 43 -146c8 -10 17 -18 27 -25zM303 506l-16 -328c10 -1 19 -2 28 -2c42 0 85 14 119 41c5 4 8 3 9 1l16 -16c3 -3 2 -7 -3 -12c-27 -33 -86 -79 -172 -81l-5 -116c0 -4 -2 -5 -5 -5h-31c-3 0 -5 2 -5 5l5 117
c-74 4 -112 23 -148 63c-48 54 -55 96 -55 146c0 97 77 216 223 233l4 96c0 4 3 6 6 6h31c3 0 5 -1 5 -5l-4 -95c119 -2 150 -60 150 -94c-1 -33 -16 -49 -54 -49c-36 0 -54 20 -61 41c-11 33 -20 48 -37 54z" />
    <glyph glyph-name="Euro" unicode="&#x20ac;" 
d="M16 253c-6 0 -7 2 -6 6l10 29c1 4 2 6 6 6h55c-1 11 -1 28 -1 40c0 13 0 32 1 46h-59c-6 0 -7 2 -6 6l9 29c2 3 2 6 6 6h54c8 54 24 104 55 157c39 66 101 105 169 105c71 0 93 -33 112 -48c9 -9 16 -6 18 4l4 22c1 6 5 6 13 6s12 -2 12 -16c0 -18 9 -137 12 -167
c1 -6 0 -9 -2 -10l-17 -4c-7 -3 -10 9 -13 16c-23 59 -49 156 -126 156c-55 0 -94 -64 -100 -221h202c6 0 9 -3 8 -6l-9 -26c-1 -4 -3 -9 -9 -9h-194c0 -13 -1 -32 -1 -46c0 -12 1 -29 1 -40h161c6 0 9 -2 8 -6l-9 -27c-1 -4 -2 -8 -8 -8h-151c5 -156 46 -227 103 -227
c74 0 107 100 127 165c3 7 7 10 11 9l16 -5c2 -1 3 -4 2 -10c-3 -30 -12 -151 -12 -169c0 -16 -4 -16 -12 -16s-12 -1 -13 6l-5 27c-2 8 -8 9 -17 1c-21 -19 -51 -49 -109 -49c-70 0 -133 39 -172 105c-29 50 -48 106 -56 163h-68z" />
    <glyph glyph-name="sterling" unicode="&#xa3;" 
d="M28 278h85c9 15 50 169 74 234c34 93 123 171 231 171c86 0 121 -45 121 -86c0 -28 -21 -45 -48 -45c-31 0 -52 10 -65 37c-12 24 -6 56 -40 56c-20 0 -29 -33 -59 -154c-23 -94 -83 -181 -105 -213h143c7 0 9 -1 9 -6v-29c0 -5 -2 -7 -10 -7h-171
c-26 -40 -63 -80 -95 -107v-2c136 14 150 -11 221 -73c20 -18 35 -32 56 -32c14 0 26 17 29 29c4 15 -3 18 -14 18c-31 0 -50 17 -50 42c0 33 27 60 55 60c40 0 73 -33 73 -74c0 -50 -31 -117 -141 -117c-93 0 -123 12 -184 73c-28 28 -39 43 -58 41c-4 -14 -14 -34 -28 -56
c-17 -27 -41 -43 -67 -43c-17 0 -29 8 -29 25c0 40 52 94 89 102c13 13 38 75 51 114h-71c-6 0 -9 1 -9 7v29c0 4 1 6 7 6z" />
    <glyph glyph-name="currency" unicode="&#xa4;" 
d="M486 139l-33 -35c-4 -5 -9 -4 -14 0l-86 81c-26 -19 -73 -28 -107 -28c-31 0 -74 8 -104 31l-82 -85c-3 -4 -9 -2 -12 1l-33 37c-4 4 -4 8 1 12l82 79c-20 21 -38 60 -39 101c2 39 13 83 42 114l-83 74c-7 7 -6 12 -2 17l34 36c3 4 7 4 12 -1l88 -83c22 15 68 27 109 27
s73 -12 95 -27l84 82c4 4 7 4 11 0l33 -33c4 -4 5 -9 2 -12l-80 -75c23 -26 38 -73 38 -109c0 -42 -14 -85 -39 -112l84 -81c3 -3 2 -7 -1 -11zM251 227c66 0 99 45 99 110c0 61 -34 110 -97 110c-68 0 -101 -51 -101 -110c0 -58 38 -110 99 -110z" />
    <glyph glyph-name="yen" unicode="&#xa5;" 
d="M384 29v-23c0 -6 0 -9 -7 -9c-12 0 -51 3 -126 3c-99 0 -130 -3 -141 -3c-4 0 -6 3 -6 8v24c0 4 1 7 7 7h39c21 0 31 10 32 25c1 14 1 53 1 88v25h-139c-4 0 -5 1 -5 5v31c0 4 2 5 5 5h139v62h-140c-3 0 -4 1 -4 5v31c0 4 3 5 7 5h124c-22 45 -121 258 -139 290
c-8 14 -29 24 -45 24h-15c-6 0 -7 3 -7 7v26c0 4 1 6 7 6c9 0 56 -3 116 -3c83 0 119 3 129 3c6 0 7 -2 7 -5v-25c0 -5 -1 -9 -7 -9h-15c-18 0 -28 -8 -28 -23s88 -223 108 -268h2c16 43 112 245 112 261s-7 30 -34 30h-24c-6 0 -7 3 -7 9v24c0 4 1 6 7 6c10 0 51 -3 100 -3
c69 0 91 3 100 3c7 0 8 -2 8 -6v-24c0 -6 -1 -9 -8 -9h-18c-12 0 -33 -11 -47 -24c-12 -11 -119 -211 -160 -290h135c4 0 6 -1 6 -5v-31c0 -4 -2 -5 -7 -5h-141v-62h142c4 0 6 -1 6 -5v-31c0 -4 -2 -5 -8 -5h-140v-23c0 -19 0 -50 2 -80c2 -32 20 -35 36 -35h34
c7 0 7 -3 7 -7z" />
    <glyph glyph-name="florin" unicode="&#x192;" 
d="M399 353h-104l-18 -156c-25 -220 -126 -327 -238 -327c-68 0 -104 43 -104 71c0 33 14 54 39 54c32 0 48 -25 53 -43c8 -28 21 -40 49 -40c32 0 48 58 63 220l21 221h-74c-5 0 -8 2 -6 9l7 27c1 5 3 6 9 6h69c11 82 28 153 84 211s101 77 166 77c81 0 117 -45 117 -80
c0 -30 -20 -46 -55 -46c-29 0 -39 21 -48 49c-5 18 -19 35 -37 35c-44 0 -77 -56 -89 -198l-4 -48h110c6 0 10 -2 9 -6l-7 -30c-1 -5 -7 -6 -12 -6z" />
    <glyph glyph-name="colonmonetary" unicode="&#x20a1;" 
d="M262 104l71 484c-15 6 -31 9 -48 8l-66 -461c10 -13 33 -29 43 -31zM192 168l58 421c-56 -13 -88 -125 -88 -230c0 -55 2 -140 28 -191h2zM365 572l-70 -474c8 -2 19 -3 31 -3c43 0 103 30 141 86c4 6 7 7 9 6l15 -11c2 -2 2 -5 0 -10c-39 -80 -101 -142 -208 -142
l-9 -62c-1 -5 -3 -7 -7 -7l-20 3c-4 1 -5 5 -5 10l8 56c-18 1 -38 5 -48 11l-14 -71c-1 -5 -4 -8 -9 -7l-18 3c-6 1 -6 6 -5 11l15 77c-93 48 -141 142 -141 279c0 68 17 152 69 220c34 46 111 89 159 89l9 63c1 6 4 10 8 10l19 -3c5 -1 7 -5 6 -13l-9 -58c14 0 33 -2 51 -5
l12 70c1 6 5 7 8 6l21 -3c4 -1 4 -7 3 -13l-12 -70c14 -6 30 -11 38 -16c7 -4 14 -5 16 4l5 20c2 5 7 5 13 5c9 0 15 -2 15 -14c0 -16 5 -146 8 -171c1 -5 0 -8 -3 -9l-22 -4c-5 -1 -7 3 -8 8c-6 40 -44 107 -71 129z" />
    <glyph glyph-name="R_p" horiz-adv-x="1065" 
d="M254 599l-6 -267c15 -1 27 -1 36 -1c132 0 143 121 143 168c0 46 -16 70 -27 86c-27 38 -72 50 -97 50c-17 0 -30 -2 -38 -9c-6 -4 -9 -15 -11 -27zM124 358v57c0 74 0 138 -1 165c-1 33 -14 50 -28 50h-40c-5 0 -6 3 -6 7v27c0 5 1 7 6 7c9 0 40 -3 149 -3
c56 0 119 3 155 3c78 0 136 -28 167 -64c23 -27 39 -64 39 -111c0 -87 -67 -144 -160 -167v-7c31 -10 52 -29 71 -53c13 -16 62 -104 68 -117c5 -11 51 -84 61 -93c8 -8 26 -13 39 -16l-1 224c0 34 -3 52 -28 65l-23 12c-5 3 -7 5 -7 9v13c0 3 2 5 7 7l115 50
c13 6 22 11 31 11c6 0 9 -7 12 -21l7 -37h4c23 31 71 58 114 58c40 0 84 -15 112 -49c39 -48 46 -83 46 -144c0 -149 -83 -255 -196 -255c-16 0 -48 1 -74 16l1 -154c1 -81 11 -86 35 -86h25c8 0 9 -4 9 -10v-18c0 -6 -2 -9 -9 -9c-5 0 -39 3 -118 3c-73 0 -108 -3 -116 -3
c-7 0 -9 3 -9 9v20c0 5 2 8 12 8h23c17 0 24 10 26 26c2 22 2 52 2 110v100c5 1 -20 2 -45 2c-29 0 -66 -2 -110 -3c-30 23 -76 132 -89 158c-34 68 -75 143 -123 143h-29v-37c0 -59 3 -171 5 -184c2 -21 10 -39 25 -39h41c7 0 8 -3 8 -8v-24c0 -7 -1 -9 -7 -9
c-10 0 -35 3 -125 3c-106 0 -129 -3 -140 -3c-8 0 -8 3 -8 10v23c0 5 0 8 5 8h30c22 0 40 7 40 32c2 99 2 193 2 288zM763 338v-232c0 -21 7 -45 24 -62c8 -8 29 -19 53 -19c32 0 69 37 69 133c0 63 -9 207 -85 207c-20 0 -45 -8 -61 -27z" />
    <glyph glyph-name="percent" unicode="%" horiz-adv-x="798" 
d="M177 302c23 0 35 17 41 36c7 25 6 70 6 158c0 114 -18 149 -42 149c-16 0 -29 -10 -37 -33c-13 -34 -14 -105 -14 -148c0 -52 1 -93 9 -121c6 -24 22 -41 37 -41zM205 -12l-27 19c-3 2 -6 5 -6 8c0 4 3 8 6 13l401 647c2 4 4 8 8 8c3 0 6 -1 9 -3l30 -17c3 -2 4 -4 4 -7
c0 -2 -1 -5 -4 -10l-404 -653c-2 -4 -6 -8 -9 -8s-6 1 -8 3zM173 264c-130 0 -153 144 -153 201c0 110 47 218 165 218c127 0 151 -122 151 -207c0 -132 -53 -212 -163 -212zM619 29c23 0 35 17 41 36c7 25 6 70 6 158c0 114 -18 149 -42 149c-16 0 -29 -10 -37 -33
c-13 -34 -14 -105 -14 -148c0 -52 1 -93 9 -121c6 -24 22 -41 37 -41zM615 -9c-130 0 -153 144 -153 201c0 110 47 218 165 218c127 0 151 -122 151 -207c0 -132 -53 -212 -163 -212z" />
    <glyph glyph-name="perthousand" unicode="&#x2030;" horiz-adv-x="1158" 
d="M177 302c23 0 35 17 41 36c7 25 6 70 6 158c0 114 -18 149 -42 149c-16 0 -29 -10 -37 -33c-13 -34 -14 -105 -14 -148c0 -52 1 -93 9 -121c6 -24 22 -41 37 -41zM205 -12l-27 19c-3 2 -6 5 -6 8c0 4 3 8 6 13l401 647c2 4 4 8 8 8c3 0 6 -1 9 -3l30 -17c3 -2 4 -4 4 -7
c0 -2 -1 -5 -4 -10l-404 -653c-2 -4 -6 -8 -9 -8s-6 1 -8 3zM173 264c-130 0 -153 144 -153 201c0 110 47 218 165 218c127 0 151 -122 151 -207c0 -132 -53 -212 -163 -212zM619 29c23 0 35 17 41 36c7 25 6 70 6 158c0 114 -18 149 -42 149c-16 0 -29 -10 -37 -33
c-13 -34 -14 -105 -14 -148c0 -52 1 -93 9 -121c6 -24 22 -41 37 -41zM615 -9c-130 0 -153 144 -153 201c0 110 47 218 165 218c127 0 151 -122 151 -207c0 -132 -53 -212 -163 -212zM979 29c23 0 35 17 41 36c7 25 6 70 6 158c0 114 -18 149 -42 149c-16 0 -29 -10 -37 -33
c-13 -34 -14 -105 -14 -148c0 -52 1 -93 9 -121c6 -24 22 -41 37 -41zM975 -9c-130 0 -153 144 -153 201c0 110 47 218 165 218c127 0 151 -122 151 -207c0 -132 -53 -212 -163 -212z" />
    <glyph glyph-name="onehalf" unicode="&#xbd;" horiz-adv-x="800" 
d="M199 -12l-27 19c-3 2 -6 5 -6 8c0 4 3 8 6 13l401 647c2 4 4 8 8 8c3 0 6 -1 9 -3l30 -17c3 -2 4 -4 4 -7c0 -2 -1 -5 -4 -10l-404 -653c-2 -4 -6 -8 -9 -8s-6 1 -8 3zM108 468v22c0 7 0 51 -2 72c-1 10 -6 23 -16 23s-16 -2 -29 -6l-30 -11c-6 -2 -9 -1 -11 3l-10 23
c-1 3 0 5 4 7l184 76c8 3 13 6 18 6c7 0 8 -4 8 -9s-2 -99 -2 -176v-156c1 -32 4 -35 29 -35h24c4 0 6 -2 6 -6v-25c0 -4 -2 -5 -7 -5c-4 0 -95 2 -117 2c-17 0 -114 -2 -117 -2s-6 2 -6 7v25c0 3 4 4 10 4h28c32 0 34 2 35 31c0 8 1 119 1 130zM639 0h-126
c-22 0 -49 -2 -55 -2c-5 0 -9 3 -9 8c0 7 5 12 10 16c23 17 77 65 127 126c33 39 58 86 58 130c0 35 -20 70 -63 70c-33 0 -58 -19 -76 -38c-6 -6 -9 -9 -14 -5l-11 7c-3 2 -3 4 -1 8c12 25 57 90 154 90c70 0 130 -37 130 -113c0 -40 -20 -86 -87 -145
c-66 -52 -86 -64 -106 -78v-2h93c59 0 76 12 91 34c5 7 9 6 17 3c9 -3 11 -6 8 -13l-41 -104c-2 -5 -7 -6 -14 -6s-10 0 -13 6c-4 7 -31 8 -72 8z" />
    <glyph glyph-name="onequarter" unicode="&#xbc;" horiz-adv-x="800" 
d="M688 0h-76c-6 0 -8 3 -8 10v74h-180c-9 0 -17 5 -17 14c0 8 6 16 14 26l240 273c5 5 12 13 21 13c10 0 14 -6 14 -23v-230h51c4 0 7 -2 7 -9v-54c0 -6 -2 -10 -10 -10h-48v-73c0 -9 -1 -11 -8 -11zM604 157v103c-2 13 -11 13 -19 3l-80 -91c-7 -8 -4 -15 7 -15h92z
M123 468v22c0 7 0 51 -2 72c-1 10 -6 23 -16 23s-16 -2 -29 -6l-30 -11c-6 -2 -9 -1 -11 3l-10 23c-1 3 0 5 4 7l184 76c8 3 13 6 18 6c7 0 8 -4 8 -9s-2 -99 -2 -176v-156c1 -32 4 -35 29 -35h24c4 0 6 -2 6 -6v-25c0 -4 -2 -5 -7 -5c-4 0 -95 2 -117 2
c-17 0 -114 -2 -117 -2s-6 2 -6 7v25c0 3 4 4 10 4h28c32 0 34 2 35 31c0 8 1 119 1 130zM227 -12l-27 19c-3 2 -6 5 -6 8c0 4 3 8 6 13l401 647c2 4 4 8 8 8c3 0 6 -1 9 -3l30 -17c3 -2 4 -4 4 -7c0 -2 -1 -5 -4 -10l-404 -653c-2 -4 -6 -8 -9 -8s-6 1 -8 3z" />
    <glyph glyph-name="threequarters" unicode="&#xbe;" horiz-adv-x="800" 
d="M229 -12l-27 19c-3 2 -6 5 -6 8c0 4 3 8 6 13l401 647c2 4 4 8 8 8c3 0 6 -1 9 -3l30 -17c3 -2 4 -4 4 -7c0 -2 -1 -5 -4 -10l-404 -653c-2 -4 -6 -8 -9 -8s-6 1 -8 3zM128 264c-82 0 -105 37 -105 68c0 20 17 37 35 37c30 0 36 -22 40 -37c6 -25 24 -36 46 -36
c31 0 64 33 64 78c0 53 -20 85 -70 95c-13 3 -17 7 -17 15c0 11 3 15 14 16c43 6 60 45 60 70c0 36 -24 60 -52 60c-32 0 -56 -23 -73 -46c-4 -5 -9 -10 -12 -8l-15 7c-6 3 -5 6 -4 10c10 30 52 90 143 90s122 -48 122 -81c0 -49 -37 -84 -91 -102v-2
c63 -8 113 -49 113 -102c0 -78 -71 -132 -198 -132zM698 0h-76c-6 0 -8 3 -8 10v74h-180c-9 0 -17 5 -17 14c0 8 6 16 14 26l240 273c5 5 12 13 21 13c10 0 14 -6 14 -23v-230h51c4 0 7 -2 7 -9v-54c0 -6 -2 -10 -10 -10h-48v-73c0 -9 -1 -11 -8 -11zM614 157v103
c-2 13 -11 13 -19 3l-80 -91c-7 -8 -4 -15 7 -15h92z" />
    <glyph glyph-name="onethird" unicode="&#x2153;" horiz-adv-x="800" 
d="M204 -12l-27 19c-3 2 -6 5 -6 8c0 4 3 8 6 13l401 647c2 4 4 8 8 8c3 0 6 -1 9 -3l30 -17c3 -2 4 -4 4 -7c0 -2 -1 -5 -4 -10l-404 -653c-2 -4 -6 -8 -9 -8s-6 1 -8 3zM108 468v22c0 7 0 51 -2 72c-1 10 -6 23 -16 23s-16 -2 -29 -6l-30 -11c-6 -2 -9 -1 -11 3l-10 23
c-1 3 0 5 4 7l184 76c8 3 13 6 18 6c7 0 8 -4 8 -9s-2 -99 -2 -176v-26v-130c1 -32 4 -35 29 -35h24c4 0 6 -2 6 -6v-25c0 -4 -2 -5 -7 -5c-4 0 -95 2 -117 2c-17 0 -114 -2 -117 -2s-6 2 -6 7v25c0 3 4 4 10 4h28c32 0 34 2 35 31c0 8 1 119 1 130zM578 -9
c-82 0 -105 37 -105 68c0 20 17 37 35 37c30 0 36 -22 40 -37c6 -25 24 -36 46 -36c31 0 66 33 66 78c0 53 -22 85 -72 95c-13 3 -17 7 -17 15c0 11 3 15 14 16c43 6 60 45 60 70c0 36 -24 60 -51 60c-30 0 -54 -23 -71 -46c-4 -5 -9 -10 -12 -8l-15 7c-6 3 -5 6 -4 10
c10 30 55 90 143 90c87 0 118 -48 118 -81c0 -49 -36 -84 -90 -102v-2c63 -8 112 -49 112 -102c0 -78 -71 -132 -197 -132z" />
    <glyph glyph-name="twothirds" unicode="&#x2154;" horiz-adv-x="800" 
d="M222 -12l-27 19c-3 2 -6 5 -6 8c0 4 3 8 6 13l401 647c2 4 4 8 8 8c3 0 6 -1 9 -3l30 -17c3 -2 4 -4 4 -7c0 -2 -1 -5 -4 -10l-404 -653c-2 -4 -6 -8 -9 -8s-6 1 -8 3zM588 -9c-82 0 -105 37 -105 68c0 20 17 37 35 37c30 0 36 -22 40 -37c6 -25 24 -36 46 -36
c31 0 66 33 66 78c0 53 -22 85 -72 95c-13 3 -17 7 -17 15c0 11 3 15 14 16c43 6 60 45 60 70c0 36 -24 60 -51 60c-30 0 -54 -23 -71 -46c-4 -5 -9 -10 -12 -8l-15 7c-6 3 -5 6 -4 10c10 30 55 90 143 90c87 0 118 -48 118 -81c0 -49 -36 -84 -90 -102v-2
c63 -8 112 -49 112 -102c0 -78 -71 -132 -197 -132zM184 273h-126c-22 0 -49 -2 -55 -2c-5 0 -9 3 -9 8c0 7 5 12 10 16c23 17 77 65 127 126c33 39 58 86 58 130c0 35 -20 70 -63 70c-33 0 -58 -19 -76 -38c-6 -6 -9 -9 -14 -5l-11 7c-3 2 -3 4 -1 8c12 25 57 90 154 90
c70 0 130 -37 130 -113c0 -40 -20 -86 -87 -145c-66 -52 -86 -64 -106 -78v-2h93c59 0 76 12 91 34c5 7 9 6 17 3c9 -3 11 -6 8 -13l-41 -104c-2 -5 -7 -6 -14 -6s-10 0 -13 6c-4 7 -31 8 -72 8z" />
    <glyph glyph-name="oneeighth" unicode="&#x215b;" horiz-adv-x="800" 
d="M620 -9c-110 0 -144 45 -144 84c0 53 35 85 84 104c-52 34 -83 58 -83 116c0 48 51 115 168 115c78 0 128 -40 128 -82c0 -46 -20 -76 -84 -106c55 -23 91 -56 91 -121c0 -50 -54 -110 -160 -110zM619 19c41 0 67 26 67 60c0 29 -26 52 -96 84c-20 -6 -43 -36 -43 -75
c0 -46 44 -69 72 -69zM639 377c-45 0 -67 -35 -65 -59c-4 -31 19 -44 86 -78c17 8 41 34 41 70c0 37 -25 67 -62 67zM199 -12l-27 19c-3 2 -6 5 -6 8c0 4 3 8 6 13l401 647c2 4 4 8 8 8c3 0 6 -1 9 -3l30 -17c3 -2 4 -4 4 -7c0 -2 -1 -5 -4 -10l-404 -653c-2 -4 -6 -8 -9 -8
s-6 1 -8 3zM108 468v22c0 7 0 51 -2 72c-1 10 -6 23 -16 23s-16 -2 -29 -6l-30 -11c-6 -2 -9 -1 -11 3l-10 23c-1 3 0 5 4 7l184 76c8 3 13 6 18 6c7 0 8 -4 8 -9s-2 -99 -2 -176v-26v-130c1 -32 4 -35 29 -35h24c4 0 6 -2 6 -6v-25c0 -4 -2 -5 -7 -5c-4 0 -95 2 -117 2
c-17 0 -114 -2 -117 -2s-6 2 -6 7v25c0 3 4 4 10 4h28c32 0 34 2 35 31c0 8 1 119 1 130z" />
    <glyph glyph-name="threeeighths" unicode="&#x215c;" horiz-adv-x="800" 
d="M618 -9c-110 0 -144 45 -144 84c0 53 35 85 84 104c-52 34 -83 58 -83 116c0 48 51 115 168 115c78 0 128 -40 128 -82c0 -46 -20 -76 -84 -106c55 -23 91 -56 91 -121c0 -50 -54 -110 -160 -110zM617 19c41 0 67 26 67 60c0 29 -26 52 -96 84c-20 -6 -43 -36 -43 -75
c0 -46 44 -69 72 -69zM637 377c-45 0 -67 -35 -65 -59c-4 -31 19 -44 86 -78c17 8 41 34 41 70c0 37 -25 67 -62 67zM196 -12l-27 19c-3 2 -6 5 -6 8c0 4 3 8 6 13l401 647c2 4 4 8 8 8c3 0 6 -1 9 -3l30 -17c3 -2 4 -4 4 -7c0 -2 -1 -5 -4 -10l-404 -653c-2 -4 -6 -8 -9 -8
s-6 1 -8 3zM120 264c-82 0 -105 37 -105 68c0 20 17 37 35 37c30 0 36 -22 40 -37c6 -25 24 -36 46 -36c31 0 66 33 66 78c0 53 -22 85 -72 95c-13 3 -17 7 -17 15c0 11 3 15 14 16c43 6 60 45 60 70c0 36 -24 60 -51 60c-30 0 -54 -23 -71 -46c-4 -5 -9 -10 -12 -8l-15 7
c-6 3 -5 6 -4 10c10 30 55 90 143 90c87 0 118 -48 118 -81c0 -49 -36 -84 -90 -102v-2c63 -8 112 -49 112 -102c0 -78 -71 -132 -197 -132z" />
    <glyph glyph-name="fiveeighths" unicode="&#x215d;" horiz-adv-x="800" 
d="M618 -9c-110 0 -144 45 -144 84c0 53 35 85 84 104c-52 34 -83 58 -83 116c0 48 51 115 168 115c78 0 128 -40 128 -82c0 -46 -20 -76 -84 -106c55 -23 91 -56 91 -121c0 -50 -54 -110 -160 -110zM617 19c41 0 67 26 67 60c0 29 -26 52 -96 84c-20 -6 -43 -36 -43 -75
c0 -46 44 -69 72 -69zM637 377c-45 0 -67 -35 -65 -59c-4 -31 19 -44 86 -78c17 8 41 34 41 70c0 37 -25 67 -62 67zM196 -12l-27 19c-3 2 -6 5 -6 8c0 4 3 8 6 13l401 647c2 4 4 8 8 8c3 0 6 -1 9 -3l30 -17c3 -2 4 -4 4 -7c0 -2 -1 -5 -4 -10l-404 -653c-2 -4 -6 -8 -9 -8
s-6 1 -8 3zM125 593l-10 -52c17 -1 67 -4 104 -17c51 -17 93 -53 93 -115c0 -81 -87 -145 -203 -145c-50 0 -90 16 -90 39c0 19 10 36 23 36s24 -8 41 -19c9 -6 26 -15 52 -15c39 0 78 21 78 72c0 31 -27 50 -40 58c-17 11 -66 17 -94 17c-9 0 -13 8 -12 15l27 193
c1 7 2 10 12 10h162c26 0 32 10 45 30c3 4 5 5 15 2c7 -2 10 -4 8 -9l-29 -88c-3 -10 -9 -12 -26 -12h-156z" />
    <glyph glyph-name="seveneighths" unicode="&#x215e;" horiz-adv-x="800" 
d="M606 -9c-110 0 -144 45 -144 84c0 53 35 85 84 104c-52 34 -83 58 -83 116c0 48 51 115 168 115c78 0 128 -40 128 -82c0 -46 -20 -76 -84 -106c55 -23 91 -56 91 -121c0 -50 -54 -110 -160 -110zM605 19c41 0 67 26 67 60c0 29 -26 52 -96 84c-20 -6 -43 -36 -43 -75
c0 -46 44 -69 72 -69zM625 377c-45 0 -67 -35 -65 -59c-4 -31 19 -44 86 -78c17 8 41 34 41 70c0 37 -25 67 -62 67zM159 -12l-27 19c-3 2 -6 5 -6 8c0 4 3 8 6 13l401 647c2 4 4 8 8 8c3 0 6 -1 9 -3l30 -17c3 -2 4 -4 4 -7c0 -2 -1 -5 -4 -10l-404 -653c-2 -4 -6 -8 -9 -8
s-6 1 -8 3zM128 264c-25 0 -44 15 -44 38c0 19 18 50 32 70c13 18 145 191 160 222h-148c-44 0 -52 -9 -74 -30c-4 -5 -9 -5 -18 -1c-7 3 -7 3 -5 8l47 119c1 3 2 4 14 4c8 0 11 -1 9 -11c-1 -8 5 -12 40 -12h203c10 0 17 -1 17 -6c0 -4 -2 -13 -9 -22
c-10 -13 -54 -84 -83 -142c-40 -79 -55 -131 -75 -191c-8 -23 -28 -46 -66 -46z" />
    <glyph glyph-name="fraction" unicode="&#x2044;" horiz-adv-x="85" 
d="M-158 -12l-27 19c-3 2 -6 5 -6 8c0 4 3 8 6 13l401 647c2 4 4 8 8 8c3 0 6 -1 9 -3l30 -17c3 -2 4 -4 4 -7c0 -2 -1 -5 -4 -10l-404 -653c-2 -4 -6 -8 -9 -8s-6 1 -8 3z" />
    <glyph glyph-name="numbersign" unicode="#" 
d="M280 273l29 125h-88l-29 -125h88zM223 -4l40 184h-88l-41 -179c-2 -12 -4 -16 -10 -16h-65c-6 0 -6 4 -4 14l42 181h-101c-5 0 -7 2 -6 9l12 77c2 7 5 7 11 7h101l28 125h-92c-12 0 -15 2 -14 7l12 79c1 5 6 7 13 7h96l43 183c1 5 2 9 8 9h64c6 0 6 -5 4 -11l-40 -181h88
l40 181c2 6 3 11 10 11h64c5 0 7 -4 5 -11l-41 -181h102c6 0 10 -3 9 -7l-13 -79c-2 -7 -4 -7 -15 -7h-97l-28 -125h99c8 0 12 -2 11 -8l-13 -80c-1 -5 -6 -5 -15 -5h-100l-40 -183c-2 -8 -4 -12 -10 -12h-65c-6 0 -6 4 -4 11z" />
    <glyph glyph-name="degree" unicode="&#xb0;" horiz-adv-x="320" 
d="M159 503c-74 0 -119 45 -119 108s48 112 120 112c77 0 121 -44 121 -106c0 -67 -50 -114 -122 -114zM160 548c34 0 62 29 62 65c0 37 -30 65 -62 65c-31 0 -61 -28 -61 -65c0 -36 31 -65 61 -65z" />
    <glyph glyph-name="figuredash" unicode="&#x2012;" 
d="M460 231h-420v76h420v-76z" />
    <glyph glyph-name="plus" unicode="+" 
d="M292 35h-82v169h-157v76h157v165h82v-165h156v-76h-156v-169z" />
    <glyph glyph-name="minus" unicode="&#x2212;" 
d="M52 280h397v-76h-397v76z" />
    <glyph glyph-name="multiply" unicode="&#xd7;" 
d="M447 100l-50 -60l-149 147l-148 -147l-47 60l144 138l-144 139l54 57l145 -145l145 145l50 -57l-144 -137z" />
    <glyph glyph-name="divide" unicode="&#xf7;" 
d="M52 285h397v-76h-397v76zM251 344c-39 0 -62 26 -62 58c0 33 27 58 62 58c34 0 61 -25 61 -58c0 -32 -25 -58 -61 -58zM251 34c-34 0 -62 21 -62 57s28 59 62 59s61 -23 61 -59s-27 -57 -61 -57z" />
    <glyph glyph-name="less" unicode="&#x3c;" 
d="M390 35l-307 183v45l307 182v-83l-208 -117v-4l208 -121v-85z" />
    <glyph glyph-name="equal" unicode="=" 
d="M52 365h397v-76h-397v76zM52 214h397v-76h-397v76z" />
    <glyph glyph-name="greater" unicode="&#x3e;" 
d="M110 445l307 -183v-45l-307 -182v83l208 117v4l-208 121v85z" />
    <glyph glyph-name="asciicircum" unicode="^" 
d="M14 250l213 418h47l213 -418h-88l-147 296h-5l-148 -296h-85z" />
    <glyph glyph-name="bar" unicode="|" horiz-adv-x="350" 
d="M207 -260h-62c-5 0 -6 4 -6 10v1003c0 6 1 9 6 9h60c5 0 7 -4 7 -12v-1000c0 -5 -1 -10 -5 -10z" />
    <glyph glyph-name="asciitilde" unicode="~" 
d="M380 329h68c0 -125 -47 -169 -100 -169c-35 0 -59 10 -87 28l-39 24c-15 9 -36 24 -58 24c-26 0 -46 -25 -44 -85h-68c0 118 51 170 108 170c28 0 47 -6 73 -22l44 -28c15 -10 35 -27 62 -27c32 0 43 27 41 85z" />
    <glyph glyph-name="brokenbar" unicode="&#xa6;" horiz-adv-x="350" 
d="M203 -175h-58c-5 0 -6 4 -6 10v330c0 5 2 10 9 10h58c5 0 6 -4 6 -10v-330c0 -5 -2 -10 -9 -10zM203 325h-58c-5 0 -6 4 -6 10v331c0 6 1 9 6 9h60c5 0 7 -4 7 -12v-328c0 -5 -2 -10 -9 -10z" />
    <glyph glyph-name="logicalnot" unicode="&#xac;" 
d="M52 289v76h397v-243h-82v167h-315z" />
    <glyph glyph-name="plusminus" unicode="&#xb1;" 
d="M292 152h-82v139h-158v76h158v130h82v-130h157v-76h-157v-139zM52 81h397v-76h-397v76z" />
    <glyph glyph-name="mu" unicode="&#xb5;" horiz-adv-x="540" 
d="M175 -245l-73 -22c-15 -4 -23 -5 -28 -5s-7 8 -7 15c0 138 5 277 5 415v42c0 108 -8 184 -8 204c0 10 6 16 16 16h98c13 0 20 -6 20 -18v-182c0 -40 -6 -108 19 -147c14 -23 29 -25 48 -25c18 0 44 12 60 34c6 8 12 20 12 35l-4 193c-1 56 -4 75 -4 94c0 11 9 16 19 16
h94c14 0 24 -8 24 -20s-2 -56 -2 -125v-71c0 -48 0 -97 1 -116c2 -30 9 -41 22 -41c8 0 17 2 29 8c4 3 7 1 8 -3l8 -15c3 -5 -2 -10 -10 -18c-14 -13 -47 -33 -92 -33c-38 0 -74 32 -84 70h-7c-20 -40 -64 -70 -99 -70c-20 0 -44 2 -61 18l-2 -2c0 -116 12 -204 12 -225
c0 -12 -3 -18 -14 -22z" />
    <glyph glyph-name="pi" unicode="&#x3c0;" horiz-adv-x="571" 
d="M521 444c-3 -42 -15 -93 -25 -107c-13 -5 -50 -5 -70 -5c-5 -56 -4 -124 -3 -192c1 -60 20 -73 35 -73c13 0 29 5 41 10l11 -25c-23 -34 -70 -64 -108 -64c-43 -1 -82 26 -82 124c0 79 3 158 7 222c-59 2 -88 2 -117 2v-7c0 -204 -44 -310 -55 -323
c-28 -11 -52 -16 -71 -17l-10 19c57 87 80 254 80 330c-47 1 -85 -4 -124 -29l-15 27c22 28 65 90 182 88c35 -1 77 -2 120 -2c44 -1 89 -1 128 -1c25 0 36 2 49 28z" />
    <glyph glyph-name="Agrave" unicode="&#xc0;" horiz-adv-x="725" 
d="M414 274h-219c-8 -21 -57 -158 -57 -190c0 -22 9 -46 39 -46h35c10 0 11 -4 11 -8v-22c0 -8 -1 -11 -9 -11c-13 0 -54 3 -136 3c-73 0 -95 -3 -109 -3c-6 0 -7 6 -7 13v19c0 6 1 9 7 9h26c24 0 48 14 68 44c14 21 85 195 118 283c8 20 89 235 98 262c3 10 8 23 1 34
c-3 4 -7 9 -7 13c0 3 2 7 10 9c32 7 97 33 112 50c5 5 8 9 13 9c6 0 8 -6 11 -17c19 -63 97 -287 116 -351c23 -78 88 -264 102 -291c17 -33 43 -45 58 -45h34c6 0 7 -4 7 -9v-19c0 -6 -1 -13 -9 -13c-19 0 -40 3 -168 3c-83 0 -118 -3 -138 -3c-10 0 -11 6 -11 13v19
c0 5 1 9 6 9h28c27 0 36 10 30 36c-9 36 -48 164 -60 200zM208 314h197c-9 30 -68 240 -75 265c-4 15 -6 22 -11 22c-6 0 -9 -4 -12 -13c-5 -13 -91 -249 -99 -274zM415 785l-13 -16c-2 -2 -3 -2 -7 0l-170 79c-18 8 -36 27 -36 47c0 24 19 52 50 52c19 0 35 -10 45 -20
l130 -135c3 -2 3 -5 1 -7z" />
    <glyph glyph-name="Aacute" unicode="&#xc1;" horiz-adv-x="725" 
d="M414 274h-219c-8 -21 -57 -158 -57 -190c0 -22 9 -46 39 -46h35c10 0 11 -4 11 -8v-22c0 -8 -1 -11 -9 -11c-13 0 -54 3 -136 3c-73 0 -95 -3 -109 -3c-6 0 -7 6 -7 13v19c0 6 1 9 7 9h26c24 0 48 14 68 44c14 21 85 195 118 283c8 20 89 235 98 262c3 10 8 23 1 34
c-3 4 -7 9 -7 13c0 3 2 7 10 9c32 7 97 33 112 50c5 5 8 9 13 9c6 0 8 -6 11 -17c19 -63 97 -287 116 -351c23 -78 88 -264 102 -291c17 -33 43 -45 58 -45h34c6 0 7 -4 7 -9v-19c0 -6 -1 -13 -9 -13c-19 0 -40 3 -168 3c-83 0 -118 -3 -138 -3c-10 0 -11 6 -11 13v19
c0 5 1 9 6 9h28c27 0 36 10 30 36c-9 36 -48 164 -60 200zM208 314h197c-9 30 -68 240 -75 265c-4 15 -6 22 -11 22c-6 0 -9 -4 -12 -13c-5 -13 -91 -249 -99 -274zM314 769l-13 16c-2 2 -1 5 1 7l130 135c10 11 26 20 45 20c28 0 49 -24 49 -50c0 -18 -19 -38 -37 -47
l-168 -81c-4 -2 -5 -2 -7 0z" />
    <glyph glyph-name="Acircumflex" unicode="&#xc2;" horiz-adv-x="725" 
d="M414 274h-219c-8 -21 -57 -158 -57 -190c0 -22 9 -46 39 -46h35c10 0 11 -4 11 -8v-22c0 -8 -1 -11 -9 -11c-13 0 -54 3 -136 3c-73 0 -95 -3 -109 -3c-6 0 -7 6 -7 13v19c0 6 1 9 7 9h26c24 0 48 14 68 44c14 21 85 195 118 283c8 20 89 235 98 262c3 10 8 23 1 34
c-3 4 -7 9 -7 13c0 3 2 7 10 9c32 7 97 33 112 50c5 5 8 9 13 9c6 0 8 -6 11 -17c19 -63 97 -287 116 -351c23 -78 88 -264 102 -291c17 -33 43 -45 58 -45h34c6 0 7 -4 7 -9v-19c0 -6 -1 -13 -9 -13c-19 0 -40 3 -168 3c-83 0 -118 -3 -138 -3c-10 0 -11 6 -11 13v19
c0 5 1 9 6 9h28c27 0 36 10 30 36c-9 36 -48 164 -60 200zM208 314h197c-9 30 -68 240 -75 265c-4 15 -6 22 -11 22c-6 0 -9 -4 -12 -13c-5 -13 -91 -249 -99 -274zM390 915l132 -127c3 -3 3 -5 1 -8l-7 -9c-2 -3 -5 -3 -9 -1l-138 54l-129 -54c-4 -2 -7 -3 -10 0l-8 10
c-2 3 -1 5 3 9l133 131c5 4 10 9 13 9c4 0 9 -5 19 -14z" />
    <glyph glyph-name="Atilde" unicode="&#xc3;" horiz-adv-x="725" 
d="M414 274h-219c-8 -21 -57 -158 -57 -190c0 -22 9 -46 39 -46h35c10 0 11 -4 11 -8v-22c0 -8 -1 -11 -9 -11c-13 0 -54 3 -136 3c-73 0 -95 -3 -109 -3c-6 0 -7 6 -7 13v19c0 6 1 9 7 9h26c24 0 48 14 68 44c14 21 85 195 118 283c8 20 89 235 98 262c3 10 8 23 1 34
c-3 4 -7 9 -7 13c0 3 2 7 10 9c32 7 97 33 112 50c5 5 8 9 13 9c6 0 8 -6 11 -17c19 -63 97 -287 116 -351c23 -78 88 -264 102 -291c17 -33 43 -45 58 -45h34c6 0 7 -4 7 -9v-19c0 -6 -1 -13 -9 -13c-19 0 -40 3 -168 3c-83 0 -118 -3 -138 -3c-10 0 -11 6 -11 13v19
c0 5 1 9 6 9h28c27 0 36 10 30 36c-9 36 -48 164 -60 200zM208 314h197c-9 30 -68 240 -75 265c-4 15 -6 22 -11 22c-6 0 -9 -4 -12 -13c-5 -13 -91 -249 -99 -274zM209 772h-18c-4 0 -5 4 -4 17c7 63 42 113 94 113c21 0 43 -7 92 -18c44 -10 63 -19 81 -19
c25 0 32 19 36 39c1 4 3 6 7 6h17c4 0 5 -4 4 -18c-4 -49 -34 -106 -81 -106c-25 0 -52 6 -102 19c-44 11 -59 17 -77 17c-19 0 -36 -15 -42 -45c-1 -4 -4 -5 -7 -5z" />
    <glyph glyph-name="Adieresis" unicode="&#xc4;" horiz-adv-x="725" 
d="M414 274h-219c-8 -21 -57 -158 -57 -190c0 -22 9 -46 39 -46h35c10 0 11 -4 11 -8v-22c0 -8 -1 -11 -9 -11c-13 0 -54 3 -136 3c-73 0 -95 -3 -109 -3c-6 0 -7 6 -7 13v19c0 6 1 9 7 9h26c24 0 48 14 68 44c14 21 85 195 118 283c8 20 89 235 98 262c3 10 8 23 1 34
c-3 4 -7 9 -7 13c0 3 2 7 10 9c32 7 97 33 112 50c5 5 8 9 13 9c6 0 8 -6 11 -17c19 -63 97 -287 116 -351c23 -78 88 -264 102 -291c17 -33 43 -45 58 -45h34c6 0 7 -4 7 -9v-19c0 -6 -1 -13 -9 -13c-19 0 -40 3 -168 3c-83 0 -118 -3 -138 -3c-10 0 -11 6 -11 13v19
c0 5 1 9 6 9h28c27 0 36 10 30 36c-9 36 -48 164 -60 200zM208 314h197c-9 30 -68 240 -75 265c-4 15 -6 22 -11 22c-6 0 -9 -4 -12 -13c-5 -13 -91 -249 -99 -274zM256 787c-27 0 -66 12 -66 62c0 19 14 57 66 57c30 0 57 -21 57 -61c0 -31 -26 -58 -57 -58zM478 787
c-27 0 -66 12 -66 62c0 19 14 57 66 57c31 0 58 -21 58 -61c0 -31 -25 -58 -58 -58z" />
    <glyph glyph-name="Aring" unicode="&#xc5;" horiz-adv-x="725" 
d="M414 274h-219c-8 -21 -57 -158 -57 -190c0 -22 9 -46 39 -46h35c10 0 11 -4 11 -8v-22c0 -8 -1 -11 -9 -11c-13 0 -54 3 -136 3c-73 0 -95 -3 -109 -3c-6 0 -7 6 -7 13v19c0 6 1 9 7 9h26c24 0 48 14 68 44c14 21 85 195 118 283c8 20 89 235 98 262c3 10 8 23 1 34
c-3 4 -7 9 -7 13c0 3 2 7 10 8c34 5 80 11 101 17c14 4 19 9 26 9s11 -5 14 -13c20 -59 92 -257 111 -321c23 -78 88 -264 102 -291c17 -33 43 -45 58 -45h34c6 0 7 -4 7 -9v-19c0 -6 -1 -13 -9 -13c-19 0 -40 3 -168 3c-83 0 -118 -3 -138 -3c-10 0 -11 6 -11 13v19
c0 5 1 9 6 9h28c27 0 36 10 30 36c-9 36 -48 164 -60 200zM208 314h197c-9 30 -68 240 -75 265c-4 15 -6 22 -11 22c-6 0 -9 -4 -12 -13c-5 -13 -91 -249 -99 -274zM357 755c-63 0 -124 30 -124 86c0 59 63 94 133 94c73 0 125 -34 125 -84c0 -76 -77 -96 -134 -96zM362 789
c29 0 49 17 49 57c0 39 -25 55 -47 55c-33 -1 -51 -25 -51 -55c0 -37 18 -57 49 -57z" />
    <glyph glyph-name="Amacron" unicode="&#x100;" horiz-adv-x="725" 
d="M414 274h-219c-8 -21 -57 -158 -57 -190c0 -22 9 -46 39 -46h35c10 0 11 -4 11 -8v-22c0 -8 -1 -11 -9 -11c-13 0 -54 3 -136 3c-73 0 -95 -3 -109 -3c-6 0 -7 6 -7 13v19c0 6 1 9 7 9h26c24 0 48 14 68 44c14 21 85 195 118 283c8 20 89 235 98 262c3 10 8 23 1 34
c-3 4 -7 9 -7 13c0 3 2 7 10 9c32 7 97 33 112 50c5 5 8 9 13 9c6 0 8 -6 11 -17c19 -63 97 -287 116 -351c23 -78 88 -264 102 -291c17 -33 43 -45 58 -45h34c6 0 7 -4 7 -9v-19c0 -6 -1 -13 -9 -13c-19 0 -40 3 -168 3c-83 0 -118 -3 -138 -3c-10 0 -11 6 -11 13v19
c0 5 1 9 6 9h28c27 0 36 10 30 36c-9 36 -48 164 -60 200zM208 314h197c-9 30 -68 240 -75 265c-4 15 -6 22 -11 22c-6 0 -9 -4 -12 -13c-5 -13 -91 -249 -99 -274zM496 794h-269c-6 0 -8 2 -8 8v59c0 8 2 10 8 10h271c7 0 9 -2 9 -10v-59c0 -6 -4 -8 -11 -8z" />
    <glyph glyph-name="Abreve" unicode="&#x102;" horiz-adv-x="725" 
d="M414 274h-219c-8 -21 -57 -158 -57 -190c0 -22 9 -46 39 -46h35c10 0 11 -4 11 -8v-22c0 -8 -1 -11 -9 -11c-13 0 -54 3 -136 3c-73 0 -95 -3 -109 -3c-6 0 -7 6 -7 13v19c0 6 1 9 7 9h26c24 0 48 14 68 44c14 21 85 195 118 283c8 20 89 235 98 262c3 10 8 23 1 34
c-3 4 -7 9 -7 13c0 3 2 7 10 9c32 7 97 33 112 50c5 5 8 9 13 9c6 0 8 -6 11 -17c19 -63 97 -287 116 -351c23 -78 88 -264 102 -291c17 -33 43 -45 58 -45h34c6 0 7 -4 7 -9v-19c0 -6 -1 -13 -9 -13c-19 0 -40 3 -168 3c-83 0 -118 -3 -138 -3c-10 0 -11 6 -11 13v19
c0 5 1 9 6 9h28c27 0 36 10 30 36c-9 36 -48 164 -60 200zM208 314h197c-9 30 -68 240 -75 265c-4 15 -6 22 -11 22c-6 0 -9 -4 -12 -13c-5 -13 -91 -249 -99 -274zM216 923l15 7c2 1 5 -1 7 -7c28 -51 73 -67 125 -67c62 0 111 34 124 67c2 6 6 8 9 6l15 -8
c3 -3 3 -6 2 -12c-14 -56 -74 -142 -155 -142c-74 0 -136 68 -145 139c-2 9 0 16 3 17z" />
    <glyph glyph-name="Aogonek" unicode="&#x104;" horiz-adv-x="725" 
d="M405 314c-9 30 -68 240 -75 265c-4 15 -6 22 -11 22c-6 0 -9 -4 -12 -13c-5 -13 -91 -249 -99 -274h197zM487 -281c-62 0 -124 32 -124 100c0 61 44 108 78 144c22 24 41 43 41 59c0 19 0 26 -8 52c-11 35 -48 164 -60 200h-219c-8 -21 -57 -158 -57 -190
c0 -22 9 -46 39 -46h35c10 0 11 -4 11 -8v-22c0 -8 -1 -11 -9 -11c-13 0 -54 3 -136 3c-73 0 -95 -3 -109 -3c-6 0 -7 6 -7 13v19c0 6 1 9 7 9h26c24 0 48 14 68 44c14 21 84 195 117 283c7 20 90 235 99 262c3 10 8 23 1 34c-3 4 -7 9 -7 13c0 3 2 7 10 9
c32 7 97 33 112 50c5 5 8 9 13 9c6 0 8 -6 11 -17c19 -63 97 -287 116 -351c23 -78 88 -264 102 -291c17 -33 43 -45 58 -45h34c6 0 7 -4 7 -9v-19c0 -6 -1 -13 -9 -13c-9 0 -19 2 -43 2s-16 1 -80 1c-38 0 -69 -14 -88 -35c-24 -28 -37 -64 -37 -108c0 -55 22 -79 55 -79
c32 0 55 19 70 30c8 7 14 11 18 11c9 0 12 -9 12 -17c0 -26 -56 -83 -147 -83z" />
    <glyph glyph-name="Ccedilla" unicode="&#xc7;" horiz-adv-x="742" 
d="M700 177l17 -15c3 -2 4 -6 0 -12c-56 -81 -149 -160 -282 -164l-48 -61c65 -11 95 -41 95 -75c0 -63 -93 -96 -208 -96c-21 0 -25 9 -25 20c0 14 15 17 40 17c33 0 74 18 74 53c0 23 -26 41 -62 49l73 94c-112 7 -173 40 -229 90c-74 66 -109 181 -109 267
c0 103 33 196 103 271c57 61 140 108 274 108c91 0 166 -23 201 -42c14 -7 19 -6 21 1l8 25c2 6 4 6 19 6s17 -2 17 -16c0 -19 18 -189 23 -219c1 -7 0 -12 -5 -13l-22 -6c-5 -2 -9 2 -12 11c-11 40 -38 91 -80 134c-43 42 -96 75 -172 75c-146 0 -208 -133 -207 -281
c0 -63 18 -186 89 -261c65 -67 122 -75 156 -75c114 0 199 52 236 107c5 8 10 12 15 8z" />
    <glyph glyph-name="Cacute" unicode="&#x106;" horiz-adv-x="752" 
d="M426 -15c-133 0 -203 36 -266 92c-74 66 -109 181 -109 267c0 103 33 196 103 271c57 61 140 108 264 108c91 0 166 -23 201 -42c14 -7 19 -6 21 1l8 25c2 6 4 6 19 6s17 -2 17 -16c0 -19 18 -189 23 -219c1 -7 0 -12 -5 -13l-22 -6c-5 -2 -9 2 -12 11
c-11 40 -38 91 -80 134c-43 42 -96 75 -172 75c-146 0 -208 -133 -207 -281c0 -63 18 -186 89 -261c65 -67 122 -75 156 -75c114 0 199 52 236 107c5 8 10 12 15 8l17 -15c3 -2 4 -6 0 -12c-58 -84 -155 -165 -296 -165zM357 769l-13 16c-2 2 -1 5 1 7l130 135
c10 11 26 20 45 20c28 0 49 -24 49 -50c0 -18 -19 -38 -37 -47l-168 -81c-4 -2 -5 -2 -7 0z" />
    <glyph glyph-name="Ccaron" unicode="&#x10c;" horiz-adv-x="752" 
d="M426 -15c-133 0 -203 36 -266 92c-74 66 -109 181 -109 267c0 103 33 196 103 271c57 61 140 108 264 108c91 0 166 -23 201 -42c14 -7 19 -6 21 1l8 25c2 6 4 6 19 6s17 -2 17 -16c0 -19 18 -189 23 -219c1 -7 0 -12 -5 -13l-22 -6c-5 -2 -9 2 -12 11
c-11 40 -38 91 -80 134c-43 42 -96 75 -172 75c-146 0 -208 -133 -207 -281c0 -63 18 -186 89 -261c65 -67 122 -75 156 -75c114 0 199 52 236 107c5 8 10 12 15 8l17 -15c3 -2 4 -6 0 -12c-58 -84 -155 -165 -296 -165zM397 784l-131 127c-3 3 -3 5 -1 8l7 9c2 3 5 3 9 2
l141 -54l127 53c5 2 8 3 10 0l8 -10c3 -3 2 -5 -2 -9l-136 -131c-5 -4 -10 -9 -13 -9c-4 0 -8 4 -19 14z" />
    <glyph glyph-name="Dcaron" unicode="&#x10e;" horiz-adv-x="841" 
d="M122 384v75c0 26 -3 168 -5 183c-3 24 -16 28 -33 28h-50c-5 0 -8 1 -8 7v29c0 4 3 5 7 5c13 0 57 -3 157 -3c26 0 126 3 149 3c136 0 244 -12 339 -91c66 -55 112 -138 112 -254c0 -115 -33 -191 -99 -263c-97 -105 -268 -106 -331 -106c-16 0 -134 3 -189 3
c-87 0 -127 -3 -141 -3c-5 0 -7 2 -7 9v26c0 4 3 6 8 6h52c19 0 30 8 32 24c3 21 7 246 7 322zM272 433v-71c0 -13 1 -183 2 -245c0 -20 4 -36 17 -55c12 -18 46 -24 80 -24c58 0 135 29 187 98c40 53 71 135 71 228c0 82 -34 166 -81 218c-53 59 -141 91 -199 91
c-28 0 -43 -1 -56 -8c-15 -7 -19 -23 -20 -43c-1 -42 -1 -173 -1 -189zM401 784l-131 127c-3 3 -3 5 -1 8l7 9c2 3 5 3 9 2l141 -54l127 53c5 2 8 3 10 0l8 -10c3 -3 2 -5 -2 -9l-136 -131c-5 -4 -10 -9 -13 -9c-4 0 -8 4 -19 14z" />
    <glyph glyph-name="Dcroat" unicode="&#x110;" horiz-adv-x="841" 
d="M122 378v81c0 26 -3 168 -5 183c-3 24 -16 28 -33 28h-50c-5 0 -8 1 -8 7v29c0 4 3 5 7 5c13 0 57 -3 157 -3c26 0 126 3 149 3c141 0 247 -15 339 -91c66 -55 112 -138 112 -254c0 -115 -33 -191 -99 -263c-96 -106 -263 -106 -331 -106c-16 0 -134 3 -189 3
c-87 0 -127 -3 -141 -3c-5 0 -7 2 -7 9v26c0 4 3 6 8 6h52c19 0 30 8 32 22c3 16 7 150 7 244v28h-83c-3 0 -4 1 -4 8v32c0 5 2 6 6 6h81zM272 433v-55h146c4 0 6 -1 6 -7v-34c0 -4 -3 -5 -8 -5h-144v-22c0 -16 1 -131 2 -193c0 -20 4 -36 16 -56c13 -18 52 -23 81 -23
c68 0 133 31 187 98c41 52 71 135 71 228c0 82 -34 166 -81 218c-53 58 -131 91 -199 91c-28 0 -43 -1 -56 -7c-15 -7 -19 -19 -20 -44c-1 -42 -1 -173 -1 -189z" />
    <glyph glyph-name="Egrave" unicode="&#xc8;" horiz-adv-x="695" 
d="M450 785l-13 -16c-2 -2 -3 -2 -7 0l-170 79c-18 8 -36 27 -36 47c0 24 19 52 50 52c19 0 35 -10 45 -20l130 -135c3 -2 3 -5 1 -7zM277 674l-3 -291c46 0 90 3 102 6c17 4 31 13 46 31c11 15 23 43 23 62c0 7 3 9 8 9l27 -3c5 -1 9 -2 8 -8c-3 -17 -3 -69 -3 -104
c0 -45 4 -93 6 -114c1 -6 -3 -7 -8 -8l-24 -5c-4 -1 -6 1 -8 8c-4 16 -14 39 -20 51c-11 19 -35 32 -55 35c-27 4 -58 6 -102 6v-60c0 -54 5 -151 5 -169c0 -52 11 -70 24 -76c15 -6 34 -9 84 -9c17 0 59 1 80 3c20 2 50 12 76 33s82 83 102 107c4 4 7 5 10 3l17 -10
c4 -2 5 -5 4 -8l-45 -151c-3 -9 -10 -15 -22 -15c-5 0 -27 1 -91 2c-65 0 -171 1 -344 1c-37 0 -65 -1 -85 -1c-21 -1 -34 -2 -43 -2c-7 0 -9 3 -9 11v21c0 6 3 9 10 9h30c46 0 50 7 50 42v335c0 83 -2 206 -3 216c-4 32 -14 39 -41 39h-39c-4 0 -5 3 -5 10v24c0 3 1 7 7 7
c22 0 57 -3 148 -3l351 1c16 0 35 2 40 2s7 -2 8 -5c4 -14 37 -151 41 -161c2 -5 2 -7 -3 -10l-16 -8c-4 -2 -9 -1 -12 4c-5 8 -95 98 -118 112c-21 13 -49 26 -76 27z" />
    <glyph glyph-name="Eacute" unicode="&#xc9;" horiz-adv-x="695" 
d="M334 769l-13 16c-2 2 -1 5 1 7l130 135c10 11 26 20 45 20c28 0 49 -24 49 -50c0 -18 -19 -38 -37 -47l-168 -81c-4 -2 -5 -2 -7 0zM277 674l-3 -291c46 0 90 3 102 6c17 4 31 13 46 31c11 15 23 43 23 62c0 7 3 9 8 9l27 -3c5 -1 9 -2 8 -8c-3 -17 -3 -69 -3 -104
c0 -45 4 -93 6 -114c1 -6 -3 -7 -8 -8l-24 -5c-4 -1 -6 1 -8 8c-4 16 -14 39 -20 51c-11 19 -35 32 -55 35c-27 4 -58 6 -102 6v-60c0 -54 5 -151 5 -169c0 -52 11 -70 24 -76c15 -6 34 -9 84 -9c17 0 59 1 80 3c20 2 50 12 76 33s82 83 102 107c4 4 7 5 10 3l17 -10
c4 -2 5 -5 4 -8l-45 -151c-3 -9 -10 -15 -22 -15c-5 0 -27 1 -91 2c-65 0 -171 1 -344 1c-37 0 -65 -1 -85 -1c-21 -1 -34 -2 -43 -2c-7 0 -9 3 -9 11v21c0 6 3 9 10 9h30c46 0 50 7 50 42v335c0 83 -2 206 -3 216c-4 32 -14 39 -41 39h-39c-4 0 -5 3 -5 10v24c0 3 1 7 7 7
c22 0 57 -3 148 -3l351 1c16 0 35 2 40 2s7 -2 8 -5c4 -14 37 -151 41 -161c2 -5 2 -7 -3 -10l-16 -8c-4 -2 -9 -1 -12 4c-5 8 -95 98 -118 112c-21 13 -49 26 -76 27z" />
    <glyph glyph-name="Ecircumflex" unicode="&#xca;" horiz-adv-x="695" 
d="M380 915l132 -127c3 -3 3 -5 1 -8l-7 -9c-2 -3 -5 -3 -9 -1l-138 54l-129 -54c-4 -2 -7 -3 -10 0l-8 10c-2 3 -1 5 3 9l133 131c5 4 10 9 13 9c4 0 9 -5 19 -14zM277 674l-3 -291c46 0 90 3 102 6c17 4 31 13 46 31c11 15 23 43 23 62c0 7 3 9 8 9l27 -3c5 -1 9 -2 8 -8
c-3 -17 -3 -69 -3 -104c0 -45 4 -93 6 -114c1 -6 -3 -7 -8 -8l-24 -5c-4 -1 -6 1 -8 8c-4 16 -14 39 -20 51c-11 19 -35 32 -55 35c-27 4 -58 6 -102 6v-60c0 -54 5 -151 5 -169c0 -52 11 -70 24 -76c15 -6 34 -9 84 -9c17 0 59 1 80 3c20 2 50 12 76 33s82 83 102 107
c4 4 7 5 10 3l17 -10c4 -2 5 -5 4 -8l-45 -151c-3 -9 -10 -15 -22 -15c-5 0 -27 1 -91 2c-65 0 -171 1 -344 1c-37 0 -65 -1 -85 -1c-21 -1 -34 -2 -43 -2c-7 0 -9 3 -9 11v21c0 6 3 9 10 9h30c46 0 50 7 50 42v335c0 83 -2 206 -3 216c-4 32 -14 39 -41 39h-39
c-4 0 -5 3 -5 10v24c0 3 1 7 7 7c22 0 57 -3 148 -3l351 1c16 0 35 2 40 2s7 -2 8 -5c4 -14 37 -151 41 -161c2 -5 2 -7 -3 -10l-16 -8c-4 -2 -9 -1 -12 4c-5 8 -95 98 -118 112c-21 13 -49 26 -76 27z" />
    <glyph glyph-name="Edieresis" unicode="&#xcb;" horiz-adv-x="695" 
d="M473 787c-27 0 -66 12 -66 62c0 19 14 57 66 57c31 0 58 -21 58 -61c0 -31 -25 -58 -58 -58zM251 787c-27 0 -66 12 -66 62c0 19 14 57 66 57c30 0 57 -21 57 -61c0 -31 -26 -58 -57 -58zM277 674l-3 -291c46 0 90 3 102 6c17 4 31 13 46 31c11 15 23 43 23 62
c0 7 3 9 8 9l27 -3c5 -1 9 -2 8 -8c-3 -17 -3 -69 -3 -104c0 -45 4 -93 6 -114c1 -6 -3 -7 -8 -8l-24 -5c-4 -1 -6 1 -8 8c-4 16 -14 39 -20 51c-11 19 -35 32 -55 35c-27 4 -58 6 -102 6v-60c0 -54 5 -151 5 -169c0 -52 11 -70 24 -76c15 -6 34 -9 84 -9c17 0 59 1 80 3
c20 2 50 12 76 33s82 83 102 107c4 4 7 5 10 3l17 -10c4 -2 5 -5 4 -8l-45 -151c-3 -9 -10 -15 -22 -15c-5 0 -27 1 -91 2c-65 0 -171 1 -344 1c-37 0 -65 -1 -85 -1c-21 -1 -34 -2 -43 -2c-7 0 -9 3 -9 11v21c0 6 3 9 10 9h30c46 0 50 7 50 42v335c0 83 -2 206 -3 216
c-4 32 -14 39 -41 39h-39c-4 0 -5 3 -5 10v24c0 3 1 7 7 7c22 0 57 -3 148 -3l351 1c16 0 35 2 40 2s7 -2 8 -5c4 -14 37 -151 41 -161c2 -5 2 -7 -3 -10l-16 -8c-4 -2 -9 -1 -12 4c-5 8 -95 98 -118 112c-21 13 -49 26 -76 27z" />
    <glyph glyph-name="Emacron" unicode="&#x112;" horiz-adv-x="695" 
d="M277 674l-3 -291c46 0 90 3 102 6c17 4 31 13 46 31c11 15 23 43 23 62c0 7 3 9 8 9l27 -3c5 -1 9 -2 8 -8c-3 -17 -3 -69 -3 -104c0 -45 4 -93 6 -114c1 -6 -3 -7 -8 -8l-24 -5c-4 -1 -6 1 -8 8c-4 16 -14 39 -20 51c-11 19 -35 32 -55 35c-27 4 -58 6 -102 6v-60
c0 -54 5 -151 5 -169c0 -52 11 -70 24 -76c15 -6 34 -9 84 -9c17 0 59 1 80 3c20 2 50 12 76 33s82 83 102 107c4 4 7 5 10 3l17 -10c4 -2 5 -5 4 -8l-45 -151c-3 -9 -10 -15 -22 -15c-5 0 -27 1 -91 2c-65 0 -171 1 -344 1c-37 0 -65 -1 -85 -1c-21 -1 -34 -2 -43 -2
c-7 0 -9 3 -9 11v21c0 6 3 9 10 9h30c46 0 50 7 50 42v335c0 83 -2 206 -3 216c-4 32 -14 39 -41 39h-39c-4 0 -5 3 -5 10v24c0 3 1 7 7 7c22 0 57 -3 148 -3l351 1c16 0 35 2 40 2s7 -2 8 -5c4 -14 37 -151 41 -161c2 -5 2 -7 -3 -10l-16 -8c-4 -2 -9 -1 -12 4
c-5 8 -95 98 -118 112c-21 13 -49 26 -76 27zM481 794h-269c-6 0 -8 2 -8 8v59c0 8 2 10 8 10h271c7 0 9 -2 9 -10v-59c0 -6 -4 -8 -11 -8z" />
    <glyph glyph-name="Edotaccent" unicode="&#x116;" horiz-adv-x="695" 
d="M277 674l-3 -291c46 0 90 3 102 6c17 4 31 13 46 31c11 15 23 43 23 62c0 7 3 9 8 9l27 -3c5 -1 9 -2 8 -8c-3 -17 -3 -69 -3 -104c0 -45 4 -93 6 -114c1 -6 -3 -7 -8 -8l-24 -5c-4 -1 -6 1 -8 8c-4 16 -14 39 -20 51c-11 19 -35 32 -55 35c-27 4 -58 6 -102 6v-60
c0 -54 5 -151 5 -169c0 -52 11 -70 24 -76c15 -6 34 -9 84 -9c17 0 59 1 80 3c20 2 50 12 76 33s82 83 102 107c4 4 7 5 10 3l17 -10c4 -2 5 -5 4 -8l-45 -151c-3 -9 -10 -15 -22 -15c-5 0 -27 1 -91 2c-65 0 -171 1 -344 1c-37 0 -65 -1 -85 -1c-21 -1 -34 -2 -43 -2
c-7 0 -9 3 -9 11v21c0 6 3 9 10 9h30c46 0 50 7 50 42v335c0 83 -2 206 -3 216c-4 32 -14 39 -41 39h-39c-4 0 -5 3 -5 10v24c0 3 1 7 7 7c22 0 57 -3 148 -3l351 1c16 0 35 2 40 2s7 -2 8 -5c4 -14 37 -151 41 -161c2 -5 2 -7 -3 -10l-16 -8c-4 -2 -9 -1 -12 4
c-5 8 -95 98 -118 112c-21 13 -49 26 -76 27zM353 787c-29 0 -73 12 -73 68c0 21 16 63 73 63c33 0 62 -24 62 -68c0 -34 -28 -63 -62 -63z" />
    <glyph glyph-name="Eogonek" unicode="&#x118;" horiz-adv-x="695" 
d="M545 709c16 0 35 2 40 2s7 -2 8 -5c4 -14 37 -151 41 -161c2 -5 2 -7 -3 -10l-16 -8c-4 -2 -9 -1 -12 4c-5 8 -95 98 -118 112c-21 13 -49 26 -76 27l-132 4l-3 -291c46 0 90 3 101 7c17 4 32 12 47 30c12 15 23 43 23 62c0 7 3 9 8 9l27 -3c5 -1 9 -2 8 -8
c-3 -17 -3 -69 -3 -104c0 -45 4 -93 6 -114c1 -6 -3 -7 -8 -8l-24 -5c-4 -1 -6 1 -9 8c-4 16 -13 39 -19 51c-11 19 -35 32 -55 35c-27 4 -58 6 -102 6v-60c0 -54 5 -151 5 -169c0 -52 11 -70 24 -76c15 -6 34 -9 84 -9c17 0 59 1 80 3c20 2 50 12 76 33s82 83 102 107
c4 4 7 5 10 3l17 -10c4 -2 5 -5 4 -8l-45 -151c-3 -9 -10 -13 -22 -15c-23 -4 -42 -15 -55 -25c-37 -28 -63 -71 -63 -129c0 -41 22 -65 55 -65c32 0 55 19 70 30c8 7 14 11 18 11c9 0 12 -9 12 -17c0 -26 -56 -83 -147 -83c-62 0 -124 32 -124 100c0 74 82 139 153 180
c-65 0 -181 1 -354 1c-37 0 -65 -1 -85 -1c-21 -1 -34 -2 -43 -2c-7 0 -9 3 -9 11v21c0 6 3 9 10 9h30c46 0 50 7 50 42v335c0 83 -2 206 -3 216c-4 32 -14 39 -41 39h-39c-4 0 -5 3 -5 10v24c0 3 1 7 7 7c22 0 57 -3 148 -3z" />
    <glyph glyph-name="Ecaron" unicode="&#x11a;" horiz-adv-x="695" 
d="M277 674l-3 -291c46 0 90 3 102 6c17 4 31 13 46 31c11 15 23 43 23 62c0 7 3 9 8 9l27 -3c5 -1 9 -2 8 -8c-3 -17 -3 -69 -3 -104c0 -45 4 -93 6 -114c1 -6 -3 -7 -8 -8l-24 -5c-4 -1 -6 1 -8 8c-4 16 -14 39 -20 51c-11 19 -35 32 -55 35c-27 4 -58 6 -102 6v-60
c0 -54 5 -151 5 -169c0 -52 11 -70 24 -76c15 -6 34 -9 84 -9c17 0 59 1 80 3c20 2 50 12 76 33s82 83 102 107c4 4 7 5 10 3l17 -10c4 -2 5 -5 4 -8l-45 -151c-3 -9 -10 -15 -22 -15c-5 0 -27 1 -91 2c-65 0 -171 1 -344 1c-37 0 -65 -1 -85 -1c-21 -1 -34 -2 -43 -2
c-7 0 -9 3 -9 11v21c0 6 3 9 10 9h30c46 0 50 7 50 42v335c0 83 -2 206 -3 216c-4 32 -14 39 -41 39h-39c-4 0 -5 3 -5 10v24c0 3 1 7 7 7c22 0 57 -3 148 -3l351 1c16 0 35 2 40 2s7 -2 8 -5c4 -14 37 -151 41 -161c2 -5 2 -7 -3 -10l-16 -8c-4 -2 -9 -1 -12 4
c-5 8 -95 98 -118 112c-21 13 -49 26 -76 27zM348 784l-131 127c-3 3 -3 5 -1 8l7 9c2 3 5 3 9 2l141 -54l127 53c5 2 8 3 10 0l8 -10c3 -3 2 -5 -2 -9l-136 -131c-5 -4 -10 -9 -13 -9c-4 0 -8 4 -19 14z" />
    <glyph glyph-name="Gbreve" unicode="&#x11e;" horiz-adv-x="840" 
d="M738 229v-132c0 -14 4 -24 4 -32s-6 -12 -16 -16c-81 -41 -166 -64 -293 -64c-104 0 -221 33 -290 114c-61 69 -92 154 -92 275c0 91 43 188 116 251c73 64 163 98 283 98c101 0 176 -28 209 -49c12 -7 19 -5 25 3l10 16c5 7 7 10 13 10c11 0 14 -7 14 -18l15 -206
c1 -12 0 -17 -4 -18l-28 -6c-6 -1 -9 1 -12 10c-16 49 -48 113 -91 152c-39 37 -90 62 -158 62c-54 0 -104 -17 -151 -75c-46 -55 -80 -138 -80 -228c0 -118 33 -221 87 -275c47 -47 85 -68 153 -68c52 0 80 4 113 20c21 10 23 42 23 94v72c0 36 -10 46 -35 46h-42
c-6 0 -7 4 -7 9v25c0 4 1 7 7 7c9 0 58 -3 148 -3c92 0 129 3 137 3s9 -3 9 -8v-25c0 -6 -1 -8 -7 -8h-29c-18 0 -31 -7 -31 -36zM313 923l15 7c2 1 5 -1 7 -7c28 -51 73 -67 125 -67c62 0 111 34 124 67c2 6 6 8 9 6l15 -8c3 -3 3 -6 2 -12c-14 -56 -74 -142 -155 -142
c-74 0 -136 68 -145 139c-2 9 0 16 3 17z" />
    <glyph glyph-name="Gcommaaccent" unicode="&#x122;" horiz-adv-x="840" 
d="M738 229v-132c0 -14 4 -24 4 -32s-6 -12 -16 -16c-81 -41 -166 -64 -293 -64c-104 0 -221 33 -290 114c-61 69 -92 154 -92 275c0 91 43 188 116 251c73 64 163 98 283 98c101 0 176 -28 209 -49c12 -7 19 -5 25 3l10 16c5 7 7 10 13 10c11 0 14 -7 14 -18l15 -206
c1 -12 0 -17 -4 -18l-28 -6c-6 -1 -9 1 -12 10c-16 49 -48 113 -91 152c-39 37 -90 62 -158 62c-54 0 -104 -17 -151 -75c-46 -55 -80 -138 -80 -228c0 -118 33 -221 87 -275c47 -47 85 -68 153 -68c52 0 80 4 113 20c21 10 23 42 23 94v72c0 36 -10 46 -35 46h-42
c-6 0 -7 4 -7 9v25c0 4 1 7 7 7c9 0 58 -3 148 -3c92 0 129 3 137 3s9 -3 9 -8v-25c0 -6 -1 -8 -7 -8h-29c-18 0 -31 -7 -31 -36zM441 -60c39 0 78 -30 78 -86c-1 -89 -82 -143 -95 -151c-9 -5 -17 -8 -24 -8c-5 0 -8 3 -8 8c0 4 4 9 9 11c12 9 45 53 45 95
c0 11 -6 21 -12 25c-8 4 -44 12 -44 57c0 26 21 49 51 49z" />
    <glyph glyph-name="Igrave" unicode="&#xcc;" horiz-adv-x="415" 
d="M133 349v70c0 24 -3 204 -4 217c-2 24 -12 34 -33 34h-48c-5 0 -8 2 -8 6v29c0 4 3 6 7 6c12 0 63 -3 161 -3c102 0 134 3 148 3c5 0 7 -3 7 -9v-25c0 -5 -3 -7 -8 -7h-29c-25 0 -40 -8 -40 -26c0 -10 -3 -231 -3 -243v-77c0 -10 3 -241 3 -250c0 -31 15 -36 34 -36h41
c5 0 8 -2 8 -7v-28c0 -4 -3 -6 -9 -6c-12 0 -52 3 -147 3c-105 0 -148 -3 -159 -3c-5 0 -8 2 -8 8v27c0 4 3 6 8 6h29c20 0 41 3 45 27c2 15 5 231 5 284zM260 785l-13 -16c-2 -2 -3 -2 -7 0l-170 79c-18 8 -36 27 -36 47c0 24 19 52 50 52c19 0 35 -10 45 -20l130 -135
c3 -2 3 -5 1 -7z" />
    <glyph glyph-name="Iacute" unicode="&#xcd;" horiz-adv-x="415" 
d="M133 349v70c0 24 -3 204 -4 217c-2 24 -12 34 -33 34h-48c-5 0 -8 2 -8 6v29c0 4 3 6 7 6c12 0 63 -3 161 -3c102 0 134 3 148 3c5 0 7 -3 7 -9v-25c0 -5 -3 -7 -8 -7h-29c-25 0 -40 -8 -40 -26c0 -10 -3 -231 -3 -243v-77c0 -10 3 -241 3 -250c0 -31 15 -36 34 -36h41
c5 0 8 -2 8 -7v-28c0 -4 -3 -6 -9 -6c-12 0 -52 3 -147 3c-105 0 -148 -3 -159 -3c-5 0 -8 2 -8 8v27c0 4 3 6 8 6h29c20 0 41 3 45 27c2 15 5 231 5 284zM189 769l-13 16c-2 2 -1 5 1 7l130 135c10 11 26 20 45 20c28 0 49 -24 49 -50c0 -18 -19 -38 -37 -47l-168 -81
c-4 -2 -5 -2 -7 0z" />
    <glyph glyph-name="Icircumflex" unicode="&#xce;" horiz-adv-x="415" 
d="M133 349v70c0 24 -3 204 -4 217c-2 24 -12 34 -33 34h-48c-5 0 -8 2 -8 6v29c0 4 3 6 7 6c12 0 63 -3 161 -3c102 0 134 3 148 3c5 0 7 -3 7 -9v-25c0 -5 -3 -7 -8 -7h-29c-25 0 -40 -8 -40 -26c0 -10 -3 -231 -3 -243v-77c0 -10 3 -241 3 -250c0 -31 15 -36 34 -36h41
c5 0 8 -2 8 -7v-28c0 -4 -3 -6 -9 -6c-12 0 -52 3 -147 3c-105 0 -148 -3 -159 -3c-5 0 -8 2 -8 8v27c0 4 3 6 8 6h29c20 0 41 3 45 27c2 15 5 231 5 284zM225 915l132 -127c3 -3 3 -5 1 -8l-7 -9c-2 -3 -5 -3 -9 -1l-138 54l-129 -54c-4 -2 -7 -3 -10 0l-8 10
c-2 3 -1 5 3 9l133 131c5 4 10 9 13 9c4 0 9 -5 19 -14z" />
    <glyph glyph-name="Idieresis" unicode="&#xcf;" horiz-adv-x="415" 
d="M133 349v70c0 24 -3 204 -4 217c-2 24 -12 34 -33 34h-48c-5 0 -8 2 -8 6v29c0 4 3 6 7 6c12 0 63 -3 161 -3c102 0 134 3 148 3c5 0 7 -3 7 -9v-25c0 -5 -3 -7 -8 -7h-29c-25 0 -40 -8 -40 -26c0 -10 -3 -231 -3 -243v-77c0 -10 3 -241 3 -250c0 -31 15 -36 34 -36h41
c5 0 8 -2 8 -7v-28c0 -4 -3 -6 -9 -6c-12 0 -52 3 -147 3c-105 0 -148 -3 -159 -3c-5 0 -8 2 -8 8v27c0 4 3 6 8 6h29c20 0 41 3 45 27c2 15 5 231 5 284zM101 787c-27 0 -66 12 -66 62c0 19 14 57 66 57c30 0 57 -21 57 -61c0 -31 -26 -58 -57 -58zM323 787
c-27 0 -66 12 -66 62c0 19 14 57 66 57c31 0 58 -21 58 -61c0 -31 -25 -58 -58 -58z" />
    <glyph glyph-name="Imacron" unicode="&#x12a;" horiz-adv-x="415" 
d="M133 349v70c0 24 -3 204 -4 217c-2 24 -12 34 -33 34h-48c-5 0 -8 2 -8 6v29c0 4 3 6 7 6c12 0 63 -3 161 -3c102 0 134 3 148 3c5 0 7 -3 7 -9v-25c0 -5 -3 -7 -8 -7h-29c-25 0 -40 -8 -40 -26c0 -10 -3 -231 -3 -243v-77c0 -10 3 -241 3 -250c0 -31 15 -36 34 -36h41
c5 0 8 -2 8 -7v-28c0 -4 -3 -6 -9 -6c-12 0 -52 3 -147 3c-105 0 -148 -3 -159 -3c-5 0 -8 2 -8 8v27c0 4 3 6 8 6h29c20 0 41 3 45 27c2 15 5 231 5 284zM341 794h-269c-6 0 -8 2 -8 8v59c0 8 2 10 8 10h271c7 0 9 -2 9 -10v-59c0 -6 -4 -8 -11 -8z" />
    <glyph glyph-name="Iogonek" unicode="&#x12e;" horiz-adv-x="415" 
d="M133 419c0 24 -3 204 -4 217c-2 24 -12 34 -33 34h-48c-5 0 -8 2 -8 6v29c0 4 3 6 7 6c12 0 63 -3 161 -3c102 0 134 3 148 3c5 0 7 -3 7 -9v-25c0 -5 -3 -7 -8 -7h-29c-25 0 -40 -8 -40 -26c0 -10 -3 -231 -3 -243v-77c0 -10 3 -241 3 -250c0 -31 15 -36 34 -36h41
c5 0 8 -2 8 -7v-28c0 -4 -3 -6 -9 -6c-8 0 -26 2 -64 2c-56 0 -95 -75 -95 -133c0 -50 17 -82 56 -82c33 0 60 25 73 38c7 7 13 12 17 12c9 1 14 -9 14 -17c0 -39 -75 -98 -158 -98c-55 0 -114 32 -114 100c0 62 46 126 115 181c-105 0 -139 -3 -150 -3c-5 0 -8 2 -8 8v27
c0 4 3 6 8 6h29c20 0 41 3 45 27c2 15 5 231 5 284v70z" />
    <glyph glyph-name="Idotaccent" unicode="&#x130;" horiz-adv-x="415" 
d="M133 349v70c0 24 -3 204 -4 217c-2 24 -12 34 -33 34h-48c-5 0 -8 2 -8 6v29c0 4 3 6 7 6c12 0 63 -3 161 -3c102 0 134 3 148 3c5 0 7 -3 7 -9v-25c0 -5 -3 -7 -8 -7h-29c-25 0 -40 -8 -40 -26c0 -10 -3 -231 -3 -243v-77c0 -10 3 -241 3 -250c0 -31 15 -36 34 -36h41
c5 0 8 -2 8 -7v-28c0 -4 -3 -6 -9 -6c-12 0 -52 3 -147 3c-105 0 -148 -3 -159 -3c-5 0 -8 2 -8 8v27c0 4 3 6 8 6h29c20 0 41 3 45 27c2 15 5 231 5 284zM213 787c-29 0 -73 12 -73 68c0 21 16 63 73 63c33 0 62 -24 62 -68c0 -34 -28 -63 -62 -63z" />
    <glyph glyph-name="Kcommaaccent" unicode="&#x136;" horiz-adv-x="740" 
d="M268 421v-37h17c8 0 19 5 28 13c18 14 180 219 193 236c18 24 0 39 -20 39h-17c-4 0 -5 2 -5 7v25c0 5 2 7 6 7c12 0 53 -3 132 -3c49 0 84 3 96 3c5 0 7 -2 7 -7v-27c0 -5 -3 -7 -8 -7h-16c-14 0 -38 -5 -58 -17c-55 -33 -185 -183 -219 -229c64 -81 227 -310 271 -361
c19 -22 42 -25 54 -25h12c5 0 7 -3 7 -7v-27c0 -5 -2 -7 -8 -7c-10 0 -43 3 -143 3c-83 0 -122 -3 -136 -3c-4 0 -6 2 -6 8v26c0 4 2 6 6 6h15c17 0 18 17 14 26c-9 20 -164 250 -181 269c-6 7 -16 14 -27 14h-14v-75c0 -50 2 -197 3 -211c1 -13 10 -22 23 -22h31
c5 0 8 -2 8 -6v-28c0 -4 -1 -7 -6 -7c-12 0 -42 3 -135 3c-92 0 -124 -3 -133 -3c-5 0 -7 2 -7 7v28c0 5 3 6 7 6h31c18 0 25 8 27 18c1 9 3 190 3 313v58c0 18 -3 208 -3 219s-5 24 -30 24h-25c-6 0 -8 2 -8 7v28c0 4 2 6 8 6c12 0 42 -3 132 -3c87 0 120 3 133 3
c6 0 8 -2 8 -8v-26c0 -5 -2 -7 -7 -7h-24c-20 0 -33 -7 -33 -29c0 -15 -3 -171 -3 -220zM371 -40c39 0 78 -30 78 -86c-1 -89 -82 -143 -95 -151c-9 -5 -17 -8 -24 -8c-5 0 -8 3 -8 8c0 4 4 9 9 11c12 9 45 53 45 95c0 11 -6 21 -12 25c-8 4 -44 12 -44 57c0 26 21 49 51 49
z" />
    <glyph glyph-name="Lacute" unicode="&#x139;" horiz-adv-x="663" 
d="M271 399v-86c0 -17 0 -233 3 -273h57c47 0 92 0 146 5s122 125 137 162c3 6 6 9 12 6l20 -8c3 -2 3 -3 2 -9c-3 -7 -43 -172 -49 -199c-26 2 -314 3 -406 3c-99 0 -135 -3 -148 -3c-7 0 -8 2 -8 9v25c0 5 1 7 7 7h31c37 0 43 14 43 25c0 19 3 268 3 329v56
c0 64 -2 170 -3 186c-2 26 -7 36 -30 36h-37c-6 0 -7 5 -7 10v24c0 5 1 7 7 7c11 0 47 -3 138 -3c117 0 159 3 168 3c8 0 9 -3 9 -10v-23c0 -5 -2 -8 -10 -8h-47c-31 0 -35 -10 -35 -37c0 -13 -3 -164 -3 -234zM115 769l-13 16c-2 2 -1 5 1 7l130 135c10 11 26 20 45 20
c28 0 49 -24 49 -50c0 -18 -19 -38 -37 -47l-168 -81c-4 -2 -5 -2 -7 0z" />
    <glyph glyph-name="Lcommaaccent" unicode="&#x13b;" horiz-adv-x="663" 
d="M271 399v-86c0 -17 0 -233 3 -273h57c47 0 92 0 146 5s122 125 137 162c3 6 6 9 12 6l20 -8c3 -2 3 -3 2 -9c-3 -7 -43 -172 -49 -199c-26 2 -314 3 -406 3c-99 0 -135 -3 -148 -3c-7 0 -8 2 -8 9v25c0 5 1 7 7 7h31c37 0 43 14 43 25c0 19 3 268 3 329v56
c0 64 -2 170 -3 186c-2 26 -7 36 -30 36h-37c-6 0 -7 5 -7 10v24c0 5 1 7 7 7c11 0 47 -3 138 -3c117 0 159 3 168 3c8 0 9 -3 9 -10v-23c0 -5 -2 -8 -10 -8h-47c-31 0 -35 -10 -35 -37c0 -13 -3 -164 -3 -234zM313 -60c39 0 78 -30 78 -86c-1 -89 -82 -143 -95 -151
c-9 -5 -17 -8 -24 -8c-5 0 -8 3 -8 8c0 4 4 9 9 11c12 9 45 53 45 95c0 11 -6 21 -12 25c-8 4 -44 12 -44 57c0 26 21 49 51 49z" />
    <glyph glyph-name="Lcaron" unicode="&#x13d;" horiz-adv-x="663" 
d="M271 399v-86c0 -17 0 -233 3 -273h57c47 0 92 0 146 5s122 125 137 162c3 6 6 9 12 6l20 -8c3 -2 3 -3 2 -9c-3 -7 -43 -172 -49 -199c-26 2 -314 3 -406 3c-99 0 -135 -3 -148 -3c-7 0 -8 2 -8 9v25c0 5 1 7 7 7h31c37 0 43 14 43 25c0 19 3 268 3 329v56
c0 64 -2 170 -3 186c-2 26 -7 36 -30 36h-37c-6 0 -7 5 -7 10v24c0 5 1 7 7 7c11 0 47 -3 138 -3c117 0 159 3 168 3c8 0 9 -3 9 -10v-23c0 -5 -2 -8 -10 -8h-47c-31 0 -35 -10 -35 -37c0 -13 -3 -164 -3 -234zM553 718c39 0 78 -30 78 -86c-1 -89 -82 -143 -95 -151
c-9 -5 -17 -8 -24 -8c-5 0 -8 3 -8 8c0 4 4 9 9 11c12 9 45 53 45 95c0 11 -6 21 -12 25c-8 4 -44 12 -44 57c0 26 21 49 51 49z" />
    <glyph glyph-name="Lslash" unicode="&#x141;" horiz-adv-x="663" 
d="M648 196c-3 -7 -43 -172 -49 -199c-26 2 -314 3 -406 3c-99 0 -135 -3 -148 -3c-7 0 -8 2 -8 9v25c0 5 1 7 7 7h38c30 0 36 14 36 25c0 12 3 123 3 209v28l-82 -30c-3 -1 -7 -1 -9 5l-9 32c-1 3 1 6 5 7l95 35v99c0 64 -2 170 -3 186c-2 26 -7 36 -30 36h-37
c-6 0 -7 5 -7 10v24c0 5 1 7 7 7c11 0 47 -3 138 -3c117 0 159 3 168 3c8 0 9 -3 9 -10v-23c0 -5 -2 -8 -10 -8h-55c-23 0 -27 -10 -27 -37c0 -13 -3 -164 -3 -218v-16l203 79c4 1 7 1 8 -5l10 -32c1 -4 -2 -6 -5 -7l-216 -83v-38c0 -17 0 -233 3 -273h57c47 0 92 0 146 5
s122 125 137 162c3 6 6 8 12 6l20 -8c3 -2 3 -3 2 -9z" />
    <glyph glyph-name="Ntilde" unicode="&#xd1;" horiz-adv-x="810" 
d="M658 200v91c0 89 -1 138 -3 188c-1 39 -6 137 -9 152c-6 25 -30 39 -53 39h-32c-5 0 -6 3 -6 9v25c0 5 1 7 9 7c11 0 43 -3 117 -3c60 0 84 3 95 3c9 0 10 -2 10 -8v-24c0 -5 -1 -9 -5 -9h-28c-17 0 -27 -17 -30 -53c-7 -67 -23 -293 -23 -425v-171c0 -15 -1 -33 -15 -33
c-15 0 -28 5 -39 16c-17 16 -66 69 -126 140c-72 85 -152 181 -171 203c-17 20 -155 192 -178 225h-8v-202c0 -83 9 -206 10 -244c2 -58 20 -88 62 -88h25c7 0 8 -3 8 -9v-24c0 -6 -1 -8 -8 -8c-10 0 -70 3 -117 3c-31 0 -100 -3 -110 -3c-4 0 -5 2 -5 9v26c0 3 1 6 6 6h35
c22 0 38 32 43 99c1 19 9 179 9 327v90c0 59 -36 115 -86 116l-25 1c-5 0 -6 4 -6 7v27c0 4 1 6 6 6s13 -1 32 -1c20 -1 52 -2 104 -2c34 0 64 2 76 2c13 0 21 -4 29 -13c5 -6 202 -247 232 -284c14 -17 160 -200 171 -213h4zM302 772h-18c-4 0 -5 4 -4 17
c7 63 42 113 94 113c21 0 43 -7 92 -18c44 -10 63 -19 81 -19c25 0 32 19 36 39c1 4 3 6 7 6h17c4 0 5 -4 4 -18c-4 -49 -34 -106 -81 -106c-25 0 -52 6 -102 19c-44 11 -59 17 -77 17c-19 0 -36 -15 -42 -45c-1 -4 -4 -5 -7 -5z" />
    <glyph glyph-name="Nacute" unicode="&#x143;" horiz-adv-x="810" 
d="M658 200v91c0 89 -1 138 -3 188c-1 39 -6 137 -9 152c-6 25 -30 39 -53 39h-32c-5 0 -6 3 -6 9v25c0 5 1 7 9 7c11 0 43 -3 117 -3c60 0 84 3 95 3c9 0 10 -2 10 -8v-24c0 -5 -1 -9 -5 -9h-28c-17 0 -27 -17 -30 -53c-7 -67 -23 -293 -23 -425v-171c0 -15 -1 -33 -15 -33
c-15 0 -28 5 -39 16c-17 16 -66 69 -126 140c-72 85 -152 181 -171 203c-17 20 -155 192 -178 225h-8v-202c0 -83 9 -206 10 -244c2 -58 20 -88 62 -88h25c7 0 8 -3 8 -9v-24c0 -6 -1 -8 -8 -8c-10 0 -70 3 -117 3c-31 0 -100 -3 -110 -3c-4 0 -5 2 -5 9v26c0 3 1 6 6 6h35
c22 0 38 32 43 99c1 19 9 179 9 327v90c0 59 -36 115 -86 116l-25 1c-5 0 -6 4 -6 7v27c0 4 1 6 6 6s13 -1 32 -1c20 -1 52 -2 104 -2c34 0 64 2 76 2c13 0 21 -4 29 -13c5 -6 202 -247 232 -284c14 -17 160 -200 171 -213h4zM356 769l-13 16c-2 2 -1 5 1 7l130 135
c10 11 26 20 45 20c28 0 49 -24 49 -50c0 -18 -19 -38 -37 -47l-168 -81c-4 -2 -5 -2 -7 0z" />
    <glyph glyph-name="Ncommaaccent" unicode="&#x145;" horiz-adv-x="810" 
d="M658 200v91c0 89 -1 138 -3 188c-1 39 -6 137 -9 152c-6 25 -30 39 -53 39h-32c-5 0 -6 3 -6 9v25c0 5 1 7 9 7c11 0 43 -3 117 -3c60 0 84 3 95 3c9 0 10 -2 10 -8v-24c0 -5 -1 -9 -5 -9h-28c-17 0 -27 -17 -30 -53c-7 -67 -23 -293 -23 -425v-171c0 -15 -1 -33 -15 -33
c-15 0 -28 5 -39 16c-17 16 -66 69 -126 140c-72 85 -152 181 -171 203c-17 20 -155 192 -178 225h-8v-202c0 -83 9 -206 10 -244c2 -58 20 -88 62 -88h25c7 0 8 -3 8 -9v-24c0 -6 -1 -8 -8 -8c-10 0 -70 3 -117 3c-31 0 -100 -3 -110 -3c-4 0 -5 2 -5 9v26c0 3 1 6 6 6h35
c22 0 38 32 43 99c1 19 9 179 9 327v90c0 59 -36 115 -86 116l-25 1c-5 0 -6 4 -6 7v27c0 4 1 6 6 6s13 -1 32 -1c20 -1 52 -2 104 -2c34 0 64 2 76 2c13 0 21 -4 29 -13c5 -6 202 -247 232 -284c14 -17 160 -200 171 -213h4zM406 -20c39 0 78 -30 78 -86
c-1 -89 -82 -143 -95 -151c-9 -5 -17 -8 -24 -8c-5 0 -8 3 -8 8c0 4 4 9 9 11c12 9 45 53 45 95c0 11 -6 21 -12 25c-8 4 -44 12 -44 57c0 26 21 49 51 49z" />
    <glyph glyph-name="Ncaron" unicode="&#x147;" horiz-adv-x="810" 
d="M658 200v91c0 89 -1 138 -3 188c-1 39 -6 137 -9 152c-6 25 -30 39 -53 39h-32c-5 0 -6 3 -6 9v25c0 5 1 7 9 7c11 0 43 -3 117 -3c60 0 84 3 95 3c9 0 10 -2 10 -8v-24c0 -5 -1 -9 -5 -9h-28c-17 0 -27 -17 -30 -53c-7 -67 -23 -293 -23 -425v-171c0 -15 -1 -33 -15 -33
c-15 0 -28 5 -39 16c-17 16 -66 69 -126 140c-72 85 -152 181 -171 203c-17 20 -155 192 -178 225h-8v-202c0 -83 9 -206 10 -244c2 -58 20 -88 62 -88h25c7 0 8 -3 8 -9v-24c0 -6 -1 -8 -8 -8c-10 0 -70 3 -117 3c-31 0 -100 -3 -110 -3c-4 0 -5 2 -5 9v26c0 3 1 6 6 6h35
c22 0 38 32 43 99c1 19 9 179 9 327v90c0 59 -36 115 -86 116l-25 1c-5 0 -6 4 -6 7v27c0 4 1 6 6 6s13 -1 32 -1c20 -1 52 -2 104 -2c34 0 64 2 76 2c13 0 21 -4 29 -13c5 -6 202 -247 232 -284c14 -17 160 -200 171 -213h4zM386 784l-131 127c-3 3 -3 5 -1 8l7 9
c2 3 5 3 9 2l141 -54l127 53c5 2 8 3 10 0l8 -10c3 -3 2 -5 -2 -9l-136 -131c-5 -4 -10 -9 -13 -9c-4 0 -8 4 -19 14z" />
    <glyph glyph-name="Ograve" unicode="&#xd2;" horiz-adv-x="867" 
d="M433 -15c-69 0 -156 16 -235 65c-71 43 -147 151 -147 297c0 61 16 156 93 249c88 107 201 127 291 127c83 0 160 -13 244 -79c76 -60 137 -161 137 -299c0 -73 -23 -149 -75 -219c-65 -81 -150 -141 -308 -141zM441 32c185 0 218 223 218 305c0 219 -144 339 -228 339
c-20 0 -70 5 -131 -54c-59 -56 -89 -161 -89 -243c0 -256 147 -347 230 -347zM476 785l-13 -16c-2 -2 -3 -2 -7 0l-170 79c-18 8 -36 27 -36 47c0 24 19 52 50 52c19 0 35 -10 45 -20l130 -135c3 -2 3 -5 1 -7z" />
    <glyph glyph-name="Oacute" unicode="&#xd3;" horiz-adv-x="867" 
d="M433 -15c-69 0 -156 16 -235 65c-71 43 -147 151 -147 297c0 61 16 156 93 249c88 107 201 127 291 127c83 0 160 -13 244 -79c76 -60 137 -161 137 -299c0 -73 -23 -149 -75 -219c-65 -81 -150 -141 -308 -141zM441 32c185 0 218 223 218 305c0 219 -144 339 -228 339
c-20 0 -70 5 -131 -54c-59 -56 -89 -161 -89 -243c0 -256 147 -347 230 -347zM415 769l-13 16c-2 2 -1 5 1 7l130 135c10 11 26 20 45 20c28 0 49 -24 49 -50c0 -18 -19 -38 -37 -47l-168 -81c-4 -2 -5 -2 -7 0z" />
    <glyph glyph-name="Ocircumflex" unicode="&#xd4;" horiz-adv-x="867" 
d="M433 -15c-69 0 -156 16 -235 65c-71 43 -147 151 -147 297c0 61 16 156 93 249c88 107 201 127 291 127c83 0 160 -13 244 -79c76 -60 137 -161 137 -299c0 -73 -23 -149 -75 -219c-65 -81 -150 -141 -308 -141zM441 32c185 0 218 223 218 305c0 219 -144 339 -228 339
c-20 0 -70 5 -131 -54c-59 -56 -89 -161 -89 -243c0 -256 147 -347 230 -347zM451 915l132 -127c3 -3 3 -5 1 -8l-7 -9c-2 -3 -5 -3 -9 -1l-138 54l-129 -54c-4 -2 -7 -3 -10 0l-8 10c-2 3 -1 5 3 9l133 131c5 4 10 9 13 9c4 0 9 -5 19 -14z" />
    <glyph glyph-name="Otilde" unicode="&#xd5;" horiz-adv-x="867" 
d="M433 -15c-69 0 -156 16 -235 65c-71 43 -147 151 -147 297c0 61 16 156 93 249c88 107 201 127 291 127c83 0 160 -13 244 -79c76 -60 137 -161 137 -299c0 -73 -23 -149 -75 -219c-65 -81 -150 -141 -308 -141zM441 32c185 0 218 223 218 305c0 219 -144 339 -228 339
c-20 0 -70 5 -131 -54c-59 -56 -89 -161 -89 -243c0 -256 147 -347 230 -347zM285 772h-18c-4 0 -5 4 -4 17c7 63 42 113 94 113c21 0 43 -7 92 -18c44 -10 63 -19 81 -19c25 0 32 19 36 39c1 4 3 6 7 6h17c4 0 5 -4 4 -18c-4 -49 -34 -106 -81 -106c-25 0 -52 6 -102 19
c-44 11 -59 17 -77 17c-19 0 -36 -15 -42 -45c-1 -4 -4 -5 -7 -5z" />
    <glyph glyph-name="Odieresis" unicode="&#xd6;" horiz-adv-x="867" 
d="M433 -15c-69 0 -156 16 -235 65c-71 43 -147 151 -147 297c0 61 16 156 93 249c88 107 201 127 291 127c83 0 160 -13 244 -79c76 -60 137 -161 137 -299c0 -73 -23 -149 -75 -219c-65 -81 -150 -141 -308 -141zM441 32c185 0 218 223 218 305c0 219 -144 339 -228 339
c-20 0 -70 5 -131 -54c-59 -56 -89 -161 -89 -243c0 -256 147 -347 230 -347zM327 787c-27 0 -66 12 -66 62c0 19 14 57 66 57c30 0 57 -21 57 -61c0 -31 -26 -58 -57 -58zM549 787c-27 0 -66 12 -66 62c0 19 14 57 66 57c31 0 58 -21 58 -61c0 -31 -25 -58 -58 -58z" />
    <glyph glyph-name="Oslash" unicode="&#xd8;" horiz-adv-x="867" 
d="M183 62l-75 -77c-4 -3 -7 -3 -10 0l-31 30c-2 2 -2 6 2 8l74 75c-50 54 -92 141 -92 249c0 61 16 156 93 249c88 107 201 127 291 127c83 0 160 -13 244 -79l82 81c2 2 5 2 9 -1l31 -26c4 -3 3 -7 1 -9l-82 -83c55 -59 96 -148 96 -261c0 -73 -23 -149 -75 -219
c-61 -81 -150 -141 -308 -141c-82 0 -202 31 -250 77zM623 513l-356 -364c50 -83 125 -117 174 -117c182 0 218 216 218 305c0 69 -15 128 -36 176zM244 198l354 361c-48 82 -117 117 -167 117c-20 0 -71 3 -127 -51c-62 -59 -93 -164 -93 -246c0 -76 15 -137 33 -181z" />
    <glyph glyph-name="Omacron" unicode="&#x14c;" horiz-adv-x="867" 
d="M433 -15c-69 0 -156 16 -235 65c-71 43 -147 151 -147 297c0 61 16 156 93 249c88 107 201 127 291 127c83 0 160 -13 244 -79c76 -60 137 -161 137 -299c0 -73 -23 -149 -75 -219c-65 -81 -150 -141 -308 -141zM441 32c185 0 218 223 218 305c0 219 -144 339 -228 339
c-20 0 -70 5 -131 -54c-59 -56 -89 -161 -89 -243c0 -256 147 -347 230 -347zM567 794h-269c-6 0 -8 2 -8 8v59c0 8 2 10 8 10h271c7 0 9 -2 9 -10v-59c0 -6 -4 -8 -11 -8z" />
    <glyph glyph-name="Ohungarumlaut" unicode="&#x150;" horiz-adv-x="867" 
d="M433 -15c-69 0 -156 16 -235 65c-71 43 -147 151 -147 297c0 61 16 156 93 249c88 107 201 127 291 127c83 0 160 -13 244 -79c76 -60 137 -161 137 -299c0 -73 -23 -149 -75 -219c-65 -81 -150 -141 -308 -141zM441 32c185 0 218 223 218 305c0 219 -144 339 -228 339
c-20 0 -70 5 -131 -54c-59 -56 -89 -161 -89 -243c0 -256 147 -347 230 -347zM274 769l-14 16c-2 2 0 5 2 7l133 127c15 15 31 27 49 27c26 0 44 -27 44 -48c0 -18 -14 -39 -36 -49l-172 -80c-4 -2 -4 -2 -6 0zM453 769l-14 16c-2 2 0 5 2 7l133 127c16 15 31 27 47 27
c26 0 47 -27 47 -48c0 -18 -15 -39 -36 -49l-173 -80c-4 -2 -6 -2 -6 0z" />
    <glyph glyph-name="Racute" unicode="&#x154;" horiz-adv-x="735" 
d="M124 358v97c0 74 0 138 -1 165c-1 33 -14 50 -28 50h-40c-5 0 -6 3 -6 7v27c0 5 1 7 6 7c9 0 40 -3 149 -3c56 0 144 3 185 3c78 0 136 -28 177 -66c36 -33 57 -72 57 -109c0 -127 -95 -184 -183 -192v-7c31 -10 47 -29 66 -53c13 -16 68 -105 76 -117
c6 -9 60 -85 80 -108c12 -13 50 -21 73 -21c7 0 8 -4 8 -8v-24c0 -6 -1 -9 -8 -9c-8 0 -34 3 -111 3c-29 0 -66 -2 -95 -3c-30 23 -92 139 -109 173c-34 68 -75 142 -123 142h-34v-51c0 -59 3 -171 5 -184c2 -21 10 -39 25 -39h41c7 0 8 -3 8 -8v-24c0 -7 -1 -9 -16 -9
c-1 0 -26 3 -131 3c-106 0 -129 -3 -140 -3c-8 0 -8 3 -8 10v23c0 5 0 8 5 8h30c22 0 40 7 40 32c2 99 2 193 2 288zM269 639l-5 -292c19 -1 31 -1 40 -1c132 0 163 126 163 173c0 46 -16 90 -38 112c-36 32 -81 44 -111 44c-17 0 -30 -2 -38 -9c-6 -4 -9 -15 -11 -27z
M309 769l-13 16c-2 2 -1 5 1 7l130 135c10 11 26 20 45 20c28 0 49 -24 49 -50c0 -18 -19 -38 -37 -47l-168 -81c-4 -2 -5 -2 -7 0z" />
    <glyph glyph-name="Rcommaaccent" unicode="&#x156;" horiz-adv-x="735" 
d="M124 358v97c0 74 0 138 -1 165c-1 33 -14 50 -28 50h-40c-5 0 -6 3 -6 7v27c0 5 1 7 6 7c9 0 40 -3 149 -3c56 0 144 3 185 3c78 0 136 -28 177 -66c36 -33 57 -72 57 -109c0 -127 -95 -184 -183 -192v-7c31 -10 47 -29 66 -53c13 -16 68 -105 76 -117
c6 -9 60 -85 80 -108c12 -13 50 -21 73 -21c7 0 8 -4 8 -8v-24c0 -6 -1 -9 -8 -9c-8 0 -34 3 -111 3c-29 0 -66 -2 -95 -3c-30 23 -92 139 -109 173c-34 68 -75 142 -123 142h-34v-51c0 -59 3 -171 5 -184c2 -21 10 -39 25 -39h41c7 0 8 -3 8 -8v-24c0 -7 -1 -9 -16 -9
c-1 0 -26 3 -131 3c-106 0 -129 -3 -140 -3c-8 0 -8 3 -8 10v23c0 5 0 8 5 8h30c22 0 40 7 40 32c2 99 2 193 2 288zM269 639l-5 -292c19 -1 31 -1 40 -1c132 0 163 126 163 173c0 46 -16 90 -38 112c-36 32 -81 44 -111 44c-17 0 -30 -2 -38 -9c-6 -4 -9 -15 -11 -27z
M389 -60c39 0 78 -30 78 -86c-1 -89 -82 -143 -95 -151c-9 -5 -17 -8 -24 -8c-5 0 -8 3 -8 8c0 4 4 9 9 11c12 9 45 53 45 95c0 11 -6 21 -12 25c-8 4 -44 12 -44 57c0 26 21 49 51 49z" />
    <glyph glyph-name="Rcaron" unicode="&#x158;" horiz-adv-x="735" 
d="M124 358v97c0 74 0 138 -1 165c-1 33 -14 50 -28 50h-40c-5 0 -6 3 -6 7v27c0 5 1 7 6 7c9 0 40 -3 149 -3c56 0 144 3 185 3c78 0 136 -28 177 -66c36 -33 57 -72 57 -109c0 -127 -95 -184 -183 -192v-7c31 -10 47 -29 66 -53c13 -16 68 -105 76 -117
c6 -9 60 -85 80 -108c12 -13 50 -21 73 -21c7 0 8 -4 8 -8v-24c0 -6 -1 -9 -8 -9c-8 0 -34 3 -111 3c-29 0 -66 -2 -95 -3c-30 23 -92 139 -109 173c-34 68 -75 142 -123 142h-34v-51c0 -59 3 -171 5 -184c2 -21 10 -39 25 -39h41c7 0 8 -3 8 -8v-24c0 -7 -1 -9 -16 -9
c-1 0 -26 3 -131 3c-106 0 -129 -3 -140 -3c-8 0 -8 3 -8 10v23c0 5 0 8 5 8h30c22 0 40 7 40 32c2 99 2 193 2 288zM269 639l-5 -292c19 -1 31 -1 40 -1c132 0 163 126 163 173c0 46 -16 90 -38 112c-36 32 -81 44 -111 44c-17 0 -30 -2 -38 -9c-6 -4 -9 -15 -11 -27z
M348 784l-131 127c-3 3 -3 5 -1 8l7 9c2 3 5 3 9 2l141 -54l127 53c5 2 8 3 10 0l8 -10c3 -3 2 -5 -2 -9l-136 -131c-5 -4 -10 -9 -13 -9c-4 0 -8 4 -19 14z" />
    <glyph glyph-name="Sacute" unicode="&#x15a;" horiz-adv-x="574" 
d="M79 223l26 -2c4 0 7 -1 7 -8c2 -31 16 -74 40 -113c29 -46 78 -68 126 -68s125 32 125 111c0 83 -16 107 -146 156c-30 11 -94 43 -145 87c-35 31 -50 84 -50 142c0 61 15 102 75 147c45 34 83 48 144 48c73 0 112 -12 133 -20c10 -4 17 -2 23 5l13 13c4 4 9 6 15 6
c7 0 9 -11 10 -17l16 -171c0 -4 -2 -5 -5 -6l-22 -7c-5 -2 -10 0 -13 7c-11 29 -28 68 -62 104c-25 28 -55 42 -100 42c-75 0 -106 -65 -106 -91c0 -37 1 -67 26 -92c26 -27 83 -51 132 -65c48 -14 87 -39 128 -76c39 -35 55 -79 55 -149c0 -122 -87 -221 -219 -221
c-90 0 -137 15 -179 43c-12 8 -18 11 -23 11c-6 0 -10 -7 -16 -17c-6 -11 -11 -12 -18 -12c-11 0 -15 5 -14 16l16 190c1 7 4 7 8 7zM228 769l-13 16c-2 2 -1 5 1 7l130 135c10 11 26 20 45 20c28 0 49 -24 49 -50c0 -18 -19 -38 -37 -47l-168 -81c-4 -2 -5 -2 -7 0z" />
    <glyph glyph-name="Scedilla" unicode="&#x15e;" horiz-adv-x="574" 
d="M524 206c0 -115 -78 -210 -198 -220l-47 -61c65 -11 95 -41 95 -75c0 -63 -93 -96 -208 -96c-21 0 -25 9 -25 20c0 14 15 17 40 17c33 0 74 18 74 53c0 23 -26 41 -62 49l72 94c-65 4 -104 18 -139 41c-12 8 -18 11 -23 11c-6 0 -10 -7 -16 -17c-6 -11 -11 -12 -18 -12
c-11 0 -15 5 -14 16l16 190c1 7 4 7 8 7l26 -2c4 0 7 -1 7 -8c2 -31 16 -74 40 -113c29 -46 78 -68 126 -68s125 32 125 111c0 83 -16 107 -146 156c-30 11 -94 43 -145 87c-35 31 -50 84 -50 142c0 61 15 102 75 147c45 34 83 48 144 48c73 0 112 -12 133 -20
c10 -4 16 -2 23 5l13 13c4 4 9 6 15 6c7 0 9 -11 10 -17l16 -171c0 -4 -2 -5 -5 -6l-22 -7c-5 -2 -10 0 -13 7c-11 29 -28 68 -62 104c-25 28 -55 42 -100 42c-75 0 -106 -65 -106 -91c0 -37 1 -67 26 -92c26 -27 83 -51 132 -65c48 -14 87 -39 128 -76
c39 -35 55 -79 55 -149z" />
    <glyph glyph-name="Scaron" unicode="&#x160;" horiz-adv-x="574" 
d="M79 223l26 -2c4 0 7 -1 7 -8c2 -31 16 -74 40 -113c29 -46 78 -68 126 -68s125 32 125 111c0 83 -16 107 -146 156c-30 11 -94 43 -145 87c-35 31 -50 84 -50 142c0 61 15 102 75 147c45 34 83 48 144 48c73 0 112 -12 133 -20c10 -4 17 -2 23 5l13 13c4 4 9 6 15 6
c7 0 9 -11 10 -17l16 -171c0 -4 -2 -5 -5 -6l-22 -7c-5 -2 -10 0 -13 7c-11 29 -28 68 -62 104c-25 28 -55 42 -100 42c-75 0 -106 -65 -106 -91c0 -37 1 -67 26 -92c26 -27 83 -51 132 -65c48 -14 87 -39 128 -76c39 -35 55 -79 55 -149c0 -122 -87 -221 -219 -221
c-90 0 -137 15 -179 43c-12 8 -18 11 -23 11c-6 0 -10 -7 -16 -17c-6 -11 -11 -12 -18 -12c-11 0 -15 5 -14 16l16 190c1 7 4 7 8 7zM288 784l-131 127c-3 3 -3 5 -1 8l7 9c2 3 5 3 9 2l141 -54l127 53c5 2 8 3 10 0l8 -10c3 -3 2 -5 -2 -9l-136 -131c-5 -4 -10 -9 -13 -9
c-4 0 -8 4 -19 14z" />
    <glyph glyph-name="Scommaaccent" unicode="&#x218;" horiz-adv-x="574" 
d="M79 223l26 -2c4 0 7 -1 7 -8c2 -31 16 -74 40 -113c29 -46 78 -68 126 -68s125 32 125 111c0 83 -16 107 -146 156c-30 11 -94 43 -145 87c-35 31 -50 84 -50 142c0 61 15 102 75 147c45 34 83 48 144 48c73 0 112 -12 133 -20c10 -4 17 -2 23 5l13 13c4 4 9 6 15 6
c7 0 9 -11 10 -17l16 -171c0 -4 -2 -5 -5 -6l-22 -7c-5 -2 -10 0 -13 7c-11 29 -28 68 -62 104c-25 28 -55 42 -100 42c-75 0 -106 -65 -106 -91c0 -37 1 -67 26 -92c26 -27 83 -51 132 -65c48 -14 87 -39 128 -76c39 -35 55 -79 55 -149c0 -122 -87 -221 -219 -221
c-90 0 -137 15 -179 43c-12 8 -18 11 -23 11c-6 0 -10 -7 -16 -17c-6 -11 -11 -12 -18 -12c-11 0 -15 5 -14 16l16 190c1 7 4 7 8 7zM288 -60c39 0 78 -30 78 -86c-1 -89 -82 -143 -95 -151c-9 -5 -17 -8 -24 -8c-5 0 -8 3 -8 8c0 4 4 9 9 11c12 9 45 53 45 95
c0 11 -6 21 -12 25c-8 4 -44 12 -44 57c0 26 21 49 51 49z" />
    <glyph glyph-name="Tcommaaccent" unicode="&#x162;" horiz-adv-x="738" 
d="M288 415v247h-35c-32 0 -92 -1 -134 -16c-22 -16 -66 -77 -91 -113c-3 -5 -6 -8 -10 -7l-22 8c-4 1 -5 6 -4 9c11 42 44 174 48 194c3 13 8 17 15 17s10 -4 19 -15c11 -14 30 -23 66 -25c53 -3 95 -6 199 -6h58c109 0 152 4 194 6c22 1 61 13 73 25c10 10 16 15 23 15
s10 -4 12 -16c3 -22 22 -146 30 -199c1 -4 -1 -8 -4 -9l-21 -8c-4 -1 -6 2 -10 9c-22 36 -61 88 -86 112c-25 15 -114 19 -137 19h-33v-275c0 -14 0 -294 1 -309c2 -25 10 -40 34 -40h45c9 0 10 -3 10 -10v-23c0 -5 -1 -8 -10 -8c-10 0 -42 3 -153 3c-106 0 -148 -3 -162 -3
c-8 0 -9 4 -9 12v19c0 7 1 10 7 10h51c20 0 32 12 34 30c2 21 2 328 2 347zM350 -60c39 0 78 -30 78 -86c-1 -89 -82 -143 -95 -151c-9 -5 -17 -8 -24 -8c-5 0 -8 3 -8 8c0 4 4 9 9 11c12 9 45 53 45 95c0 11 -6 21 -12 25c-8 4 -44 12 -44 57c0 26 21 49 51 49z" />
    <glyph glyph-name="Tcaron" unicode="&#x164;" horiz-adv-x="738" 
d="M288 415v247h-35c-32 0 -92 -1 -134 -16c-22 -16 -66 -77 -91 -113c-3 -5 -6 -8 -10 -7l-22 8c-4 1 -5 6 -4 9c11 42 44 174 48 194c3 13 8 17 15 17s10 -4 19 -15c11 -14 30 -23 66 -25c53 -3 95 -6 199 -6h58c109 0 152 4 194 6c22 1 61 13 73 25c10 10 16 15 23 15
s10 -4 12 -16c3 -22 22 -146 30 -199c1 -4 -1 -8 -4 -9l-21 -8c-4 -1 -6 2 -10 9c-22 36 -61 88 -86 112c-25 15 -114 19 -137 19h-33v-275c0 -14 0 -294 1 -309c2 -25 10 -40 34 -40h45c9 0 10 -3 10 -10v-23c0 -5 -1 -8 -10 -8c-10 0 -42 3 -153 3c-106 0 -148 -3 -162 -3
c-8 0 -9 4 -9 12v19c0 7 1 10 7 10h51c20 0 32 12 34 30c2 21 2 328 2 347zM350 784l-131 127c-3 3 -3 5 -1 8l7 9c2 3 5 3 9 2l141 -54l127 53c5 2 8 3 10 0l8 -10c3 -3 2 -5 -2 -9l-136 -131c-5 -4 -10 -9 -13 -9c-4 0 -8 4 -19 14z" />
    <glyph glyph-name="Ugrave" unicode="&#xd9;" horiz-adv-x="730" 
d="M88 383v236c0 35 -7 51 -28 51h-47c-6 0 -7 2 -7 9v24c0 6 1 8 9 8c10 0 59 -3 164 -3c88 0 136 3 147 3c8 0 9 -2 9 -8v-26c0 -5 -1 -7 -8 -7h-34c-34 0 -51 -19 -53 -39c-1 -11 -2 -79 -2 -130v-66c0 -53 4 -180 5 -212c1 -46 10 -91 32 -119c33 -40 80 -56 125 -56
c37 0 91 19 118 44c40 36 63 91 63 163v154c0 84 -10 194 -14 217c-4 26 -20 44 -37 44h-32c-6 0 -7 3 -7 8v26c0 5 1 7 7 7c10 0 56 -3 124 -3c54 0 86 3 95 3s10 -4 10 -9v-22c0 -6 -1 -10 -6 -10h-31c-38 0 -41 -28 -43 -38c-2 -14 -2 -152 -2 -166s-2 -189 -5 -228
c-6 -82 -33 -145 -85 -191c-44 -39 -112 -62 -177 -62c-47 0 -111 7 -153 25c-48 21 -92 68 -116 132c-17 43 -21 110 -21 241zM448 785l-13 -16c-2 -2 -3 -2 -7 0l-170 79c-18 8 -36 27 -36 47c0 24 19 52 50 52c19 0 35 -10 45 -20l130 -135c3 -2 3 -5 1 -7z" />
    <glyph glyph-name="Uacute" unicode="&#xda;" horiz-adv-x="730" 
d="M88 383v236c0 35 -7 51 -28 51h-47c-6 0 -7 2 -7 9v24c0 6 1 8 9 8c10 0 59 -3 164 -3c88 0 136 3 147 3c8 0 9 -2 9 -8v-26c0 -5 -1 -7 -8 -7h-34c-34 0 -51 -19 -53 -39c-1 -11 -2 -79 -2 -130v-66c0 -53 4 -180 5 -212c1 -46 10 -91 32 -119c33 -40 80 -56 125 -56
c37 0 91 19 118 44c40 36 63 91 63 163v154c0 84 -10 194 -14 217c-4 26 -20 44 -37 44h-32c-6 0 -7 3 -7 8v26c0 5 1 7 7 7c10 0 56 -3 124 -3c54 0 86 3 95 3s10 -4 10 -9v-22c0 -6 -1 -10 -6 -10h-31c-38 0 -41 -28 -43 -38c-2 -14 -2 -152 -2 -166s-2 -189 -5 -228
c-6 -82 -33 -145 -85 -191c-44 -39 -112 -62 -177 -62c-47 0 -111 7 -153 25c-48 21 -92 68 -116 132c-17 43 -21 110 -21 241zM371 769l-13 16c-2 2 -1 5 1 7l130 135c10 11 26 20 45 20c28 0 49 -24 49 -50c0 -18 -19 -38 -37 -47l-168 -81c-4 -2 -5 -2 -7 0z" />
    <glyph glyph-name="Ucircumflex" unicode="&#xdb;" horiz-adv-x="730" 
d="M88 383v236c0 35 -7 51 -28 51h-47c-6 0 -7 2 -7 9v24c0 6 1 8 9 8c10 0 59 -3 164 -3c88 0 136 3 147 3c8 0 9 -2 9 -8v-26c0 -5 -1 -7 -8 -7h-34c-34 0 -51 -19 -53 -39c-1 -11 -2 -79 -2 -130v-66c0 -53 4 -180 5 -212c1 -46 10 -91 32 -119c33 -40 80 -56 125 -56
c37 0 91 19 118 44c40 36 63 91 63 163v154c0 84 -10 194 -14 217c-4 26 -20 44 -37 44h-32c-6 0 -7 3 -7 8v26c0 5 1 7 7 7c10 0 56 -3 124 -3c54 0 86 3 95 3s10 -4 10 -9v-22c0 -6 -1 -10 -6 -10h-31c-38 0 -41 -28 -43 -38c-2 -14 -2 -152 -2 -166s-2 -189 -5 -228
c-6 -82 -33 -145 -85 -191c-44 -39 -112 -62 -177 -62c-47 0 -111 7 -153 25c-48 21 -92 68 -116 132c-17 43 -21 110 -21 241zM423 915l132 -127c3 -3 3 -5 1 -8l-7 -9c-2 -3 -5 -3 -9 -1l-138 54l-129 -54c-4 -2 -7 -3 -10 0l-8 10c-2 3 -1 5 3 9l133 131c5 4 10 9 13 9
c4 0 9 -5 19 -14z" />
    <glyph glyph-name="Udieresis" unicode="&#xdc;" horiz-adv-x="730" 
d="M88 383v236c0 35 -7 51 -28 51h-47c-6 0 -7 2 -7 9v24c0 6 1 8 9 8c10 0 59 -3 164 -3c88 0 136 3 147 3c8 0 9 -2 9 -8v-26c0 -5 -1 -7 -8 -7h-34c-34 0 -51 -19 -53 -39c-1 -11 -2 -79 -2 -130v-66c0 -53 4 -180 5 -212c1 -46 10 -91 32 -119c33 -40 80 -56 125 -56
c37 0 91 19 118 44c40 36 63 91 63 163v154c0 84 -10 194 -14 217c-4 26 -20 44 -37 44h-32c-6 0 -7 3 -7 8v26c0 5 1 7 7 7c10 0 56 -3 124 -3c54 0 86 3 95 3s10 -4 10 -9v-22c0 -6 -1 -10 -6 -10h-31c-38 0 -41 -28 -43 -38c-2 -14 -2 -152 -2 -166s-2 -189 -5 -228
c-6 -82 -33 -145 -85 -191c-44 -39 -112 -62 -177 -62c-47 0 -111 7 -153 25c-48 21 -92 68 -116 132c-17 43 -21 110 -21 241zM308 787c-27 0 -66 12 -66 62c0 19 14 57 66 57c30 0 57 -21 57 -61c0 -31 -26 -58 -57 -58zM530 787c-27 0 -66 12 -66 62c0 19 14 57 66 57
c31 0 58 -21 58 -61c0 -31 -25 -58 -58 -58z" />
    <glyph glyph-name="Umacron" unicode="&#x16a;" horiz-adv-x="730" 
d="M88 383v236c0 35 -7 51 -28 51h-47c-6 0 -7 2 -7 9v24c0 6 1 8 9 8c10 0 59 -3 164 -3c88 0 136 3 147 3c8 0 9 -2 9 -8v-26c0 -5 -1 -7 -8 -7h-34c-34 0 -51 -19 -53 -39c-1 -11 -2 -79 -2 -130v-66c0 -53 4 -180 5 -212c1 -46 10 -91 32 -119c33 -40 80 -56 125 -56
c37 0 91 19 118 44c40 36 63 91 63 163v154c0 84 -10 194 -14 217c-4 26 -20 44 -37 44h-32c-6 0 -7 3 -7 8v26c0 5 1 7 7 7c10 0 56 -3 124 -3c54 0 86 3 95 3s10 -4 10 -9v-22c0 -6 -1 -10 -6 -10h-31c-38 0 -41 -28 -43 -38c-2 -14 -2 -152 -2 -166s-2 -189 -5 -228
c-6 -82 -33 -145 -85 -191c-44 -39 -112 -62 -177 -62c-47 0 -111 7 -153 25c-48 21 -92 68 -116 132c-17 43 -21 110 -21 241zM528 794h-269c-6 0 -8 2 -8 8v59c0 8 2 10 8 10h271c7 0 9 -2 9 -10v-59c0 -6 -4 -8 -11 -8z" />
    <glyph glyph-name="Uring" unicode="&#x16e;" horiz-adv-x="730" 
d="M88 383v236c0 35 -7 51 -28 51h-47c-6 0 -7 2 -7 9v24c0 6 1 8 9 8c10 0 59 -3 164 -3c88 0 136 3 147 3c8 0 9 -2 9 -8v-26c0 -5 -1 -7 -8 -7h-34c-34 0 -51 -19 -53 -39c-1 -11 -2 -79 -2 -130v-66c0 -53 4 -180 5 -212c1 -46 10 -91 32 -119c33 -40 80 -56 125 -56
c37 0 91 19 118 44c40 36 63 91 63 163v154c0 84 -10 194 -14 217c-4 26 -20 44 -37 44h-32c-6 0 -7 3 -7 8v26c0 5 1 7 7 7c10 0 56 -3 124 -3c54 0 86 3 95 3s10 -4 10 -9v-22c0 -6 -1 -10 -6 -10h-31c-38 0 -41 -28 -43 -38c-2 -14 -2 -152 -2 -166s-2 -189 -5 -228
c-6 -82 -33 -145 -85 -191c-44 -39 -112 -62 -177 -62c-47 0 -111 7 -153 25c-48 21 -92 68 -116 132c-17 43 -21 110 -21 241zM390 784c-63 0 -124 30 -124 86c0 59 63 94 133 94c73 0 125 -34 125 -84c0 -76 -77 -96 -134 -96zM395 818c29 0 49 17 49 57
c0 39 -25 55 -47 55c-33 -1 -51 -25 -51 -55c0 -37 18 -57 49 -57z" />
    <glyph glyph-name="Uhungarumlaut" unicode="&#x170;" horiz-adv-x="730" 
d="M88 383v236c0 35 -7 51 -28 51h-47c-6 0 -7 2 -7 9v24c0 6 1 8 9 8c10 0 59 -3 164 -3c88 0 136 3 147 3c8 0 9 -2 9 -8v-26c0 -5 -1 -7 -8 -7h-34c-34 0 -51 -19 -53 -39c-1 -11 -2 -79 -2 -130v-66c0 -53 4 -180 5 -212c1 -46 10 -91 32 -119c33 -40 80 -56 125 -56
c37 0 91 19 118 44c40 36 63 91 63 163v154c0 84 -10 194 -14 217c-4 26 -20 44 -37 44h-32c-6 0 -7 3 -7 8v26c0 5 1 7 7 7c10 0 56 -3 124 -3c54 0 86 3 95 3s10 -4 10 -9v-22c0 -6 -1 -10 -6 -10h-31c-38 0 -41 -28 -43 -38c-2 -14 -2 -152 -2 -166s-2 -189 -5 -228
c-6 -82 -33 -145 -85 -191c-44 -39 -112 -62 -177 -62c-47 0 -111 7 -153 25c-48 21 -92 68 -116 132c-17 43 -21 110 -21 241zM205 769l-14 16c-2 2 0 5 2 7l133 127c15 15 31 27 49 27c26 0 44 -27 44 -48c0 -18 -14 -39 -36 -49l-172 -80c-4 -2 -4 -2 -6 0zM384 769
l-14 16c-2 2 0 5 2 7l133 127c16 15 31 27 47 27c26 0 47 -27 47 -48c0 -18 -15 -39 -36 -49l-173 -80c-4 -2 -6 -2 -6 0z" />
    <glyph glyph-name="Uogonek" unicode="&#x172;" horiz-adv-x="730" 
d="M581 409c0 84 -10 194 -14 217c-4 26 -20 44 -37 44h-32c-6 0 -7 3 -7 8v26c0 5 1 7 7 7c10 0 56 -3 124 -3c54 0 86 3 95 3s10 -4 10 -9v-22c0 -6 -1 -10 -6 -10h-31c-38 0 -41 -28 -43 -38c-2 -14 -2 -152 -2 -166s-2 -189 -5 -228c-6 -82 -33 -145 -85 -191
c-22 -20 -63 -45 -85 -65c-40 -37 -66 -81 -66 -139c0 -41 22 -65 55 -65c32 0 55 19 70 30c8 7 14 11 18 11c9 0 12 -9 12 -17c0 -26 -56 -83 -147 -83c-62 0 -124 32 -124 100c0 74 73 125 127 165c-13 -1 -24 0 -36 0c-46 1 -115 9 -155 26c-48 21 -91 68 -115 132
c-17 43 -21 110 -21 241v236c0 35 -7 51 -28 51h-47c-6 0 -7 2 -7 9v24c0 6 1 8 9 8c10 0 59 -3 164 -3c88 0 136 3 147 3c8 0 9 -2 9 -8v-26c0 -5 -1 -7 -8 -7h-34c-34 0 -51 -19 -53 -39c-1 -11 -2 -79 -2 -130v-66c0 -53 5 -180 6 -212c2 -46 9 -91 31 -119
c33 -40 80 -56 125 -56c37 0 91 19 118 44c40 36 63 91 63 163v154z" />
    <glyph glyph-name="Yacute" unicode="&#xdd;" horiz-adv-x="613" 
d="M373 297v-111c0 -39 3 -104 4 -113c3 -32 18 -35 34 -35h29c7 0 7 -3 7 -7v-25c0 -6 0 -9 -7 -9c-12 0 -51 3 -145 3c-104 0 -135 -3 -146 -3c-4 0 -6 3 -6 10v24c0 4 1 7 7 7h35c26 0 34 10 35 23c1 14 3 93 3 186v43c-16 31 -176 323 -201 357c-12 15 -36 23 -52 23
h-15c-6 0 -7 3 -7 7v28c0 4 1 6 7 6c9 0 56 -3 145 -3c103 0 139 3 149 3c6 0 7 -2 7 -7v-25c0 -5 -1 -9 -7 -9h-23c-14 0 -24 -10 -24 -26c0 -18 119 -247 146 -305c30 55 150 266 150 297c0 17 -17 34 -38 34h-27c-6 0 -7 3 -7 9v26c0 4 1 6 7 6c10 0 51 -3 125 -3
c69 0 91 3 100 3c7 0 8 -2 8 -8v-24c0 -6 -1 -9 -8 -9h-18c-12 0 -42 -6 -57 -24c-13 -16 -169 -272 -210 -349zM343 769l-13 16c-2 2 -1 5 1 7l130 135c10 11 26 20 45 20c28 0 49 -24 49 -50c0 -18 -19 -38 -37 -47l-168 -81c-4 -2 -5 -2 -7 0z" />
    <glyph glyph-name="Ydieresis" unicode="&#x178;" horiz-adv-x="613" 
d="M373 297v-111c0 -39 3 -104 4 -113c3 -32 18 -35 34 -35h29c7 0 7 -3 7 -7v-25c0 -6 0 -9 -7 -9c-12 0 -51 3 -145 3c-104 0 -135 -3 -146 -3c-4 0 -6 3 -6 10v24c0 4 1 7 7 7h35c26 0 34 10 35 23c1 14 3 93 3 186v43c-16 31 -176 323 -201 357c-12 15 -36 23 -52 23
h-15c-6 0 -7 3 -7 7v28c0 4 1 6 7 6c9 0 56 -3 145 -3c103 0 139 3 149 3c6 0 7 -2 7 -7v-25c0 -5 -1 -9 -7 -9h-23c-14 0 -24 -10 -24 -26c0 -18 119 -247 146 -305c30 55 150 266 150 297c0 17 -17 34 -38 34h-27c-6 0 -7 3 -7 9v26c0 4 1 6 7 6c10 0 51 -3 125 -3
c69 0 91 3 100 3c7 0 8 -2 8 -8v-24c0 -6 -1 -9 -8 -9h-18c-12 0 -42 -6 -57 -24c-13 -16 -169 -272 -210 -349zM240 787c-27 0 -66 12 -66 62c0 19 14 57 66 57c30 0 57 -21 57 -61c0 -31 -26 -58 -57 -58zM462 787c-27 0 -66 12 -66 62c0 19 14 57 66 57
c31 0 58 -21 58 -61c0 -31 -25 -58 -58 -58z" />
    <glyph glyph-name="Zacute" unicode="&#x179;" horiz-adv-x="703" 
d="M487 672h-208c-14 0 -30 -1 -56 -19c-21 -14 -107 -111 -128 -138c-3 -5 -8 -8 -12 -6l-17 9c-3 1 -4 4 -3 9l63 178c3 9 9 11 14 11c7 0 15 -1 23 -2c47 -6 188 -6 271 -6c61 0 113 2 151 3c34 2 66 3 73 3c16 0 23 -13 14 -24c-8 -9 -446 -623 -466 -650h241
c28 0 49 0 74 11c29 13 127 116 141 133c4 4 8 5 13 3l17 -9c3 -2 5 -4 2 -9c-14 -23 -62 -146 -76 -173c-2 -5 -8 -10 -13 -10c-4 0 -12 1 -25 3c-55 7 -214 11 -304 11h-234c-8 0 -19 0 -19 8c0 6 1 14 5 20c41 63 452 632 459 644zM313 769l-13 16c-2 2 -1 5 1 7l130 135
c10 11 26 20 45 20c28 0 49 -24 49 -50c0 -18 -19 -38 -37 -47l-168 -81c-4 -2 -5 -2 -7 0z" />
    <glyph glyph-name="Zdotaccent" unicode="&#x17b;" horiz-adv-x="703" 
d="M487 672h-208c-14 0 -30 -1 -56 -19c-21 -14 -107 -111 -128 -138c-3 -5 -8 -8 -12 -6l-17 9c-3 1 -4 4 -3 9l63 178c3 9 9 11 14 11c7 0 15 -1 23 -2c47 -6 188 -6 271 -6c61 0 113 2 151 3c34 2 66 3 73 3c16 0 23 -13 14 -24c-8 -9 -446 -623 -466 -650h241
c28 0 49 0 74 11c29 13 127 116 141 133c4 4 8 5 13 3l17 -9c3 -2 5 -4 2 -9c-14 -23 -62 -146 -76 -173c-2 -5 -8 -10 -13 -10c-4 0 -12 1 -25 3c-55 7 -214 11 -304 11h-234c-8 0 -19 0 -19 8c0 6 1 14 5 20c41 63 452 632 459 644zM377 787c-29 0 -73 12 -73 68
c0 21 16 63 73 63c33 0 62 -24 62 -68c0 -34 -28 -63 -62 -63z" />
    <glyph glyph-name="Zcaron" unicode="&#x17d;" horiz-adv-x="703" 
d="M487 672h-208c-14 0 -30 -1 -56 -19c-21 -14 -107 -111 -128 -138c-3 -5 -8 -8 -12 -6l-17 9c-3 1 -4 4 -3 9l63 178c3 9 9 11 14 11c7 0 15 -1 23 -2c47 -6 188 -6 271 -6c61 0 113 2 151 3c34 2 66 3 73 3c16 0 23 -13 14 -24c-8 -9 -446 -623 -466 -650h241
c28 0 49 0 74 11c29 13 127 116 141 133c4 4 8 5 13 3l17 -9c3 -2 5 -4 2 -9c-14 -23 -62 -146 -76 -173c-2 -5 -8 -10 -13 -10c-4 0 -12 1 -25 3c-55 7 -214 11 -304 11h-234c-8 0 -19 0 -19 8c0 6 1 14 5 20c41 63 452 632 459 644zM397 784l-131 127c-3 3 -3 5 -1 8l7 9
c2 3 5 3 9 2l141 -54l127 53c5 2 8 3 10 0l8 -10c3 -3 2 -5 -2 -9l-136 -131c-5 -4 -10 -9 -13 -9c-4 0 -8 4 -19 14z" />
    <glyph glyph-name="Eth" unicode="&#xd0;" horiz-adv-x="841" 
d="M122 378v81c0 26 -3 168 -5 183c-3 24 -16 28 -33 28h-50c-5 0 -8 1 -8 7v29c0 4 3 5 7 5c13 0 57 -3 157 -3c26 0 126 3 149 3c141 0 247 -15 339 -91c66 -55 112 -138 112 -254c0 -115 -33 -191 -99 -263c-96 -106 -263 -106 -331 -106c-16 0 -134 3 -189 3
c-87 0 -127 -3 -141 -3c-5 0 -7 2 -7 9v26c0 4 3 6 8 6h52c19 0 30 8 32 22c3 16 7 150 7 244v28h-83c-3 0 -4 1 -4 8v32c0 5 2 6 6 6h81zM272 433v-55h146c4 0 6 -1 6 -7v-34c0 -4 -3 -5 -8 -5h-144v-22c0 -16 1 -131 2 -193c0 -20 4 -36 16 -56c13 -18 52 -23 81 -23
c68 0 133 31 187 98c41 52 71 135 71 228c0 82 -34 166 -81 218c-53 58 -131 91 -199 91c-28 0 -43 -1 -56 -7c-15 -7 -19 -19 -20 -44c-1 -42 -1 -173 -1 -189z" />
    <glyph glyph-name="Thorn" unicode="&#xde;" horiz-adv-x="645" 
d="M264 184v-33c0 -22 2 -69 3 -81c2 -21 12 -32 35 -32h44c7 0 8 -3 8 -7v-26c0 -5 -1 -8 -9 -8c-14 0 -45 3 -149 3c-106 0 -137 -3 -148 -3c-7 0 -8 3 -8 9v25c0 5 1 7 6 7h36c24 0 31 5 34 30c1 10 4 166 4 282v115c0 66 -1 173 -2 183c-1 16 -12 22 -36 22h-42
c-6 0 -7 2 -7 8v26c0 5 1 7 6 7c11 0 43 -3 152 -3c96 0 136 3 150 3c5 0 8 -2 8 -8v-22c0 -9 -2 -11 -10 -11h-47c-14 0 -23 -3 -24 -15c-2 -16 -4 -44 -4 -90c17 2 34 2 69 2c93 0 155 -10 210 -51c43 -32 67 -86 67 -139c0 -120 -96 -199 -244 -199c-52 0 -81 2 -102 6z
M264 526v-302c18 -7 31 -10 70 -10c63 0 122 68 122 158c0 128 -112 160 -136 160c-17 0 -38 0 -56 -6z" />
    <glyph glyph-name="agrave" unicode="&#xe0;" horiz-adv-x="456" 
d="M254 266v53c0 20 -2 43 -15 55c-10 9 -26 12 -42 12c-18 0 -35 -4 -53 -16c-15 -10 -3 -27 -3 -59c0 -34 -25 -57 -65 -57c-23 0 -43 14 -43 36s7 52 28 70c42 38 111 74 192 74c64 0 81 -10 102 -29c22 -20 28 -49 28 -85l2 -199c1 -52 4 -68 23 -68c14 0 25 11 29 18
c4 6 7 7 10 5l14 -8c4 -2 7 -5 3 -14c-9 -21 -39 -68 -101 -68c-39 0 -76 14 -95 61h-5c-25 -23 -46 -37 -86 -52c-20 -7 -43 -9 -72 -9c-35 0 -66 38 -66 92c0 44 21 90 86 122c78 37 103 48 129 66zM255 84v142c-49 -28 -90 -43 -90 -112c0 -46 21 -65 43 -66
c27 2 47 27 47 36zM296 497l-14 -11c-2 -2 -5 -1 -7 1l-126 88c-41 29 -19 86 23 86c22 0 37 -13 50 -34l74 -122c2 -3 2 -6 0 -8z" />
    <glyph glyph-name="aacute" unicode="&#xe1;" horiz-adv-x="456" 
d="M254 266v53c0 20 -2 43 -15 55c-10 9 -26 12 -42 12c-18 0 -35 -4 -53 -16c-15 -10 -3 -27 -3 -59c0 -34 -25 -57 -65 -57c-23 0 -43 14 -43 36s7 52 28 70c42 38 111 74 192 74c64 0 81 -10 102 -29c22 -20 28 -49 28 -85l2 -199c1 -52 4 -68 23 -68c14 0 25 11 29 18
c4 6 7 7 10 5l14 -8c4 -2 7 -5 3 -14c-9 -21 -39 -68 -101 -68c-39 0 -76 14 -95 61h-5c-25 -23 -46 -37 -86 -52c-20 -7 -43 -9 -72 -9c-35 0 -66 38 -66 92c0 44 21 90 86 122c78 37 103 48 129 66zM255 84v142c-49 -28 -90 -43 -90 -112c0 -46 21 -65 43 -66
c27 2 47 27 47 36zM193 486l-14 11c-2 2 -2 5 0 8l74 122c13 21 29 34 50 34c43 0 64 -57 23 -86l-126 -88c-2 -2 -5 -3 -7 -1z" />
    <glyph glyph-name="acircumflex" unicode="&#xe2;" horiz-adv-x="456" 
d="M254 266v53c0 20 -2 43 -15 55c-10 9 -26 12 -42 12c-18 0 -35 -4 -53 -16c-15 -10 -3 -27 -3 -59c0 -34 -25 -57 -65 -57c-23 0 -43 14 -43 36s7 52 28 70c42 38 111 74 192 74c64 0 81 -10 102 -29c22 -20 28 -49 28 -85l2 -199c1 -52 4 -68 23 -68c14 0 25 11 29 18
c4 6 7 7 10 5l14 -8c4 -2 7 -5 3 -14c-9 -21 -39 -68 -101 -68c-39 0 -76 14 -95 61h-5c-25 -23 -46 -37 -86 -52c-20 -7 -43 -9 -72 -9c-35 0 -66 38 -66 92c0 44 21 90 86 122c78 37 103 48 129 66zM255 84v142c-49 -28 -90 -43 -90 -112c0 -46 21 -65 43 -66
c27 2 47 27 47 36zM245 647l110 -141c3 -3 4 -6 2 -8l-8 -9c-2 -3 -5 -4 -9 -2l-109 64l-101 -62c-3 -2 -6 -4 -9 -1l-9 9c-2 2 -1 6 3 10l106 141c3 4 7 9 11 9s9 -5 13 -10z" />
    <glyph glyph-name="atilde" unicode="&#xe3;" horiz-adv-x="456" 
d="M254 266v53c0 20 -2 43 -15 55c-10 9 -26 12 -42 12c-18 0 -35 -4 -53 -16c-15 -10 -3 -27 -3 -59c0 -34 -25 -57 -65 -57c-23 0 -43 14 -43 36s7 52 28 70c42 38 111 74 192 74c64 0 81 -10 102 -29c22 -20 28 -49 28 -85l2 -199c1 -52 4 -68 23 -68c14 0 25 11 29 18
c4 6 7 7 10 5l14 -8c4 -2 7 -5 3 -14c-9 -21 -39 -68 -101 -68c-39 0 -76 14 -95 61h-5c-25 -23 -46 -37 -86 -52c-20 -7 -43 -9 -72 -9c-35 0 -66 38 -66 92c0 44 21 90 86 122c78 37 103 48 129 66zM255 84v142c-49 -28 -90 -43 -90 -112c0 -46 21 -65 43 -66
c27 2 47 27 47 36zM343 614h17c4 0 6 -4 3 -18c-8 -39 -34 -89 -81 -89c-34 0 -58 10 -78 16c-24 8 -42 13 -53 13c-16 0 -34 -12 -39 -37c-1 -4 -4 -5 -7 -5h-18c-4 0 -6 4 -3 17c9 53 42 96 83 96c28 0 58 -11 76 -16c27 -7 46 -14 60 -14c22 0 29 14 33 31c1 4 3 6 7 6z
" />
    <glyph glyph-name="adieresis" unicode="&#xe4;" horiz-adv-x="456" 
d="M464 54c-9 -21 -39 -68 -101 -68c-39 0 -76 14 -95 61h-5c-25 -23 -46 -37 -86 -52c-20 -7 -43 -9 -72 -9c-35 0 -66 38 -66 92c0 44 21 91 86 122c78 38 103 48 129 66v53c0 20 -2 43 -15 55c-10 9 -26 12 -42 12c-18 0 -35 -4 -53 -16c-15 -10 -3 -27 -3 -59
c0 -34 -25 -57 -65 -57c-23 0 -43 14 -43 36s7 52 28 70c42 38 111 74 192 74c64 0 81 -10 102 -29c22 -20 28 -49 28 -85l2 -199c1 -52 4 -68 23 -68c14 0 25 11 29 18c4 6 7 7 10 5l14 -8c4 -2 7 -5 3 -14zM255 84v142c-49 -28 -90 -43 -90 -112c0 -46 21 -65 43 -66
c27 2 47 27 47 36zM381 569c0 -35 -25 -56 -56 -56c-26 0 -65 12 -65 61c0 19 13 57 65 57c30 0 56 -21 56 -62zM197 569c0 -35 -25 -56 -58 -56c-26 0 -64 12 -64 61c0 19 13 57 64 57c31 0 58 -21 58 -62z" />
    <glyph glyph-name="aring" unicode="&#xe5;" horiz-adv-x="456" 
d="M254 266v53c0 20 -2 43 -15 55c-10 9 -26 12 -42 12c-18 0 -35 -4 -53 -16c-15 -10 -3 -27 -3 -59c0 -34 -25 -57 -65 -57c-23 0 -43 14 -43 36s7 52 28 70c42 38 111 74 192 74c64 0 81 -10 102 -29c22 -20 28 -49 28 -85l2 -199c1 -52 4 -68 23 -68c14 0 25 11 29 18
c4 6 7 7 10 5l14 -8c4 -2 7 -5 3 -14c-9 -21 -39 -68 -101 -68c-39 0 -76 14 -95 61h-5c-25 -23 -46 -37 -86 -52c-20 -7 -43 -9 -72 -9c-35 0 -66 38 -66 92c0 44 21 90 86 122c78 37 103 48 129 66zM255 84v142c-49 -28 -90 -43 -90 -112c0 -46 21 -65 43 -66
c27 2 47 27 47 36zM230 495c-65 0 -113 32 -112 81c-1 56 54 90 121 90c65 0 113 -32 113 -80c5 -59 -58 -91 -122 -91zM234 529c27 0 46 18 46 53c0 34 -19 50 -42 50c-28 0 -49 -19 -49 -50c0 -34 18 -53 45 -53z" />
    <glyph glyph-name="amacron" unicode="&#x101;" horiz-adv-x="456" 
d="M254 266v53c0 20 -2 43 -15 55c-10 9 -26 12 -42 12c-18 0 -35 -4 -53 -16c-15 -10 -3 -27 -3 -59c0 -34 -25 -57 -65 -57c-23 0 -43 14 -43 36s7 52 28 70c42 38 111 74 192 74c64 0 81 -10 102 -29c22 -20 28 -49 28 -85l2 -199c1 -52 4 -68 23 -68c14 0 25 11 29 18
c4 6 7 7 10 5l14 -8c4 -2 7 -5 3 -14c-9 -21 -39 -68 -101 -68c-39 0 -76 14 -95 61h-5c-25 -23 -46 -37 -86 -52c-20 -7 -43 -9 -72 -9c-35 0 -66 38 -66 92c0 44 21 90 86 122c78 37 103 48 129 66zM255 84v142c-49 -28 -90 -43 -90 -112c0 -46 21 -65 43 -66
c27 2 47 27 47 36zM110 519v59c0 5 2 7 8 7h220c6 0 9 -2 9 -7v-59c0 -5 -5 -7 -11 -7h-218c-7 0 -8 2 -8 7z" />
    <glyph glyph-name="abreve" unicode="&#x103;" horiz-adv-x="456" 
d="M254 266v53c0 20 -2 43 -15 55c-10 9 -26 12 -42 12c-18 0 -35 -4 -53 -16c-15 -10 -3 -27 -3 -59c0 -34 -25 -57 -65 -57c-23 0 -43 14 -43 36s7 52 28 70c42 38 111 74 192 74c64 0 81 -10 102 -29c22 -20 28 -49 28 -85l2 -199c1 -52 4 -68 23 -68c14 0 25 11 29 18
c4 6 7 7 10 5l14 -8c4 -2 7 -5 3 -14c-9 -21 -39 -68 -101 -68c-39 0 -76 14 -95 61h-5c-25 -23 -46 -37 -86 -52c-20 -7 -43 -9 -72 -9c-35 0 -66 38 -66 92c0 44 21 90 86 122c78 37 103 48 129 66zM255 84v142c-49 -28 -90 -43 -90 -112c0 -46 21 -65 43 -66
c27 2 47 27 47 36zM226 485c-64 0 -122 56 -131 119c-1 6 0 9 4 12l10 6c2 1 4 0 8 -6c24 -34 69 -44 109 -44c51 0 97 24 112 44c3 4 5 7 9 5l11 -7c4 -2 3 -4 2 -8c-11 -49 -70 -121 -134 -121z" />
    <glyph glyph-name="aogonek" unicode="&#x105;" horiz-adv-x="456" 
d="M255 84v142c-49 -28 -90 -43 -90 -112c0 -46 21 -65 43 -66c27 2 47 27 47 36zM332 -272c-55 0 -111 34 -111 99c0 72 66 125 116 162c-29 6 -55 22 -69 58h-5c-25 -23 -46 -37 -86 -52c-20 -7 -43 -9 -72 -9c-35 0 -66 38 -66 92c0 44 21 91 86 122c78 38 103 48 129 66
v53c0 20 -2 43 -15 55c-10 9 -26 12 -42 12c-18 0 -35 -4 -53 -16c-15 -10 -3 -27 -3 -59c0 -34 -25 -57 -65 -57c-23 0 -43 14 -43 36s7 52 28 70c42 38 111 74 192 74c64 0 81 -10 102 -29c22 -20 28 -49 28 -85l2 -199c1 -52 4 -68 23 -68c14 0 25 11 29 18c4 6 7 7 10 5
l14 -8c4 -2 7 -5 3 -14c-7 -17 -25 -29 -61 -54c-45 -31 -78 -90 -78 -148c0 -41 20 -65 49 -65s50 19 63 30c7 7 13 11 16 11c8 0 11 -9 11 -17c0 -26 -50 -83 -132 -83z" />
    <glyph glyph-name="ccedilla" unicode="&#xe7;" horiz-adv-x="426" 
d="M408 94l14 -14c3 -4 2 -8 -1 -13c-18 -32 -91 -77 -164 -80l-43 -53c54 -9 85 -40 85 -72c0 -64 -88 -98 -188 -98c-16 0 -20 9 -20 20c0 12 15 14 32 14c36 0 74 18 74 54c0 25 -22 39 -62 49l68 88c-57 6 -94 26 -120 58c-39 48 -51 87 -51 138c0 68 22 141 75 190
c45 41 94 59 148 59c115 0 148 -60 147 -98c0 -27 -19 -48 -48 -48c-40 0 -57 31 -64 54c-12 40 -32 51 -60 51c-27 0 -64 -39 -64 -99c0 -68 -8 -90 31 -175c21 -45 63 -58 96 -58c50 0 72 9 104 32c5 3 8 5 11 1z" />
    <glyph glyph-name="cacute" unicode="&#x107;" horiz-adv-x="436" 
d="M253 434c131 0 160 -66 160 -97c0 -28 -20 -47 -52 -47c-42 0 -64 28 -72 53c-12 36 -31 48 -59 48c-27 0 -66 -39 -66 -102s-2 -108 32 -170c25 -45 62 -58 107 -58c46 0 68 9 100 32c5 3 8 5 11 1l14 -14c3 -4 2 -8 -1 -13c-19 -33 -97 -81 -189 -81
c-75 0 -125 21 -157 61c-39 48 -51 87 -51 138c0 68 22 141 75 190c45 41 94 59 148 59zM178 486l-14 11c-2 2 -2 5 0 8l74 122c13 21 29 34 50 34c43 0 64 -57 23 -86l-126 -88c-2 -2 -5 -3 -7 -1z" />
    <glyph glyph-name="ccaron" unicode="&#x10d;" horiz-adv-x="436" 
d="M253 434c131 0 160 -66 160 -97c0 -28 -20 -47 -52 -47c-42 0 -64 28 -72 53c-12 36 -31 48 -59 48c-27 0 -66 -39 -66 -102s-2 -108 32 -170c25 -45 62 -58 107 -58c46 0 68 9 100 32c5 3 8 5 11 1l14 -14c3 -4 2 -8 -1 -13c-19 -33 -97 -81 -189 -81
c-75 0 -125 21 -157 61c-39 48 -51 87 -51 138c0 68 22 141 75 190c45 41 94 59 148 59zM368 637l-106 -141c-3 -4 -7 -9 -11 -9s-9 5 -13 10l-110 141c-3 3 -4 6 -2 8l8 9c2 3 5 4 9 2l110 -63l100 61c3 2 6 4 9 1l9 -9c2 -2 1 -6 -3 -10z" />
    <glyph glyph-name="dcaron" unicode="&#x10f;" horiz-adv-x="538" 
d="M329 421l-4 202c-1 28 -12 44 -65 57c-6 1 -7 3 -7 7v19c0 4 2 7 8 8c59 5 136 11 169 18c14 3 18 5 26 5c6 0 10 -7 9 -18c-4 -50 -6 -195 -6 -336v-221c0 -37 0 -76 10 -92c8 -13 21 -14 45 -11c11 1 15 -2 16 -7l3 -15c1 -6 -1 -9 -7 -11l-150 -38c-6 -2 -11 1 -14 9
l-16 50c-32 -37 -91 -61 -134 -61c-52 0 -72 4 -119 48c-39 35 -63 76 -63 142c0 80 14 132 70 194c39 43 85 64 148 64c33 0 62 -6 81 -13zM331 120l-3 182c0 18 -1 35 -8 48c-15 27 -48 45 -76 45c-18 0 -37 -7 -52 -28c-24 -33 -32 -67 -32 -115c0 -118 51 -200 113 -200
c27 0 38 10 48 20c8 8 10 26 10 48zM572 737c34 0 66 -30 66 -86c0 -89 -72 -137 -97 -149c-9 -4 -15 -7 -21 -7c-4 0 -11 3 -11 8c0 4 3 8 7 11c27 17 47 50 47 92c0 11 -4 21 -8 25c-6 4 -38 11 -38 56c0 26 25 50 55 50z" />
    <glyph glyph-name="dcroat" unicode="&#x111;" horiz-adv-x="538" 
d="M469 70c8 -13 21 -14 45 -11c11 1 15 -2 16 -7l3 -15c1 -6 -1 -10 -7 -11l-150 -36c-5 -1 -11 -1 -14 7l-16 50c-32 -37 -91 -61 -134 -61c-52 0 -72 4 -119 48c-39 35 -63 76 -63 142c0 80 14 132 70 194c39 43 85 64 148 64c33 0 62 -6 81 -13l-3 133h-137
c-6 0 -9 1 -9 7v29c0 4 1 6 7 6h139l-1 27c-1 28 -12 44 -65 57c-6 1 -7 3 -7 7v19c0 4 2 7 8 8c59 5 136 11 169 18c14 3 18 5 26 5c6 0 10 -7 9 -19c-2 -23 -3 -67 -4 -122h63c7 0 9 -1 9 -6v-29c0 -5 -2 -7 -10 -7h-63c-1 -53 -1 -112 -1 -171v-221c0 -37 0 -76 10 -92z
M331 121l-3 182c0 18 -1 35 -8 48c-15 27 -48 45 -76 45c-18 0 -37 -7 -52 -28c-24 -33 -32 -67 -32 -115c0 -118 51 -200 113 -200c27 0 38 10 48 20c8 8 10 26 10 48z" />
    <glyph glyph-name="egrave" unicode="&#xe8;" horiz-adv-x="451" 
d="M389 249h-229v-27c0 -104 59 -155 132 -155c49 0 89 23 109 55c2 5 6 6 10 3l17 -9c4 -2 7 -7 -2 -24c-18 -37 -83 -106 -177 -106c-64 0 -117 11 -150 47c-51 55 -68 94 -69 172c0 28 0 81 45 147c36 53 97 82 174 82c162 0 171 -155 171 -171c0 -13 -9 -14 -31 -14z
M161 287h96c22 0 32 5 32 20c0 44 -18 87 -49 87c-47 0 -72 -37 -79 -107zM294 497l-14 -11c-2 -2 -5 -1 -7 1l-126 88c-41 29 -19 86 23 86c22 0 37 -13 50 -34l74 -122c2 -3 2 -6 0 -8z" />
    <glyph glyph-name="eacute" unicode="&#xe9;" horiz-adv-x="451" 
d="M389 249h-229v-27c0 -104 59 -155 132 -155c49 0 89 23 109 55c2 5 6 6 10 3l17 -9c4 -2 7 -7 -2 -24c-18 -37 -83 -106 -177 -106c-64 0 -117 11 -150 47c-51 55 -68 94 -69 172c0 28 0 81 45 147c36 53 97 82 174 82c162 0 171 -155 171 -171c0 -13 -9 -14 -31 -14z
M161 287h96c22 0 32 5 32 20c0 44 -18 87 -49 87c-47 0 -72 -37 -79 -107zM206 486l-14 11c-2 2 -2 5 0 8l74 122c13 21 29 34 50 34c43 0 64 -57 23 -86l-126 -88c-2 -2 -5 -3 -7 -1z" />
    <glyph glyph-name="ecircumflex" unicode="&#xea;" horiz-adv-x="451" 
d="M389 249h-229v-27c0 -104 59 -155 132 -155c49 0 89 23 109 55c2 5 6 6 10 3l17 -9c4 -2 7 -7 -2 -24c-18 -37 -83 -106 -177 -106c-64 0 -117 11 -150 47c-51 55 -68 94 -69 172c0 28 0 81 45 147c36 53 97 82 174 82c162 0 171 -155 171 -171c0 -13 -9 -14 -31 -14z
M161 287h96c22 0 32 5 32 20c0 44 -18 87 -49 87c-47 0 -72 -37 -79 -107zM256 647l110 -141c3 -3 4 -6 2 -8l-8 -9c-2 -3 -5 -4 -9 -2l-109 64l-101 -62c-3 -2 -6 -4 -9 -1l-9 9c-2 2 -1 6 3 10l106 141c3 4 7 9 11 9s9 -5 13 -10z" />
    <glyph glyph-name="edieresis" unicode="&#xeb;" horiz-adv-x="451" 
d="M428 116c4 -2 7 -7 -2 -24c-18 -37 -83 -106 -177 -106c-64 0 -117 11 -150 47c-51 55 -68 94 -69 172c0 28 0 81 45 147c36 53 97 82 174 82c162 0 171 -155 171 -171c0 -13 -9 -14 -31 -14h-229v-27c0 -104 59 -155 132 -155c49 0 89 23 109 55c2 5 6 6 10 3zM289 307
c0 44 -18 87 -49 87c-47 0 -72 -37 -79 -107h96c22 0 32 5 32 20zM394 569c0 -35 -25 -56 -56 -56c-26 0 -65 12 -65 61c0 19 13 57 65 57c30 0 56 -21 56 -62zM210 569c0 -35 -25 -56 -58 -56c-26 0 -64 12 -64 61c0 19 13 57 64 57c31 0 58 -21 58 -62z" />
    <glyph glyph-name="emacron" unicode="&#x113;" horiz-adv-x="451" 
d="M389 249h-229v-27c0 -104 59 -155 132 -155c49 0 89 23 109 55c2 5 6 6 10 3l17 -9c4 -2 7 -7 -2 -24c-18 -37 -83 -106 -177 -106c-64 0 -117 11 -150 47c-51 55 -68 94 -69 172c0 28 0 81 45 147c36 53 97 82 174 82c162 0 171 -155 171 -171c0 -13 -9 -14 -31 -14z
M161 287h96c22 0 32 5 32 20c0 44 -18 87 -49 87c-47 0 -72 -37 -79 -107zM127 519v59c0 5 2 7 8 7h220c6 0 9 -2 9 -7v-59c0 -5 -5 -7 -11 -7h-218c-7 0 -8 2 -8 7z" />
    <glyph glyph-name="edotaccent" unicode="&#x117;" horiz-adv-x="451" 
d="M389 249h-229v-27c0 -104 59 -155 132 -155c49 0 89 23 109 55c2 5 6 6 10 3l17 -9c4 -2 7 -7 -2 -24c-18 -37 -83 -106 -177 -106c-64 0 -117 11 -150 47c-51 55 -68 94 -69 172c0 28 0 81 45 147c36 53 97 82 174 82c162 0 171 -155 171 -171c0 -13 -9 -14 -31 -14z
M161 287h96c22 0 32 5 32 20c0 44 -18 87 -49 87c-47 0 -72 -37 -79 -107zM321 581c0 -32 -22 -67 -76 -68c-40 -1 -70 26 -70 65c0 32 33 61 75 61c47 0 71 -30 71 -58z" />
    <glyph glyph-name="eogonek" unicode="&#x119;" horiz-adv-x="451" 
d="M160 249v-27c0 -104 59 -155 132 -155c49 0 89 23 109 55c2 5 6 6 10 3l17 -9c4 -2 7 -7 -2 -25c-13 -25 -49 -57 -93 -90c-45 -31 -86 -91 -86 -149c0 -41 20 -65 49 -65s50 19 63 30c7 7 13 11 16 11c8 0 11 -9 11 -17c0 -26 -50 -83 -132 -83c-55 0 -111 34 -111 97
c0 79 65 115 116 161h-10c-64 0 -117 11 -150 47c-51 55 -68 94 -69 172c0 28 0 81 45 147c36 53 97 82 174 82c162 0 171 -155 171 -171c0 -13 -9 -14 -31 -14h-229zM289 307c0 44 -18 87 -49 87c-47 0 -72 -37 -79 -107h96c22 0 32 5 32 20z" />
    <glyph glyph-name="ecaron" unicode="&#x11b;" horiz-adv-x="451" 
d="M389 249h-229v-27c0 -104 59 -155 132 -155c49 0 89 23 109 55c2 5 6 6 10 3l17 -9c4 -2 7 -7 -2 -24c-18 -37 -83 -106 -177 -106c-64 0 -117 11 -150 47c-51 55 -68 94 -69 172c0 28 0 81 45 147c36 53 97 82 174 82c162 0 171 -155 171 -171c0 -13 -9 -14 -31 -14z
M161 287h96c22 0 32 5 32 20c0 44 -18 87 -49 87c-47 0 -72 -37 -79 -107zM365 637l-106 -141c-3 -4 -7 -9 -11 -9s-9 5 -13 10l-110 141c-3 3 -4 6 -2 8l8 9c2 3 5 4 9 2l110 -63l100 61c3 2 6 4 9 1l9 -9c2 -2 1 -6 -3 -10z" />
    <glyph glyph-name="gbreve" unicode="&#x11f;" horiz-adv-x="502" 
d="M216 -272c-48 0 -121 8 -160 31c-37 21 -49 47 -49 78c0 50 56 86 103 105v5c-46 14 -69 45 -69 80c0 58 56 90 89 106v3c-43 25 -88 67 -88 152c0 65 52 146 194 146c88 0 132 -46 141 -56c23 19 60 35 88 35c36 0 55 -20 55 -52c0 -23 -21 -43 -44 -43
c-17 0 -25 7 -31 17c-5 8 -17 15 -28 15c-5 0 -14 -4 -19 -9c4 -7 12 -29 12 -65c0 -38 -11 -75 -45 -108c-38 -36 -95 -48 -135 -48c-20 0 -34 0 -59 3c-13 -8 -37 -26 -37 -46c0 -35 29 -38 137 -35c68 2 119 -2 168 -40c36 -29 49 -64 49 -101c0 -42 -19 -78 -58 -111
c-37 -30 -113 -64 -214 -62zM231 396c-22 0 -35 -12 -49 -32s-20 -66 -20 -111c0 -29 9 -61 22 -76c11 -14 26 -20 46 -20c44 0 59 67 59 144c0 37 -4 58 -9 67c-9 17 -21 28 -49 28zM250 -233c66 0 131 35 131 85c0 55 -39 85 -130 81l-87 -4c-29 -7 -50 -38 -50 -68
c0 -29 16 -54 35 -68c28 -20 56 -26 101 -26zM249 485c-64 0 -122 56 -131 119c-1 6 0 9 4 12l10 6c2 1 4 0 8 -6c24 -34 69 -44 109 -44c51 0 97 24 112 44c3 4 5 7 9 5l11 -7c4 -2 3 -4 2 -8c-11 -49 -70 -121 -134 -121z" />
    <glyph glyph-name="gcommaaccent" unicode="&#x123;" horiz-adv-x="502" 
d="M216 -272c-48 0 -121 8 -160 31c-37 21 -49 47 -49 78c0 50 56 86 103 105v5c-46 14 -69 45 -69 80c0 58 56 90 89 106v3c-43 25 -88 67 -88 152c0 65 52 146 194 146c88 0 132 -46 141 -56c23 19 60 35 88 35c36 0 55 -20 55 -52c0 -23 -21 -43 -44 -43
c-17 0 -25 7 -31 17c-5 8 -17 15 -28 15c-5 0 -14 -4 -19 -9c4 -7 12 -29 12 -65c0 -38 -11 -75 -45 -108c-38 -36 -95 -48 -135 -48c-20 0 -34 0 -59 3c-13 -8 -37 -26 -37 -46c0 -35 29 -38 137 -35c68 2 119 -2 168 -40c36 -29 49 -64 49 -101c0 -42 -19 -78 -58 -111
c-37 -30 -113 -64 -214 -62zM231 396c-22 0 -35 -12 -49 -32s-20 -66 -20 -111c0 -29 9 -61 22 -76c11 -14 26 -20 46 -20c44 0 59 67 59 144c0 37 -4 58 -9 67c-9 17 -21 28 -49 28zM250 -233c66 0 131 35 131 85c0 55 -39 85 -130 81l-87 -4c-29 -7 -50 -38 -50 -68
c0 -29 16 -54 35 -68c28 -20 56 -26 101 -26zM237 505c-39 0 -79 30 -79 86c0 89 82 143 96 151c9 5 17 8 23 8c5 0 8 -3 8 -8c0 -4 -4 -9 -8 -11c-12 -9 -45 -53 -45 -95c0 -11 6 -21 12 -25c8 -4 44 -12 44 -57c0 -26 -21 -49 -51 -49z" />
    <glyph glyph-name="igrave" unicode="&#xec;" horiz-adv-x="290" 
d="M30 380l149 48c11 4 20 6 27 6c8 0 11 -5 10 -12c-2 -17 -2 -80 -2 -168v-107c0 -39 0 -75 1 -86c2 -19 7 -26 18 -26h36c8 0 10 -3 10 -9v-19c0 -7 -2 -10 -9 -10c-8 0 -54 3 -141 3c-58 0 -97 -3 -108 -3c-5 0 -8 2 -8 10v20c0 6 3 8 10 8h37c11 0 18 4 19 20
c2 30 2 61 2 89l-2 140c0 28 -6 48 -48 63c-11 4 -12 8 -12 14v11c0 3 2 5 11 8zM199 497l-14 -11c-2 -2 -5 -1 -7 1l-126 88c-41 29 -19 86 23 86c22 0 37 -13 50 -34l74 -122c2 -3 2 -6 0 -8z" />
    <glyph glyph-name="iacute" unicode="&#xed;" horiz-adv-x="290" 
d="M30 380l149 48c11 4 20 6 27 6c8 0 11 -5 10 -12c-2 -17 -2 -80 -2 -168v-107c0 -39 0 -75 1 -86c2 -19 7 -26 18 -26h36c8 0 10 -3 10 -9v-19c0 -7 -2 -10 -9 -10c-8 0 -54 3 -141 3c-58 0 -97 -3 -108 -3c-5 0 -8 2 -8 10v20c0 6 3 8 10 8h37c11 0 18 4 19 20
c2 30 2 61 2 89l-2 140c0 28 -6 48 -48 63c-11 4 -12 8 -12 14v11c0 3 2 5 11 8zM115 486l-14 11c-2 2 -2 5 0 8l74 122c13 21 29 34 50 34c43 0 64 -57 23 -86l-126 -88c-2 -2 -5 -3 -7 -1z" />
    <glyph glyph-name="icircumflex" unicode="&#xee;" horiz-adv-x="290" 
d="M30 380l149 48c11 4 20 6 27 6c8 0 11 -5 10 -12c-2 -17 -2 -80 -2 -168v-107c0 -39 0 -75 1 -86c2 -19 7 -26 18 -26h36c8 0 10 -3 10 -9v-19c0 -7 -2 -10 -9 -10c-8 0 -54 3 -141 3c-58 0 -97 -3 -108 -3c-5 0 -8 2 -8 10v20c0 6 3 8 10 8h37c11 0 18 4 19 20
c2 30 2 61 2 89l-2 140c0 28 -6 48 -48 63c-11 4 -12 8 -12 14v11c0 3 2 5 11 8zM156 647l110 -141c3 -3 4 -6 2 -8l-8 -9c-2 -3 -5 -4 -9 -2l-109 64l-101 -62c-3 -2 -6 -4 -9 -1l-9 9c-2 2 -1 6 3 10l106 141c3 4 7 9 11 9s9 -5 13 -10z" />
    <glyph glyph-name="idieresis" unicode="&#xef;" horiz-adv-x="290" 
d="M279 7c0 -7 -2 -10 -9 -10c-8 0 -54 3 -141 3c-58 0 -97 -3 -108 -3c-5 0 -8 2 -8 10v20c0 6 3 8 10 8h37c11 0 18 4 19 20c2 30 2 61 2 89l-2 140c0 28 -6 48 -48 63c-11 4 -12 8 -12 14v11c0 3 2 5 11 8l149 48c11 4 20 6 27 6c8 0 11 -5 10 -12c-2 -17 -2 -80 -2 -168
v-107c0 -39 0 -75 1 -86c2 -19 7 -26 18 -26h36c8 0 10 -3 10 -9v-19zM298 569c0 -35 -25 -56 -56 -56c-26 0 -65 12 -65 61c0 19 13 57 65 57c30 0 56 -21 56 -62zM114 569c0 -35 -25 -56 -58 -56c-26 0 -64 12 -64 61c0 19 13 57 64 57c31 0 58 -21 58 -62z" />
    <glyph glyph-name="imacron" unicode="&#x12b;" horiz-adv-x="290" 
d="M30 380l149 48c11 4 20 6 27 6c8 0 11 -5 10 -12c-2 -17 -2 -80 -2 -168v-107c0 -39 0 -75 1 -86c2 -19 7 -26 18 -26h36c8 0 10 -3 10 -9v-19c0 -7 -2 -10 -9 -10c-8 0 -54 3 -141 3c-58 0 -97 -3 -108 -3c-5 0 -8 2 -8 10v20c0 6 3 8 10 8h37c11 0 18 4 19 20
c2 30 2 61 2 89l-2 140c0 28 -6 48 -48 63c-11 4 -12 8 -12 14v11c0 3 2 5 11 8zM27 519v59c0 5 2 7 8 7h220c6 0 9 -2 9 -7v-59c0 -5 -5 -7 -11 -7h-218c-7 0 -8 2 -8 7z" />
    <glyph glyph-name="iogonek" unicode="&#x12f;" horiz-adv-x="290" 
d="M207 614c1 -36 -25 -74 -85 -75c-44 -1 -77 29 -77 72c0 36 36 68 83 68c52 0 79 -34 79 -65zM146 0c-27 0 -62 0 -89 -1c-18 0 -30 -2 -36 -2c-5 0 -8 2 -8 10v20c0 6 3 8 10 8h37c11 0 18 4 19 20c2 30 2 61 2 89l-2 140c0 28 -6 48 -48 63c-11 4 -12 8 -12 14v11
c0 3 2 5 11 8l149 48c11 4 20 6 27 6c8 0 11 -5 10 -12c-2 -17 -2 -80 -2 -168v-107c0 -39 0 -75 1 -86c2 -19 7 -26 18 -26h36c8 0 10 -3 10 -9v-19c0 -7 -2 -10 -9 -10c-4 0 -49 8 -73 -7c-40 -26 -58 -80 -58 -141c0 -38 20 -62 49 -62s50 19 63 30c7 7 13 11 16 11
c8 0 11 -9 11 -17c0 -26 -55 -83 -139 -83c-57 0 -104 34 -104 96c0 71 55 137 111 176z" />
    <glyph glyph-name="dotlessi" unicode="&#x131;" horiz-adv-x="290" 
d="M30 380l149 48c11 4 20 6 27 6c8 0 11 -5 10 -12c-2 -17 -2 -80 -2 -168v-107c0 -39 0 -75 1 -86c2 -19 7 -26 18 -26h36c8 0 10 -3 10 -9v-19c0 -7 -2 -10 -9 -10c-8 0 -54 3 -141 3c-58 0 -97 -3 -108 -3c-5 0 -8 2 -8 10v20c0 6 3 8 10 8h37c11 0 18 4 19 20
c2 30 2 61 2 89l-2 140c0 28 -6 48 -48 63c-11 4 -12 8 -12 14v11c0 3 2 5 11 8z" />
    <glyph glyph-name="kcommaaccent" unicode="&#x137;" horiz-adv-x="524" 
d="M76 59v516c0 33 -4 57 -54 72c-10 3 -14 7 -14 10v18c0 4 3 8 13 10c52 9 121 31 145 39c19 9 31 13 39 13s10 -5 9 -17c-4 -48 -4 -195 -5 -329l-1 -146c11 0 21 4 33 15c42 39 89 92 89 107c0 12 -13 18 -23 18c-7 0 -8 3 -8 9v21c0 5 2 8 7 8c6 0 42 -3 107 -3
c60 0 85 3 92 3c4 0 6 -3 6 -9v-21c0 -6 -2 -8 -6 -8h-12c-12 0 -32 -6 -57 -17c-31 -14 -107 -81 -128 -102c37 -44 157 -194 186 -216c16 -12 42 -15 53 -15c6 0 8 -2 8 -9v-20c0 -6 -2 -9 -9 -9c-8 0 -36 3 -118 3c-59 0 -101 -3 -109 -3c-5 0 -7 3 -7 12v16c0 5 2 8 6 8
h7c8 0 10 5 10 12c0 10 -78 115 -107 153c-8 10 -16 12 -22 12v-149c0 -19 9 -26 19 -26h19c7 0 9 -2 9 -8v-21c0 -6 -2 -9 -8 -9s-39 3 -103 3c-70 0 -105 -3 -112 -3c-3 0 -5 4 -5 10v19c0 7 3 9 10 9h19c13 0 22 11 22 24zM263 -60c39 0 78 -30 78 -86
c-1 -89 -82 -143 -95 -151c-9 -5 -17 -8 -24 -8c-5 0 -8 3 -8 8c0 4 4 9 9 11c12 9 45 53 45 95c0 11 -6 21 -12 25c-8 4 -44 12 -44 57c0 26 21 49 51 49z" />
    <glyph glyph-name="lacute" unicode="&#x13a;" horiz-adv-x="290" 
d="M210 387v-187c0 -40 0 -105 3 -134c1 -17 4 -31 25 -31h34c9 0 11 -3 11 -9v-19c0 -6 -2 -10 -6 -10c-7 0 -51 3 -130 3c-84 0 -124 -3 -133 -3c-5 0 -7 4 -7 12v17c0 7 2 9 13 9h30c11 0 27 7 27 43v318c0 71 0 152 -2 178c-2 34 -23 48 -55 58l-18 6c-7 3 -8 6 -8 11
v15c0 3 2 7 9 8c45 9 149 43 178 58c11 5 17 7 22 7c6 0 10 -5 9 -18c-1 -55 -2 -263 -2 -332zM86 769l-13 16c-2 2 -1 5 1 7l130 135c10 11 26 20 45 20c28 0 49 -24 49 -50c0 -18 -19 -38 -37 -47l-168 -81c-4 -2 -5 -2 -7 0z" />
    <glyph glyph-name="lcommaaccent" unicode="&#x13c;" horiz-adv-x="290" 
d="M210 387v-187c0 -40 0 -105 3 -134c1 -17 4 -31 25 -31h34c9 0 11 -3 11 -9v-19c0 -6 -2 -10 -6 -10c-7 0 -51 3 -130 3c-84 0 -124 -3 -133 -3c-5 0 -7 4 -7 12v17c0 7 2 9 13 9h30c11 0 27 7 27 43v318c0 71 0 152 -2 178c-2 34 -23 48 -55 58l-18 6c-7 3 -8 6 -8 11
v15c0 3 2 7 9 8c45 9 149 43 178 58c11 5 17 7 22 7c6 0 10 -5 9 -18c-1 -55 -2 -263 -2 -332zM151 -60c39 0 78 -30 78 -86c-1 -89 -82 -143 -95 -151c-9 -5 -17 -8 -24 -8c-5 0 -8 3 -8 8c0 4 4 9 9 11c12 9 45 53 45 95c0 11 -6 21 -12 25c-8 4 -44 12 -44 57
c0 26 21 49 51 49z" />
    <glyph glyph-name="lcaron" unicode="&#x13e;" horiz-adv-x="290" 
d="M210 387v-187c0 -40 0 -105 3 -134c1 -17 4 -31 25 -31h34c9 0 11 -3 11 -9v-19c0 -6 -2 -10 -6 -10c-7 0 -51 3 -130 3c-84 0 -124 -3 -133 -3c-5 0 -7 4 -7 12v17c0 7 2 9 13 9h30c11 0 27 7 27 43v318c0 71 0 152 -2 178c-2 34 -23 48 -55 58l-18 6c-7 3 -8 6 -8 11
v15c0 3 2 7 9 8c45 9 149 43 178 58c11 5 17 7 22 7c6 0 10 -5 9 -18c-1 -55 -2 -263 -2 -332zM317 737c34 0 66 -30 66 -86c0 -89 -72 -137 -97 -149c-9 -4 -15 -7 -21 -7c-4 0 -11 3 -11 8c0 4 3 8 7 11c27 17 47 50 47 92c0 11 -4 21 -8 25c-6 4 -38 11 -38 56
c0 26 25 50 55 50z" />
    <glyph glyph-name="lslash" unicode="&#x142;" horiz-adv-x="312" 
d="M307 478c3 -3 1 -6 -3 -8l-77 -45v-223c0 -40 0 -105 2 -136c1 -17 5 -31 25 -31h30c9 0 11 -3 11 -9v-19c0 -6 -2 -10 -6 -10c-7 0 -51 3 -133 3c-74 0 -114 -3 -123 -3c-5 0 -7 4 -7 12v17c0 7 2 9 13 9h29c11 0 27 7 27 43l-2 279l-56 -31c-2 -1 -5 -2 -8 3l-15 26
c-2 3 -2 7 2 9l76 43v41c0 71 0 100 -1 126c-1 34 -22 48 -53 58l-18 6c-7 2 -8 7 -8 10v16c0 3 2 7 9 8c45 10 143 42 179 58c10 5 16 7 22 7s8 -5 8 -18c-2 -55 -3 -175 -3 -229v-15l55 33c4 3 7 2 9 0z" />
    <glyph glyph-name="ntilde" unicode="&#xf1;" horiz-adv-x="565" 
d="M199 422l11 -43h8c11 13 29 26 48 36c22 12 44 19 77 19c39 0 77 -4 103 -28c42 -39 45 -64 45 -114v-106c0 -34 -2 -81 -4 -116c-1 -30 15 -35 24 -35h27c9 0 11 -3 11 -9v-18c0 -7 -2 -11 -8 -11c-7 0 -38 3 -118 3c-66 0 -98 -3 -105 -3c-6 0 -8 3 -8 11v18
c0 7 3 9 13 9h11c7 0 16 5 18 23c4 26 6 58 6 104v107c0 38 -3 64 -24 83c-18 16 -32 18 -49 18c-18 0 -31 -5 -51 -20c-12 -9 -20 -36 -20 -77l-2 -205c0 -18 7 -33 16 -33h13c8 0 10 -3 10 -10v-19c0 -6 -2 -9 -7 -9c-7 0 -34 3 -100 3c-71 0 -103 -3 -109 -3
c-5 0 -7 3 -7 9v20c0 6 2 9 10 9h15c11 0 28 3 28 20v222c0 30 -17 47 -40 58l-9 4c-6 3 -7 7 -7 11v9c0 5 4 8 9 10l128 58c8 3 15 7 23 7c6 0 12 -5 14 -12zM417 614h17c4 0 6 -4 3 -18c-8 -39 -34 -89 -81 -89c-34 0 -58 10 -78 16c-24 8 -42 13 -53 13
c-16 0 -34 -12 -39 -37c-1 -4 -4 -5 -7 -5h-18c-4 0 -6 4 -3 17c9 53 42 96 83 96c28 0 58 -11 76 -16c27 -7 46 -14 60 -14c22 0 29 14 33 31c1 4 3 6 7 6z" />
    <glyph glyph-name="nacute" unicode="&#x144;" horiz-adv-x="565" 
d="M199 422l11 -43h8c11 13 29 26 48 36c22 12 44 19 77 19c39 0 77 -4 103 -28c42 -39 45 -64 45 -114v-106c0 -34 -2 -81 -4 -116c-1 -30 15 -35 24 -35h27c9 0 11 -3 11 -9v-18c0 -7 -2 -11 -8 -11c-7 0 -38 3 -118 3c-66 0 -98 -3 -105 -3c-6 0 -8 3 -8 11v18
c0 7 3 9 13 9h11c7 0 16 5 18 23c4 26 6 58 6 104v107c0 38 -3 64 -24 83c-18 16 -32 18 -49 18c-18 0 -31 -5 -51 -20c-12 -9 -20 -36 -20 -77l-2 -205c0 -18 7 -33 16 -33h13c8 0 10 -3 10 -10v-19c0 -6 -2 -9 -7 -9c-7 0 -34 3 -100 3c-71 0 -103 -3 -109 -3
c-5 0 -7 3 -7 9v20c0 6 2 9 10 9h15c11 0 28 3 28 20v222c0 30 -17 47 -40 58l-9 4c-6 3 -7 7 -7 11v9c0 5 4 8 9 10l128 58c8 3 15 7 23 7c6 0 12 -5 14 -12zM233 486l-14 11c-2 2 -2 5 0 8l74 122c13 21 29 34 50 34c43 0 64 -57 23 -86l-126 -88c-2 -2 -5 -3 -7 -1z" />
    <glyph glyph-name="ncommaaccent" unicode="&#x146;" horiz-adv-x="565" 
d="M199 422l11 -43h8c11 13 29 26 48 36c22 12 44 19 77 19c39 0 77 -4 103 -28c42 -39 45 -64 45 -114v-106c0 -34 -2 -81 -4 -116c-1 -30 15 -35 24 -35h27c9 0 11 -3 11 -9v-18c0 -7 -2 -11 -8 -11c-7 0 -38 3 -118 3c-66 0 -98 -3 -105 -3c-6 0 -8 3 -8 11v18
c0 7 3 9 13 9h11c7 0 16 5 18 23c4 26 6 58 6 104v107c0 38 -3 64 -24 83c-18 16 -32 18 -49 18c-18 0 -31 -5 -51 -20c-12 -9 -20 -36 -20 -77l-2 -205c0 -18 7 -33 16 -33h13c8 0 10 -3 10 -10v-19c0 -6 -2 -9 -7 -9c-7 0 -34 3 -100 3c-71 0 -103 -3 -109 -3
c-5 0 -7 3 -7 9v20c0 6 2 9 10 9h15c11 0 28 3 28 20v222c0 30 -17 47 -40 58l-9 4c-6 3 -7 7 -7 11v9c0 5 4 8 9 10l128 58c8 3 15 7 23 7c6 0 12 -5 14 -12zM284 -60c39 0 78 -30 78 -86c-1 -89 -82 -143 -95 -151c-9 -5 -17 -8 -24 -8c-5 0 -8 3 -8 8c0 4 4 9 9 11
c12 9 45 53 45 95c0 11 -6 21 -12 25c-8 4 -44 12 -44 57c0 26 21 49 51 49z" />
    <glyph glyph-name="ncaron" unicode="&#x148;" horiz-adv-x="565" 
d="M199 422l11 -43h8c11 13 29 26 48 36c22 12 44 19 77 19c39 0 77 -4 103 -28c42 -39 45 -64 45 -114v-106c0 -34 -2 -81 -4 -116c-1 -30 15 -35 24 -35h27c9 0 11 -3 11 -9v-18c0 -7 -2 -11 -8 -11c-7 0 -38 3 -118 3c-66 0 -98 -3 -105 -3c-6 0 -8 3 -8 11v18
c0 7 3 9 13 9h11c7 0 16 5 18 23c4 26 6 58 6 104v107c0 38 -3 64 -24 83c-18 16 -32 18 -49 18c-18 0 -31 -5 -51 -20c-12 -9 -20 -36 -20 -77l-2 -205c0 -18 7 -33 16 -33h13c8 0 10 -3 10 -10v-19c0 -6 -2 -9 -7 -9c-7 0 -34 3 -100 3c-71 0 -103 -3 -109 -3
c-5 0 -7 3 -7 9v20c0 6 2 9 10 9h15c11 0 28 3 28 20v222c0 30 -17 47 -40 58l-9 4c-6 3 -7 7 -7 11v9c0 5 4 8 9 10l128 58c8 3 15 7 23 7c6 0 12 -5 14 -12zM402 637l-106 -141c-3 -4 -7 -9 -11 -9s-9 5 -13 10l-110 141c-3 3 -4 6 -2 8l8 9c2 3 5 4 9 2l110 -63l100 61
c3 2 6 4 9 1l9 -9c2 -2 1 -6 -3 -10z" />
    <glyph glyph-name="ograve" unicode="&#xf2;" horiz-adv-x="525" 
d="M257 -14c-73 0 -123 15 -174 73c-38 42 -53 95 -53 158c0 45 25 119 86 166c51 40 102 51 149 51c69 0 116 -21 161 -63c49 -44 69 -98 69 -159c0 -58 -25 -114 -64 -156c-48 -50 -106 -70 -174 -70zM263 28c55 0 80 81 80 191c0 116 -40 173 -84 173
c-25 0 -41 -7 -54 -27c-20 -31 -33 -74 -33 -155c0 -58 5 -96 25 -139c13 -27 29 -43 66 -43zM301 497l-14 -11c-2 -2 -5 -1 -7 1l-126 88c-41 29 -19 86 23 86c22 0 37 -13 50 -34l74 -122c2 -3 2 -6 0 -8z" />
    <glyph glyph-name="oacute" unicode="&#xf3;" horiz-adv-x="525" 
d="M257 -14c-73 0 -123 15 -174 73c-38 42 -53 95 -53 158c0 45 25 119 86 166c51 40 102 51 149 51c69 0 116 -21 161 -63c49 -44 69 -98 69 -159c0 -58 -25 -114 -64 -156c-48 -50 -106 -70 -174 -70zM263 28c55 0 80 81 80 191c0 116 -40 173 -84 173
c-25 0 -41 -7 -54 -27c-20 -31 -33 -74 -33 -155c0 -58 5 -96 25 -139c13 -27 29 -43 66 -43zM253 486l-14 11c-2 2 -2 5 0 8l74 122c13 21 29 34 50 34c43 0 64 -57 23 -86l-126 -88c-2 -2 -5 -3 -7 -1z" />
    <glyph glyph-name="ocircumflex" unicode="&#xf4;" horiz-adv-x="525" 
d="M257 -14c-73 0 -123 15 -174 73c-38 42 -53 95 -53 158c0 45 25 119 86 166c51 40 102 51 149 51c69 0 116 -21 161 -63c49 -44 69 -98 69 -159c0 -58 -25 -114 -64 -156c-48 -50 -106 -70 -174 -70zM263 28c55 0 80 81 80 191c0 116 -40 173 -84 173
c-25 0 -41 -7 -54 -27c-20 -31 -33 -74 -33 -155c0 -58 5 -96 25 -139c13 -27 29 -43 66 -43zM273 647l110 -141c3 -3 4 -6 2 -8l-8 -9c-2 -3 -5 -4 -9 -2l-109 64l-101 -62c-3 -2 -6 -4 -9 -1l-9 9c-2 2 -1 6 3 10l106 141c3 4 7 9 11 9s9 -5 13 -10z" />
    <glyph glyph-name="otilde" unicode="&#xf5;" horiz-adv-x="525" 
d="M257 -14c-73 0 -123 15 -174 73c-38 42 -53 95 -53 158c0 45 25 119 86 166c51 40 102 51 149 51c69 0 116 -21 161 -63c49 -44 69 -98 69 -159c0 -58 -25 -114 -64 -156c-48 -50 -106 -70 -174 -70zM263 28c55 0 80 81 80 191c0 116 -40 173 -84 173
c-25 0 -41 -7 -54 -27c-20 -31 -33 -74 -33 -155c0 -58 5 -96 25 -139c13 -27 29 -43 66 -43zM382 614h17c4 0 6 -4 3 -18c-8 -39 -34 -89 -81 -89c-34 0 -58 10 -78 16c-24 8 -42 13 -53 13c-16 0 -34 -12 -39 -37c-1 -4 -4 -5 -7 -5h-18c-4 0 -6 4 -3 17c9 53 42 96 83 96
c28 0 58 -11 76 -16c27 -7 46 -14 60 -14c22 0 29 14 33 31c1 4 3 6 7 6z" />
    <glyph glyph-name="odieresis" unicode="&#xf6;" horiz-adv-x="525" 
d="M495 212c0 -58 -25 -114 -64 -156c-48 -50 -106 -70 -174 -70c-73 0 -123 15 -174 73c-38 42 -53 95 -53 158c0 45 25 119 86 166c51 40 102 51 149 51c69 0 116 -21 161 -63c49 -44 69 -98 69 -159zM343 219c0 116 -40 173 -84 173c-25 0 -41 -7 -54 -27
c-20 -31 -33 -74 -33 -155c0 -58 5 -96 25 -139c13 -27 29 -43 66 -43c55 0 80 81 80 191zM416 569c0 -35 -25 -56 -56 -56c-26 0 -65 12 -65 61c0 19 13 57 65 57c30 0 56 -21 56 -62zM232 569c0 -35 -25 -56 -58 -56c-26 0 -64 12 -64 61c0 19 13 57 64 57
c31 0 58 -21 58 -62z" />
    <glyph glyph-name="oslash" unicode="&#xf8;" horiz-adv-x="525" 
d="M342 273l-155 -177c20 -50 42 -68 76 -68c48 0 83 81 83 191c0 22 -2 42 -4 54zM265 434c66 0 103 -18 137 -42l35 37c4 4 8 4 10 2l22 -20c3 -3 4 -6 2 -9l-36 -37c41 -45 60 -96 60 -157c0 -54 -22 -110 -66 -154c-44 -46 -104 -68 -172 -68c-60 0 -100 11 -143 41
l-37 -38c-3 -3 -6 -2 -9 1l-19 19c-2 2 -2 6 1 10l34 37c-32 37 -54 79 -54 165c0 41 19 111 85 163c51 40 105 50 150 50zM176 143l153 178c-5 35 -37 71 -71 71c-15 0 -36 -5 -49 -24c-27 -35 -40 -77 -40 -156c0 -27 1 -50 7 -69z" />
    <glyph glyph-name="omacron" unicode="&#x14d;" horiz-adv-x="525" 
d="M257 -14c-73 0 -123 15 -174 73c-38 42 -53 95 -53 158c0 45 25 119 86 166c51 40 102 51 149 51c69 0 116 -21 161 -63c49 -44 69 -98 69 -159c0 -58 -25 -114 -64 -156c-48 -50 -106 -70 -174 -70zM263 28c55 0 80 81 80 191c0 116 -40 173 -84 173
c-25 0 -41 -7 -54 -27c-20 -31 -33 -74 -33 -155c0 -58 5 -96 25 -139c13 -27 29 -43 66 -43zM144 519v59c0 5 2 7 8 7h220c6 0 9 -2 9 -7v-59c0 -5 -5 -7 -11 -7h-218c-7 0 -8 2 -8 7z" />
    <glyph glyph-name="ohungarumlaut" unicode="&#x151;" horiz-adv-x="525" 
d="M257 -14c-73 0 -123 15 -174 73c-38 42 -53 95 -53 158c0 45 25 119 86 166c51 40 102 51 149 51c69 0 116 -21 161 -63c49 -44 69 -98 69 -159c0 -58 -25 -114 -64 -156c-48 -50 -106 -70 -174 -70zM263 28c55 0 80 81 80 191c0 116 -40 173 -84 173
c-25 0 -41 -7 -54 -27c-20 -31 -33 -74 -33 -155c0 -58 5 -96 25 -139c13 -27 29 -43 66 -43zM144 486l-14 11c-2 2 -2 5 0 8l74 122c13 21 30 34 50 34c41 0 55 -49 17 -79l-120 -95c-2 -2 -5 -3 -7 -1zM290 486l-14 11c-2 2 -2 5 0 8l74 122c13 21 30 34 50 34
c39 0 48 -53 19 -76l-122 -98c-2 -2 -5 -3 -7 -1z" />
    <glyph glyph-name="racute" unicode="&#x155;" horiz-adv-x="366" 
d="M211 264v-188c0 -31 10 -41 31 -41h41c6 0 7 -3 7 -9v-20c0 -6 -1 -9 -5 -9c-6 0 -52 3 -142 3c-77 0 -119 -3 -125 -3c-4 0 -6 2 -6 10v19c0 7 2 9 11 9h29c15 0 24 6 26 24c2 28 2 63 2 113v83c0 43 -10 61 -40 78l-17 10c-6 3 -8 5 -8 9v9c0 4 2 6 8 8l140 61
c6 2 10 4 16 4c7 0 11 -6 12 -12l9 -78h7c31 66 75 96 119 96c30 0 53 -23 53 -58c0 -27 -31 -57 -64 -57c-14 0 -27 3 -36 9c-8 5 -17 7 -25 7c-10 0 -20 -5 -26 -18c-13 -27 -17 -46 -17 -59zM143 486l-14 11c-2 2 -2 5 0 8l74 122c13 21 29 34 50 34c43 0 64 -57 23 -86
l-126 -88c-2 -2 -5 -3 -7 -1z" />
    <glyph glyph-name="rcommaaccent" unicode="&#x157;" horiz-adv-x="366" 
d="M211 264v-188c0 -31 10 -41 31 -41h41c6 0 7 -3 7 -9v-20c0 -6 -1 -9 -5 -9c-6 0 -52 3 -142 3c-77 0 -119 -3 -125 -3c-4 0 -6 2 -6 10v19c0 7 2 9 11 9h29c15 0 24 6 26 24c2 28 2 63 2 113v83c0 43 -10 61 -40 78l-17 10c-6 3 -8 5 -8 9v9c0 4 2 6 8 8l140 61
c6 2 10 4 16 4c7 0 11 -6 12 -12l9 -78h7c31 66 75 96 119 96c30 0 53 -23 53 -58c0 -27 -31 -57 -64 -57c-14 0 -27 3 -36 9c-8 5 -17 7 -25 7c-10 0 -20 -5 -26 -18c-13 -27 -17 -46 -17 -59zM144 -60c39 0 78 -30 78 -86c-1 -89 -82 -143 -95 -151c-9 -5 -17 -8 -24 -8
c-5 0 -8 3 -8 8c0 4 4 9 9 11c12 9 45 53 45 95c0 11 -6 21 -12 25c-8 4 -44 12 -44 57c0 26 21 49 51 49z" />
    <glyph glyph-name="rcaron" unicode="&#x159;" horiz-adv-x="366" 
d="M211 264v-188c0 -31 10 -41 31 -41h41c6 0 7 -3 7 -9v-20c0 -6 -1 -9 -5 -9c-6 0 -52 3 -142 3c-77 0 -119 -3 -125 -3c-4 0 -6 2 -6 10v19c0 7 2 9 11 9h29c15 0 24 6 26 24c2 28 2 63 2 113v83c0 43 -10 61 -40 78l-17 10c-6 3 -8 5 -8 9v9c0 4 2 6 8 8l140 61
c6 2 10 4 16 4c7 0 11 -6 12 -12l9 -78h7c31 66 75 96 119 96c30 0 53 -23 53 -58c0 -27 -31 -57 -64 -57c-14 0 -27 3 -36 9c-8 5 -17 7 -25 7c-10 0 -20 -5 -26 -18c-13 -27 -17 -46 -17 -59zM303 637l-106 -141c-3 -4 -7 -9 -11 -9s-9 5 -13 10l-110 141c-3 3 -4 6 -2 8
l8 9c2 3 5 4 9 2l110 -63l100 61c3 2 6 4 9 1l9 -9c2 -2 1 -6 -3 -10z" />
    <glyph glyph-name="sacute" unicode="&#x15b;" horiz-adv-x="388" 
d="M328 394l14 -74c1 -5 0 -7 -4 -9l-18 -8c-3 -2 -6 -1 -10 3l-56 60c-13 13 -32 29 -62 29s-59 -20 -59 -54c2 -35 14 -45 88 -65c49 -13 73 -20 103 -52c26 -26 32 -50 32 -85c0 -89 -70 -153 -179 -153c-56 0 -105 20 -117 29c-4 3 -5 7 -6 13l-13 96c0 5 3 7 7 8l18 5
c3 1 5 0 7 -4l40 -59c18 -26 41 -51 87 -51c37 0 59 26 59 61c0 40 -29 53 -94 73c-71 21 -122 55 -122 127c0 47 14 86 52 114c40 29 68 36 110 36c54 0 87 -12 105 -21c15 -7 17 -12 18 -19zM149 486l-14 11c-2 2 -2 5 0 8l74 122c13 21 29 34 50 34c43 0 64 -57 23 -86
l-126 -88c-2 -2 -5 -3 -7 -1z" />
    <glyph glyph-name="scedilla" unicode="&#x15f;" horiz-adv-x="388" 
d="M356 138c0 -79 -56 -138 -145 -150l-44 -54c54 -9 85 -40 85 -72c0 -64 -88 -98 -188 -98c-16 0 -20 9 -20 20c0 12 15 14 32 14c36 0 74 18 74 54c0 25 -22 39 -62 49l66 86c-46 4 -84 20 -94 28c-4 3 -5 7 -6 13l-13 96c0 5 3 7 7 8l18 5c3 1 5 0 7 -4l40 -59
c18 -26 41 -51 87 -51c37 0 59 26 59 61c0 40 -29 53 -94 73c-71 21 -122 55 -122 127c0 47 14 86 52 114c40 29 68 36 110 36c54 0 87 -12 105 -21c15 -7 17 -12 18 -19l14 -74c1 -5 0 -7 -4 -9l-18 -8c-3 -2 -6 -1 -10 3l-56 60c-13 13 -32 29 -62 29s-60 -20 -59 -54
c1 -35 14 -45 88 -65c49 -13 73 -20 103 -52c26 -26 32 -50 32 -86z" />
    <glyph glyph-name="scaron" unicode="&#x161;" horiz-adv-x="388" 
d="M328 394l14 -74c1 -5 0 -7 -4 -9l-18 -8c-3 -2 -6 -1 -10 3l-56 60c-13 13 -32 29 -62 29s-59 -20 -59 -54c2 -35 14 -45 88 -65c49 -13 73 -20 103 -52c26 -26 32 -50 32 -85c0 -89 -70 -153 -179 -153c-56 0 -105 20 -117 29c-4 3 -5 7 -6 13l-13 96c0 5 3 7 7 8l18 5
c3 1 5 0 7 -4l40 -59c18 -26 41 -51 87 -51c37 0 59 26 59 61c0 40 -29 53 -94 73c-71 21 -122 55 -122 127c0 47 14 86 52 114c40 29 68 36 110 36c54 0 87 -12 105 -21c15 -7 17 -12 18 -19zM316 637l-106 -141c-3 -4 -7 -9 -11 -9s-9 5 -13 10l-110 141c-3 3 -4 6 -2 8
l8 9c2 3 5 4 9 2l110 -63l100 61c3 2 6 4 9 1l9 -9c2 -2 1 -6 -3 -10z" />
    <glyph glyph-name="scommaaccent" unicode="&#x219;" horiz-adv-x="388" 
d="M328 394l14 -74c1 -5 0 -7 -4 -9l-18 -8c-3 -2 -6 -1 -10 3l-56 60c-13 13 -32 29 -62 29s-59 -20 -59 -54c2 -35 14 -45 88 -65c49 -13 73 -20 103 -52c26 -26 32 -50 32 -85c0 -89 -70 -153 -179 -153c-56 0 -105 20 -117 29c-4 3 -5 7 -6 13l-13 96c0 5 3 7 7 8l18 5
c3 1 5 0 7 -4l40 -59c18 -26 41 -51 87 -51c37 0 59 26 59 61c0 40 -29 53 -94 73c-71 21 -122 55 -122 127c0 47 14 86 52 114c40 29 68 36 110 36c54 0 87 -12 105 -21c15 -7 17 -12 18 -19zM187 -60c39 0 78 -30 78 -86c-1 -89 -82 -143 -95 -151c-9 -5 -17 -8 -24 -8
c-5 0 -8 3 -8 8c0 4 4 9 9 11c12 9 45 53 45 95c0 11 -6 21 -12 25c-8 4 -44 12 -44 57c0 26 21 49 51 49z" />
    <glyph glyph-name="tcommaaccent" unicode="&#x163;" horiz-adv-x="341" 
d="M209 225v-79c0 -82 31 -100 55 -100c21 0 36 3 52 12c3 2 6 2 9 -4l7 -15c3 -5 0 -10 -4 -13c-17 -12 -62 -40 -140 -40c-68 0 -111 47 -111 93c0 35 2 111 2 149l1 132h-55c-9 0 -16 4 -16 14s6 17 22 25c33 15 117 90 154 132c7 8 14 10 19 10c9 0 13 -7 13 -15
l-4 -106h127c6 0 9 -5 7 -9l-10 -43c-1 -4 -3 -8 -9 -8h-117c-2 -41 -2 -89 -2 -135zM192 -60c39 0 78 -30 78 -86c-1 -89 -82 -143 -95 -151c-9 -5 -17 -8 -24 -8c-5 0 -8 3 -8 8c0 4 4 9 9 11c12 9 45 53 45 95c0 11 -6 21 -12 25c-8 4 -44 12 -44 57c0 26 21 49 51 49z
" />
    <glyph glyph-name="tcaron" unicode="&#x165;" horiz-adv-x="341" 
d="M209 225v-79c0 -82 31 -100 55 -100c21 0 36 3 52 12c3 2 6 2 9 -4l7 -15c3 -5 0 -10 -4 -13c-17 -12 -62 -40 -140 -40c-68 0 -111 47 -111 93c0 35 2 111 2 149l1 132h-55c-9 0 -16 4 -16 14s6 17 22 25c33 15 117 90 154 132c7 8 14 10 19 10c9 0 13 -7 13 -15
l-4 -106h127c6 0 9 -5 7 -9l-10 -43c-1 -4 -3 -8 -9 -8h-117c-2 -41 -2 -89 -2 -135zM334 715c34 0 66 -30 66 -86c0 -89 -72 -137 -97 -149c-9 -4 -15 -7 -21 -7c-4 0 -11 3 -11 8c0 4 3 8 7 11c27 17 47 50 47 92c0 11 -4 21 -8 25c-6 4 -38 11 -38 56c0 26 25 50 55 50z
" />
    <glyph glyph-name="ugrave" unicode="&#xf9;" horiz-adv-x="547" 
d="M533 25l-140 -35c-6 -2 -13 -4 -22 -4c-10 0 -16 5 -17 12l-6 54h-6c-20 -35 -78 -66 -132 -66c-40 0 -70 0 -105 46c-42 56 -38 88 -38 174l1 44c0 38 0 78 -1 100c-1 24 -22 33 -34 35c-17 3 -22 2 -22 7v20c0 6 2 8 11 8h146c6 0 10 1 14 2c4 0 8 1 11 1
c7 0 12 -5 11 -12c-1 -9 -4 -56 -4 -135v-54c0 -40 -6 -115 19 -154c15 -23 31 -21 49 -21c17 0 39 13 54 32c9 10 16 26 16 36l-1 235c0 25 -18 33 -43 35c-12 1 -17 2 -17 7v19c0 8 2 9 12 9h149c7 0 12 1 17 2c5 0 9 1 12 1c6 0 10 -5 9 -10c-1 -9 -6 -35 -6 -136v-74
c0 -48 0 -97 2 -115c3 -31 14 -35 18 -35c6 0 21 0 33 3c8 2 11 0 12 -4l3 -19c1 -5 -1 -7 -5 -8zM312 497l-14 -11c-2 -2 -5 -1 -7 1l-126 88c-41 29 -19 86 23 86c22 0 37 -13 50 -34l74 -122c2 -3 2 -6 0 -8z" />
    <glyph glyph-name="uacute" unicode="&#xfa;" horiz-adv-x="547" 
d="M533 25l-140 -35c-6 -2 -13 -4 -22 -4c-10 0 -16 5 -17 12l-6 54h-6c-20 -35 -78 -66 -132 -66c-40 0 -70 0 -105 46c-42 56 -38 88 -38 174l1 44c0 38 0 78 -1 100c-1 24 -22 33 -34 35c-17 3 -22 2 -22 7v20c0 6 2 8 11 8h146c6 0 10 1 14 2c4 0 8 1 11 1
c7 0 12 -5 11 -12c-1 -9 -4 -56 -4 -135v-54c0 -40 -6 -115 19 -154c15 -23 31 -21 49 -21c17 0 39 13 54 32c9 10 16 26 16 36l-1 235c0 25 -18 33 -43 35c-12 1 -17 2 -17 7v19c0 8 2 9 12 9h149c7 0 12 1 17 2c5 0 9 1 12 1c6 0 10 -5 9 -10c-1 -9 -6 -35 -6 -136v-74
c0 -48 0 -97 2 -115c3 -31 14 -35 18 -35c6 0 21 0 33 3c8 2 11 0 12 -4l3 -19c1 -5 -1 -7 -5 -8zM244 486l-14 11c-2 2 -2 5 0 8l74 122c13 21 29 34 50 34c43 0 64 -57 23 -86l-126 -88c-2 -2 -5 -3 -7 -1z" />
    <glyph glyph-name="ucircumflex" unicode="&#xfb;" horiz-adv-x="547" 
d="M533 25l-140 -35c-6 -2 -13 -4 -22 -4c-10 0 -16 5 -17 12l-6 54h-6c-20 -35 -78 -66 -132 -66c-40 0 -70 0 -105 46c-42 56 -38 88 -38 174l1 44c0 38 0 78 -1 100c-1 24 -22 33 -34 35c-17 3 -22 2 -22 7v20c0 6 2 8 11 8h146c6 0 10 1 14 2c4 0 8 1 11 1
c7 0 12 -5 11 -12c-1 -9 -4 -56 -4 -135v-54c0 -40 -6 -115 19 -154c15 -23 31 -21 49 -21c17 0 39 13 54 32c9 10 16 26 16 36l-1 235c0 25 -18 33 -43 35c-12 1 -17 2 -17 7v19c0 8 2 9 12 9h149c7 0 12 1 17 2c5 0 9 1 12 1c6 0 10 -5 9 -10c-1 -9 -6 -35 -6 -136v-74
c0 -48 0 -97 2 -115c3 -31 14 -35 18 -35c6 0 21 0 33 3c8 2 11 0 12 -4l3 -19c1 -5 -1 -7 -5 -8zM284 647l110 -141c3 -3 4 -6 2 -8l-8 -9c-2 -3 -5 -4 -9 -2l-109 64l-101 -62c-3 -2 -6 -4 -9 -1l-9 9c-2 2 -1 6 3 10l106 141c3 4 7 9 11 9s9 -5 13 -10z" />
    <glyph glyph-name="udieresis" unicode="&#xfc;" horiz-adv-x="547" 
d="M538 33c1 -5 -1 -7 -5 -8l-140 -35c-6 -2 -13 -4 -22 -4c-10 0 -16 5 -17 12l-6 54h-6c-20 -35 -78 -66 -132 -66c-40 0 -70 0 -105 46c-42 56 -40 88 -38 174l1 44c1 38 0 78 -1 100c-1 24 -22 33 -34 35c-17 3 -22 2 -22 7v20c0 6 2 8 11 8h146c6 0 10 1 14 2
c4 0 8 1 11 1c7 0 12 -5 11 -12c-1 -9 -4 -56 -4 -135v-54c0 -40 -6 -115 19 -154c15 -23 31 -21 49 -21c17 0 39 13 54 32c9 10 16 26 16 36l-1 235c0 25 -18 33 -43 35c-12 1 -17 2 -17 7v19c0 8 2 9 12 9h149c7 0 12 1 17 2c5 0 9 1 12 1c6 0 10 -5 9 -10
c-1 -9 -6 -35 -6 -136v-74c0 -48 0 -97 2 -115c3 -31 14 -35 18 -35c6 0 21 0 33 3c8 2 11 0 12 -4zM417 569c0 -35 -25 -56 -56 -56c-26 0 -65 12 -65 61c0 19 13 57 65 57c30 0 56 -21 56 -62zM233 569c0 -35 -25 -56 -58 -56c-26 0 -64 12 -64 61c0 19 13 57 64 57
c31 0 58 -21 58 -62z" />
    <glyph glyph-name="umacron" unicode="&#x16b;" horiz-adv-x="547" 
d="M533 25l-140 -35c-6 -2 -13 -4 -22 -4c-10 0 -16 5 -17 12l-6 54h-6c-20 -35 -78 -66 -132 -66c-40 0 -70 0 -105 46c-42 56 -38 88 -38 174l1 44c0 38 0 78 -1 100c-1 24 -22 33 -34 35c-17 3 -22 2 -22 7v20c0 6 2 8 11 8h146c6 0 10 1 14 2c4 0 8 1 11 1
c7 0 12 -5 11 -12c-1 -9 -4 -56 -4 -135v-54c0 -40 -6 -115 19 -154c15 -23 31 -21 49 -21c17 0 39 13 54 32c9 10 16 26 16 36l-1 235c0 25 -18 33 -43 35c-12 1 -17 2 -17 7v19c0 8 2 9 12 9h149c7 0 12 1 17 2c5 0 9 1 12 1c6 0 10 -5 9 -10c-1 -9 -6 -35 -6 -136v-74
c0 -48 0 -97 2 -115c3 -31 14 -35 18 -35c6 0 21 0 33 3c8 2 11 0 12 -4l3 -19c1 -5 -1 -7 -5 -8zM155 519v59c0 5 2 7 8 7h220c6 0 9 -2 9 -7v-59c0 -5 -5 -7 -11 -7h-218c-7 0 -8 2 -8 7z" />
    <glyph glyph-name="uring" unicode="&#x16f;" horiz-adv-x="547" 
d="M533 25l-140 -35c-6 -2 -13 -4 -22 -4c-10 0 -16 5 -17 12l-6 54h-6c-20 -35 -78 -66 -132 -66c-40 0 -70 0 -105 46c-42 56 -38 88 -38 174l1 44c0 38 0 78 -1 100c-1 24 -22 33 -34 35c-17 3 -22 2 -22 7v20c0 6 2 8 11 8h146c6 0 10 1 14 2c4 0 8 1 11 1
c7 0 12 -5 11 -12c-1 -9 -4 -56 -4 -135v-54c0 -40 -6 -115 19 -154c15 -23 31 -21 49 -21c17 0 39 13 54 32c9 10 16 26 16 36l-1 235c0 25 -18 33 -43 35c-12 1 -17 2 -17 7v19c0 8 2 9 12 9h149c7 0 12 1 17 2c5 0 9 1 12 1c6 0 10 -5 9 -10c-1 -9 -6 -35 -6 -136v-74
c0 -48 0 -97 2 -115c3 -31 14 -35 18 -35c6 0 21 0 33 3c8 2 11 0 12 -4l3 -19c1 -5 -1 -7 -5 -8zM269 495c-65 0 -113 32 -112 81c-1 56 54 90 121 90c65 0 113 -32 113 -80c5 -59 -58 -91 -122 -91zM273 529c27 0 46 18 46 53c0 34 -19 50 -42 50c-28 0 -49 -19 -49 -50
c0 -34 18 -53 45 -53z" />
    <glyph glyph-name="uhungarumlaut" unicode="&#x171;" horiz-adv-x="547" 
d="M533 25l-140 -35c-6 -2 -13 -4 -22 -4c-10 0 -16 5 -17 12l-6 54h-6c-20 -35 -78 -66 -132 -66c-40 0 -70 0 -105 46c-42 56 -38 88 -38 174l1 44c0 38 0 78 -1 100c-1 24 -22 33 -34 35c-17 3 -22 2 -22 7v20c0 6 2 8 11 8h146c6 0 10 1 14 2c4 0 8 1 11 1
c7 0 12 -5 11 -12c-1 -9 -4 -56 -4 -135v-54c0 -40 -6 -115 19 -154c15 -23 31 -21 49 -21c17 0 39 13 54 32c9 10 16 26 16 36l-1 235c0 25 -18 33 -43 35c-12 1 -17 2 -17 7v19c0 8 2 9 12 9h149c7 0 12 1 17 2c5 0 9 1 12 1c6 0 10 -5 9 -10c-1 -9 -6 -35 -6 -136v-74
c0 -48 0 -97 2 -115c3 -31 14 -35 18 -35c6 0 21 0 33 3c8 2 11 0 12 -4l3 -19c1 -5 -1 -7 -5 -8zM135 486l-14 11c-2 2 -2 5 0 8l74 122c13 21 30 34 50 34c41 0 55 -49 17 -79l-120 -95c-2 -2 -5 -3 -7 -1zM281 486l-14 11c-2 2 -2 5 0 8l74 122c13 21 30 34 50 34
c39 0 48 -53 19 -76l-122 -98c-2 -2 -5 -3 -7 -1z" />
    <glyph glyph-name="uogonek" unicode="&#x173;" horiz-adv-x="547" 
d="M438 420c7 0 12 1 17 2c5 0 9 1 12 1c6 0 10 -5 9 -10c-1 -9 -6 -35 -6 -136v-74c0 -48 0 -97 2 -115c3 -31 14 -35 18 -35c6 0 21 0 33 3c8 2 11 0 12 -4l3 -19c1 -5 -1 -7 -5 -7c-35 -9 -61 -14 -86 -30c-46 -29 -69 -86 -69 -144c0 -41 20 -65 49 -65s50 19 63 30
c7 7 13 11 16 11c8 0 11 -9 11 -17c0 -26 -50 -83 -132 -83c-58 0 -111 34 -111 102s46 114 96 159c-11 13 -19 37 -22 63h-6c-20 -35 -78 -66 -132 -66c-40 0 -70 0 -105 46c-42 56 -40 88 -38 174l1 44c1 38 0 78 -1 100c-1 24 -22 33 -34 35c-17 3 -22 2 -22 7v20
c0 6 2 8 11 8h146c6 0 10 1 14 2c4 0 8 1 11 1c7 0 12 -5 11 -12c-1 -9 -4 -56 -4 -135v-54c0 -40 -6 -115 19 -154c15 -23 31 -21 49 -21c17 0 39 13 54 32c9 10 16 26 16 36l-1 235c0 25 -18 33 -43 35c-12 1 -17 2 -17 7v19c0 8 2 9 12 9h149z" />
    <glyph glyph-name="yacute" unicode="&#xfd;" horiz-adv-x="442" 
d="M44 -272c-35 0 -62 21 -62 58c0 33 24 57 49 57c14 0 28 -3 42 -11c12 -8 24 -9 32 -4c10 7 62 116 74 151c-8 35 -133 347 -140 363c-10 25 -21 43 -35 43h-16c-7 0 -8 3 -8 9v22c0 4 1 7 8 7c9 0 33 -3 120 -3c61 0 92 3 103 3c8 0 9 -3 9 -9v-21c0 -5 -1 -8 -6 -8h-14
c-11 0 -20 -7 -18 -23c3 -17 59 -210 66 -232h5c25 57 79 196 85 215c8 27 -5 40 -25 40h-16c-6 0 -7 3 -7 8v22c0 5 1 8 6 8c13 0 34 -3 90 -3c42 0 65 3 76 3c6 0 6 -4 6 -10v-19c0 -6 0 -9 -5 -9h-11c-11 0 -25 -4 -37 -20c-18 -24 -88 -173 -164 -337
c-51 -109 -94 -202 -113 -234c-16 -27 -38 -66 -94 -66zM251 486l-14 11c-2 2 -2 5 0 8l74 122c13 21 29 34 50 34c43 0 64 -57 23 -86l-126 -88c-2 -2 -5 -3 -7 -1z" />
    <glyph glyph-name="ydieresis" unicode="&#xff;" horiz-adv-x="442" 
d="M468 394c0 -6 0 -9 -5 -9h-11c-11 0 -25 -4 -37 -20c-18 -24 -88 -173 -164 -337c-51 -109 -94 -202 -113 -234c-16 -27 -38 -66 -94 -66c-35 0 -62 21 -62 58c0 33 24 57 49 57c14 0 28 -3 42 -11c12 -8 24 -9 32 -4c10 7 62 116 74 151c-8 35 -133 347 -140 363
c-10 25 -21 43 -35 43h-16c-7 0 -8 3 -8 9v22c0 4 1 7 8 7c9 0 33 -3 120 -3c61 0 92 3 103 3c8 0 9 -3 9 -9v-21c0 -5 -1 -8 -6 -8h-14c-11 0 -20 -7 -18 -23c3 -17 59 -210 66 -232h5c25 57 79 196 85 215c8 27 -5 40 -25 40h-16c-6 0 -7 3 -7 8v22c0 5 1 8 6 8
c13 0 34 -3 90 -3c42 0 65 3 76 3c6 0 6 -4 6 -10v-19zM399 569c0 -35 -25 -56 -56 -56c-26 0 -65 12 -65 61c0 19 13 57 65 57c30 0 56 -21 56 -62zM215 569c0 -35 -25 -56 -58 -56c-26 0 -64 12 -64 61c0 19 13 57 64 57c31 0 58 -21 58 -62z" />
    <glyph glyph-name="zacute" unicode="&#x17a;" horiz-adv-x="454" 
d="M189 36h90c28 0 78 17 152 103c6 7 10 7 13 5l13 -10c4 -3 5 -5 2 -10l-67 -136c-16 6 -65 9 -115 10c-50 2 -101 2 -122 2h-117c-11 0 -16 7 -4 26l232 359h-70c-53 0 -77 -9 -157 -109c-4 -5 -8 -4 -12 -1l-12 8c-3 2 -4 5 -2 10l56 144c22 -5 41 -9 58 -11
c37 -5 55 -6 136 -6h155c10 0 15 -10 9 -20zM187 486l-14 11c-2 2 -2 5 0 8l74 122c13 21 29 34 50 34c43 0 64 -57 23 -86l-126 -88c-2 -2 -5 -3 -7 -1z" />
    <glyph glyph-name="zdotaccent" unicode="&#x17c;" horiz-adv-x="454" 
d="M189 36h90c28 0 78 17 152 103c6 7 10 7 13 5l13 -10c4 -3 5 -5 2 -10l-67 -136c-16 6 -65 9 -115 10c-50 2 -101 2 -122 2h-117c-11 0 -16 7 -4 26l232 359h-70c-53 0 -77 -9 -157 -109c-4 -5 -8 -4 -12 -1l-12 8c-3 2 -4 5 -2 10l56 144c22 -5 41 -9 58 -11
c37 -5 55 -6 136 -6h155c10 0 15 -10 9 -20zM322 581c0 -32 -22 -67 -76 -68c-40 -1 -70 26 -70 65c0 32 33 61 75 61c47 0 71 -30 71 -58z" />
    <glyph glyph-name="zcaron" unicode="&#x17e;" horiz-adv-x="454" 
d="M189 36h90c28 0 78 17 152 103c6 7 10 7 13 5l13 -10c4 -3 5 -5 2 -10l-67 -136c-16 6 -65 9 -115 10c-50 2 -101 2 -122 2h-117c-11 0 -16 7 -4 26l232 359h-70c-53 0 -77 -9 -157 -109c-4 -5 -8 -4 -12 -1l-12 8c-3 2 -4 5 -2 10l56 144c22 -5 41 -9 58 -11
c37 -5 55 -6 136 -6h155c10 0 15 -10 9 -20zM362 637l-106 -141c-3 -4 -7 -9 -11 -9s-9 5 -13 10l-110 141c-3 3 -4 6 -2 8l8 9c2 3 5 4 9 2l110 -63l100 61c3 2 6 4 9 1l9 -9c2 -2 1 -6 -3 -10z" />
    <glyph glyph-name="eth" unicode="&#xf0;" horiz-adv-x="506" 
d="M267 27c48 0 69 60 69 118c0 78 0 148 -12 182c-15 44 -38 61 -72 61c-22 0 -43 -7 -61 -29c-22 -28 -27 -67 -27 -118c0 -61 17 -137 36 -168c17 -29 38 -46 67 -46zM125 713l10 19c1 3 3 5 5 5s5 -1 8 -2c38 -13 94 -39 150 -81l107 57c6 3 12 2 15 -3l13 -25
c3 -5 1 -10 -4 -13l-92 -49c7 -7 22 -20 51 -61c48 -68 79 -151 84 -272c5 -131 -47 -302 -237 -302c-56 0 -87 4 -130 38c-47 37 -75 87 -75 165c0 64 23 139 84 190c44 37 83 50 147 50c18 0 40 -8 64 -19c-12 66 -41 138 -69 172l-131 -72c-5 -3 -10 -3 -13 3l-14 26
c-2 4 -2 8 3 11l126 68c-28 32 -76 68 -97 79c-5 3 -7 5 -7 8s1 6 2 8z" />
    <glyph glyph-name="thorn" unicode="&#xfe;" horiz-adv-x="540" 
d="M207 2l2 -153c1 -81 11 -86 35 -86h25c8 0 9 -4 9 -10v-19c0 -6 -2 -9 -9 -9c-5 0 -39 3 -128 3c-73 0 -108 -3 -116 -3c-7 0 -9 3 -9 9v21c0 5 2 8 7 8h29c17 0 24 10 25 26c2 22 2 52 2 109l-4 618c0 34 -3 63 -31 74l-22 8c-5 2 -7 5 -7 9v13c0 3 2 5 7 6
c45 11 101 27 142 47c12 6 20 10 28 10c6 0 11 -7 11 -21l-3 -282l4 -2c31 30 80 56 127 56c65 0 98 -21 125 -51c42 -47 54 -68 54 -147c0 -133 -92 -250 -230 -250c-14 0 -46 1 -73 16zM209 338l-1 -234c0 -19 7 -43 27 -57c13 -9 35 -22 57 -22c52 0 83 41 83 139
c0 62 -13 125 -30 156c-18 32 -43 46 -67 46s-51 -7 -69 -28z" />
    <glyph glyph-name="grave" unicode="`" horiz-adv-x="230" 
d="M199 497l-14 -11c-2 -2 -5 -1 -7 1l-126 88c-41 29 -19 86 23 86c22 0 37 -13 50 -34l74 -122c2 -3 2 -6 0 -8z" />
    <glyph glyph-name="dieresis" unicode="&#xa8;" horiz-adv-x="366" 
d="M336 569c0 -35 -25 -56 -56 -56c-26 0 -65 12 -65 61c0 19 13 57 65 57c30 0 56 -21 56 -62zM152 569c0 -35 -25 -56 -58 -56c-26 0 -64 12 -64 61c0 19 13 57 64 57c31 0 58 -21 58 -62z" />
    <glyph glyph-name="macron" unicode="&#xaf;" horiz-adv-x="297" 
d="M30 519v59c0 5 2 7 8 7h220c6 0 9 -2 9 -7v-59c0 -5 -5 -7 -11 -7h-218c-7 0 -8 2 -8 7z" />
    <glyph glyph-name="acute" unicode="&#xb4;" horiz-adv-x="230" 
d="M45 486l-14 11c-2 2 -2 5 0 8l74 122c13 21 29 34 50 34c43 0 64 -57 23 -86l-126 -88c-2 -2 -5 -3 -7 -1z" />
    <glyph glyph-name="cedilla" unicode="&#xb8;" horiz-adv-x="268" 
d="M154 5h57l-58 -71c54 -9 85 -40 85 -72c0 -64 -88 -98 -188 -98c-16 0 -20 9 -20 20c0 12 15 14 32 14c36 0 74 18 74 54c0 25 -22 39 -62 49z" />
    <glyph glyph-name="circumflex" unicode="&#x2c6;" horiz-adv-x="307" 
d="M164 647l110 -141c3 -3 4 -6 2 -8l-8 -9c-2 -3 -5 -4 -9 -2l-109 64l-101 -62c-3 -2 -6 -4 -9 -1l-9 9c-2 2 -1 6 3 10l106 141c3 4 7 9 11 9s9 -5 13 -10z" />
    <glyph glyph-name="caron" unicode="&#x2c7;" horiz-adv-x="307" 
d="M273 637l-106 -141c-3 -4 -7 -9 -11 -9s-9 5 -13 10l-110 141c-3 3 -4 6 -2 8l8 9c2 3 5 4 9 2l110 -63l100 61c3 2 6 4 9 1l9 -9c2 -2 1 -6 -3 -10z" />
    <glyph glyph-name="breve" unicode="&#x2d8;" horiz-adv-x="326" 
d="M161 485c-64 0 -122 56 -131 119c-1 6 0 9 4 12l10 6c2 1 4 0 8 -6c24 -34 69 -44 109 -44c51 0 97 24 112 44c3 4 5 7 9 5l11 -7c4 -2 3 -4 2 -8c-11 -49 -70 -121 -134 -121z" />
    <glyph glyph-name="dotaccent" unicode="&#x2d9;" horiz-adv-x="194" 
d="M172 581c0 -32 -22 -67 -76 -68c-40 -1 -70 26 -70 65c0 32 33 61 75 61c47 0 71 -30 71 -58z" />
    <glyph glyph-name="ring" unicode="&#x2da;" horiz-adv-x="294" 
d="M142 495c-65 0 -113 32 -112 81c-1 56 54 90 121 90c65 0 113 -32 113 -80c5 -59 -58 -91 -122 -91zM146 529c27 0 46 18 46 53c0 34 -19 50 -42 50c-28 0 -49 -19 -49 -50c0 -34 18 -53 45 -53z" />
    <glyph glyph-name="ogonek" unicode="&#x2db;" horiz-adv-x="267" 
d="M121 -272c-55 0 -111 34 -111 97c0 79 89 149 139 180h55c-46 -36 -90 -90 -90 -153c0 -41 20 -65 49 -65s50 19 63 30c7 7 13 11 16 11c8 0 11 -9 11 -17c0 -26 -50 -83 -132 -83z" />
    <glyph glyph-name="tilde" unicode="&#x2dc;" horiz-adv-x="341" 
d="M290 614h17c4 0 6 -4 3 -18c-8 -39 -34 -89 -81 -89c-34 0 -58 10 -78 16c-24 8 -42 13 -53 13c-16 0 -34 -12 -39 -37c-1 -4 -4 -5 -7 -5h-18c-4 0 -6 4 -3 17c9 53 42 96 83 96c28 0 58 -11 76 -16c27 -7 46 -14 60 -14c22 0 29 14 33 31c1 4 3 6 7 6z" />
    <glyph glyph-name="hungarumlaut" unicode="&#x2dd;" horiz-adv-x="367" 
d="M45 486l-14 11c-2 2 -2 5 0 8l74 122c13 21 30 34 50 34c41 0 55 -49 17 -79l-120 -95c-2 -2 -5 -3 -7 -1zM191 486l-14 11c-2 2 -2 5 0 8l74 122c13 21 30 34 50 34c39 0 48 -53 19 -76l-122 -98c-2 -2 -5 -3 -7 -1z" />
    <glyph glyph-name="space_uni0326" horiz-adv-x="200" 
d="M81 -60c39 0 78 -30 78 -86c-1 -89 -82 -143 -95 -151c-9 -5 -17 -8 -24 -8c-5 0 -8 3 -8 8c0 4 4 9 9 11c12 9 45 53 45 95c0 11 -6 21 -12 25c-8 4 -44 12 -44 57c0 26 21 49 51 49z" />
    <glyph glyph-name="AE" unicode="&#xc6;" horiz-adv-x="958" 
d="M396 80v236h-189c-44 -76 -92 -194 -99 -211c-7 -19 -7 -33 -7 -44c0 -16 18 -23 30 -23h27c8 0 10 -4 10 -8v-22c0 -8 -1 -11 -9 -11c-12 0 -37 3 -112 3c-63 0 -96 -3 -109 -3c-6 0 -7 6 -7 15v17c0 6 1 9 7 9h29c20 0 37 23 54 44c15 20 115 194 163 282
c35 64 136 236 147 260c14 29 0 47 -16 47h-15c-7 0 -9 3 -9 9v22c0 8 4 9 11 9c6 0 17 -1 40 -1c23 -1 59 -2 115 -2h351c8 0 17 1 24 2c8 0 14 1 16 1c5 0 7 -2 8 -5c4 -14 37 -151 41 -161c2 -5 2 -7 -3 -10l-16 -8c-4 -2 -9 -1 -12 4c-5 8 -95 98 -118 112
c-21 13 -49 26 -76 27l-132 4l-3 -318c46 0 90 3 102 6c17 4 34 11 46 27c11 15 23 43 23 62c0 7 3 9 8 9l27 -3c5 -1 9 -2 8 -8c-3 -17 -3 -69 -3 -104c0 -45 4 -93 6 -114c1 -6 -3 -7 -8 -8l-24 -5c-4 -1 -6 1 -8 8c-4 16 -14 39 -20 51c-11 19 -35 32 -55 35
c-27 3 -58 5 -102 4v-27c0 -54 4 -151 4 -169c1 -52 12 -70 25 -76c15 -6 34 -9 84 -9c17 0 59 1 80 3c20 2 50 12 76 33s82 83 102 107c4 4 7 5 10 3l17 -10c4 -2 5 -5 4 -8l-45 -151c-3 -9 -10 -15 -22 -15c-10 0 -89 3 -403 3c-89 0 -125 -3 -143 -3c-8 0 -10 3 -10 11
v21c0 7 3 9 9 9h47c20 0 24 8 24 42zM230 356h166v270c0 9 -2 14 -7 14c-4 0 -6 -4 -10 -10z" />
    </font>
</defs>
</svg>
